<svg width="1240" height="683" viewBox="0 0 1240 683" fill="none" xmlns="http://www.w3.org/2000/svg">
<g clip-path="url(#clip0_593_2671)">
<path d="M546.682 636.473C524.373 608.582 511.707 566.856 508.69 511.32C505.689 456.097 513.763 413.411 532.922 383.266C552.082 353.122 581.29 336.983 620.565 334.85C659.835 332.722 690.629 345.613 712.938 373.504C735.247 401.407 747.907 442.967 750.907 498.189C753.908 553.417 745.834 596.172 726.686 626.476C707.538 656.781 678.324 672.994 639.061 675.127C599.78 677.261 568.997 664.382 546.682 636.473Z" fill="white"/>
<path d="M546.682 636.473C524.373 608.582 511.707 566.856 508.69 511.32C505.689 456.097 513.763 413.411 532.922 383.266C552.082 353.122 581.29 336.983 620.565 334.85C659.835 332.722 690.629 345.613 712.938 373.504C735.247 401.407 747.907 442.967 750.907 498.189C753.908 553.417 745.834 596.172 726.686 626.476C707.538 656.781 678.324 672.994 639.061 675.127C599.78 677.261 568.997 664.382 546.682 636.473Z" stroke="#60D38E" stroke-width="5.72605" stroke-miterlimit="10"/>
<path d="M681.525 595.651C690.194 575.52 693.378 544.112 691.059 501.437C688.723 458.453 682.155 427.577 671.373 408.807C660.585 390.038 644.506 381.236 623.148 382.391C601.784 383.552 586.759 394.121 578.084 414.097C569.397 434.085 566.219 465.408 568.538 508.077C570.857 550.752 577.414 581.628 588.225 600.707C599.024 619.791 615.108 628.752 636.472 627.591C657.83 626.436 672.85 615.793 681.525 595.651Z" fill="#E5FAF1"/>
<path d="M681.525 595.651C690.194 575.52 693.378 544.112 691.059 501.437C688.723 458.453 682.155 427.577 671.373 408.807C660.585 390.038 644.506 381.236 623.148 382.391C601.784 383.552 586.759 394.121 578.084 414.097C569.397 434.085 566.219 465.408 568.538 508.077C570.857 550.752 577.414 581.628 588.225 600.707C599.024 619.791 615.108 628.752 636.472 627.591C657.83 626.436 672.85 615.793 681.525 595.651Z" stroke="#60D38E" stroke-width="5.72605" stroke-miterlimit="10"/>
<path d="M817.473 506.481H426.984V511.68H817.473V506.481Z" fill="#60D38E"/>
<path d="M1079.45 511.697H1031.8C1031.57 511.697 1031.38 511.502 1031.38 511.268V508.226C1031.38 507.991 1031.57 507.797 1031.8 507.797H1079.45C1079.69 507.797 1079.88 507.991 1079.88 508.226V511.268C1079.88 511.502 1079.69 511.697 1079.45 511.697Z" fill="#60D38E"/>
<path d="M212.246 511.697H164.599C164.365 511.697 164.17 511.502 164.17 511.268V508.226C164.17 507.991 164.365 507.797 164.599 507.797H212.246C212.481 507.797 212.675 507.991 212.675 508.226V511.268C212.675 511.502 212.481 511.697 212.246 511.697Z" fill="#60D38E"/>
<path d="M1037.73 591.208H989.802C989.642 591.208 989.516 591.082 989.516 590.922V588.891C989.516 588.731 989.642 588.605 989.802 588.605H1037.73C1037.9 588.605 1038.02 588.731 1038.02 588.891V590.922C1038.02 591.082 1037.9 591.208 1037.73 591.208Z" fill="#C4CEFE"/>
<path d="M235.586 174.176C244.684 174.176 252.592 167.576 253.823 158.575C254.041 156.962 254.155 155.309 254.155 153.639C254.155 133.594 237.887 117.347 217.818 117.347C216.993 117.347 216.18 117.387 215.367 117.438C213.706 97.6734 197.129 82.1465 176.911 82.1465C155.593 82.1465 138.306 99.4063 138.306 120.704C138.306 121.647 138.352 122.579 138.42 123.512C132.368 120.137 125.319 118.33 117.818 118.673C98.4295 119.56 82.4939 135.053 81.1254 154.388C81.1139 154.543 81.1024 154.697 81.0967 154.846C80.4726 165.363 88.9872 174.182 99.5346 174.182H235.586V174.176Z" fill="#E5FAF1"/>
<path d="M1185.4 263.174C1214.14 263.174 1215.73 219.985 1187.03 218.589C1186.25 218.549 1185.46 218.532 1184.67 218.532C1179.54 218.532 1174.61 219.344 1169.98 220.831C1166.14 197.452 1145.83 179.615 1121.33 179.615C1096.3 179.615 1075.64 198.253 1072.46 222.387C1066.53 219.544 1059.87 217.949 1052.85 217.949C1048.92 217.949 1045.11 218.446 1041.48 219.379C1016.35 225.841 1021.63 263.18 1047.57 263.18H1185.4V263.174Z" fill="#E5FAF1"/>
<path d="M934.709 83.6853C963.436 83.6853 965.023 40.5072 936.335 39.1118C935.551 39.0717 934.76 39.0546 933.97 39.0546C928.851 39.0546 923.915 39.8667 919.289 41.3479C915.446 17.9745 895.142 0.142822 870.657 0.142822C845.629 0.142822 824.975 18.7752 821.797 42.9034C815.859 40.0611 809.205 38.4655 802.185 38.4655C798.263 38.4655 794.455 38.9631 790.819 39.8953C765.699 46.3577 770.972 83.6795 796.911 83.6795H934.709V83.6853Z" fill="#E5FAF1"/>
<path d="M959.2 181.63C959.781 160.243 951.439 142.666 940.568 142.372C929.696 142.078 920.413 159.177 919.832 180.564C919.252 201.951 927.594 219.527 938.465 219.821C949.336 220.116 958.62 203.017 959.2 181.63Z" fill="#E5FAF1"/>
<path d="M254.77 285.44C255.234 268.36 248.773 254.328 240.339 254.1C231.905 253.871 224.692 267.533 224.228 284.613C223.765 301.694 230.226 315.725 238.66 315.954C247.094 316.182 254.307 302.521 254.77 285.44Z" fill="#E5FAF1"/>
<path d="M83.2943 245.158C83.943 221.261 77.1859 201.691 68.2019 201.448C59.2179 201.205 51.4091 220.38 50.7605 244.277C50.1118 268.174 56.8689 287.744 65.8529 287.987C74.8368 288.23 82.6456 269.055 83.2943 245.158Z" fill="#E5FAF1"/>
<path d="M1134.3 363.98C1135 338.324 1127.08 317.296 1116.61 317.013C1106.14 316.73 1097.09 337.298 1096.4 362.953C1095.7 388.609 1103.62 409.637 1114.09 409.92C1124.55 410.204 1133.6 389.635 1134.3 363.98Z" fill="#E5FAF1"/>
<path d="M555.224 294.342L692.839 253.978C695.415 253.223 696.893 250.524 696.131 247.95L639.964 56.9259C639.208 54.3524 636.506 52.8769 633.929 53.6375L539.707 81.2715C538.504 81.6261 537.479 82.4267 536.855 83.5191L505.694 137.861C505.035 139.01 504.875 140.371 505.247 141.641L549.178 291.054C549.945 293.622 552.648 295.097 555.224 294.342Z" fill="white"/>
<path d="M555.224 294.342L692.839 253.978C695.415 253.223 696.893 250.524 696.131 247.95L639.964 56.9259C639.208 54.3524 636.506 52.8769 633.929 53.6375L539.707 81.2715C538.504 81.6261 537.479 82.4267 536.855 83.5191L505.694 137.861C505.035 139.01 504.875 140.371 505.247 141.641L549.178 291.054C549.945 293.622 552.648 295.097 555.224 294.342Z" stroke="#60D38E" stroke-width="4.58084" stroke-miterlimit="10" stroke-linecap="round" stroke-linejoin="round"/>
<path d="M539.054 84.2341L550.54 123.312C551.348 126.057 549.779 128.939 547.036 129.763L506.141 141.95" fill="white"/>
<path d="M539.054 84.2341L550.54 123.312C551.348 126.057 549.779 128.939 547.036 129.763L506.141 141.95" stroke="#60D38E" stroke-width="4.58084" stroke-miterlimit="10" stroke-linecap="round" stroke-linejoin="round"/>
<path d="M576.186 263.14L568.392 265.427C567.786 265.605 567.15 265.256 566.972 264.65L557.347 231.92C557.17 231.314 557.519 230.679 558.126 230.502L565.919 228.214C566.526 228.037 567.161 228.386 567.339 228.992L576.964 261.722C577.142 262.328 576.793 262.963 576.186 263.14Z" fill="#A9EFD3"/>
<path d="M616.149 251.422L608.355 253.709C607.748 253.887 607.113 253.538 606.935 252.932L600.247 230.182C600.07 229.575 600.419 228.941 601.026 228.763L608.819 226.476C609.426 226.298 610.062 226.647 610.239 227.254L616.927 250.004C617.105 250.604 616.756 251.245 616.149 251.422Z" fill="#A9EFD3"/>
<path d="M636.133 245.56L628.34 247.847C627.733 248.025 627.097 247.676 626.92 247.07L617.294 214.34C617.117 213.734 617.466 213.099 618.073 212.922L625.866 210.634C626.473 210.457 627.109 210.806 627.286 211.412L636.912 244.142C637.089 244.748 636.74 245.383 636.133 245.56Z" fill="#A9EFD3"/>
<path d="M596.168 257.284L588.375 259.571C587.768 259.749 587.133 259.4 586.955 258.793L574.398 216.084C574.22 215.478 574.57 214.843 575.177 214.666L582.97 212.378C583.577 212.201 584.212 212.55 584.39 213.156L596.947 255.865C597.119 256.466 596.775 257.101 596.168 257.284Z" fill="#A9EFD3"/>
<path d="M536.873 162.281L629.291 135.173" stroke="#8FEAC5" stroke-width="3.43563" stroke-miterlimit="10" stroke-linecap="round" stroke-linejoin="round"/>
<path d="M541.275 177.247L633.694 150.145" stroke="#8FEAC5" stroke-width="3.43563" stroke-miterlimit="10" stroke-linecap="round" stroke-linejoin="round"/>
<path d="M545.672 192.214L638.09 165.111" stroke="#8FEAC5" stroke-width="3.43563" stroke-miterlimit="10" stroke-linecap="round" stroke-linejoin="round"/>
<path d="M742.947 242.786L746.377 235.506C747.03 234.116 746.349 232.469 744.9 231.954L698.84 215.432L696.818 219.075L739.271 243.93C740.594 244.696 742.295 244.17 742.947 242.786Z" fill="#60D38E"/>
<path d="M664.278 241.705C684.887 241.705 701.594 225.019 701.594 204.435C701.594 183.851 684.887 167.164 664.278 167.164C643.668 167.164 626.961 183.851 626.961 204.435C626.961 225.019 643.668 241.705 664.278 241.705Z" fill="#A9EFD3"/>
<path d="M664.277 233.933C680.589 233.933 693.812 220.726 693.812 204.435C693.812 188.143 680.589 174.936 664.277 174.936C647.965 174.936 634.742 188.143 634.742 204.435C634.742 220.726 647.965 233.933 664.277 233.933Z" fill="white"/>
<path d="M664.278 241.705C684.887 241.705 701.594 225.019 701.594 204.435C701.594 183.851 684.887 167.164 664.278 167.164C643.668 167.164 626.961 183.851 626.961 204.435C626.961 225.019 643.668 241.705 664.278 241.705Z" stroke="#60D38E" stroke-width="4.58084" stroke-linecap="round" stroke-linejoin="round"/>
<path d="M664.456 190.132L664.232 208.329" stroke="#60D38E" stroke-width="4.58084" stroke-linecap="round" stroke-linejoin="round"/>
<ellipse cx="664.101" cy="218.732" rx="2.29042" ry="2.28758" fill="#60D38E"/>
<path d="M664.101 218.744C664.108 218.744 664.113 218.738 664.113 218.732C664.113 218.726 664.108 218.721 664.101 218.721C664.095 218.721 664.09 218.726 664.09 218.732C664.09 218.738 664.095 218.744 664.101 218.744Z" stroke="#60D38E" stroke-width="4.58084" stroke-linecap="round" stroke-linejoin="round"/>
<path d="M1060.65 502.015L1023.94 509.381L1038.69 582.715L960.086 598.488L945.335 525.154L801.314 554.057L789.873 497.177L877.894 272.639L972.494 253.652L1010.32 441.686L1047.03 434.32L1060.65 502.015ZM911.191 355.455L869.585 469.926L931.713 457.458L911.191 355.455Z" fill="#60D38E"/>
<path d="M454.876 539.983L417.943 533.835L405.632 607.615L326.55 594.45L338.861 520.67L193.957 496.548L203.508 439.318L365.699 260.704L460.877 276.551L429.303 465.734L466.237 471.882L454.876 539.983ZM367.353 349.931L287.721 442.155L350.227 452.558L367.353 349.931Z" fill="#60D38E"/>
<path d="M1353.41 511.691H-0.277344V683.26H1353.41V511.691Z" fill="white"/>
<path d="M227.225 594.776H179.292C179.132 594.776 179.006 594.65 179.006 594.49V592.46C179.006 592.3 179.132 592.174 179.292 592.174H227.225C227.385 592.174 227.511 592.3 227.511 592.46V594.49C227.511 594.65 227.38 594.776 227.225 594.776Z" fill="#A9EFD3"/>
<path d="M358.842 594.776H310.909C310.749 594.776 310.623 594.65 310.623 594.49V592.46C310.623 592.3 310.749 592.174 310.909 592.174H358.842C359.002 592.174 359.128 592.3 359.128 592.46V594.49C359.128 594.65 358.997 594.776 358.842 594.776Z" fill="#A9EFD3"/>
<path d="M478.633 563.9H430.7C430.54 563.9 430.414 563.774 430.414 563.614V561.583C430.414 561.423 430.54 561.297 430.7 561.297H478.633C478.793 561.297 478.919 561.423 478.919 561.583V563.614C478.919 563.774 478.788 563.9 478.633 563.9Z" fill="#A9EFD3"/>
<path d="M546.762 598.042H498.829C498.669 598.042 498.543 597.916 498.543 597.756V595.726C498.543 595.565 498.669 595.44 498.829 595.44H546.762C546.923 595.44 547.048 595.565 547.048 595.726V597.756C547.048 597.916 546.917 598.042 546.762 598.042Z" fill="#A9EFD3"/>
<path d="M714.856 598.042H666.923C666.763 598.042 666.637 597.916 666.637 597.756V595.726C666.637 595.565 666.763 595.44 666.923 595.44H714.856C715.016 595.44 715.142 595.565 715.142 595.726V597.756C715.142 597.916 715.01 598.042 714.856 598.042Z" fill="#A9EFD3"/>
<path d="M902.911 596.114H854.978C854.817 596.114 854.691 595.989 854.691 595.828V593.798C854.691 593.638 854.817 593.512 854.978 593.512H902.911C903.071 593.512 903.197 593.638 903.197 593.798V595.828C903.197 595.989 903.071 596.114 902.911 596.114Z" fill="#A9EFD3"/>
<path d="M305.5 558.895H257.568C257.407 558.895 257.281 558.77 257.281 558.61V556.579C257.281 556.419 257.407 556.293 257.568 556.293H305.5C305.661 556.293 305.787 556.419 305.787 556.579V558.61C305.787 558.77 305.661 558.895 305.5 558.895Z" fill="#A9EFD3"/>
<path d="M640.182 557.632H592.249C592.089 557.632 591.963 557.506 591.963 557.346V555.315C591.963 555.155 592.089 555.03 592.249 555.03H640.182C640.342 555.03 640.468 555.155 640.468 555.315V557.346C640.468 557.5 640.342 557.632 640.182 557.632Z" fill="#A9EFD3"/>
<path d="M981.182 557.426H933.249C933.089 557.426 932.963 557.3 932.963 557.14V555.11C932.963 554.949 933.089 554.824 933.249 554.824H981.182C981.342 554.824 981.468 554.949 981.468 555.11V557.14C981.468 557.3 981.337 557.426 981.182 557.426Z" fill="#A9EFD3"/>
<path d="M813.338 545.319H765.405C765.245 545.319 765.119 545.193 765.119 545.033V543.003C765.119 542.842 765.245 542.717 765.405 542.717H813.338C813.499 542.717 813.625 542.842 813.625 543.003V545.033C813.625 545.193 813.499 545.319 813.338 545.319Z" fill="#A9EFD3"/>
</g>
<defs>
<clipPath id="clip0_593_2671">
<rect width="1240" height="683" fill="white"/>
</clipPath>
</defs>
</svg>
