<svg width="341" height="371" viewBox="0 0 341 371" fill="none" xmlns="http://www.w3.org/2000/svg">
<g opacity="0.9">
<path d="M117.936 261.222C117.936 270.342 110.544 277.735 101.424 277.735C92.3048 277.735 84.9121 270.342 84.9121 261.222C84.9121 252.103 92.3048 244.71 101.424 244.71C110.544 244.71 117.936 252.103 117.936 261.222Z" fill="#F7F6FC" stroke="#0B1319" stroke-width="2"/>
<path d="M169.014 292.842C169.014 301.692 161.839 308.867 152.989 308.867C144.138 308.867 136.963 301.692 136.963 292.842C136.963 283.991 144.138 276.816 152.989 276.816C161.839 276.816 169.014 283.991 169.014 292.842Z" fill="#F7F6FC" stroke="#0B1319" stroke-width="2"/>
<path d="M226.658 297.949C226.658 306.397 219.81 313.245 211.362 313.245C202.915 313.245 196.066 306.397 196.066 297.949C196.066 289.502 202.915 282.653 211.362 282.653C219.81 282.653 226.658 289.502 226.658 297.949Z" fill="#F7F6FC" stroke="#0B1319" stroke-width="2"/>
<path d="M281.14 276.059C281.14 284.104 274.619 290.625 266.574 290.625C258.529 290.625 252.008 284.104 252.008 276.059C252.008 268.014 258.529 261.493 266.574 261.493C274.619 261.493 281.14 268.014 281.14 276.059Z" fill="#F7F6FC" stroke="#0B1319" stroke-width="2"/>
<path d="M293.843 230.333C293.843 222.616 300.205 216.253 307.923 216.253C315.64 216.253 322.003 222.616 322.003 230.333C322.003 238.05 315.64 244.413 307.923 244.413C300.205 244.413 293.843 238.05 293.843 230.333Z" fill="#F7F6FC" stroke="#0B1319" stroke-width="2"/>
<path d="M312.084 173.905C312.084 166.442 318.192 160.555 325.434 160.555C332.665 160.555 338.784 166.674 338.784 173.905C338.784 181.136 332.665 187.255 325.434 187.255C318.203 187.255 312.084 181.136 312.084 173.905Z" fill="#F7F6FC" stroke="#0B1319" stroke-width="2"/>
<path d="M332.216 115.531C332.216 122.636 326.457 128.395 319.352 128.395C312.248 128.395 306.488 122.636 306.488 115.531C306.488 108.427 312.248 102.668 319.352 102.668C326.457 102.668 332.216 108.427 332.216 115.531Z" fill="#F7F6FC" stroke="#0B1319" stroke-width="2"/>
<path d="M301.328 63.2382C301.328 69.9397 295.895 75.3723 289.194 75.3723C282.492 75.3723 277.06 69.9397 277.06 63.2382C277.06 56.5367 282.492 51.1041 289.194 51.1041C295.895 51.1041 301.328 56.5367 301.328 63.2382Z" fill="#F7F6FC" stroke="#0B1319" stroke-width="2"/>
<path d="M228.172 26.7547C228.172 20.4842 233.331 15.1071 239.82 15.1071C246.321 15.1071 251.467 20.2535 251.467 26.7547C251.467 33.2559 246.321 38.4024 239.82 38.4024C233.318 38.4024 228.172 33.2559 228.172 26.7547Z" fill="#F7F6FC" stroke="#0B1319" stroke-width="2"/>
<path d="M171.744 11.918C171.744 5.90321 176.647 1 182.662 1C188.677 1 193.58 5.90321 193.58 11.918C193.58 17.9327 188.677 22.8359 182.662 22.8359C176.647 22.8359 171.744 17.9327 171.744 11.918Z" fill="#F7F6FC" stroke="#0B1319" stroke-width="2"/>
<path d="M114.1 18.7282C114.1 12.9708 118.745 8.53992 124.288 8.53992C129.816 8.53992 134.476 13.1999 134.476 18.7282C134.476 24.2565 129.816 28.9165 124.288 28.9165C118.76 28.9165 114.1 24.2565 114.1 18.7282Z" fill="#F7F6FC" stroke="#0B1319" stroke-width="2"/>
<path d="M61.5635 46.9423C61.5635 41.6572 65.9802 37.2405 71.2653 37.2405C76.5504 37.2405 80.9672 41.6572 80.9672 46.9423C80.9672 52.2274 76.5504 56.6442 71.2653 56.6442C65.9802 56.6442 61.5635 52.2274 61.5635 46.9423Z" fill="#F7F6FC" stroke="#0B1319" stroke-width="2"/>
<path d="M22.1611 94.1276C22.1611 89.0857 26.0915 85.1554 31.1333 85.1554C36.1752 85.1554 40.1055 89.0857 40.1055 94.1276C40.1055 99.1695 36.1752 103.1 31.1333 103.1C26.0914 103.1 22.1611 99.1695 22.1611 94.1276Z" fill="#F7F6FC" stroke="#0B1319" stroke-width="2"/>
<path d="M1.72949 149.826C1.72949 145.254 5.4332 141.34 10.2152 141.34C15.0139 141.34 18.701 145.027 18.701 149.826C18.701 154.624 15.0139 158.312 10.2152 158.312C5.41658 158.312 1.72949 154.624 1.72949 149.826Z" fill="#F7F6FC" stroke="#0B1319" stroke-width="2"/>
<path d="M1 208.443C1 204.131 4.44387 200.687 8.75606 200.687C13.0683 200.687 16.5121 204.131 16.5121 208.443C16.5121 212.755 13.0683 216.199 8.75606 216.199C4.44387 216.199 1 212.755 1 208.443Z" fill="#F7F6FC" stroke="#0B1319" stroke-width="2"/>
<path d="M19.7285 264.871C19.7285 261.045 22.9292 257.844 26.7549 257.844C30.5807 257.844 33.7813 261.045 33.7813 264.871C33.7813 268.697 30.5807 271.897 26.7549 271.897C22.9292 271.897 19.7285 268.697 19.7285 264.871Z" fill="#F7F6FC" stroke="#0B1319" stroke-width="2"/>
<path d="M70.7508 313.759C70.7508 317.371 67.8228 320.299 64.2108 320.299C60.5989 320.299 57.6709 317.371 57.6709 313.759C57.6709 310.147 60.5989 307.219 64.2108 307.219C67.8228 307.219 70.7508 310.147 70.7508 313.759Z" fill="#F7F6FC" stroke="#0B1319" stroke-width="2"/>
<path d="M120.855 347.81C120.855 351.019 118.254 353.62 115.045 353.62C111.836 353.62 109.234 351.019 109.234 347.81C109.234 344.601 111.836 342 115.045 342C118.254 342 120.855 344.601 120.855 347.81Z" fill="#F7F6FC" stroke="#0B1319" stroke-width="2"/>
<path d="M177.282 364.349C177.282 367.29 174.899 369.673 171.959 369.673C169.018 369.673 166.635 367.29 166.635 364.349C166.635 361.409 169.018 359.026 171.959 359.026C174.899 359.026 177.282 361.409 177.282 364.349Z" fill="#F7F6FC" stroke="#0B1319" stroke-width="2"/>
<path d="M225.982 363.376C225.982 360.767 227.967 358.782 230.577 358.782C233.186 358.782 235.171 360.767 235.171 363.376C235.171 365.986 233.186 367.971 230.577 367.971C227.967 367.971 225.982 365.986 225.982 363.376Z" fill="#F7F6FC" stroke="#0B1319" stroke-width="2"/>
<path d="M283.14 344.648C283.14 342.525 284.881 340.784 287.004 340.784C289.127 340.784 290.869 342.525 290.869 344.648C290.869 346.771 289.127 348.513 287.004 348.513C284.881 348.513 283.14 346.771 283.14 344.648Z" fill="#F7F6FC" stroke="#0B1319" stroke-width="2"/>
<path d="M339.999 308.408C339.999 310.274 338.487 311.786 336.621 311.786C334.756 311.786 333.243 310.274 333.243 308.408C333.243 306.542 334.756 305.03 336.621 305.03C338.487 305.03 339.999 306.542 339.999 308.408Z" fill="#F7F6FC" stroke="#0B1319" stroke-width="2"/>
</g>
<rect x="93.1016" y="73.8505" width="153.738" height="153.738" rx="16" fill="#F7F6FC"/>
<path d="M142.517 73.8505H109.102C100.265 73.8505 93.1016 81.0139 93.1016 89.8505V123.266" stroke="#0B1319" stroke-width="2"/>
<path d="M197.424 227.589L230.84 227.589C239.676 227.589 246.84 220.425 246.84 211.589L246.84 178.173" stroke="#0B1319" stroke-width="2"/>
<path d="M246.84 123.266L246.84 89.8505C246.84 81.0139 239.676 73.8505 230.84 73.8505L197.424 73.8505" stroke="#0B1319" stroke-width="2"/>
<path d="M93.1016 178.173L93.1016 211.589C93.1016 220.425 100.265 227.589 109.102 227.589L142.517 227.589" stroke="#0B1319" stroke-width="2"/>
<path fill-rule="evenodd" clip-rule="evenodd" d="M174.353 98.6263L135.523 142.197H167.004L128.744 185.388L214.036 128.827L182.555 129.254L209.864 98.6263H227.026V142.197L211.76 185.388L170.228 207.197L128.743 185.388L128.743 185.388L113.43 142.197V98.6263H170.228H174.353Z" fill="#4364FA"/>
</svg>
