<svg width="18" height="23" viewBox="0 0 18 23" fill="none" xmlns="http://www.w3.org/2000/svg">
<path d="M3.6 17.3374C3.6 17.8624 3.975 18.2374 4.5 18.2374H5.4V21.3874C5.4 22.1374 6 22.7374 6.75 22.7374C7.5 22.7374 8.1 22.1374 8.1 21.3874V18.2374H9.9V21.3874C9.9 22.1374 10.5 22.7374 11.25 22.7374C12 22.7374 12.6 22.1374 12.6 21.3874V18.2374H13.5C14.025 18.2374 14.4 17.8624 14.4 17.3374V8.26245H3.6V17.3374ZM1.35 8.26245C0.600002 8.26245 0 8.86245 0 9.61245V15.9874C0 16.7374 0.600002 17.3374 1.35 17.3374C2.1 17.3374 2.7 16.7374 2.7 15.9874V9.61245C2.7 8.86245 2.1 8.26245 1.35 8.26245ZM16.65 8.26245C15.9 8.26245 15.3 8.86245 15.3 9.61245V15.9874C15.3 16.7374 15.9 17.3374 16.65 17.3374C17.4 17.3374 18 16.7374 18 15.9874V9.61245C18 8.86245 17.4 8.26245 16.65 8.26245ZM12.15 2.93745L13.35 1.73745C13.5 1.58745 13.5 1.28745 13.35 1.06245C13.2 0.912451 12.9 0.912451 12.675 1.06245L11.325 2.41245C10.65 2.03745 9.825 1.81245 8.925 1.81245C8.025 1.81245 7.275 2.03745 6.525 2.41245L5.175 1.06245C5.025 0.912451 4.725 0.912451 4.5 1.06245C4.35 1.21245 4.35 1.51245 4.5 1.73745L5.7 2.93745C4.35 3.91245 3.525 5.48745 3.525 7.28745H14.325C14.325 5.48745 13.425 3.91245 12.075 2.93745H12.15ZM7.2 5.48745H6.3V4.58745H7.2V5.48745ZM11.7 5.48745H10.8V4.58745H11.7V5.48745Z" fill="#0B1319"/>
</svg>
