<svg width="130" height="41" viewBox="0 0 130 41" fill="none" xmlns="http://www.w3.org/2000/svg">
<rect x="0.5" y="0.574219" width="129" height="39" rx="5.5" fill="black"/>
<path fill-rule="evenodd" clip-rule="evenodd" d="M25.769 20.6546C25.7908 18.9581 26.6802 17.3911 28.1256 16.5025C27.2096 15.1944 25.7305 14.3948 24.1344 14.3448C22.4552 14.1686 20.8272 15.3497 19.9715 15.3497C19.0992 15.3497 17.7817 14.3623 16.363 14.3915C14.4963 14.4518 12.7982 15.4874 11.8901 17.1194C9.95607 20.4678 11.3987 25.3889 13.2513 28.0955C14.1782 29.4208 15.2615 30.9013 16.6789 30.8488C18.066 30.7912 18.584 29.9643 20.2583 29.9643C21.9171 29.9643 22.4031 30.8488 23.8493 30.8154C25.3377 30.7912 26.2754 29.4842 27.1698 28.1463C27.8358 27.2019 28.3483 26.1582 28.6882 25.0537C26.9205 24.3061 25.7711 22.5739 25.769 20.6546Z" fill="white"/>
<path fill-rule="evenodd" clip-rule="evenodd" d="M23.0376 12.5648C23.8491 11.5906 24.2489 10.3385 24.1521 9.07422C22.9123 9.20444 21.767 9.797 20.9445 10.7338C20.1323 11.6581 19.7209 12.8674 19.8008 14.0952C21.0573 14.1082 22.2502 13.5441 23.0376 12.5648Z" fill="white"/>
<path d="M40.927 13.2682H42.016C43.384 13.2682 43.951 12.3322 43.951 10.3612C43.951 8.39022 43.492 7.45422 42.016 7.45422H40.927V13.2682ZM40.549 13.5742V7.14822H42.016C43.375 7.14822 44.329 7.72422 44.329 10.3612C44.329 12.9982 43.231 13.5742 42.016 13.5742H40.549ZM48.339 11.2162C48.339 12.5752 48.033 13.6822 46.737 13.6822C45.495 13.6822 45.189 12.5752 45.189 11.2162C45.189 9.86622 45.495 8.75922 46.791 8.75922C48.033 8.75922 48.339 9.86622 48.339 11.2162ZM47.961 11.2252C47.961 9.86622 47.664 9.06522 46.764 9.06522C45.864 9.06522 45.567 9.86622 45.567 11.2252C45.567 12.5752 45.864 13.3762 46.764 13.3762C47.664 13.3762 47.961 12.5752 47.961 11.2252ZM52.189 13.5742L51.298 9.35322H51.28L50.353 13.5742H49.921L48.913 8.86722H49.291L50.128 13.0882H50.146L51.073 8.86722H51.505L52.396 13.0882H52.414L53.26 8.86722H53.638L52.621 13.5742H52.189ZM54.332 13.5742V8.86722H54.674V9.57822H54.692C54.854 9.16422 55.25 8.75922 55.889 8.75922C56.555 8.75922 57.077 9.13722 57.077 10.0282V13.5742H56.735V10.1902C56.735 9.35322 56.384 9.06522 55.799 9.06522C55.079 9.06522 54.674 9.74022 54.674 10.5592V13.5742H54.332ZM58.213 13.5742V7.14822H58.555V13.5742H58.213ZM62.726 11.2162C62.726 12.5752 62.42 13.6822 61.124 13.6822C59.882 13.6822 59.576 12.5752 59.576 11.2162C59.576 9.86622 59.882 8.75922 61.178 8.75922C62.42 8.75922 62.726 9.86622 62.726 11.2162ZM62.348 11.2252C62.348 9.86622 62.051 9.06522 61.151 9.06522C60.251 9.06522 59.954 9.86622 59.954 11.2252C59.954 12.5752 60.251 13.3762 61.151 13.3762C62.051 13.3762 62.348 12.5752 62.348 11.2252ZM66.234 10.0012V13.0072C66.234 13.2322 66.324 13.3222 66.441 13.3222C66.522 13.3222 66.594 13.3132 66.657 13.2772V13.5472C66.585 13.6012 66.45 13.6282 66.297 13.6282C66.153 13.6282 65.892 13.4842 65.892 13.1152V12.8182H65.874C65.739 13.3042 65.271 13.6822 64.641 13.6822C63.822 13.6822 63.462 13.0972 63.462 12.3682C63.462 11.6572 63.75 11.2522 64.416 11.0722L65.433 10.7932C65.838 10.6852 65.892 10.4962 65.892 10.1002C65.892 9.24522 65.496 9.06522 64.983 9.06522C64.191 9.06522 63.957 9.56022 63.957 10.2082H63.615C63.615 9.56922 63.849 8.75922 64.947 8.75922C65.982 8.75922 66.234 9.32622 66.234 10.0012ZM65.892 11.8012V10.8292H65.874C65.757 11.0182 65.631 11.0452 65.28 11.1442L64.587 11.3332C64.038 11.4862 63.84 11.8102 63.84 12.3682C63.84 12.9802 64.11 13.3762 64.704 13.3762C65.505 13.3762 65.892 12.7462 65.892 11.8012ZM69.9391 13.5742V12.6652H69.9211C69.8041 13.3042 69.3901 13.6822 68.7331 13.6822C67.6351 13.6822 67.2661 12.6652 67.2661 11.2072C67.2661 9.76722 67.5901 8.75922 68.7511 8.75922C69.3991 8.75922 69.7501 9.19122 69.9211 9.69522H69.9391V7.14822H70.2811V13.5742H69.9391ZM67.6441 11.2072C67.6441 12.4042 67.8601 13.3762 68.7871 13.3762C69.6241 13.3762 69.9391 12.5842 69.9391 11.2072C69.9481 9.65922 69.4801 9.06522 68.7691 9.06522C67.9591 9.06522 67.6441 9.77622 67.6441 11.2072ZM76.7702 11.2162C76.7702 12.5752 76.4642 13.6822 75.1682 13.6822C73.9262 13.6822 73.6202 12.5752 73.6202 11.2162C73.6202 9.86622 73.9262 8.75922 75.2222 8.75922C76.4642 8.75922 76.7702 9.86622 76.7702 11.2162ZM76.3922 11.2252C76.3922 9.86622 76.0952 9.06522 75.1952 9.06522C74.2952 9.06522 73.9982 9.86622 73.9982 11.2252C73.9982 12.5752 74.2952 13.3762 75.1952 13.3762C76.0952 13.3762 76.3922 12.5752 76.3922 11.2252ZM77.7492 13.5742V8.86722H78.0912V9.57822H78.1092C78.2712 9.16422 78.6672 8.75922 79.3062 8.75922C79.9722 8.75922 80.4942 9.13722 80.4942 10.0282V13.5742H80.1522V10.1902C80.1522 9.35322 79.8012 9.06522 79.2162 9.06522C78.4962 9.06522 78.0912 9.74022 78.0912 10.5592V13.5742H77.7492ZM83.5494 9.17322V8.86722H84.1884V7.47222H84.5304V8.86722H85.3134V9.17322H84.5304V12.8002C84.5304 13.2502 84.7464 13.3222 84.9444 13.3222C85.0884 13.3222 85.2144 13.3132 85.3674 13.2682V13.5742C85.1964 13.6102 85.0164 13.6282 84.8814 13.6282C84.3954 13.6282 84.1884 13.3492 84.1884 12.8362V9.17322H83.5494ZM85.9533 13.5742V7.14822H86.2953V9.57822H86.3133C86.4753 9.16422 86.8713 8.75922 87.5103 8.75922C88.1763 8.75922 88.6983 9.13722 88.6983 10.0282V13.5742H88.3563V10.1902C88.3563 9.35322 88.0053 9.06522 87.4203 9.06522C86.7003 9.06522 86.2953 9.74022 86.2953 10.5592V13.5742H85.9533ZM90.0593 10.8922H92.3453C92.3453 10.0372 92.2103 9.06522 91.2383 9.06522C90.1943 9.06522 90.0593 10.2802 90.0593 10.8922ZM92.7233 11.1982H90.0593C90.0593 11.9542 90.0683 13.3762 91.1663 13.3762C92.1563 13.3762 92.3183 12.3862 92.3183 12.0352H92.6603C92.6603 12.7552 92.2643 13.6822 91.2023 13.6822C89.9873 13.6822 89.6813 12.6922 89.6813 11.0902C89.6813 9.65022 90.1943 8.75922 91.2563 8.75922C92.3633 8.75922 92.7233 9.67722 92.7233 11.1982Z" fill="white"/>
<path d="M56.9199 22.0508C59.2177 22.0508 60.7324 23.8672 60.7324 26.6729C60.7324 29.4864 59.2266 31.294 56.9541 31.294C55.7795 31.3554 54.6731 30.7402 54.1055 29.71H54.0625V34.1944H52.2041V22.1456H54.0029V23.6514H54.0371C54.6299 22.6277 55.7375 22.0127 56.9199 22.0508ZM66.8847 22.0508C69.1826 22.0508 70.6973 23.8672 70.6973 26.6729C70.6973 29.4864 69.1914 31.294 66.9189 31.294C65.7443 31.3554 64.6379 30.7402 64.0703 29.71H64.0273V34.1944H62.1689V22.1456H63.9677V23.6514H64.0019C64.5947 22.6277 65.7023 22.0127 66.8847 22.0508ZM80.2266 18.5742C82.8506 18.5742 84.6494 20.0459 84.71 22.1885H82.834C82.7217 20.9492 81.6972 20.2012 80.2002 20.2012C78.7031 20.2012 77.6787 20.958 77.6787 22.0596C77.6787 22.9375 78.333 23.4541 79.9336 23.8496L81.3017 24.1855C83.8496 24.7881 84.9082 25.8115 84.9082 27.6279C84.9082 29.9511 83.0576 31.4062 80.1142 31.4062C77.3603 31.4062 75.501 29.9853 75.3808 27.7392L77.2832 27.7393C77.4209 28.9708 78.6172 29.7793 80.2519 29.7793C81.8184 29.7793 82.9453 28.9707 82.9453 27.8604C82.9453 26.8965 82.2656 26.3194 80.6562 25.9238L79.0469 25.5361C76.7666 24.9854 75.708 23.9189 75.708 22.1885C75.708 20.0459 77.5752 18.5742 80.2266 18.5742ZM95.9317 22.0342C98.5567 22.0342 100.227 23.8242 100.227 26.6729C100.227 29.5294 98.5655 31.3116 95.9317 31.3116C93.2988 31.3116 91.6377 29.5293 91.6377 26.6729C91.6377 23.8243 93.3155 22.0342 95.9317 22.0342ZM110.98 22.0342C113.485 22.0342 115.061 23.7549 115.061 26.5V27.1368H108.666V27.2491C108.606 27.9231 108.839 28.5903 109.305 29.0809C109.771 29.5716 110.425 29.8384 111.102 29.8135C112.003 29.898 112.854 29.3802 113.192 28.5401L114.957 28.5401C114.707 30.1836 113.106 31.3116 111.059 31.3116C108.425 31.3116 106.79 29.5469 106.79 26.7159C106.79 23.876 108.434 22.0342 110.98 22.0342ZM88.9189 20.003V22.1456H90.6406V23.6172H88.9189V28.6084C88.9189 29.3838 89.2637 29.7452 90.0205 29.7452C90.2249 29.7416 90.429 29.7273 90.6318 29.7022V31.1651C90.2916 31.2286 89.9457 31.2574 89.5996 31.251C87.7666 31.251 87.0518 30.5625 87.0518 28.8067V23.6172H85.7354V22.1456H87.0517V20.003H88.9189ZM46.5664 18.7813L51.0498 31.1993H49.0107L47.875 27.8428H43.1416L42.0049 31.1993H40L44.4834 18.7813H46.5664ZM105.752 22.0508C105.966 22.0501 106.18 22.0733 106.389 22.1202V23.8584C106.118 23.7758 105.836 23.7379 105.554 23.7461C105.007 23.724 104.479 23.9417 104.106 24.3422C103.734 24.7427 103.555 25.2858 103.617 25.8291V31.1993H101.759V22.1456H103.531V23.6866H103.574C103.821 22.6945 104.73 22.0118 105.752 22.0508ZM95.9317 23.5655C94.4258 23.5655 93.5313 24.7276 93.5313 26.6729C93.5313 28.6348 94.4258 29.7794 95.9317 29.7794C97.4375 29.7794 98.333 28.6348 98.333 26.6729C98.333 24.7188 97.4375 23.5655 95.9317 23.5655ZM56.4297 23.6348C55.0098 23.6348 54.0547 24.8653 54.0547 26.6729C54.0547 28.4971 55.0098 29.7188 56.4297 29.7188C57.875 29.7188 58.8223 28.5225 58.8223 26.6729C58.8223 24.8399 57.875 23.6348 56.4297 23.6348ZM66.3945 23.6348C64.9746 23.6348 64.0195 24.8653 64.0195 26.6729C64.0195 28.4971 64.9746 29.7188 66.3945 29.7188C67.8398 29.7188 68.7871 28.5225 68.7871 26.6729C68.7871 24.8399 67.8398 23.6348 66.3945 23.6348ZM45.5342 20.8467H45.4825L43.6318 26.294H47.3838L45.5342 20.8467ZM110.98 23.5401C110.369 23.5364 109.782 23.7771 109.349 24.2086C108.916 24.6401 108.673 25.2267 108.675 25.8379H113.201C113.235 25.2323 113.014 24.64 112.593 24.2038C112.171 23.7676 111.587 23.5271 110.98 23.5401Z" fill="white"/>
<rect x="0.5" y="0.574219" width="129" height="39" rx="5.5" stroke="#A6A6A6"/>
</svg>
