<svg width="24" height="24" viewBox="0 0 24 24" fill="none" xmlns="http://www.w3.org/2000/svg">
<g clip-path="url(#clip0_54_758)">
<g clip-path="url(#clip1_54_758)">
<path fill-rule="evenodd" clip-rule="evenodd" d="M16.75 0.5875C16.75 1.1875 16.6 1.7875 16.375 2.4625C16.075 3.1375 15.7 3.7375 15.1 4.3375C14.575 4.7875 14.05 5.1625 13.6 5.3125C13.3 5.3875 12.775 5.4625 12.175 5.5375C12.175 4.1875 12.55 3.0625 13.225 2.0875C13.9 1.1125 15.1 0.4375 16.75 0.0625C16.75 0.2125 16.75 0.2875 16.75 0.3625C16.75 0.4375 16.75 0.5125 16.75 0.6625M12.475 6.1375C12.85 6.1375 13.525 5.9875 14.5 5.6875C15.4 5.3875 16.225 5.2375 16.9 5.2375C18.025 5.2375 19 5.5375 19.9 6.1375C20.425 6.4375 20.875 6.8875 21.325 7.4875C20.575 8.0875 20.05 8.6125 19.75 9.0625C19.15 9.8875 18.85 10.8625 18.85 11.8375C18.85 12.8125 19.15 13.9375 19.825 14.8375C20.5 15.7375 21.175 16.3375 22 16.5625C21.625 17.6125 21.1 18.7375 20.275 19.9375C19.075 21.7375 17.875 22.5625 16.675 22.5625C15.475 22.5625 15.55 22.4125 14.725 22.1125C13.9 21.8125 13.225 21.6625 12.625 21.6625C12.025 21.6625 11.35 21.8125 10.6 22.1125C9.85 22.4125 9.25 22.5625 8.725 22.5625C7.3 22.5625 5.875 21.3625 4.525 19.0375C3.175 16.7125 2.5 14.4625 2.5 12.2125C2.5 9.9625 3.025 8.4625 4.075 7.1875C5.125 5.9125 6.475 5.2375 8.05 5.2375C9.625 5.2375 9.55 5.3875 10.525 5.6125C11.5 5.9125 12.1 5.9875 12.475 5.9875" fill="#0B1319"/>
</g>
</g>
<defs>
<clipPath id="clip0_54_758">
<rect width="20" height="23" fill="white" transform="translate(2.5)"/>
</clipPath>
<clipPath id="clip1_54_758">
<rect width="20" height="23" fill="white" transform="translate(2.5)"/>
</clipPath>
</defs>
</svg>
