<svg width="74" height="90" viewBox="0 0 74 90" fill="none" xmlns="http://www.w3.org/2000/svg">
<path d="M37 90C13.7118 72.1308 0 61.8886 0 32.4697V13.7288L37 0L74 13.7288V32.4697C74 61.8886 60.2882 71.9128 37 90Z" fill="#4364FA"/>
<path d="M37.2546 60.3847C40.7358 60.3847 43.5579 57.5482 43.5579 54.0491C43.5579 50.55 40.7358 47.7134 37.2546 47.7134C33.7733 47.7134 30.9512 50.55 30.9512 54.0491C30.9512 57.5482 33.7733 60.3847 37.2546 60.3847Z" stroke="white" stroke-width="2" stroke-miterlimit="10"/>
<path d="M53.4111 45.9912C50.4124 39.8401 44.2314 35.9033 37.2549 35.9033C30.2783 35.9033 24.1585 39.8401 21.0986 45.8682" stroke="white" stroke-width="2" stroke-miterlimit="10"/>
<path d="M60.5104 38.5483C55.3698 30.7364 46.6185 26 37.2552 26C27.8919 26 19.1406 30.7364 14 38.4868" stroke="white" stroke-width="2" stroke-miterlimit="10"/>
<path opacity="0.2" fill-rule="evenodd" clip-rule="evenodd" d="M37 90C37.4788 89.6281 37.9536 89.2596 38.4244 88.8943C60.8463 71.4924 74 61.2837 74 32.4697V13.7288L37 0V90Z" fill="white"/>
</svg>
