<svg width="91" height="90" viewBox="0 0 91 90" fill="none" xmlns="http://www.w3.org/2000/svg">
<path d="M2.28882e-05 86.2786L4.562 71.352C3.31837 68.7282 2.44604 65.8932 2.01578 62.9114C0.831078 57.1239 0.206322 51.1309 0.206322 44.9912C0.206322 38.8515 0.831078 32.8585 2.01578 27.071C3.8665 14.2164 13.9512 4.009 26.7766 1.91939C32.7708 0.663275 38.9831 0 45.3546 0C51.726 0 57.9383 0.663275 63.9326 1.92526C76.5458 3.97965 86.5126 13.8877 88.5991 26.4488C89.8663 32.43 90.5382 38.6343 90.5382 44.9971C90.5382 51.3598 89.8663 57.5641 88.5991 63.5453C86.5303 76.036 76.6637 85.903 64.1447 88.0337C58.0857 89.325 51.8027 90 45.3605 90C38.9183 90 32.6294 89.3191 26.5762 88.0337C23.7117 87.5465 20.9828 86.6484 18.4542 85.4158L2.28882e-05 86.2786Z" fill="#4364FA"/>
<path d="M41.6 59.9603L42.7243 63.3153H48.3459L49.4702 59.9603C50.9459 59.618 52.3513 59.0018 53.6162 58.2486L56.2162 59.5495C56.5675 59.7549 57.0594 59.6865 57.3405 59.3441L60.7838 55.9892L59.1675 52.8396C59.9405 51.5387 60.5027 50.1694 60.9243 48.8L64.3675 47.7045V42.227L60.9243 41.1315C60.5729 39.6937 59.9405 38.3243 59.1675 37.0919L60.7838 33.9423L56.7783 30.0396L53.5459 31.6144C52.2108 30.8612 50.8054 30.3135 49.4 29.9027L48.2756 26.5477H42.654L41.5297 29.9027C40.054 30.245 38.6486 30.8612 37.3838 31.6144L34.1513 30.0396L30.1459 33.9423L31.7621 37.0919C30.9892 38.3928 30.427 39.7621 30.0054 41.1315L26.5621 42.227V47.7045L30.0054 48.8C30.3567 50.2378 30.9892 51.6072 31.7621 52.8396L30.1459 55.9892L33.5892 59.3441C33.8702 59.618 34.3621 59.6865 34.7135 59.5495L37.3135 58.2486C38.6486 59.0018 40.054 59.5495 41.4594 59.9603H41.6Z" stroke="white" stroke-width="2" stroke-miterlimit="10"/>
<path d="M45.4648 53.8666C50.51 53.8666 54.6 49.8816 54.6 44.9657C54.6 40.0499 50.51 36.0648 45.4648 36.0648C40.4197 36.0648 36.3297 40.0499 36.3297 44.9657C36.3297 49.8816 40.4197 53.8666 45.4648 53.8666Z" stroke="white" stroke-width="2" stroke-miterlimit="10"/>
<path opacity="0.2" d="M45 89.9993C45.1201 89.9998 45.2402 90 45.3605 90C51.8026 90 58.0857 89.325 64.1447 88.0337C76.6636 85.903 86.5302 76.036 88.599 63.5453C89.8663 57.5641 90.5382 51.3598 90.5382 44.9971C90.5382 38.6343 89.8663 32.43 88.599 26.4488C86.5126 13.8877 76.5458 3.97965 63.9325 1.92526C57.9383 0.663275 51.726 0 45.3546 0C45.2363 0 45.1181 0.00022843 45 0.00068484V89.9993Z" fill="white"/>
</svg>
