<svg width="175" height="90" viewBox="0 0 175 90" fill="none" xmlns="http://www.w3.org/2000/svg">
<mask id="mask0_361_2436" style="mask-type:alpha" maskUnits="userSpaceOnUse" x="0" y="0" width="175" height="90">
<rect width="175" height="90" fill="#D9D9D9"/>
</mask>
<g mask="url(#mask0_361_2436)">
<rect opacity="0.7" x="39" y="-9" width="98" height="112" rx="8.6" stroke="#4364FA" stroke-width="2"/>
<rect opacity="0.4" x="24" y="-9" width="128" height="112" rx="8.6" stroke="#4364FA" stroke-width="2"/>
<rect opacity="0.1" x="9" y="-9" width="158" height="112" rx="8.6" stroke="#4364FA" stroke-width="2"/>
<rect x="53" width="70" height="142.736" rx="9.6" fill="#0B1319"/>
<path fill-rule="evenodd" clip-rule="evenodd" d="M88.345 40L80.4769 48.8288H86.856L79.1035 57.5802L96.3858 46.1196L90.0067 46.2061L95.5404 40H99.0181V48.8288L95.9247 57.5808L87.5089 62L79.1027 57.5808L79.103 57.5806L76 48.8288V40H87.5092H88.3447H88.345Z" fill="white"/>
<ellipse opacity="0.2" cx="59.3998" cy="8.39988" rx="2.4" ry="2.4" fill="white"/>
</g>
</svg>
