<svg width="1440" height="2558" viewBox="0 0 1440 2558" fill="none" xmlns="http://www.w3.org/2000/svg">
<mask id="path-1-inside-1_918_127" fill="white">
<path fill-rule="evenodd" clip-rule="evenodd" d="M817.395 0L-97.4598 1026.55H644.254L-257.196 2044.17L-618 1026.55V0H720.213H817.395ZM1010.65 721.602L1654.06 0H2058.43V1026.55L1698.74 2044.17L720.216 2558L-257.194 2044.17L1752.36 721.602H1010.65Z"/>
</mask>
<path d="M-97.4598 1026.55L-98.9529 1025.22L-101.921 1028.55H-97.4598V1026.55ZM817.395 0L818.889 1.33065L821.857 -2H817.395V0ZM644.254 1026.55L645.751 1027.88L648.698 1024.55H644.254V1026.55ZM-257.196 2044.17L-259.081 2044.83L-257.948 2048.03L-255.699 2045.49L-257.196 2044.17ZM-618 1026.55H-620V1026.9L-619.885 1027.22L-618 1026.55ZM-618 0V-2H-620V0H-618ZM1654.06 0V-2H1653.16L1652.57 -1.33103L1654.06 0ZM1010.65 721.602L1009.15 720.271L1006.18 723.602H1010.65V721.602ZM2058.43 0H2060.43V-2H2058.43V0ZM2058.43 1026.55L2060.31 1027.22L2060.43 1026.89V1026.55H2058.43ZM1698.74 2044.17L1699.67 2045.94L1700.37 2045.57L1700.63 2044.83L1698.74 2044.17ZM720.216 2558L719.285 2559.77L720.215 2560.26L721.146 2559.77L720.216 2558ZM-257.194 2044.17L-258.293 2042.5L-261.125 2044.36L-258.124 2045.94L-257.194 2044.17ZM1752.36 721.602L1753.46 723.272L1759.04 719.602H1752.36V721.602ZM-95.9667 1027.88L818.889 1.33065L815.902 -1.33065L-98.9529 1025.22L-95.9667 1027.88ZM644.254 1024.55H-97.4598V1028.55H644.254V1024.55ZM-255.699 2045.49L645.751 1027.88L642.757 1025.22L-258.693 2042.84L-255.699 2045.49ZM-619.885 1027.22L-259.081 2044.83L-255.311 2043.5L-616.115 1025.88L-619.885 1027.22ZM-620 0V1026.55H-616V0H-620ZM720.213 -2H-618V2H720.213V-2ZM817.395 -2H720.213V2H817.395V-2ZM1652.57 -1.33103L1009.15 720.271L1012.14 722.933L1655.55 1.33103L1652.57 -1.33103ZM2058.43 -2H1654.06V2H2058.43V-2ZM2060.43 1026.55V0H2056.43V1026.55H2060.43ZM1700.63 2044.83L2060.31 1027.22L2056.54 1025.88L1696.86 2043.5L1700.63 2044.83ZM721.146 2559.77L1699.67 2045.94L1697.81 2042.4L719.286 2556.23L721.146 2559.77ZM-258.124 2045.94L719.285 2559.77L721.146 2556.23L-256.263 2042.4L-258.124 2045.94ZM1751.26 719.931L-258.293 2042.5L-256.094 2045.84L1753.46 723.272L1751.26 719.931ZM1010.65 723.602H1752.36V719.602H1010.65V723.602Z" fill="#F7F6FC" mask="url(#path-1-inside-1_918_127)"/>
</svg>
