<svg width="673" height="351" viewBox="0 0 673 351" fill="none" xmlns="http://www.w3.org/2000/svg">
<g filter="url(#filter0_d_303_1158)">
<mask id="mask0_303_1158" style="mask-type:alpha" maskUnits="userSpaceOnUse" x="60" y="36" width="553" height="454">
<rect x="55" y="210.178" width="484.8" height="306.24" rx="19.2" transform="rotate(-21.6905 55 210.178)" fill="#4364FA"/>
</mask>
<g mask="url(#mask0_303_1158)">
<rect x="55" y="210.178" width="484.8" height="306.24" transform="rotate(-21.6905 55 210.178)" fill="white"/>
<mask id="path-3-inside-1_303_1158" fill="white">
<path fill-rule="evenodd" clip-rule="evenodd" d="M300.52 144.92L370.128 -45.9422L449.094 -77.3512L528.814 123.073L537.6 349.691L386.416 526.019L155.643 501.617L444.582 85.3456L300.52 144.92ZM206.744 19.0449L107.811 290.53L252.653 232.918L155.643 501.617L6.15911 330.962L-73.5609 130.538L187.766 26.5934L206.744 19.0449Z"/>
</mask>
<path d="M370.128 -45.9422L369.241 -48.1723L368.242 -47.7748L367.874 -46.7645L370.128 -45.9422ZM300.52 144.92L298.265 144.098L296.396 149.223L301.437 147.138L300.52 144.92ZM449.094 -77.3512L451.324 -78.2382L450.437 -80.4683L448.207 -79.5812L449.094 -77.3512ZM528.814 123.073L531.212 122.98L531.196 122.569L531.044 122.186L528.814 123.073ZM537.6 349.691L539.422 351.254L540.034 350.539L539.998 349.598L537.6 349.691ZM386.416 526.019L386.163 528.406L387.417 528.538L388.238 527.581L386.416 526.019ZM155.643 501.617L153.838 503.198L154.457 503.905L155.391 504.004L155.643 501.617ZM444.582 85.3456L446.553 86.7141L451.208 80.0084L443.665 83.1278L444.582 85.3456ZM107.811 290.53L105.556 289.708L103.722 294.739L108.698 292.76L107.811 290.53ZM206.744 19.0449L208.999 19.8666L210.833 14.8359L205.857 16.8148L206.744 19.0449ZM252.653 232.918L254.91 233.733L256.721 228.717L251.766 230.688L252.653 232.918ZM6.15911 330.962L3.92905 331.849L4.08168 332.233L4.35378 332.544L6.15911 330.962ZM-73.5609 130.538L-74.4479 128.308L-76.6779 129.195L-75.7909 131.425L-73.5609 130.538ZM187.766 26.5934L188.653 28.8235L187.766 26.5934ZM367.874 -46.7645L298.265 144.098L302.775 145.743L372.383 -45.1199L367.874 -46.7645ZM448.207 -79.5812L369.241 -48.1723L371.015 -43.7122L449.981 -75.1211L448.207 -79.5812ZM531.044 122.186L451.324 -78.2382L446.864 -76.4641L526.584 123.96L531.044 122.186ZM539.998 349.598L531.212 122.98L526.415 123.166L535.202 349.784L539.998 349.598ZM388.238 527.581L539.422 351.254L535.778 348.129L384.594 524.457L388.238 527.581ZM155.391 504.004L386.163 528.406L386.668 523.632L155.896 499.23L155.391 504.004ZM442.61 83.9771L153.672 500.248L157.615 502.985L446.553 86.7141L442.61 83.9771ZM301.437 147.138L445.499 87.5635L443.665 83.1278L299.603 142.703L301.437 147.138ZM110.066 291.352L208.999 19.8666L204.489 18.2231L105.556 289.708L110.066 291.352ZM251.766 230.688L106.924 288.3L108.698 292.76L253.54 235.148L251.766 230.688ZM157.901 502.432L254.91 233.733L250.396 232.103L153.386 500.802L157.901 502.432ZM4.35378 332.544L153.838 503.198L157.449 500.036L7.96445 329.381L4.35378 332.544ZM-75.7909 131.425L3.92905 331.849L8.38918 330.075L-71.3308 129.651L-75.7909 131.425ZM186.879 24.3634L-74.4479 128.308L-72.6738 132.768L188.653 28.8235L186.879 24.3634ZM205.857 16.8148L186.879 24.3634L188.653 28.8235L207.631 21.275L205.857 16.8148Z" fill="#F7F6FC" mask="url(#path-3-inside-1_303_1158)"/>
<path d="M269.216 426.703L266.235 419.21L268.655 418.248C270.078 417.681 271.252 418.169 271.686 419.261C271.98 420 271.848 420.697 271.376 421.256L271.402 421.321C271.973 421.292 272.892 421.546 273.314 422.606C273.85 423.955 273.112 425.153 271.849 425.656L269.216 426.703ZM268.382 422.113L269.913 421.504C270.758 421.168 271.125 420.439 270.823 419.679C270.529 418.94 269.764 418.699 268.961 419.018L267.398 419.64L268.382 422.113ZM269.77 425.602L271.397 424.955C272.285 424.602 272.789 423.905 272.406 422.942C272.015 421.957 271.069 421.887 270.202 422.232L268.671 422.841L269.77 425.602ZM278.073 423.341C276.371 424.018 274.792 423.196 274.128 421.526C273.421 419.749 274.175 418.122 275.695 417.518C277.386 416.845 278.887 417.687 279.525 419.292L279.674 419.667L275.136 421.472C275.621 422.568 276.632 423.022 277.778 422.566C278.516 422.272 279.082 421.638 279.079 420.883L279.957 420.534C280.06 421.696 279.379 422.822 278.073 423.341ZM274.859 420.714L278.477 419.275C277.959 418.192 276.944 417.914 276.002 418.288C275.07 418.659 274.536 419.653 274.859 420.714ZM284.65 420.725C282.97 421.393 281.286 420.588 280.63 418.94C279.974 417.291 280.677 415.536 282.315 414.885C283.525 414.404 284.938 414.684 285.732 415.807L284.854 416.156C284.34 415.518 283.446 415.328 282.643 415.647C281.455 416.12 281.027 417.381 281.508 418.59C282.006 419.843 283.209 420.406 284.376 419.942C285.179 419.622 285.709 418.866 285.633 418.053L286.5 417.708C286.705 419.065 285.86 420.244 284.65 420.725ZM291.129 418.148C289.492 418.799 287.876 418.041 287.199 416.339C286.518 414.626 287.167 412.955 288.741 412.329C289.907 411.865 290.826 412.367 291.112 412.588L291.177 412.563L290.819 411.663L291.665 411.327L293.879 416.893L293.065 417.217L292.716 416.339L292.652 416.365C292.593 416.623 292.339 417.667 291.129 418.148ZM290.881 417.367C292.09 416.885 292.426 415.611 291.962 414.444C291.417 413.074 290.246 412.623 289.143 413.061C287.998 413.517 287.564 414.731 288.066 415.994C288.585 417.3 289.714 417.831 290.881 417.367ZM297.727 415.524C296.432 416.039 295.263 415.375 294.774 414.144L293.381 410.644L294.227 410.308L295.606 413.776C295.96 414.664 296.843 414.983 297.624 414.672C298.502 414.323 298.919 413.376 298.553 412.455L297.224 409.116L298.07 408.779L300.284 414.346L299.438 414.682L299.115 413.868L299.05 413.894C299.015 414.491 298.594 415.179 297.727 415.524ZM303.996 413.03C302.68 413.554 301.645 413.135 301.136 412.135L301.96 411.807C302.32 412.432 302.932 412.598 303.745 412.274C304.58 411.942 304.879 411.352 304.653 410.785C304.031 409.222 301.175 411.735 300.298 409.53C299.923 408.588 300.526 407.641 301.693 407.177C302.721 406.768 303.815 407.027 304.301 407.999L303.488 408.323C303.204 407.828 302.668 407.632 301.929 407.926C301.233 408.203 300.92 408.724 301.111 409.206C301.673 410.619 304.545 408.113 305.46 410.414C305.878 411.464 305.292 412.515 303.996 413.03ZM310.176 410.572C308.474 411.249 306.895 410.427 306.23 408.757C305.524 406.98 306.278 405.353 307.798 404.749C309.489 404.076 310.989 404.918 311.628 406.523L311.777 406.898L307.238 408.703C307.724 409.799 308.735 410.253 309.88 409.797C310.619 409.503 311.185 408.869 311.182 408.114L312.06 407.765C312.162 408.927 311.482 410.053 310.176 410.572ZM306.961 407.945L310.579 406.506C310.062 405.423 309.046 405.145 308.104 405.52C307.173 405.89 306.638 406.884 306.961 407.945ZM318.151 410.09L317.844 409.32L318.262 409.154C318.808 408.936 319.024 408.578 319.015 408.023L319.003 407.247L314.411 402.279L315.353 401.905L318.95 405.929L319.014 405.903L318.875 400.504L319.828 400.125L319.894 408.021C319.907 408.896 319.639 409.499 318.729 409.86L318.151 410.09ZM325.65 404.417C323.98 405.081 322.259 404.34 321.586 402.649C320.918 400.968 321.677 399.228 323.336 398.568C325.016 397.9 326.735 398.667 327.399 400.337C328.063 402.007 327.32 403.753 325.65 404.417ZM325.343 403.647C326.542 403.17 327.026 401.923 326.532 400.682C326.042 399.451 324.83 398.867 323.632 399.343C322.433 399.82 321.968 401.084 322.454 402.304C322.952 403.556 324.155 404.119 325.343 403.647ZM332.025 401.881C330.73 402.397 329.561 401.733 329.071 400.502L327.679 397.002L328.525 396.666L329.904 400.134C330.257 401.022 331.14 401.341 331.922 401.03C332.8 400.681 333.216 399.734 332.85 398.813L331.522 395.474L332.367 395.137L334.581 400.703L333.736 401.04L333.412 400.226L333.348 400.252C333.313 400.849 332.892 401.537 332.025 401.881ZM336.398 399.981L334.184 394.415L335.018 394.083L335.431 395.121L335.496 395.096C335.469 394.561 335.789 393.776 336.603 393.453L337.074 393.265L337.41 394.111L336.95 394.294C335.933 394.698 335.681 395.716 336.102 396.776L337.243 399.645L336.398 399.981ZM344.406 399.647L341.179 391.533L342.816 390.882L343.068 391.513L343.153 391.479C343.212 391.159 343.478 390.457 344.42 390.083C345.962 389.47 347.481 390.204 348.188 391.981C348.895 393.758 348.342 395.391 346.822 395.996C345.901 396.362 345.221 396.087 344.916 395.849L344.83 395.883L346.065 398.987L344.406 399.647ZM345.808 394.663C346.579 394.357 346.865 393.549 346.52 392.682C346.167 391.793 345.412 391.424 344.642 391.73C343.849 392.045 343.593 392.866 343.93 393.712C344.287 394.611 345.048 394.966 345.808 394.663ZM350.42 394.404L348.172 388.752L349.735 388.13L350.075 388.986L350.161 388.952C350.188 388.458 350.499 387.776 351.259 387.474L351.805 387.257L352.427 388.82L351.774 389.08C350.96 389.403 350.67 390.2 351.057 391.175L352.079 393.744L350.42 394.404ZM353.491 385.905C352.923 386.13 352.38 385.95 352.159 385.393C351.938 384.836 352.208 384.332 352.776 384.106C353.343 383.881 353.886 384.061 354.107 384.618C354.329 385.175 354.058 385.679 353.491 385.905ZM355.166 392.516L352.918 386.864L354.577 386.204L356.825 391.856L355.166 392.516ZM359.507 390.789L355.257 385.933L356.981 385.248L359.623 388.462L359.708 388.428L359.421 384.277L361.166 383.583L361.423 390.027L359.507 390.789ZM366.345 388.23C364.793 388.848 363.273 388.113 362.567 386.336C361.86 384.559 362.423 382.922 363.944 382.317C364.832 381.964 365.537 382.241 365.849 382.464L365.935 382.43L365.679 381.788L367.339 381.128L369.587 386.78L367.938 387.436L367.683 386.793L367.597 386.827C367.539 387.148 367.276 387.86 366.345 388.23ZM366.124 386.583C366.916 386.268 367.168 385.436 366.836 384.601C366.478 383.702 365.706 383.352 364.946 383.654C364.176 383.961 363.89 384.769 364.234 385.636C364.584 386.514 365.342 386.894 366.124 386.583ZM373.536 385.37C371.716 386.094 370.019 385.257 369.359 383.597C368.695 381.928 369.346 380.168 371.166 379.444C372.74 378.819 374.243 379.324 374.952 380.641L373.272 381.31C372.93 380.888 372.362 380.705 371.773 380.939C370.959 381.262 370.716 382.115 371.04 382.929C371.367 383.753 372.147 384.187 372.95 383.868C373.507 383.646 373.818 383.15 373.778 382.645L375.47 381.973C375.82 383.383 375.088 384.753 373.536 385.37ZM378.235 386.191L377.652 384.725L378.305 384.465C378.755 384.286 378.914 383.938 378.915 383.504L378.904 383.198L374.377 378.329L376.111 377.639L378.779 380.731L378.864 380.697L378.616 376.643L380.371 375.944L380.545 383.363C380.573 384.555 380.173 385.421 378.985 385.893L378.235 386.191ZM386.511 380.048L384.297 374.482L385.143 374.145L385.462 374.948L385.526 374.923C385.59 374.302 385.955 373.661 386.779 373.334C387.614 373.001 388.386 373.166 388.939 373.652L389.014 373.622C389.103 372.756 389.594 372.214 390.375 371.903C391.617 371.409 392.769 371.968 393.255 373.188L394.689 376.795L393.844 377.132L392.52 373.802C392.102 372.753 391.365 372.427 390.541 372.755C389.759 373.066 389.296 373.895 389.709 374.933L391.029 378.251L390.183 378.588L388.795 375.098C388.441 374.21 387.629 373.913 386.848 374.224C386.066 374.534 385.65 375.419 386.024 376.361L387.357 379.712L386.511 380.048ZM398.904 375.28C397.267 375.931 395.651 375.173 394.974 373.471C394.293 371.758 394.942 370.087 396.515 369.461C397.682 368.997 398.601 369.499 398.887 369.72L398.952 369.694L398.594 368.795L399.44 368.459L401.654 374.025L400.84 374.349L400.491 373.471L400.427 373.497C400.368 373.755 400.114 374.799 398.904 375.28ZM398.656 374.499C399.865 374.017 400.201 372.743 399.737 371.576C399.192 370.206 398.021 369.755 396.918 370.193C395.773 370.649 395.338 371.863 395.841 373.126C396.36 374.432 397.489 374.963 398.656 374.499ZM405.65 372.435C404.623 372.844 403.77 372.539 403.323 371.415L402.062 368.246L401.013 368.664L400.728 367.946L401.563 367.614C401.713 367.555 401.792 367.412 401.72 367.23L401.188 365.892L401.98 365.576L402.623 367.193L404.335 366.512L404.621 367.229L402.908 367.91L404.164 371.068C404.402 371.667 404.768 371.931 405.41 371.676L406.181 371.369L406.474 372.108L405.65 372.435ZM410.218 370.618C409.191 371.027 408.338 370.722 407.891 369.598L406.63 366.429L405.581 366.847L405.296 366.129L406.131 365.797C406.281 365.738 406.36 365.595 406.288 365.413L405.756 364.074L406.548 363.759L407.191 365.376L408.903 364.695L409.189 365.412L407.476 366.093L408.732 369.251C408.971 369.85 409.336 370.114 409.978 369.859L410.749 369.552L411.043 370.291L410.218 370.618ZM415.024 368.868C413.322 369.545 411.743 368.723 411.078 367.053C410.372 365.276 411.126 363.65 412.646 363.045C414.337 362.372 415.837 363.214 416.476 364.819L416.625 365.194L412.086 366.999C412.572 368.095 413.583 368.549 414.728 368.093C415.467 367.799 416.033 367.165 416.03 366.41L416.907 366.061C417.01 367.223 416.33 368.349 415.024 368.868ZM411.809 366.241L415.427 364.802C414.91 363.719 413.894 363.441 412.952 363.816C412.021 364.186 411.486 365.18 411.809 366.241ZM419.116 367.08L416.902 361.513L417.736 361.181L418.149 362.219L418.214 362.194C418.187 361.659 418.507 360.875 419.321 360.551L419.792 360.364L420.128 361.209L419.668 361.392C418.651 361.797 418.399 362.815 418.82 363.874L419.961 366.743L419.116 367.08ZM425.298 364.782C423.981 365.305 422.947 364.886 422.437 363.886L423.262 363.558C423.622 364.184 424.233 364.35 425.047 364.026C425.882 363.694 426.18 363.104 425.955 362.537C425.333 360.974 422.477 363.486 421.6 361.281C421.225 360.339 421.828 359.393 422.995 358.929C424.022 358.52 425.117 358.779 425.603 359.751L424.789 360.074C424.506 359.58 423.969 359.384 423.231 359.678C422.535 359.954 422.222 360.476 422.413 360.958C422.975 362.37 425.847 359.865 426.762 362.166C427.179 363.215 426.593 364.266 425.298 364.782ZM434.24 361.064C433.213 361.472 432.36 361.167 431.913 360.043L430.652 356.874L429.603 357.292L429.318 356.575L430.153 356.242C430.303 356.183 430.382 356.04 430.31 355.858L429.778 354.52L430.57 354.205L431.213 355.821L432.925 355.14L433.211 355.857L431.498 356.538L432.754 359.696C432.993 360.295 433.358 360.559 434 360.304L434.771 359.997L435.065 360.736L434.24 361.064ZM436.636 360.111L433.442 352.083L434.288 351.746L435.591 355.022L435.655 354.996C435.69 354.399 436.132 353.703 436.999 353.358C438.295 352.843 439.485 353.498 439.975 354.729L441.367 358.229L440.521 358.565L439.15 355.119C438.797 354.23 437.893 353.92 437.111 354.231C436.255 354.572 435.778 355.493 436.136 356.392L437.481 359.774L436.636 360.111ZM445.6 356.706C443.898 357.383 442.319 356.561 441.655 354.891C440.948 353.114 441.702 351.488 443.222 350.883C444.913 350.21 446.413 351.052 447.052 352.657L447.201 353.032L442.662 354.837C443.148 355.934 444.159 356.387 445.304 355.931C446.043 355.638 446.609 355.003 446.606 354.248L447.484 353.899C447.586 355.061 446.906 356.187 445.6 356.706ZM442.386 354.08L446.004 352.64C445.486 351.557 444.47 351.279 443.528 351.654C442.597 352.024 442.063 353.018 442.386 354.08ZM452.692 353.724L450.478 348.158L451.324 347.822L451.643 348.625L451.707 348.599C451.77 347.979 452.135 347.338 452.96 347.01C453.794 346.678 454.566 346.842 455.12 347.328L455.194 347.299C455.284 346.432 455.775 345.89 456.556 345.579C457.798 345.085 458.95 345.644 459.435 346.864L460.87 350.471L460.024 350.808L458.7 347.479C458.283 346.43 457.546 346.103 456.721 346.431C455.94 346.742 455.476 347.571 455.889 348.609L457.209 351.928L456.364 352.264L454.976 348.774C454.622 347.886 453.81 347.589 453.028 347.9C452.247 348.211 451.83 349.096 452.205 350.037L453.538 353.388L452.692 353.724ZM465.214 348.905C463.544 349.569 461.823 348.828 461.15 347.137C460.482 345.456 461.24 343.716 462.9 343.056C464.58 342.388 466.299 343.155 466.963 344.825C467.627 346.494 466.883 348.241 465.214 348.905ZM464.907 348.134C466.106 347.657 466.59 346.411 466.096 345.169C465.606 343.938 464.394 343.354 463.195 343.831C461.996 344.308 461.532 345.571 462.017 346.792C462.516 348.044 463.719 348.607 464.907 348.134ZM471.46 346.42C470.144 346.944 469.109 346.525 468.6 345.525L469.424 345.197C469.784 345.822 470.396 345.988 471.209 345.665C472.044 345.333 472.343 344.743 472.117 344.175C471.495 342.613 468.639 345.125 467.762 342.92C467.387 341.978 467.99 341.031 469.157 340.567C470.185 340.158 471.279 340.417 471.765 341.389L470.952 341.713C470.668 341.218 470.132 341.023 469.393 341.316C468.697 341.593 468.384 342.114 468.575 342.596C469.138 344.009 472.009 341.503 472.924 343.805C473.342 344.854 472.756 345.905 471.46 346.42ZM477.403 343.896C476.375 344.304 475.522 343.999 475.075 342.875L473.815 339.706L472.766 340.124L472.48 339.406L473.315 339.074C473.465 339.015 473.545 338.872 473.472 338.69L472.94 337.352L473.732 337.037L474.375 338.653L476.088 337.972L476.373 338.689L474.66 339.37L475.916 342.528C476.155 343.127 476.52 343.391 477.162 343.136L477.933 342.829L478.227 343.568L477.403 343.896Z" fill="white"/>
<path fill-rule="evenodd" clip-rule="evenodd" d="M145.632 224.72L138.995 208.031L141.903 206.874L148.476 223.398C148.775 224.152 149.326 224.402 150.043 224.117L150.653 223.874L151.649 226.379L150.456 226.853C148.268 227.724 146.506 226.928 145.628 224.721L145.632 224.72ZM98.8706 240.671L101.779 239.514C102.578 241.442 104.822 242.325 107.51 241.256C110.198 240.187 110.953 238.704 110.278 237.006C109.367 234.717 107.043 235.067 104.486 235.453C101.362 235.924 97.8926 236.447 96.2324 232.273C95.1829 229.634 96.5293 226.074 100.631 224.442C104.732 222.811 107.908 223.541 109.527 227.45L106.508 228.651C105.769 226.792 103.996 226.129 101.642 227.065C99.2883 228.001 98.6435 229.693 99.1789 231.039C99.9672 233.021 102.17 232.688 104.655 232.313C107.872 231.827 111.562 231.27 113.271 235.567C114.438 238.501 112.92 242.191 108.46 243.965C104 245.739 100.316 244.304 98.8706 240.671ZM118.48 234.395L115.58 227.102L112.974 228.139L112.064 225.852L113.977 225.091C114.477 224.892 114.696 224.398 114.472 223.836L113.24 220.738L115.983 219.647L117.568 223.632L121.78 221.957L122.7 224.27L118.489 225.945L121.357 233.158C121.893 234.504 122.796 235.079 124.319 234.473L126.288 233.69L127.24 236.084L124.831 237.042C121.977 238.177 119.651 237.326 118.484 234.393L118.48 234.395ZM131.312 217.762C127.183 219.404 125.259 223.598 127.036 228.064L127.04 228.063C128.722 232.292 133.679 233.935 137.249 232.515C140.819 231.094 142.647 228.184 142.314 225.167L139.487 226.291C139.451 227.896 139.041 229.055 136.384 230.112C133.728 231.169 131.372 230.175 130.287 227.768L141.701 223.227L141.285 222.18C139.691 218.172 135.441 216.119 131.312 217.762ZM132.254 220.129C134.498 219.237 136.819 219.903 137.953 222.194L129.475 225.566C128.818 223.272 130.01 221.021 132.254 220.129ZM146.918 204.88L153.556 221.568C154.433 223.775 156.195 224.571 158.384 223.7L159.576 223.226L158.58 220.721L157.97 220.964C157.25 221.25 156.699 221 156.399 220.247L149.827 203.723L146.918 204.88ZM159.005 215.348C157.271 210.989 158.905 206.787 162.951 205.177C166.449 203.786 167.583 204.778 168.318 205.42C168.434 205.521 168.539 205.613 168.643 205.686L168.835 205.609L168.022 203.563L170.931 202.406L176.529 216.483L173.676 217.618L172.883 215.626L172.718 215.691C172.543 216.385 171.846 218.749 168.969 219.893C164.812 221.546 160.743 219.706 159.008 215.343L159.005 215.348ZM170.909 210.582C169.7 207.542 167.052 206.536 164.505 207.549C161.959 208.562 160.838 211.315 161.962 214.141C163.086 216.967 165.709 218.231 168.366 217.174C171.023 216.117 171.969 213.247 170.909 210.582ZM177.913 199.629L175.115 200.742L180.715 214.822L183.624 213.665L180.862 206.721C179.824 204.113 180.52 201.746 182.984 200.766L184.342 200.225L183.249 197.48L181.974 197.987C179.927 198.801 179.076 200.694 179.081 202.003L178.888 202.08L177.913 199.629ZM196.251 201.937L199.16 200.78C199.958 202.708 202.202 203.592 204.89 202.523C207.579 201.453 208.334 199.97 207.658 198.273C206.748 195.983 204.424 196.334 201.868 196.719C198.745 197.189 195.277 197.712 193.617 193.538C192.569 190.903 193.911 187.344 198.012 185.713C202.114 184.081 205.29 184.811 206.909 188.72L203.89 189.921C203.15 188.063 201.378 187.399 199.024 188.336C196.67 189.272 196.025 190.963 196.561 192.309C197.349 194.291 199.551 193.959 202.037 193.583C205.253 193.098 208.943 192.541 210.653 196.838C211.818 199.767 210.301 203.462 205.842 205.236C201.382 207.01 197.697 205.574 196.252 201.941L196.251 201.937ZM216.699 183.799C212.57 185.441 210.646 189.634 212.422 194.101C214.105 198.33 219.058 199.974 222.632 198.553C226.206 197.131 228.034 194.22 227.7 191.204L224.874 192.328C224.838 193.933 224.432 195.091 221.771 196.149C219.111 197.207 216.759 196.212 215.674 193.804L227.088 189.264L226.672 188.216C225.078 184.209 220.828 182.156 216.699 183.799ZM217.641 186.166C219.884 185.273 222.206 185.94 223.34 188.23L214.862 191.603C214.204 189.309 215.397 187.058 217.641 186.166ZM229.227 187.386C227.568 183.214 229.384 178.749 233.788 176.997C238.193 175.245 240.947 176.519 242.896 179.482L239.905 180.672C238.763 179.257 236.756 178.806 234.843 179.567C232.099 180.658 231.135 183.473 232.217 186.192C233.298 188.911 236.019 190.261 238.731 189.182C241.443 188.103 241.767 186.73 241.63 184.941L244.594 183.763C245.242 187.248 243.097 190.404 239.688 191.76C236.279 193.116 230.869 191.525 229.22 187.38L229.227 187.386ZM244.265 173.237L247.86 182.277C249.071 185.321 252.021 186.859 255.32 185.547C257.481 184.687 258.549 183.018 258.671 181.627L258.864 181.55L259.613 183.436L262.44 182.312L256.841 168.235L253.932 169.392L257.219 177.656C258.033 179.702 256.939 181.882 255.113 182.608C253.287 183.335 251.359 182.604 250.567 180.612L247.173 172.08L244.265 173.237ZM261.107 166.538L263.906 165.425L264.881 167.876L265.074 167.799C265.068 166.491 265.92 164.597 267.967 163.783L269.242 163.276L270.334 166.021L268.976 166.562C266.512 167.542 265.817 169.909 266.855 172.517L269.617 179.461L266.708 180.618L261.107 166.538ZM271.774 155.59C270.664 156.031 270.162 157.108 270.569 158.129C270.998 159.207 272.062 159.625 273.199 159.173C274.337 158.72 274.83 157.621 274.422 156.596C274.014 155.571 272.884 155.148 271.774 155.59ZM275.518 160.806L272.609 161.963L278.208 176.04L281.117 174.883L275.518 160.806ZM284.932 168.188L282.031 160.895L279.425 161.932L278.516 159.645L280.429 158.884C280.929 158.685 281.147 158.191 280.923 157.629L279.691 154.531L282.435 153.44L284.02 157.425L288.231 155.75L289.152 158.063L284.94 159.738L287.809 166.951C288.344 168.297 289.248 168.872 290.771 168.266L292.739 167.483L293.691 169.877L291.282 170.835C288.428 171.97 286.102 171.119 284.936 168.186L284.932 168.188ZM300.08 171.578L298.805 172.085L299.812 174.617L301.445 173.967C304.051 172.931 304.889 171.163 304.863 168.679L304.799 149.159L301.614 150.426L301.949 162.889L301.756 162.966L293.411 153.689L290.255 154.944L301.935 167.289L301.942 168.844C301.95 170.148 301.411 171.049 300.08 171.578Z" fill="#0B1319"/>
<path fill-rule="evenodd" clip-rule="evenodd" d="M474.626 72.3213L468.886 88.0776L477.291 84.7345L471.663 100.329L462.987 90.4238L458.36 78.7911L473.525 72.7593L474.626 72.3213ZM480.069 79.6274L484.107 68.5502L488.689 66.7276L493.316 78.3604L493.827 91.5131L485.055 101.746L471.663 100.329L488.428 76.1703L480.069 79.6274Z" fill="#4364FA"/>
<path d="M273.446 421.742L270.962 415.498L274.521 414.082L274.784 414.742L271.947 415.871L272.774 417.949L275.218 416.977L275.477 417.628L273.033 418.6L273.909 420.804L276.844 419.636L277.103 420.287L273.446 421.742ZM278.348 419.792L276.503 415.154L277.208 414.873L277.478 415.551L277.531 415.53C277.561 415.033 277.911 414.459 278.634 414.172C279.713 413.743 280.687 414.295 281.095 415.321L282.255 418.238L281.551 418.518L280.408 415.646C280.114 414.906 279.378 414.641 278.727 414.9C277.995 415.19 277.648 415.98 277.953 416.747L279.053 419.512L278.348 419.792ZM285.846 416.944C284.446 417.501 283.042 416.83 282.496 415.456C281.95 414.083 282.535 412.62 283.9 412.077C284.908 411.676 286.086 411.91 286.747 412.846L286.016 413.137C285.587 412.605 284.842 412.446 284.173 412.712C283.183 413.106 282.826 414.157 283.227 415.165C283.643 416.209 284.645 416.678 285.618 416.291C286.287 416.025 286.728 415.395 286.665 414.717L287.388 414.43C287.559 415.561 286.854 416.543 285.846 416.944ZM289.246 415.458L287.401 410.819L288.097 410.542L288.441 411.408L288.494 411.386C288.472 410.941 288.739 410.287 289.417 410.017L289.809 409.861L290.09 410.566L289.706 410.718C288.859 411.055 288.648 411.904 289 412.787L289.951 415.177L289.246 415.458ZM293.553 416.121L293.298 415.478L293.646 415.34C294.101 415.159 294.281 414.86 294.273 414.398L294.264 413.751L290.437 409.611L291.222 409.299L294.22 412.653L294.273 412.632L294.157 408.132L294.951 407.816L295.006 414.396C295.017 415.125 294.793 415.627 294.035 415.929L293.553 416.121ZM298.686 414.079L296.025 407.389L296.703 407.119L296.994 407.851L297.047 407.829C297.096 407.614 297.308 406.744 298.316 406.343C299.681 405.8 301.027 406.432 301.591 407.851C302.159 409.278 301.618 410.671 300.307 411.192C299.334 411.579 298.569 411.161 298.33 410.976L298.277 410.998L299.391 413.799L298.686 414.079ZM299.971 410.582C300.925 410.202 301.288 409.191 300.869 408.138C300.436 407.05 299.496 406.608 298.523 406.994C297.515 407.395 297.235 408.457 297.622 409.429C298.076 410.571 299.052 410.948 299.971 410.582ZM305.578 408.961C304.722 409.302 304.011 409.047 303.639 408.111L302.588 405.47L301.714 405.818L301.476 405.22L302.172 404.944C302.297 404.894 302.363 404.775 302.303 404.623L301.859 403.508L302.52 403.245L303.055 404.592L304.483 404.025L304.72 404.622L303.293 405.19L304.34 407.822C304.538 408.321 304.843 408.541 305.378 408.328L306.02 408.073L306.265 408.688L305.578 408.961ZM309.583 407.503C308.164 408.067 306.848 407.382 306.295 405.99C305.706 404.509 306.334 403.154 307.601 402.65C309.01 402.089 310.26 402.791 310.793 404.129L310.917 404.441L307.135 405.945C307.539 406.859 308.382 407.237 309.336 406.857C309.952 406.612 310.423 406.084 310.421 405.454L311.153 405.163C311.238 406.132 310.671 407.07 309.583 407.503ZM306.904 405.314L309.919 404.115C309.488 403.212 308.641 402.98 307.856 403.292C307.08 403.601 306.635 404.429 306.904 405.314ZM314.992 405.351C313.627 405.894 312.281 405.262 311.717 403.844C311.149 402.417 311.69 401.024 313.001 400.502C313.974 400.115 314.74 400.534 314.978 400.718L315.032 400.697L313.917 397.896L314.622 397.615L317.283 404.306L316.605 404.575L316.314 403.844L316.261 403.865C316.212 404.081 316 404.95 314.992 405.351ZM314.785 404.7C315.793 404.299 316.073 403.237 315.686 402.265C315.232 401.123 314.256 400.747 313.337 401.112C312.383 401.492 312.021 402.504 312.439 403.556C312.872 404.645 313.813 405.087 314.785 404.7ZM319.232 404.884L318.589 402.825L319.365 402.517L319.749 404.678L319.232 404.884ZM325.253 401.27C324.156 401.706 323.294 401.357 322.869 400.524L323.556 400.251C323.856 400.772 324.366 400.91 325.044 400.64C325.74 400.363 325.988 399.872 325.8 399.399C325.282 398.097 322.902 400.19 322.171 398.353C321.859 397.568 322.361 396.779 323.334 396.392C324.19 396.052 325.102 396.267 325.507 397.078L324.829 397.347C324.593 396.935 324.146 396.772 323.53 397.017C322.95 397.247 322.689 397.682 322.849 398.083C323.317 399.261 325.71 397.172 326.473 399.09C326.821 399.964 326.332 400.841 325.253 401.27ZM330.403 399.222C328.984 399.786 327.668 399.1 327.115 397.709C326.526 396.228 327.154 394.873 328.421 394.369C329.83 393.808 331.08 394.51 331.612 395.848L331.737 396.16L327.954 397.664C328.359 398.578 329.202 398.955 330.156 398.576C330.772 398.331 331.243 397.802 331.241 397.173L331.972 396.882C332.058 397.85 331.491 398.789 330.403 399.222ZM327.724 397.033L330.739 395.833C330.307 394.931 329.461 394.699 328.676 395.011C327.9 395.32 327.455 396.148 327.724 397.033ZM335.883 397.042C334.483 397.599 333.079 396.927 332.533 395.554C331.987 394.18 332.572 392.718 333.937 392.175C334.945 391.774 336.123 392.008 336.784 392.943L336.053 393.234C335.624 392.702 334.88 392.544 334.211 392.81C333.22 393.204 332.864 394.255 333.264 395.263C333.68 396.306 334.682 396.775 335.655 396.389C336.324 396.123 336.765 395.492 336.702 394.815L337.425 394.527C337.596 395.658 336.891 396.641 335.883 397.042ZM340.97 395.018C339.891 395.448 338.917 394.895 338.509 393.869L337.349 390.952L338.053 390.672L339.203 393.562C339.498 394.302 340.233 394.568 340.884 394.309C341.616 394.018 341.963 393.229 341.658 392.461L340.551 389.678L341.256 389.398L343.101 394.036L342.396 394.317L342.126 393.639L342.073 393.66C342.043 394.157 341.693 394.731 340.97 395.018ZM344.614 393.435L342.769 388.796L343.465 388.519L343.809 389.385L343.863 389.363C343.84 388.918 344.107 388.264 344.785 387.994L345.178 387.838L345.458 388.543L345.074 388.695C344.227 389.032 344.017 389.881 344.368 390.764L345.319 393.154L344.614 393.435ZM350.02 391.419C348.602 391.983 347.286 391.297 346.732 389.906C346.143 388.425 346.772 387.07 348.038 386.566C349.448 386.005 350.698 386.707 351.23 388.045L351.354 388.357L347.572 389.861C347.977 390.775 348.819 391.152 349.774 390.773C350.389 390.528 350.861 389.999 350.858 389.37L351.59 389.079C351.675 390.047 351.108 390.986 350.02 391.419ZM347.341 389.23L350.357 388.03C349.925 387.128 349.079 386.896 348.294 387.208C347.518 387.517 347.072 388.345 347.341 389.23ZM355.43 389.267C354.065 389.81 352.718 389.178 352.154 387.76C351.587 386.332 352.128 384.939 353.439 384.418C354.411 384.031 355.177 384.45 355.415 384.634L355.469 384.612L354.355 381.811L355.06 381.531L357.721 388.221L357.043 388.491L356.752 387.76L356.698 387.781C356.65 387.996 356.438 388.866 355.43 389.267ZM355.222 388.616C356.23 388.215 356.51 387.153 356.124 386.181C355.67 385.039 354.693 384.663 353.775 385.028C352.82 385.408 352.458 386.42 352.877 387.472C353.31 388.56 354.25 389.003 355.222 388.616ZM363.74 385.961C362.375 386.504 361.029 385.872 360.465 384.454C359.897 383.027 360.438 381.634 361.749 381.112C362.722 380.726 363.487 381.144 363.726 381.328L363.779 381.307L363.481 380.558L364.186 380.277L366.031 384.916L365.353 385.186L365.062 384.454L365.009 384.475C364.96 384.691 364.748 385.56 363.74 385.961ZM363.533 385.31C364.541 384.909 364.821 383.847 364.434 382.875C363.98 381.733 363.004 381.357 362.085 381.723C361.131 382.102 360.769 383.114 361.187 384.167C361.62 385.255 362.56 385.697 363.533 385.31ZM367.551 384.311L365.706 379.673L366.411 379.393L366.68 380.07L366.734 380.049C366.763 379.552 367.114 378.979 367.836 378.691C368.916 378.262 369.89 378.815 370.298 379.84L371.458 382.757L370.753 383.038L369.611 380.165C369.316 379.425 368.58 379.16 367.929 379.419C367.198 379.71 366.85 380.499 367.156 381.266L368.256 384.031L367.551 384.311ZM374.978 381.492C373.613 382.035 372.266 381.403 371.702 379.984C371.134 378.557 371.675 377.164 372.987 376.642C373.959 376.256 374.725 376.674 374.963 376.858L375.017 376.837L373.903 374.036L374.607 373.756L377.269 380.446L376.591 380.716L376.3 379.984L376.246 380.006C376.198 380.221 375.986 381.091 374.978 381.492ZM374.77 380.841C375.778 380.44 376.058 379.378 375.672 378.405C375.217 377.264 374.241 376.887 373.323 377.253C372.368 377.632 372.006 378.644 372.425 379.697C372.858 380.785 373.798 381.227 374.77 380.841ZM382.104 380.899L379.443 374.209L380.121 373.939L380.412 374.67L380.466 374.649C380.514 374.434 380.726 373.564 381.734 373.163C383.099 372.62 384.446 373.252 385.01 374.67C385.577 376.098 385.036 377.491 383.725 378.012C382.753 378.399 381.987 377.98 381.749 377.796L381.695 377.818L382.809 380.619L382.104 380.899ZM383.389 377.402C384.344 377.022 384.706 376.01 384.287 374.958C383.854 373.87 382.914 373.427 381.942 373.814C380.934 374.215 380.654 375.277 381.04 376.249C381.494 377.391 382.471 377.767 383.389 377.402ZM387.186 376.501L385.341 371.863L386.037 371.586L386.381 372.451L386.434 372.43C386.412 371.984 386.679 371.331 387.357 371.061L387.749 370.905L388.03 371.61L387.646 371.762C386.799 372.099 386.588 372.947 386.94 373.83L387.891 376.221L387.186 376.501ZM392.69 374.446C391.298 375 389.864 374.382 389.304 372.973C388.747 371.572 389.379 370.122 390.762 369.572C392.162 369.015 393.594 369.655 394.148 371.046C394.701 372.438 394.081 373.893 392.69 374.446ZM392.434 373.804C393.434 373.407 393.837 372.368 393.425 371.334C393.017 370.308 392.007 369.821 391.008 370.218C390.009 370.616 389.622 371.668 390.026 372.685C390.442 373.729 391.444 374.198 392.434 373.804ZM398.126 372.15C397.27 372.491 396.559 372.236 396.186 371.299L395.136 368.659L394.262 369.007L394.024 368.409L394.72 368.132C394.845 368.083 394.911 367.963 394.851 367.812L394.407 366.697L395.067 366.434L395.603 367.781L397.03 367.213L397.268 367.811L395.841 368.379L396.887 371.01C397.086 371.51 397.391 371.73 397.926 371.517L398.568 371.261L398.813 371.877L398.126 372.15ZM402.131 370.691C400.712 371.256 399.396 370.57 398.843 369.179C398.254 367.698 398.882 366.342 400.149 365.839C401.558 365.278 402.808 365.979 403.34 367.317L403.465 367.63L399.682 369.134C400.087 370.047 400.93 370.425 401.884 370.046C402.5 369.801 402.971 369.272 402.969 368.643L403.7 368.352C403.786 369.32 403.219 370.259 402.131 370.691ZM399.452 368.502L402.467 367.303C402.035 366.4 401.189 366.169 400.404 366.481C399.628 366.79 399.183 367.618 399.452 368.502ZM407.611 368.511C406.211 369.068 404.807 368.397 404.261 367.023C403.715 365.65 404.3 364.187 405.665 363.644C406.673 363.244 407.851 363.478 408.512 364.413L407.781 364.704C407.352 364.172 406.608 364.014 405.938 364.28C404.948 364.673 404.592 365.725 404.992 366.733C405.408 367.776 406.41 368.245 407.383 367.858C408.052 367.592 408.493 366.962 408.43 366.285L409.153 365.997C409.324 367.128 408.619 368.11 407.611 368.511ZM412.822 366.305C411.965 366.645 411.255 366.391 410.882 365.454L409.832 362.814L408.958 363.161L408.72 362.564L409.416 362.287C409.541 362.237 409.607 362.118 409.546 361.966L409.103 360.851L409.763 360.589L410.299 361.936L411.726 361.368L411.964 361.966L410.537 362.533L411.583 365.165C411.782 365.664 412.086 365.884 412.622 365.671L413.264 365.416L413.509 366.031L412.822 366.305ZM416.826 364.846C415.408 365.41 414.092 364.725 413.538 363.333C412.949 361.853 413.578 360.497 414.844 359.993C416.254 359.433 417.504 360.134 418.036 361.472L418.16 361.784L414.378 363.289C414.783 364.202 415.625 364.58 416.58 364.2C417.195 363.955 417.667 363.427 417.665 362.798L418.396 362.507C418.482 363.475 417.915 364.413 416.826 364.846ZM414.148 362.657L417.163 361.458C416.731 360.555 415.885 360.323 415.1 360.636C414.324 360.944 413.878 361.772 414.148 362.657ZM422.236 362.694C420.871 363.237 419.524 362.605 418.96 361.187C418.393 359.76 418.934 358.367 420.245 357.845C421.217 357.459 421.983 357.877 422.222 358.061L422.275 358.04L421.161 355.239L421.866 354.959L424.527 361.649L423.849 361.919L423.558 361.187L423.504 361.208C423.456 361.424 423.244 362.293 422.236 362.694ZM422.028 362.043C423.036 361.642 423.317 360.58 422.93 359.608C422.476 358.466 421.5 358.09 420.581 358.456C419.626 358.835 419.264 359.847 419.683 360.9C420.116 361.988 421.056 362.43 422.028 362.043ZM430.93 359.236C429.922 359.637 429.17 359.151 428.987 359.028L428.934 359.049L429.225 359.78L428.547 360.05L425.886 353.36L426.59 353.079L427.704 355.88L427.758 355.859C427.805 355.562 428.074 354.731 429.046 354.345C430.357 353.823 431.707 354.464 432.275 355.891C432.839 357.309 432.295 358.693 430.93 359.236ZM430.633 358.621C431.606 358.234 431.985 357.267 431.553 356.178C431.134 355.126 430.176 354.639 429.221 355.019C428.302 355.384 427.851 356.328 428.306 357.47C428.692 358.442 429.625 359.022 430.633 358.621ZM435.049 359.84L434.794 359.198L435.142 359.059C435.597 358.878 435.777 358.579 435.769 358.117L435.76 357.47L431.933 353.331L432.718 353.018L435.715 356.372L435.769 356.351L435.653 351.851L436.447 351.535L436.502 358.115C436.513 358.844 436.289 359.347 435.531 359.648L435.049 359.84ZM443.741 354.141C442.501 354.634 441.188 354.216 440.727 353.056L441.449 352.769C441.737 353.491 442.556 353.837 443.501 353.461C444.322 353.135 444.751 352.499 444.492 351.848C443.715 349.894 440.806 352.632 439.812 350.135C439.458 349.242 439.889 348.172 441.147 347.672C442.093 347.296 443.404 347.373 443.919 348.666L443.179 348.961C442.895 348.247 442.248 347.998 441.401 348.335C440.518 348.687 440.329 349.33 440.535 349.847C441.213 351.551 444.202 348.988 445.206 351.512C445.596 352.494 445.106 353.598 443.741 354.141ZM448.921 351.946C448.065 352.287 447.354 352.032 446.981 351.095L445.931 348.455L445.057 348.803L444.819 348.205L445.515 347.928C445.64 347.879 445.706 347.759 445.646 347.608L445.202 346.493L445.862 346.23L446.398 347.577L447.825 347.009L448.063 347.607L446.636 348.175L447.682 350.806C447.881 351.306 448.186 351.526 448.721 351.313L449.363 351.057L449.608 351.673L448.921 351.946ZM452.926 350.487C451.507 351.052 450.191 350.366 449.638 348.975C449.049 347.494 449.677 346.138 450.944 345.635C452.353 345.074 453.603 345.775 454.135 347.113L454.26 347.426L450.477 348.93C450.882 349.843 451.725 350.221 452.679 349.842C453.294 349.597 453.766 349.068 453.764 348.439L454.495 348.148C454.581 349.116 454.014 350.055 452.926 350.487ZM450.247 348.298L453.262 347.099C452.83 346.196 451.984 345.965 451.199 346.277C450.423 346.586 449.978 347.414 450.247 348.298ZM456.984 348.739C456.404 348.969 455.923 348.747 455.671 348.114L453.404 342.414L454.109 342.134L456.376 347.834C456.468 348.066 456.638 348.153 456.861 348.065L457.075 347.98L457.323 348.604L456.984 348.739ZM459.449 347.758C458.869 347.989 458.389 347.767 458.137 347.134L455.869 341.433L456.574 341.153L458.841 346.853C458.934 347.085 459.103 347.173 459.326 347.084L459.54 346.999L459.788 347.623L459.449 347.758ZM462.952 346.499C461.587 347.042 460.241 346.41 459.676 344.992C459.109 343.565 459.65 342.172 460.961 341.65C461.933 341.263 462.699 341.682 462.938 341.866L462.991 341.845L462.693 341.096L463.398 340.815L465.243 345.454L464.565 345.723L464.274 344.992L464.22 345.013C464.172 345.229 463.96 346.098 462.952 346.499ZM462.745 345.848C463.753 345.447 464.033 344.385 463.646 343.413C463.192 342.271 462.216 341.895 461.297 342.26C460.342 342.64 459.98 343.652 460.399 344.705C460.832 345.793 461.772 346.235 462.745 345.848ZM466.763 344.849L464.918 340.211L465.613 339.934L465.958 340.799L466.011 340.778C465.989 340.332 466.256 339.679 466.934 339.409L467.326 339.253L467.606 339.957L467.223 340.11C466.375 340.447 466.165 341.295 466.516 342.178L467.467 344.569L466.763 344.849ZM474.709 341.823C473.469 342.316 472.156 341.898 471.695 340.739L472.417 340.451C472.705 341.174 473.524 341.519 474.47 341.143C475.29 340.817 475.719 340.181 475.46 339.53C474.683 337.576 471.774 340.314 470.781 337.817C470.426 336.925 470.858 335.854 472.115 335.354C473.061 334.978 474.373 335.055 474.887 336.349L474.147 336.643C473.863 335.929 473.216 335.68 472.369 336.017C471.486 336.369 471.297 337.012 471.503 337.529C472.181 339.233 475.17 336.67 476.174 339.194C476.564 340.176 476.074 341.28 474.709 341.823ZM480.087 339.684C478.669 340.248 477.353 339.563 476.799 338.171C476.21 336.69 476.838 335.335 478.105 334.831C479.515 334.27 480.765 334.972 481.297 336.31L481.421 336.622L477.639 338.126C478.044 339.04 478.886 339.418 479.84 339.038C480.456 338.793 480.928 338.265 480.925 337.635L481.657 337.344C481.742 338.313 481.175 339.251 480.087 339.684ZM477.408 337.495L480.423 336.296C479.992 335.393 479.146 335.161 478.361 335.473C477.585 335.782 477.139 336.61 477.408 337.495ZM485.568 337.504C484.167 338.061 482.764 337.39 482.217 336.016C481.671 334.642 482.257 333.18 483.622 332.637C484.63 332.236 485.808 332.47 486.469 333.405L485.737 333.696C485.309 333.164 484.564 333.006 483.895 333.272C482.905 333.666 482.548 334.717 482.949 335.725C483.364 336.769 484.367 337.238 485.339 336.851C486.008 336.585 486.45 335.955 486.387 335.277L487.109 334.99C487.28 336.12 486.576 337.103 485.568 337.504ZM490.655 335.48C489.576 335.91 488.601 335.357 488.193 334.331L487.033 331.414L487.738 331.134L488.888 334.024C489.182 334.764 489.918 335.03 490.569 334.771C491.3 334.48 491.648 333.691 491.343 332.924L490.236 330.14L490.94 329.86L492.785 334.499L492.081 334.779L491.811 334.101L491.757 334.122C491.728 334.62 491.377 335.193 490.655 335.48ZM494.299 333.897L492.454 329.258L493.149 328.981L493.494 329.847L493.547 329.825C493.525 329.38 493.792 328.726 494.47 328.456L494.862 328.3L495.142 329.005L494.759 329.157C493.911 329.494 493.701 330.343 494.052 331.226L495.003 333.616L494.299 333.897ZM496.057 326.854C495.763 326.971 495.46 326.833 495.343 326.538C495.23 326.253 495.355 325.945 495.649 325.828C495.953 325.707 496.256 325.845 496.369 326.13C496.486 326.425 496.361 326.733 496.057 326.854ZM497.87 332.476L496.025 327.838L496.73 327.557L498.575 332.196L497.87 332.476ZM501.902 330.872C501.046 331.213 500.335 330.958 499.963 330.022L498.913 327.381L498.038 327.729L497.801 327.131L498.496 326.855C498.621 326.805 498.687 326.686 498.627 326.534L498.184 325.419L498.844 325.156L499.379 326.503L500.807 325.936L501.044 326.533L499.617 327.101L500.664 329.732C500.863 330.232 501.167 330.452 501.702 330.239L502.344 329.984L502.589 330.599L501.902 330.872ZM504.634 332.162L504.379 331.52L504.727 331.381C505.182 331.2 505.362 330.901 505.354 330.439L505.345 329.792L501.518 325.653L502.303 325.34L505.301 328.694L505.354 328.673L505.238 324.173L506.032 323.857L506.087 330.437C506.098 331.166 505.874 331.669 505.116 331.97L504.634 332.162Z" fill="#0B1319"/>
<path d="M526.675 175.215L521.796 162.95C519.837 158.023 514.255 155.618 509.328 157.578L440.865 184.809M426.147 190.664L406.203 198.596C403.837 199.537 401.942 201.38 400.934 203.718L391.322 226.026C390.315 228.365 390.278 231.007 391.219 233.373L412.545 286.991C414.505 291.918 420.087 294.323 425.014 292.363L460.918 278.082M475.636 272.228L544.099 244.996C549.026 243.037 551.431 237.454 549.471 232.528L545.036 221.378" stroke="#85898C" stroke-width="5.76" stroke-linecap="round" stroke-linejoin="round"/>
<mask id="mask1_303_1158" style="mask-type:alpha" maskUnits="userSpaceOnUse" x="456" y="189" width="74" height="65">
<rect x="455.032" y="210.686" width="62.4" height="47.45" rx="4.8" transform="rotate(-21.6905 455.032 210.686)" fill="#D9D9D9"/>
</mask>
<g mask="url(#mask1_303_1158)">
<rect x="455.032" y="210.686" width="62.4" height="47.45" transform="rotate(-21.6905 455.032 210.686)" fill="#BDAC8E"/>
<path d="M460.749 225.9L482.78 217.137M473.956 202.825L486.178 208.091L488.82 214.734L482.78 217.137M495.369 194.307L490.103 206.529L492.746 213.173M519.307 202.608L496.974 211.491L502.739 225.987L525.073 217.103M466.515 240.395L488.546 231.632L482.78 217.137" stroke="#0B1319" stroke-width="0.96" stroke-linecap="square" stroke-linejoin="round"/>
<path d="M513.136 238.974L500.492 233.526L499.275 230.464C498.687 228.986 499.408 227.312 500.886 226.724L503.948 225.506" stroke="#0B1319" stroke-width="0.96" stroke-linecap="square" stroke-linejoin="round"/>
<path d="M490.514 247.972L495.962 235.328L494.744 232.266C494.156 230.788 492.482 230.067 491.004 230.654L487.942 231.872" stroke="#0B1319" stroke-width="0.96" stroke-linecap="square" stroke-linejoin="round"/>
</g>
</g>
</g>
<defs>
<filter id="filter0_d_303_1158" x="0.731564" y="0.731564" width="672.194" height="572.272" filterUnits="userSpaceOnUse" color-interpolation-filters="sRGB">
<feFlood flood-opacity="0" result="BackgroundImageFix"/>
<feColorMatrix in="SourceAlpha" type="matrix" values="0 0 0 0 0 0 0 0 0 0 0 0 0 0 0 0 0 0 127 0" result="hardAlpha"/>
<feOffset dy="24"/>
<feGaussianBlur stdDeviation="30"/>
<feComposite in2="hardAlpha" operator="out"/>
<feColorMatrix type="matrix" values="0 0 0 0 0.0431373 0 0 0 0 0.0745098 0 0 0 0 0.0980392 0 0 0 0.1 0"/>
<feBlend mode="normal" in2="BackgroundImageFix" result="effect1_dropShadow_303_1158"/>
<feBlend mode="normal" in="SourceGraphic" in2="effect1_dropShadow_303_1158" result="shape"/>
</filter>
</defs>
</svg>
