<svg width="169" height="20" viewBox="0 0 169 20" fill="none" xmlns="http://www.w3.org/2000/svg">
<path fill-rule="evenodd" clip-rule="evenodd" d="M10.7262 0L3.88981 7.67106H9.43238L2.69616 15.2753L0 7.67106V0H10H10.7262ZM12.1704 5.39228L16.9784 0H20.0001V7.67106L17.3123 15.2753L10.0001 19.115L2.69629 15.2753L17.713 5.31715L12.1704 5.39228Z" fill="#4364FA"/>
<path d="M33.7136 15C30.9731 15 29 13.2936 29 10.8165H30.9183C30.9366 12.1376 32.0145 13.1835 33.7867 13.1835C35.3031 13.1835 36.3262 12.4862 36.3262 11.3303C36.3262 7.86239 29.4019 10.4312 29.4019 5.25688C29.4019 3.31193 30.9731 1.6789 33.677 1.6789C35.8511 1.6789 38.0252 2.85321 38.0618 5.53211H36.0704C36.0704 4.26606 35.2117 3.45872 33.6588 3.45872C32.0876 3.45872 31.3568 4.30275 31.3568 5.22018C31.3568 8.3211 38.3541 5.99083 38.3541 11.1835C38.3541 13.3303 36.655 15 33.7136 15Z" fill="#0B1319"/>
<path d="M44.78 14.7615C42.8983 14.7615 41.7655 13.7156 41.7655 11.7156V6.74312H40.0482V5.18349H41.3088C41.6377 5.18349 41.8752 4.94495 41.8752 4.55963V2.44954H43.6839V5.16514H46.4609V6.74312H43.6839V11.6606C43.6839 12.578 44.0675 13.1284 45.0724 13.1284H46.3695V14.7615H44.78Z" fill="#0B1319"/>
<path d="M53.0492 15C50.1809 15 48.2443 12.8716 48.2443 9.99083C48.2443 6.94496 50.2905 4.92661 53.0127 4.92661C55.9907 4.92661 57.6897 7.12844 57.6897 9.86239V10.578H50.1626C50.2357 12.2477 51.3501 13.3853 53.104 13.3853C54.3098 13.3853 55.3512 12.7982 55.7349 11.8624H57.5984C57.1051 13.7156 55.406 15 53.0492 15ZM50.1992 9.09174H55.7897C55.6618 7.47707 54.4925 6.54129 53.0127 6.54129C51.5511 6.54129 50.3453 7.58716 50.1992 9.09174Z" fill="#0B1319"/>
<path d="M62.0377 14.7615C60.5943 14.7615 59.7722 13.8807 59.7722 12.3761V1H61.6905V12.2661C61.6905 12.7798 61.9463 13.055 62.4213 13.055H62.8232V14.7615H62.0377Z" fill="#0B1319"/>
<path d="M67.4479 14.7615C66.0046 14.7615 65.1825 13.8807 65.1825 12.3761V1H67.1008V12.2661C67.1008 12.7798 67.3566 13.055 67.8316 13.055H68.2335V14.7615H67.4479Z" fill="#0B1319"/>
<path d="M74.686 15C71.8177 15 69.8811 12.8716 69.8811 9.99083C69.8811 6.94496 71.9273 4.92661 74.6495 4.92661C77.6274 4.92661 79.3265 7.12844 79.3265 9.86239V10.578H71.7994C71.8725 12.2477 72.9869 13.3853 74.7408 13.3853C75.9466 13.3853 76.988 12.7982 77.3717 11.8624H79.2352C78.7419 13.7156 77.0428 15 74.686 15ZM71.8359 9.09174H77.4265C77.2986 7.47707 76.1293 6.54129 74.6495 6.54129C73.1879 6.54129 71.9821 7.58716 71.8359 9.09174Z" fill="#0B1319"/>
<path d="M81.8372 14.7615V5.16514H83.6824V6.83486H83.8103C84.1026 6.06422 85.0161 5.14679 86.3681 5.14679H87.2085V7.01835H86.3133C84.6872 7.01835 83.7555 8.24771 83.7555 10.0275V14.7615H81.8372Z" fill="#0B1319"/>
<path d="M98.691 15C95.9505 15 93.9774 13.2936 93.9774 10.8165H95.8957C95.914 12.1376 96.9919 13.1835 98.7641 13.1835C100.28 13.1835 101.304 12.4862 101.304 11.3303C101.304 7.86239 94.3793 10.4312 94.3793 5.25688C94.3793 3.31193 95.9505 1.6789 98.6544 1.6789C100.829 1.6789 103.003 2.85321 103.039 5.53211H101.048C101.048 4.26606 100.189 3.45872 98.6362 3.45872C97.065 3.45872 96.3342 4.30275 96.3342 5.22018C96.3342 8.3211 103.331 5.99083 103.331 11.1835C103.331 13.3303 101.632 15 98.691 15Z" fill="#0B1319"/>
<path d="M109.94 15C107.072 15 105.135 12.8716 105.135 9.99083C105.135 6.94496 107.181 4.92661 109.904 4.92661C112.882 4.92661 114.581 7.12844 114.581 9.86239V10.578H107.054C107.127 12.2477 108.241 13.3853 109.995 13.3853C111.201 13.3853 112.242 12.7982 112.626 11.8624H114.489C113.996 13.7156 112.297 15 109.94 15ZM107.09 9.09174H112.681C112.553 7.47707 111.383 6.54129 109.904 6.54129C108.442 6.54129 107.236 7.58716 107.09 9.09174Z" fill="#0B1319"/>
<path d="M121.385 15C118.425 15 116.415 12.7982 116.415 9.97248C116.415 7.12844 118.462 4.92661 121.366 4.92661C123.632 4.92661 125.55 6.3211 125.989 8.52294H124.016C123.687 7.42202 122.645 6.68807 121.385 6.68807C119.576 6.68807 118.388 8.11927 118.388 9.97248C118.388 11.8624 119.631 13.2569 121.421 13.2569C122.645 13.2569 123.705 12.5229 124.034 11.4404H125.989C125.568 13.6422 123.632 15 121.385 15Z" fill="#0B1319"/>
<path d="M131.876 15C129.702 15 128.368 13.4037 128.368 11.3303V5.16514H130.286V10.9817C130.286 12.3395 131.218 13.2202 132.424 13.2202C133.758 13.2202 134.744 12.1927 134.744 10.7982V5.16514H136.662V14.7615H134.799V13.4771H134.671C134.287 14.2661 133.301 15 131.876 15Z" fill="#0B1319"/>
<path d="M139.652 14.7615V5.16514H141.497V6.83486H141.625C141.917 6.06422 142.83 5.14679 144.182 5.14679H145.023V7.01835H144.128C142.502 7.01835 141.57 8.24771 141.57 10.0275V14.7615H139.652Z" fill="#0B1319"/>
<path d="M148.385 3.66055C147.654 3.66055 147.125 3.16514 147.125 2.43119C147.125 1.73395 147.654 1.22018 148.385 1.22018C149.134 1.22018 149.664 1.73395 149.664 2.43119C149.664 3.16514 149.134 3.66055 148.385 3.66055ZM147.417 14.7615V5.16514H149.335V14.7615H147.417Z" fill="#0B1319"/>
<path d="M156.22 14.7615C154.339 14.7615 153.206 13.7156 153.206 11.7156V6.74312H151.488V5.18349H152.749C153.078 5.18349 153.315 4.94495 153.315 4.55963V2.44954H155.124V5.16514H157.901V6.74312H155.124V11.6606C155.124 12.578 155.508 13.1284 156.513 13.1284H157.81V14.7615H156.22Z" fill="#0B1319"/>
<path d="M160.395 18.9817V17.2569H161.235C162.112 17.2569 162.624 16.8532 162.916 16.0826L163.263 15.1651L159.408 5.16514H161.491L164.14 12.578H164.268L166.899 5.16514H169L164.615 16.6697C164.067 18.1376 163.19 18.9817 161.473 18.9817H160.395Z" fill="#0B1319"/>
</svg>
