<svg width="91" height="90" viewBox="0 0 91 90" fill="none" xmlns="http://www.w3.org/2000/svg">
<path d="M-9.91821e-05 86.2786L4.56188 71.352C3.31824 68.7282 2.44592 65.8932 2.01566 62.9114C0.830956 57.1239 0.2062 51.1309 0.2062 44.9912C0.2062 38.8515 0.830956 32.8585 2.01566 27.071C3.86638 14.2164 13.9511 4.009 26.7765 1.91939C32.7707 0.663275 38.983 0 45.3545 0C51.7259 0 57.9382 0.663275 63.9324 1.92526C76.5457 3.97965 86.5125 13.8877 88.599 26.4488C89.8662 32.43 90.5381 38.6343 90.5381 44.9971C90.5381 51.3598 89.8662 57.5641 88.599 63.5453C86.5301 76.036 76.6635 85.903 64.1446 88.0337C58.0856 89.325 51.8025 90 45.3604 90C38.9182 90 32.6293 89.3191 26.5761 88.0337C23.7116 87.5465 20.9826 86.6484 18.4541 85.4158L-9.91821e-05 86.2786Z" fill="#4364FA"/>
<path d="M41.6003 59.9603L42.7247 63.3153H48.3463L49.4706 59.9603C50.9463 59.618 52.3517 59.0018 53.6166 58.2486L56.2166 59.5495C56.5679 59.7549 57.0598 59.6865 57.3409 59.3441L60.7841 55.9892L59.1679 52.8396C59.9409 51.5387 60.503 50.1694 60.9247 48.8L64.3679 47.7045V42.227L60.9247 41.1315C60.5733 39.6937 59.9409 38.3243 59.1679 37.0919L60.7841 33.9423L56.7787 30.0396L53.5463 31.6144C52.2111 30.8612 50.8057 30.3135 49.4003 29.9027L48.276 26.5477H42.6544L41.5301 29.9027C40.0544 30.245 38.649 30.8612 37.3841 31.6144L34.1517 30.0396L30.1463 33.9423L31.7625 37.0919C30.9895 38.3928 30.4274 39.7621 30.0057 41.1315L26.5625 42.227V47.7045L30.0057 48.8C30.3571 50.2378 30.9895 51.6072 31.7625 52.8396L30.1463 55.9892L33.5895 59.3441C33.8706 59.618 34.3625 59.6865 34.7139 59.5495L37.3139 58.2486C38.649 59.0018 40.0544 59.5495 41.4598 59.9603H41.6003Z" stroke="white" stroke-width="2" stroke-miterlimit="10"/>
<path d="M45.4652 53.8667C50.5104 53.8667 54.6003 49.8816 54.6003 44.9658C54.6003 40.05 50.5104 36.0649 45.4652 36.0649C40.42 36.0649 36.3301 40.05 36.3301 44.9658C36.3301 49.8816 40.42 53.8667 45.4652 53.8667Z" stroke="white" stroke-width="2" stroke-miterlimit="10"/>
<path opacity="0.2" d="M45 89.9993C45.1201 89.9998 45.2402 90 45.3605 90C51.8026 90 58.0857 89.325 64.1447 88.0337C76.6636 85.903 86.5302 76.036 88.599 63.5453C89.8663 57.5641 90.5382 51.3598 90.5382 44.9971C90.5382 38.6343 89.8663 32.43 88.599 26.4488C86.5126 13.8877 76.5458 3.97965 63.9325 1.92526C57.9383 0.663275 51.726 0 45.3546 0C45.2363 0 45.1181 0.00022843 45 0.00068484V89.9993Z" fill="white"/>
</svg>
