<svg width="72" height="90" viewBox="0 0 72 90" fill="none" xmlns="http://www.w3.org/2000/svg">
<path d="M27.9474 66.5141V89.9061V90H72V62.4745V47.1617V39.8341V39.6462V30.7216C72 14.0936 56.5579 0.659625 37.6105 0.659625C33.2526 0.659625 23.3053 0.471738 7.67368 0.00201998C3.6 -0.0919236 0.0947368 3.10216 0 7.23568V7.42356C0 11.5571 3.12632 14.9391 7.38947 15.4088C9.75789 15.5967 11.4632 15.8785 12.5053 16.1603C12.0316 18.7907 11.7474 23.394 11.5579 30.2519L3.88421 44.3434C2.65263 46.5041 3.50526 49.2285 5.68421 50.3558C6.34737 50.7316 7.10526 50.9195 7.86316 50.9195H10.4211V58.8107C10.4211 63.0382 13.9263 66.5141 18.1895 66.5141H27.9474Z" fill="#0B1319"/>
<path d="M39.4535 45.9215V46.4215H39.9535H40.4961H40.9961V45.9215V41.1405C40.9961 39.9907 41.189 39.1415 41.6035 38.4041C42.0221 37.6594 42.6914 36.9842 43.7228 36.225L43.7236 36.2244L47.7933 33.2161L47.7933 33.2161L47.7972 33.2132C50.0881 31.4853 52.5 29.3661 52.5 25.5083C52.5 22.6519 51.5216 20.1373 49.6391 18.3379C47.7576 16.5396 45.0199 15.5 41.5814 15.5C37.8267 15.5 35.0412 16.7662 33.1972 18.7557C31.3603 20.7376 30.5 23.3914 30.5 26.0992V26.5992H31H31.5426H32.0426V26.0992C32.0426 23.7565 32.7836 21.4949 34.3249 19.824C35.8588 18.1612 38.2279 17.0372 41.5814 17.0372C44.627 17.0372 46.9638 17.9582 48.5355 19.4513C50.1059 20.9433 50.9574 23.0488 50.9574 25.5083C50.9574 28.4205 49.1343 30.2231 46.8699 31.931C46.8699 31.9311 46.8699 31.9311 46.8699 31.9311C46.8697 31.9312 46.8696 31.9313 46.8695 31.9314L42.8012 34.9923C42.801 34.9924 42.8009 34.9925 42.8008 34.9925C41.6689 35.8398 40.8182 36.6407 40.2592 37.6147C39.6947 38.5982 39.4535 39.7118 39.4535 41.1405V45.9215ZM38.3682 53.657C38.3682 54.69 39.1937 55.5 40.2248 55.5C41.2971 55.5 42.1357 54.7027 42.1357 53.657C42.1357 52.5704 41.3101 51.7603 40.2248 51.7603C39.1808 51.7603 38.3682 52.5833 38.3682 53.657Z" fill="white" stroke="white"/>
</svg>
