<svg width="72" height="90" viewBox="0 0 72 90" fill="none" xmlns="http://www.w3.org/2000/svg">
<path d="M9.3 89.2H35.5V32.9L0 59.1L9.3 89.2Z" fill="#85898C"/>
<path d="M41.2004 19.6V7.5H29.9004V19.6L35.6004 15.4L41.3004 19.6H41.2004Z" fill="#85898C"/>
<path d="M41.2004 0H29.9004V4.8H41.2004V0Z" fill="#85898C"/>
<path d="M35.5 89.2H61.8L71.1 59.1L60.6 51.4C60.3 51.3 60.1 51.1 59.9 50.9L35.5 33V89.3V89.2Z" fill="#85898C"/>
<path d="M35.4998 29.8L9.2998 49.2V38L35.4998 18.6V29.8Z" fill="#85898C"/>
<path d="M35.5 29.8L61.7 49.2V38L35.5 18.6V29.8Z" fill="#85898C"/>
<path d="M35.5 89.5V33" stroke="white" stroke-width="2"/>
</svg>
