<svg width="50" height="90" viewBox="0 0 50 90" fill="none" xmlns="http://www.w3.org/2000/svg">
<g clip-path="url(#clip0_54_774)">
<g clip-path="url(#clip1_54_774)">
<g clip-path="url(#clip2_54_774)">
<path d="M47.8396 2H2.16113V88.3424H47.8396V2Z" fill="#F7F6FC"/>
<g clip-path="url(#clip3_54_774)">
<g clip-path="url(#clip4_54_774)">
<g clip-path="url(#clip5_54_774)">
<mask id="mask0_54_774" style="mask-type:alpha" maskUnits="userSpaceOnUse" x="10" y="34" width="30" height="23">
<path d="M36.8996 34.4H13.7051C12.0482 34.4 10.7051 35.7432 10.7051 37.4V53.6C10.7051 55.2569 12.0482 56.6 13.7051 56.6H36.8996C38.5565 56.6 39.8996 55.2569 39.8996 53.6V37.4C39.8996 35.7432 38.5565 34.4 36.8996 34.4Z" fill="#D9D9D9"/>
</mask>
<g mask="url(#mask0_54_774)">
<path d="M39.8986 34.4H10.7041V56.6H39.8986V34.4Z" fill="#BDAC8E"/>
<path d="M10.5596 42.0028H21.6525M21.6525 42.0028H24.6936V38.6576L20.2911 34.255M21.6525 42.0028V49.3014H10.5596M31.0729 34.255L26.6703 38.6576V42.0028M40.044 42.0028H28.7991V49.3014H40.044" stroke="#0B1319" stroke-width="0.6" stroke-linecap="square" stroke-linejoin="round"/>
<path d="M31.0722 56.7451L26.5176 52.1904V51.1014C26.5176 50.1073 27.3235 49.3014 28.3176 49.3014H29.4066" stroke="#0B1319" stroke-width="0.6" stroke-linecap="square" stroke-linejoin="round"/>
<path d="M19.6826 56.745L24.2372 52.1904V51.1013C24.2372 50.1072 23.4313 49.3013 22.4372 49.3013H21.3482" stroke="#0B1319" stroke-width="0.6" stroke-linecap="square" stroke-linejoin="round"/>
</g>
<path d="M38.6047 32.3H12.2047C10.0508 32.3 8.30469 34.0461 8.30469 36.2V54.8C8.30469 56.9539 10.0508 58.7 12.2047 58.7H38.6047C40.7586 58.7 42.5047 56.9539 42.5047 54.8V36.2C42.5047 34.0461 40.7586 32.3 38.6047 32.3Z" stroke="#BDAC8E" stroke-width="0.6" stroke-linecap="square" stroke-dasharray="4.2 4.2"/>
</g>
</g>
</g>
<path fill-rule="evenodd" clip-rule="evenodd" d="M45.7034 0.0162354H4.26835C2.41015 0.0162354 0.884766 1.52668 0.884766 3.36667V86.6333C0.884766 88.4733 2.41015 89.9837 4.26835 89.9837H45.7312C47.5894 89.9837 49.1148 88.4733 49.1148 86.6333V3.36667C49.087 1.52668 47.5617 0.0162354 45.7034 0.0162354ZM33.0566 87.3473H17.4976C16.9429 87.3473 16.4992 86.908 16.4992 86.3587C16.4992 85.8094 16.9429 85.37 17.4976 85.37H33.0566C33.6112 85.37 34.055 85.8094 34.055 86.3587C34.055 86.908 33.6112 87.3473 33.0566 87.3473ZM46.48 82.7611H3.49179V7.2389H46.48V82.7611Z" fill="#0B1319"/>
</g>
</g>
</g>
<defs>
<clipPath id="clip0_54_774">
<rect width="48.23" height="90" fill="white" transform="translate(0.884766)"/>
</clipPath>
<clipPath id="clip1_54_774">
<rect width="48.23" height="90" fill="white" transform="translate(0.884766)"/>
</clipPath>
<clipPath id="clip2_54_774">
<rect width="48.23" height="89.9675" fill="white" transform="translate(0.884766 0.0162354)"/>
</clipPath>
<clipPath id="clip3_54_774">
<rect width="34.8" height="27" fill="white" transform="translate(8.00488 32)"/>
</clipPath>
<clipPath id="clip4_54_774">
<rect width="34.8" height="27" fill="white" transform="translate(8.00488 32)"/>
</clipPath>
<clipPath id="clip5_54_774">
<rect width="34.8" height="27" fill="white" transform="translate(8.00488 32)"/>
</clipPath>
</defs>
</svg>
