<svg width="92" height="92" viewBox="0 0 92 92" fill="none" xmlns="http://www.w3.org/2000/svg">
<rect x="1" y="1" width="90" height="90" rx="16" fill="#F7F6FC"/>
<path d="M29.9286 1H17C8.16345 1 1 8.16344 1 17V29.9286" stroke="#0B1319" stroke-width="2"/>
<path d="M62.0714 91L75 91C83.8366 91 91 83.8366 91 75L91 62.0714" stroke="#0B1319" stroke-width="2"/>
<path d="M91 29.9286L91 17C91 8.16345 83.8366 1 75 0.999999L62.0714 0.999999" stroke="#0B1319" stroke-width="2"/>
<path d="M1 62.0714L1 75C1 83.8366 8.16344 91 17 91L29.9286 91" stroke="#0B1319" stroke-width="2"/>
<path d="M23.8594 71.9999V65.2875C23.8594 62.6535 26.0075 60.4443 28.757 60.4443H34.0842C36.7479 60.4443 38.9819 62.5685 38.9819 65.2875V71.9999" stroke="#0B1319" stroke-width="2" stroke-miterlimit="10"/>
<path d="M31.5061 56.621C33.8314 56.621 35.7164 54.757 35.7164 52.4576C35.7164 50.1582 33.8314 48.2942 31.5061 48.2942C29.1809 48.2942 27.2959 50.1582 27.2959 52.4576C27.2959 54.757 29.1809 56.621 31.5061 56.621Z" stroke="#0B1319" stroke-width="2" stroke-linejoin="bevel"/>
<path d="M54.1045 71.9999V65.2875C54.1045 62.6535 56.2526 60.4443 59.0021 60.4443H64.3294C66.993 60.4443 69.227 62.5685 69.227 65.2875V71.9999" stroke="#0B1319" stroke-width="2" stroke-miterlimit="10"/>
<path d="M61.8372 56.621C64.1624 56.621 66.0474 54.757 66.0474 52.4576C66.0474 50.1582 64.1624 48.2942 61.8372 48.2942C59.5119 48.2942 57.627 50.1582 57.627 52.4576C57.627 54.757 59.5119 56.621 61.8372 56.621Z" stroke="#0B1319" stroke-width="2" stroke-linejoin="bevel"/>
<path d="M31.335 44.5556V37.8431C31.335 35.2092 33.483 33 36.2326 33H41.5598C44.2234 33 46.4574 35.1242 46.4574 37.8431V44.5556" stroke="#4364FA" stroke-width="2" stroke-miterlimit="10"/>
<path d="M39.0677 29.1764C41.3929 29.1764 43.2779 27.3124 43.2779 25.013C43.2779 22.7136 41.3929 20.8496 39.0677 20.8496C36.7424 20.8496 34.8574 22.7136 34.8574 25.013C34.8574 27.3124 36.7424 29.1764 39.0677 29.1764Z" stroke="#4364FA" stroke-width="2" stroke-linejoin="bevel"/>
<path d="M46.3711 44.5556V37.8431C46.3711 35.2092 48.5192 33 51.2687 33H56.596C59.2596 33 61.4936 35.1242 61.4936 37.8431V44.5556" stroke="#4364FA" stroke-width="2" stroke-miterlimit="10"/>
<path d="M54.1038 29.1764C56.429 29.1764 58.314 27.3124 58.314 25.013C58.314 22.7136 56.429 20.8496 54.1038 20.8496C51.7785 20.8496 49.8936 22.7136 49.8936 25.013C49.8936 27.3124 51.7785 29.1764 54.1038 29.1764Z" stroke="#4364FA" stroke-width="2" stroke-linejoin="bevel"/>
<path d="M38.8955 71.9999V65.2875C38.8955 62.6535 41.0436 60.4443 43.7931 60.4443H49.1204C51.784 60.4443 54.018 62.5685 54.018 65.2875V71.9999" stroke="#4364FA" stroke-width="2" stroke-miterlimit="10"/>
<path d="M46.5432 56.621C48.8685 56.621 50.7535 54.757 50.7535 52.4576C50.7535 50.1582 48.8685 48.2942 46.5432 48.2942C44.218 48.2942 42.333 50.1582 42.333 52.4576C42.333 54.757 44.218 56.621 46.5432 56.621Z" stroke="#4364FA" stroke-width="2" stroke-linejoin="bevel"/>
</svg>
