<svg width="92" height="92" viewBox="0 0 92 92" fill="none" xmlns="http://www.w3.org/2000/svg">
<rect x="0.999756" y="1" width="90" height="90" rx="16" fill="#F7F6FC"/>
<path d="M29.9283 1H16.9998C8.1632 1 0.999756 8.16344 0.999756 17V29.9286" stroke="#0B1319" stroke-width="2"/>
<path d="M62.0712 91L74.9998 91C83.8363 91 90.9998 83.8366 90.9998 75L90.9998 62.0714" stroke="#0B1319" stroke-width="2"/>
<path d="M90.9998 29.9286L90.9998 17C90.9998 8.16345 83.8363 1 74.9998 0.999999L62.0712 0.999999" stroke="#0B1319" stroke-width="2"/>
<path d="M0.99976 62.0714L0.999758 75C0.999757 83.8366 8.16319 91 16.9997 91L29.9283 91" stroke="#0B1319" stroke-width="2"/>
<path d="M74.405 38.8918H26.4861" stroke="#4364FA" stroke-width="2" stroke-miterlimit="10"/>
<path d="M65.4054 53.1622H26.1621" stroke="#0B1319" stroke-width="2" stroke-miterlimit="10"/>
<path d="M26.1621 46.0272H65.4054" stroke="#0B1319" stroke-width="2" stroke-miterlimit="10"/>
<path d="M69.5403 53.1622L72.8646 56.4865C73.8376 57.4595 74.4052 58.8378 74.4052 60.2162C74.4052 62 73.4322 63.6216 71.8106 64.4324L59.9727 70.4324C59.243 70.8379 58.4322 71 57.6214 71H45.7025H33.7835C32.9727 71 32.1619 70.8379 31.4322 70.4324L19.5944 64.4324C18.0538 63.6216 16.9998 62 16.9998 60.2162C16.9998 58.8378 17.5673 57.4595 18.5403 56.4865L21.8646 53.1622" stroke="#0B1319" stroke-width="2" stroke-miterlimit="10"/>
<path d="M27.2972 38.8919V20L22.8377 24.1351C21.7026 25.1892 21.054 26.6487 21.054 28.1892V30.946C21.054 32.5676 21.7837 34.1081 22.9188 35.0811" stroke="#4364FA" stroke-width="2" stroke-linejoin="bevel"/>
<path d="M40.1893 27.9459C42.3835 27.9459 44.1623 26.1672 44.1623 23.973C44.1623 21.7788 42.3835 20 40.1893 20C37.9951 20 36.2163 21.7788 36.2163 23.973C36.2163 26.1672 37.9951 27.9459 40.1893 27.9459Z" stroke="#4364FA" stroke-width="2" stroke-linejoin="bevel"/>
<path d="M34.2706 66.054C36.4648 66.054 38.2436 64.2752 38.2436 62.081C38.2436 59.8868 36.4648 58.108 34.2706 58.108C32.0764 58.108 30.2976 59.8868 30.2976 62.081C30.2976 64.2752 32.0764 66.054 34.2706 66.054Z" stroke="#4364FA" stroke-width="2" stroke-linejoin="bevel"/>
<path d="M45.703 66.054C47.8972 66.054 49.6759 64.2752 49.6759 62.081C49.6759 59.8868 47.8972 58.108 45.703 58.108C43.5087 58.108 41.73 59.8868 41.73 62.081C41.73 64.2752 43.5087 66.054 45.703 66.054Z" stroke="#4364FA" stroke-width="2" stroke-linejoin="bevel"/>
<path d="M57.2161 66.054C59.4104 66.054 61.1891 64.2752 61.1891 62.081C61.1891 59.8868 59.4104 58.108 57.2161 58.108C55.0219 58.108 53.2432 59.8868 53.2432 62.081C53.2432 64.2752 55.0219 66.054 57.2161 66.054Z" stroke="#4364FA" stroke-width="2" stroke-linejoin="bevel"/>
<path d="M34.6758 39.1352V33.7028C34.6758 30.6217 37.1893 28.1082 40.2704 28.1082C43.3515 28.1082 45.865 30.6217 45.865 33.7028V39.1352" stroke="#4364FA" stroke-width="2" stroke-linejoin="bevel"/>
</svg>
