<svg width="92" height="92" viewBox="0 0 92 92" fill="none" xmlns="http://www.w3.org/2000/svg">
<rect x="1" y="1" width="90" height="90" rx="16" fill="#F7F6FC"/>
<path d="M29.9286 1H17C8.16345 1 1 8.16344 1 17V29.9286" stroke="#0B1319" stroke-width="2"/>
<path d="M62.0714 91L75 91C83.8366 91 91 83.8366 91 75L91 62.0714" stroke="#0B1319" stroke-width="2"/>
<path d="M91 29.9286L91 17C91 8.16345 83.8366 1 75 0.999999L62.0714 0.999999" stroke="#0B1319" stroke-width="2"/>
<path d="M1 62.0714L1 75C1 83.8366 8.16344 91 17 91L29.9286 91" stroke="#0B1319" stroke-width="2"/>
<path d="M21 45.8413H71" stroke="#0B1319" stroke-width="2" stroke-miterlimit="10"/>
<path d="M23.8569 71.5555V50.2856" stroke="#0B1319" stroke-width="2" stroke-miterlimit="10"/>
<path d="M68.1431 71.5555V50.2856" stroke="#0B1319" stroke-width="2" stroke-miterlimit="10"/>
<path d="M29.8892 71.5555V54.2539C29.8892 52.5079 31.3177 51.0793 33.0638 51.0793C34.8098 51.0793 36.2384 52.5079 36.2384 54.2539V71.5555" stroke="#4364FA" stroke-width="2" stroke-miterlimit="10"/>
<path d="M42.8254 71.5555V54.2539C42.8254 52.5079 44.254 51.0793 46 51.0793C47.7461 51.0793 49.1746 52.5079 49.1746 54.2539V71.5555" stroke="#4364FA" stroke-width="2" stroke-miterlimit="10"/>
<path d="M55.7617 71.5555V54.2539C55.7617 52.5079 57.1903 51.0793 58.9363 51.0793C60.6824 51.0793 62.1109 52.5079 62.1109 54.2539V71.5555" stroke="#4364FA" stroke-width="2" stroke-miterlimit="10"/>
<path d="M65.6035 41.7936V39.7301L46.0004 29.492L26.4766 39.7301V41.7936" stroke="#4364FA" stroke-width="2" stroke-miterlimit="10"/>
<path d="M46 29.8095V21.1587" stroke="#4364FA" stroke-width="2" stroke-miterlimit="10"/>
<path d="M53.0635 21H46V25.7619H53.0635V21Z" stroke="#4364FA" stroke-width="2" stroke-miterlimit="10"/>
</svg>
