<svg width="22" height="22" viewBox="0 0 22 22" fill="none" xmlns="http://www.w3.org/2000/svg">
<path d="M15.8333 8.61908L6.16665 3.09527M12.3699 1.11637L19.2746 5.06175C19.6976 5.30333 20.0491 5.65245 20.2936 6.07372C20.538 6.49498 20.6667 6.9734 20.6666 7.46046V13.9206C20.6667 14.4076 20.538 14.886 20.2936 15.3073C20.0491 15.7286 19.6976 16.0777 19.2746 16.3193L12.3699 20.2647C11.9527 20.503 11.4805 20.6283 11 20.6283C10.5195 20.6283 10.0473 20.503 9.63008 20.2647L2.72531 16.3193C2.30239 16.0777 1.95087 15.7286 1.70641 15.3073C1.46194 14.886 1.33323 14.4076 1.33331 13.9206V7.46046C1.33323 6.9734 1.46194 6.49498 1.70641 6.07372C1.95087 5.65245 2.30239 5.30333 2.72531 5.06175L9.63008 1.11637C10.0473 0.87804 10.5195 0.752686 11 0.752686C11.4805 0.752686 11.9527 0.87804 12.3699 1.11637Z" stroke="#0B1319" stroke-width="1.5" stroke-linecap="round" stroke-linejoin="round"/>
<path d="M2.0238 6.54761L9.69085 10.6767C10.0932 10.8933 10.543 11.0066 11 11.0066C11.457 11.0066 11.9068 10.8933 12.3091 10.6767L19.9762 6.54761M11 11.3809V20.3571" stroke="#0B1319" stroke-width="1.5" stroke-linecap="round" stroke-linejoin="round"/>
</svg>
