<svg width="47" height="30" viewBox="0 0 47 30" fill="none" xmlns="http://www.w3.org/2000/svg">
<path d="M45.6611 16.5327C45.5642 15.2261 44.5958 14.1709 43.3853 14.0201L38.2042 13.4171L33.0232 4.82412C32.6842 4.22111 32.0547 3.86935 31.3284 3.86935H24.7916V0H0V24.6231H4.06737C4.30947 27.6382 6.73053 30 9.68421 30C12.6379 30 15.0589 27.6382 15.3011 24.6231H30.7474C30.9895 27.6382 33.4105 30 36.3642 30C39.3179 30 41.7389 27.6382 41.9811 24.6231H43.4337C44.9347 24.6231 46.0968 23.3166 46 21.7588L45.6611 16.5327ZM9.68421 26.9347C8.18316 26.9347 6.97263 25.6784 6.97263 24.1206C6.97263 22.5628 8.18316 21.3065 9.68421 21.3065C11.1853 21.3065 12.3958 22.5628 12.3958 24.1206C12.3958 25.6784 11.1368 26.9347 9.68421 26.9347ZM24.84 7.98995H30.2632L33.2168 12.8643H24.84V7.98995ZM36.3158 26.9347C34.8147 26.9347 33.6042 25.6784 33.6042 24.1206C33.6042 22.5628 34.8147 21.3065 36.3158 21.3065C37.8168 21.3065 39.0274 22.5628 39.0274 24.1206C39.0274 25.6784 37.8168 26.9347 36.3158 26.9347Z" fill="#4364FA"/>
</svg>
