<svg width="29" height="30" viewBox="0 0 29 30" fill="none" xmlns="http://www.w3.org/2000/svg">
<path d="M14.211 15.5667C18.3906 15.5667 21.8039 11.3 21.8039 7.3C21.8039 3.3 18.4254 0 14.211 0C9.99665 0 6.61816 3.26667 6.61816 7.3C6.61816 11.3 10.0315 15.5667 14.211 15.5667Z" fill="#4364FA"/>
<path d="M19.9226 15.6333C18.4598 16.7 16.6138 17.3667 14.5937 17.3667H13.7926C11.8073 17.3667 9.9613 16.7333 8.46362 15.6333C3.69195 16.3667 0 20.3667 0 25.2C0 30.0333 6.37384 30 14.2105 30C22.0472 30 28.4211 27.8667 28.4211 25.2C28.4211 20.3667 24.7291 16.3667 19.9226 15.6333Z" fill="#4364FA"/>
</svg>
