<svg width="155" height="90" viewBox="0 0 155 90" fill="none" xmlns="http://www.w3.org/2000/svg">
<path fill-rule="evenodd" clip-rule="evenodd" d="M135.998 86.7683H17.7294C16.5006 86.7683 15.5352 85.7501 15.5352 84.5548V2.21348C15.5352 0.97393 16.5445 0 17.7294 0H135.954C137.183 0 138.148 1.0182 138.148 2.21348V84.5548C138.236 85.7501 137.227 86.7683 135.998 86.7683Z" fill="#0B1319"/>
<path fill-rule="evenodd" clip-rule="evenodd" d="M152.016 90H2.94026C1.36042 90 0 88.6719 0 87.0339C0 85.4402 1.31653 84.0679 2.94026 84.0679H152.06C153.64 84.0679 155 85.396 155 87.0339C155 88.6719 153.683 90 152.016 90Z" fill="#0B1319"/>
<path d="M133.848 4.47125H19.9238V80.8805H133.848V4.47125Z" fill="#F7F6FC"/>
<path d="M85.7505 85.1746H69.2061V87.0782H85.7505V85.1746Z" fill="#F7F6FC"/>
<path d="M56.084 28.9523V42.0561H74.2522V26.6945L56.084 28.9523Z" fill="#4364FA"/>
<path d="M76.8418 26.3404V42.056H97.5992V23.7285L76.8418 26.3404Z" fill="#4364FA"/>
<path d="M76.8418 44.668V60.3837L97.5992 62.9956V44.668H76.8418Z" fill="#4364FA"/>
<path d="M56.084 44.668V57.7275L74.2522 60.0295V44.668H56.084Z" fill="#4364FA"/>
</svg>
