<svg width="52" height="97" viewBox="0 0 52 97" fill="none" xmlns="http://www.w3.org/2000/svg">
<path d="M50.625 2.36871H1.37598V95.4603H50.625V2.36871Z" fill="#F7F6FC"/>
<path fill-rule="evenodd" clip-rule="evenodd" d="M48.322 0H3.64807C1.64462 0 0 1.62851 0 3.61233V93.3877C0 95.3715 1.64462 97 3.64807 97H48.3519C50.3554 97 52 95.3715 52 93.3877V3.61233C51.9701 1.62851 50.3255 0 48.322 0ZM34.6866 94.1575H17.9114C17.3134 94.1575 16.835 93.6838 16.835 93.0916C16.835 92.4994 17.3134 92.0256 17.9114 92.0256H34.6866C35.2846 92.0256 35.7631 92.4994 35.7631 93.0916C35.7631 93.6838 35.2846 94.1575 34.6866 94.1575ZM49.1593 89.2128H2.81081V7.78724H49.1593V89.2128Z" fill="#0B1319"/>
<path d="M15.9976 43.8513C15.0109 43.8513 14.2334 44.6212 14.2334 45.5983V53.7704C14.2334 54.7475 15.0109 55.5174 15.9976 55.5174C16.9844 55.5174 17.7619 54.7475 17.7619 53.7704V45.5983C17.7619 44.6212 16.9844 43.8513 15.9976 43.8513Z" fill="#4364FA"/>
<path d="M36.0025 43.8513C35.0157 43.8513 34.2383 44.6212 34.2383 45.5983V53.7704C34.2383 54.7475 35.0157 55.5174 36.0025 55.5174C36.9893 55.5174 37.7667 54.7475 37.7667 53.7704V45.5983C37.7667 44.6212 36.9893 43.8513 36.0025 43.8513Z" fill="#4364FA"/>
<path d="M32.4735 43.8513H19.5258C19.1969 43.8513 18.9277 44.1178 18.9277 44.4435V53.7704C18.9277 55.1621 19.9145 56.3464 21.29 56.6129V60.7582C21.29 61.7353 22.0675 62.5052 23.0542 62.5052C24.041 62.5052 24.8185 61.7353 24.8185 60.7582V56.6721H27.1808V60.7582C27.1808 61.7353 27.9582 62.5052 28.945 62.5052C29.9318 62.5052 30.7092 61.7353 30.7092 60.7582V56.6129C32.0847 56.3464 33.0715 55.1325 33.0715 53.7704V44.4435C33.0715 44.0882 32.8024 43.8513 32.4735 43.8513Z" fill="#4364FA"/>
<path d="M30.2906 36.9228L31.7259 35.5015C31.9651 35.2647 31.9651 34.9093 31.7259 34.6725C31.4867 34.4356 31.1279 34.4356 30.8886 34.6725L29.2141 36.3306C27.1808 35.4423 24.8484 35.4423 22.7851 36.3306L21.1106 34.6725C20.8714 34.4356 20.5126 34.4652 20.2733 34.6725C20.064 34.9093 20.064 35.2647 20.2733 35.4719L21.7086 36.8932C19.9743 38.0479 18.9277 39.9725 18.9277 42.0452C18.9277 44.1178 19.1969 42.6374 19.5258 42.6374H32.4735C32.8024 42.6374 33.0715 42.3709 33.0715 42.0452C33.0715 40.0317 32.0249 38.0775 30.2906 36.9228ZM23.0542 40.3575C22.7253 40.3575 22.4562 40.091 22.4562 39.7653C22.4562 39.4396 22.7253 39.1731 23.0542 39.1731C23.3832 39.1731 23.6523 39.4396 23.6523 39.7653C23.6523 40.091 23.3832 40.3575 23.0542 40.3575ZM28.945 40.3575C28.6161 40.3575 28.3469 40.091 28.3469 39.7653C28.3469 39.4396 28.6161 39.1731 28.945 39.1731C29.2739 39.1731 29.543 39.4396 29.543 39.7653C29.543 40.091 29.2739 40.3575 28.945 40.3575Z" fill="#4364FA"/>
</svg>
