<svg width="48" height="90" viewBox="0 0 48 90" fill="none" xmlns="http://www.w3.org/2000/svg">
<path fill-rule="evenodd" clip-rule="evenodd" d="M2.89997 88.1862H45.1002C46.0116 88.1862 46.7297 87.4443 46.7297 86.5649V3.43509C46.7297 2.52822 45.984 1.81372 45.1002 1.81372H2.89997C1.98857 1.81372 1.27051 2.55571 1.27051 3.43509V86.5923C1.27051 87.4717 1.98857 88.1862 2.89997 88.1862Z" fill="#F7F6FC"/>
<path fill-rule="evenodd" clip-rule="evenodd" d="M0 6.43053C0 2.8855 2.89988 0 6.4626 0H41.5374C45.1001 0 48 2.8855 48 6.43053V83.5695C48 87.1145 45.1001 90 41.5374 90H6.4626C2.89988 90 0 87.1145 0 83.5695V6.43053ZM2.7618 6.43053V83.5969C2.7618 85.6305 4.41887 87.2794 6.4626 87.2794H41.5374C43.5811 87.2794 45.2382 85.6305 45.2382 83.5969V6.43053C45.2382 4.39695 43.5811 2.74809 41.5374 2.74809H35.0748C34.5777 2.74809 33.9425 3.10534 33.6663 3.54504L31.8435 6.56794C31.5949 7.00763 30.9597 7.36488 30.435 7.36488H17.5098C16.985 7.36488 16.3774 7.00763 16.1013 6.56794L14.2785 3.54504C14.0299 3.10534 13.3947 2.74809 12.87 2.74809H6.40737C4.41887 2.74809 2.7618 4.39695 2.7618 6.43053Z" fill="#0B1319"/>
<path d="M10.8262 39.8748C10.8262 39.6 10.909 39.3802 11.1024 39.1878C11.2957 38.9954 11.5166 38.8855 11.7928 38.8855C12.069 38.8855 12.3175 38.9954 12.4832 39.1878C12.6766 39.3802 12.7594 39.6275 12.7594 39.8748C12.7594 40.1221 12.6766 40.3969 12.4832 40.5893C12.2899 40.7817 12.069 40.8641 11.7652 40.8641C11.4614 40.8641 11.2404 40.7817 11.0471 40.5893C10.909 40.3969 10.8262 40.1496 10.8262 39.8748ZM11.13 43.0351H12.4832V51.142H11.13V43.0351Z" fill="#4364FA"/>
<path d="M21.1281 51.4443C20.1891 51.4443 19.3329 51.2794 18.5596 50.9496C17.7863 50.6198 17.0958 50.1801 16.5159 49.603C15.9359 49.0259 15.494 48.3389 15.1902 47.5695C14.8588 46.7725 14.7207 45.9206 14.7207 45.0137C14.7207 44.1069 14.8864 43.2275 15.1902 42.458C15.5216 41.6611 15.9635 41.0015 16.5159 40.4244C17.0958 39.8473 17.7587 39.4076 18.5596 39.0778C19.3329 38.7481 20.1891 38.5832 21.1281 38.5832C22.0671 38.5832 22.9232 38.7481 23.6965 39.0778C24.4698 39.4076 25.1603 39.8473 25.7403 40.4244C26.3202 41.0015 26.7621 41.6885 27.0659 42.458C27.3973 43.2549 27.5354 44.1069 27.5354 45.0137C27.5354 45.9206 27.3697 46.8 27.0659 47.5695C26.7345 48.3664 26.2926 49.0259 25.7403 49.603C25.1603 50.1801 24.4975 50.6198 23.6965 50.9496C22.9509 51.2794 22.0671 51.4443 21.1281 51.4443ZM21.1281 50.0977C21.8461 50.0977 22.509 49.9603 23.0889 49.713C23.6965 49.4382 24.1937 49.0809 24.6355 48.6137C25.0774 48.1465 25.4089 47.6244 25.6298 46.9924C25.8784 46.3878 25.9888 45.7282 25.9888 45.0137C25.9888 44.2992 25.8784 43.6397 25.6298 43.0351C25.3812 42.4305 25.0498 41.8809 24.6355 41.4137C24.1937 40.9466 23.6965 40.5893 23.0889 40.3145C22.4813 40.0397 21.8461 39.9298 21.1281 39.9298C20.41 39.9298 19.7472 40.0672 19.1672 40.3145C18.5872 40.5618 18.0625 40.9466 17.6206 41.4137C17.1787 41.8809 16.8473 42.403 16.6263 43.0351C16.3778 43.6397 16.2673 44.2992 16.2673 45.0137C16.2673 45.7282 16.3778 46.3878 16.6263 46.9924C16.8749 47.5969 17.2063 48.1465 17.6206 48.6137C18.0625 49.0809 18.5596 49.4382 19.1672 49.713C19.7748 49.9603 20.41 50.0977 21.1281 50.0977Z" fill="#4364FA"/>
<path d="M35.7649 41.029C35.5163 40.6443 35.1849 40.342 34.7982 40.1771C34.384 40.0122 33.9697 39.9023 33.5278 39.9023C33.0859 39.9023 32.8926 39.9298 32.5612 40.0122C32.2574 40.0947 31.9812 40.2046 31.705 40.3695C31.4565 40.5343 31.2631 40.7542 31.0974 41.0015C30.9594 41.2763 30.8765 41.5786 30.8765 41.9359C30.8765 42.2931 30.9317 42.458 31.0146 42.6779C31.0974 42.8977 31.2355 43.0901 31.4289 43.255C31.6222 43.4198 31.8984 43.5847 32.2298 43.7496C32.5612 43.887 32.9755 44.0519 33.4726 44.1893C33.9421 44.3267 34.4116 44.4916 34.8535 44.684C35.2954 44.8489 35.682 45.0687 36.0411 45.3435C36.3725 45.6183 36.6486 45.9481 36.8696 46.3328C37.0629 46.7176 37.1734 47.2397 37.1734 47.8168C37.1734 48.3939 37.0629 48.971 36.8144 49.4107C36.5658 49.8504 36.262 50.2351 35.8477 50.5374C35.4611 50.8397 34.9916 51.0595 34.4668 51.1969C33.9421 51.3344 33.4173 51.4168 32.8374 51.4168C32.2574 51.4168 32.1193 51.3893 31.7603 51.3344C31.4012 51.2794 31.0698 51.1695 30.7384 51.0321C30.407 50.8947 30.1032 50.7298 29.7994 50.5099C29.5232 50.2901 29.247 50.0427 29.0537 49.713L30.2965 48.6962C30.5727 49.1359 30.9317 49.4931 31.4012 49.713C31.8707 49.9328 32.3679 50.0702 32.9202 50.0702C33.4726 50.0702 33.5554 50.0153 33.8592 49.9328C34.1907 49.8504 34.4668 49.713 34.7154 49.5206C34.964 49.3557 35.1849 49.1084 35.3506 48.8611C35.5163 48.5863 35.5992 48.284 35.5992 47.9542C35.5992 47.6244 35.5439 47.2672 35.4058 47.0198C35.2678 46.7725 35.0744 46.5801 34.8259 46.4153C34.5497 46.2504 34.2183 46.0855 33.8316 45.9481C33.4173 45.8107 32.9478 45.6458 32.3955 45.4534C31.9536 45.316 31.5393 45.1511 31.1803 44.9863C30.8213 44.8214 30.4898 44.6015 30.2137 44.3267C29.9375 44.0794 29.7165 43.7496 29.5785 43.3924C29.4127 43.0351 29.3575 42.5954 29.3575 42.0733C29.3575 41.5511 29.468 40.974 29.7165 40.5344C29.9375 40.0947 30.2689 39.7374 30.6556 39.4351C31.0422 39.1328 31.4841 38.913 31.9812 38.7756C32.4783 38.6382 33.0031 38.5557 33.5554 38.5557C34.1078 38.5557 34.8811 38.6656 35.4611 38.8855C36.0411 39.1053 36.5382 39.4626 37.0077 40.0122L35.7649 41.029Z" fill="#4364FA"/>
</svg>
