<svg width="157" height="90" viewBox="0 0 157 90" fill="none" xmlns="http://www.w3.org/2000/svg">
<path fill-rule="evenodd" clip-rule="evenodd" d="M138.27 86.7257H17.5286C16.5498 86.7257 15.749 85.9292 15.749 84.9558V1.76991C15.749 0.79646 16.5498 0 17.5286 0H138.27C139.249 0 140.05 0.79646 140.05 1.76991V84.9558C140.05 85.9292 139.249 86.7257 138.27 86.7257Z" fill="#0B1319"/>
<path fill-rule="evenodd" clip-rule="evenodd" d="M154.687 90H2.35789C1.06772 90 0 88.9381 0 87.6549V86.4602C0 85.177 1.06772 84.1151 2.35789 84.1151H154.642C155.932 84.1151 157 85.177 157 86.4602V87.6549C157.044 88.9381 155.977 90 154.687 90Z" fill="#0B1319"/>
<path d="M135.601 4.51331H20.1982V80.7965H135.601V4.51331Z" fill="#F7F6FC"/>
<path fill-rule="evenodd" clip-rule="evenodd" d="M88.0871 85.1328C88.0871 86.1947 87.2418 87.0354 86.1741 87.0354H70.87C69.8023 87.0354 68.957 86.1947 68.957 85.1328" fill="#F7F6FC"/>
<path d="M87.8647 18.1859C82.3481 20.0443 78.0772 21.9027 78.7001 29.9115C84.1722 28.6726 89.0659 25.5752 87.8647 18.1859ZM70.3807 29.3363C65.0866 29.3363 57.4346 34.0266 57.4346 42.7876C57.4346 51.5487 65.6649 67.3451 70.3807 67.3451C75.0965 67.3451 76.8316 65 79.1895 65C81.5473 65 83.9052 67.3451 87.4198 67.3451C90.9344 67.3451 97.4298 60.3097 98.5865 53.8938C94.449 50.9735 91.5128 49.2036 91.5128 43.9381C91.5128 38.6726 94.449 36.9027 97.9636 33.9823C96.1841 31.6372 92.6695 29.292 89.1549 29.292C85.6403 29.292 81.8143 32.0797 79.145 32.2124C76.8761 32.2124 73.9398 29.3363 70.3807 29.3363Z" fill="#4364FA"/>
</svg>
