<svg width="1024" height="1024" viewBox="0 0 1024 1024" fill="none" xmlns="http://www.w3.org/2000/svg">
<g clip-path="url(#clip0_701_104)">
<rect width="1024" height="1024" fill="#4364FA"/>
<g filter="url(#filter0_d_701_104)">
<path d="M512.499 122C403.723 122 315.598 210.005 315.598 318.633V384.237H424.908V318.633C424.908 270.453 464.075 231.34 512.321 231.34C560.567 231.34 599.734 270.453 599.734 318.633V384.237H709.045V318.633C709.401 210.005 621.276 122 512.499 122Z" fill="#F7F6FC"/>
<path d="M707.443 462.997H317.557C282.485 462.997 254 491.443 254 526.468V836.352C254 871.376 282.485 899.822 317.557 899.822H707.265C742.337 899.822 770.822 871.376 770.822 836.352V526.468C770.822 491.443 742.337 462.997 707.265 462.997H707.443ZM552.557 688.432V790.66H472.621V688.432C454.462 675.809 442.712 654.83 442.712 631.185C442.712 592.605 474.045 561.314 512.678 561.314C551.311 561.314 582.644 592.605 582.644 631.185C582.644 654.83 570.716 675.809 552.735 688.432H552.557Z" fill="#F7F6FC"/>
</g>
</g>
<defs>
<filter id="filter0_d_701_104" x="194" y="86" width="636.822" height="897.822" filterUnits="userSpaceOnUse" color-interpolation-filters="sRGB">
<feFlood flood-opacity="0" result="BackgroundImageFix"/>
<feColorMatrix in="SourceAlpha" type="matrix" values="0 0 0 0 0 0 0 0 0 0 0 0 0 0 0 0 0 0 127 0" result="hardAlpha"/>
<feOffset dy="24"/>
<feGaussianBlur stdDeviation="30"/>
<feComposite in2="hardAlpha" operator="out"/>
<feColorMatrix type="matrix" values="0 0 0 0 0.0431373 0 0 0 0 0.0745098 0 0 0 0 0.0980392 0 0 0 0.1 0"/>
<feBlend mode="normal" in2="BackgroundImageFix" result="effect1_dropShadow_701_104"/>
<feBlend mode="normal" in="SourceGraphic" in2="effect1_dropShadow_701_104" result="shape"/>
</filter>
<clipPath id="clip0_701_104">
<rect width="1024" height="1024" fill="white"/>
</clipPath>
</defs>
</svg>
