<svg width="1172" height="290" viewBox="0 0 1172 290" fill="none" xmlns="http://www.w3.org/2000/svg">
<path d="M299.021 0.701172V204.172" stroke="#0B1319" stroke-width="2" stroke-linejoin="round"/>
<path d="M278.428 1.4021V204.785" stroke="#0B1319" stroke-width="2" stroke-linejoin="round"/>
<path d="M256.434 3.24219V208.553" stroke="#0B1319" stroke-width="2" stroke-linejoin="round"/>
<path d="M235.052 6.39673V215.125" stroke="#0B1319" stroke-width="2" stroke-linejoin="round"/>
<path d="M213.759 9.46387V225.027" stroke="#0B1319" stroke-width="2" stroke-linejoin="round"/>
<path d="M192.466 14.5461V236.944" stroke="#0B1319" stroke-width="2" stroke-linejoin="round"/>
<path d="M171.173 20.3296V249.3" stroke="#0B1319" stroke-width="2" stroke-linejoin="round"/>
<path d="M149.791 27.8655V258.501" stroke="#0B1319" stroke-width="2" stroke-linejoin="round"/>
<path d="M128.498 38.2056V266.825" stroke="#0B1319" stroke-width="2" stroke-linejoin="round"/>
<path d="M107.204 47.231V273.66" stroke="#0B1319" stroke-width="2" stroke-linejoin="round"/>
<path d="M85.9112 59.8496V279.268" stroke="#0B1319" stroke-width="2" stroke-linejoin="round"/>
<path d="M64.5303 70.978V283.474" stroke="#0B1319" stroke-width="2" stroke-linejoin="round"/>
<path d="M43.2365 79.916V286.278" stroke="#0B1319" stroke-width="2" stroke-linejoin="round"/>
<path d="M21.9433 85.6118V288.557" stroke="#0B1319" stroke-width="2" stroke-linejoin="round"/>
<path d="M1 86.05V288.557" stroke="#0B1319" stroke-width="2" stroke-linejoin="round"/>
<path d="M318.824 0V203.383" stroke="#0B1319" stroke-width="2" stroke-linejoin="round"/>
<path d="M340.906 1.84033V207.151" stroke="#0B1319" stroke-width="2" stroke-linejoin="round"/>
<path d="M362.2 4.99463V213.723" stroke="#0B1319" stroke-width="2" stroke-linejoin="round"/>
<path d="M383.493 8.06177V223.625" stroke="#0B1319" stroke-width="2" stroke-linejoin="round"/>
<path d="M404.786 13.144V235.542" stroke="#0B1319" stroke-width="2" stroke-linejoin="round"/>
<path d="M426.168 18.8398V247.81" stroke="#0B1319" stroke-width="2" stroke-linejoin="round"/>
<path d="M447.461 26.4634V257.098" stroke="#0B1319" stroke-width="2" stroke-linejoin="round"/>
<path d="M468.754 36.8035V265.423" stroke="#0B1319" stroke-width="2" stroke-linejoin="round"/>
<path d="M490.048 45.8291V272.258" stroke="#0B1319" stroke-width="2" stroke-linejoin="round"/>
<path d="M511.429 58.4473V277.866" stroke="#0B1319" stroke-width="2" stroke-linejoin="round"/>
<path d="M532.723 69.5762V282.072" stroke="#0B1319" stroke-width="2" stroke-linejoin="round"/>
<path d="M554.016 78.5142V284.876" stroke="#0B1319" stroke-width="2" stroke-linejoin="round"/>
<path d="M575.31 84.21V287.155" stroke="#0B1319" stroke-width="2" stroke-linejoin="round"/>
<path d="M916.005 1.4021V204.873" stroke="#0B1319" stroke-width="2" stroke-linejoin="round"/>
<path d="M895.412 2.19067V205.574" stroke="#0B1319" stroke-width="2" stroke-linejoin="round"/>
<path d="M873.417 3.94312V209.254" stroke="#0B1319" stroke-width="2" stroke-linejoin="round"/>
<path d="M852.037 7.0979V215.826" stroke="#0B1319" stroke-width="2" stroke-linejoin="round"/>
<path d="M830.743 10.1648V225.728" stroke="#0B1319" stroke-width="2" stroke-linejoin="round"/>
<path d="M809.449 15.2471V237.645" stroke="#0B1319" stroke-width="2" stroke-linejoin="round"/>
<path d="M788.068 21.0305V250.001" stroke="#0B1319" stroke-width="2" stroke-linejoin="round"/>
<path d="M766.775 28.5667V259.202" stroke="#0B1319" stroke-width="2" stroke-linejoin="round"/>
<path d="M745.481 38.9065V267.526" stroke="#0B1319" stroke-width="2" stroke-linejoin="round"/>
<path d="M724.188 47.9321V274.361" stroke="#0B1319" stroke-width="2" stroke-linejoin="round"/>
<path d="M702.895 60.5505V279.969" stroke="#0B1319" stroke-width="2" stroke-linejoin="round"/>
<path d="M681.514 71.6792V284.175" stroke="#0B1319" stroke-width="2" stroke-linejoin="round"/>
<path d="M660.22 80.6172V286.98" stroke="#0B1319" stroke-width="2" stroke-linejoin="round"/>
<path d="M638.927 86.313V289.258" stroke="#0B1319" stroke-width="2" stroke-linejoin="round"/>
<path d="M596.69 86.05V288.557" stroke="#0B1319" stroke-width="2" stroke-linejoin="round"/>
<path d="M617.984 86.8389V289.346" stroke="#0B1319" stroke-width="2" stroke-linejoin="round"/>
<path d="M936.509 1.13916V206.45" stroke="#0B1319" stroke-width="2" stroke-linejoin="round"/>
<path d="M957.803 4.2937V213.022" stroke="#0B1319" stroke-width="2" stroke-linejoin="round"/>
<path d="M979.183 7.27319V222.836" stroke="#0B1319" stroke-width="2" stroke-linejoin="round"/>
<path d="M1000.48 12.4431V234.841" stroke="#0B1319" stroke-width="2" stroke-linejoin="round"/>
<path d="M1021.77 18.1389V247.109" stroke="#0B1319" stroke-width="2" stroke-linejoin="round"/>
<path d="M1043.06 25.6748V256.31" stroke="#0B1319" stroke-width="2" stroke-linejoin="round"/>
<path d="M1064.44 36.1023V264.722" stroke="#0B1319" stroke-width="2" stroke-linejoin="round"/>
<path d="M1085.74 45.0403V271.469" stroke="#0B1319" stroke-width="2" stroke-linejoin="round"/>
<path d="M1107.03 57.6587V277.077" stroke="#0B1319" stroke-width="2" stroke-linejoin="round"/>
<path d="M1128.33 68.7874V281.284" stroke="#0B1319" stroke-width="2" stroke-linejoin="round"/>
<path d="M1149.71 77.7253V284.088" stroke="#0B1319" stroke-width="2" stroke-linejoin="round"/>
<path d="M1171 83.5088V286.454" stroke="#0B1319" stroke-width="2" stroke-linejoin="round"/>
</svg>
