<svg width="20" height="20" viewBox="0 0 20 20" fill="none" xmlns="http://www.w3.org/2000/svg">
<path d="M10 5.33333C8.89543 5.33333 8 6.22876 8 7.33333V8H12V7.33333C12 6.22876 11.1046 5.33333 10 5.33333Z" fill="#60D38E"/>
<path fill-rule="evenodd" clip-rule="evenodd" d="M10 0C15.5228 0 20 4.47715 20 10C20 15.5228 15.5228 20 10 20C4.47715 20 -3.39262e-06 15.5228 0 10C0 4.47715 4.47715 -3.39262e-06 10 0ZM6.66667 7.33333V8.1138C5.88987 8.38836 5.33333 9.12919 5.33333 10V14C5.33333 15.1046 6.22876 16 7.33333 16H12.6667C13.7712 16 14.6667 15.1046 14.6667 14V10C14.6667 9.12919 14.1101 8.38836 13.3333 8.1138V7.33333C13.3333 5.49238 11.8409 4 10 4C8.15905 4 6.66667 5.49238 6.66667 7.33333Z" fill="#60D38E"/>
</svg>
