<svg width="130" height="41" viewBox="0 0 130 41" fill="none" xmlns="http://www.w3.org/2000/svg">
<rect x="0.5" y="0.574219" width="129" height="39" rx="5.5" fill="black"/>
<path fill-rule="evenodd" clip-rule="evenodd" d="M9.43514 7.62132C9.14414 7.92932 8.97314 8.40632 8.97314 9.02532V31.1233C8.97314 31.7423 9.14414 32.2193 9.43514 32.5273L9.50914 32.5993L21.8881 20.2203V19.9283L9.50914 7.54932L9.43514 7.62132Z" fill="#00D7FE"/>
<mask id="mask0_54_978" style="mask-type:alpha" maskUnits="userSpaceOnUse" x="21" y="15" width="12" height="10">
<path d="M26.0132 24.3483L21.8882 20.2203V19.9283L26.0152 15.8013L30.9972 18.6313C32.3932 19.4253 32.3932 20.7233 30.9972 21.5163L26.1082 24.2943L26.0132 24.3483Z" fill="white"/>
</mask>
<g mask="url(#mask0_54_978)">
<path fill-rule="evenodd" clip-rule="evenodd" d="M26.0132 24.3483L21.8882 20.2203V19.9283L26.0152 15.8013L30.9972 18.6313C32.3932 19.4253 32.3932 20.7233 30.9972 21.5163L26.1082 24.2943L26.0132 24.3483Z" fill="url(#paint0_linear_54_978)"/>
</g>
<mask id="mask1_54_978" style="mask-type:alpha" maskUnits="userSpaceOnUse" x="9" y="20" width="18" height="13">
<path d="M26.1081 24.2942L21.8881 20.0742L9.43506 32.5272C9.89606 33.0142 10.6561 33.0742 11.5121 32.5882L26.1081 24.2942Z" fill="white"/>
</mask>
<g mask="url(#mask1_54_978)">
<path fill-rule="evenodd" clip-rule="evenodd" d="M26.1081 24.2942L21.8881 20.0742L9.43506 32.5272C9.89606 33.0142 10.6561 33.0742 11.5121 32.5882L26.1081 24.2942Z" fill="url(#paint1_linear_54_978)"/>
</g>
<mask id="mask2_54_978" style="mask-type:alpha" maskUnits="userSpaceOnUse" x="9" y="7" width="18" height="14">
<path d="M26.1081 15.8543L11.5121 7.56027C10.6561 7.07427 9.89606 7.13427 9.43506 7.62127L21.8881 20.0743L26.1081 15.8543Z" fill="white"/>
</mask>
<g mask="url(#mask2_54_978)">
<path fill-rule="evenodd" clip-rule="evenodd" d="M26.1081 15.8543L11.5121 7.56027C10.6561 7.07427 9.89606 7.13427 9.43506 7.62127L21.8881 20.0743L26.1081 15.8543Z" fill="url(#paint2_linear_54_978)"/>
</g>
<path fill-rule="evenodd" clip-rule="evenodd" d="M103.894 31.0272H105.76V18.5262H103.894V31.0272ZM120.701 23.0292L118.562 28.4492H118.498L116.278 23.0292H114.268L117.597 30.6042L115.699 34.8182H117.646L122.776 23.0292H120.701ZM110.119 29.6072C109.507 29.6072 108.655 29.3022 108.655 28.5462C108.655 27.5812 109.717 27.2112 110.633 27.2112C111.454 27.2112 111.839 27.3882 112.338 27.6292C112.193 28.7872 111.196 29.6072 110.119 29.6072ZM110.344 22.7562C108.993 22.7562 107.594 23.3512 107.015 24.6702L108.671 25.3612C109.025 24.6702 109.684 24.4442 110.376 24.4442C111.341 24.4442 112.322 25.0232 112.338 26.0532V26.1812C112 25.9882 111.277 25.6992 110.392 25.6992C108.607 25.6992 106.789 26.6802 106.789 28.5132C106.789 30.1862 108.253 31.2642 109.893 31.2642C111.148 31.2642 111.839 30.7012 112.274 30.0412H112.338V31.0062H114.139V26.2142C114.139 23.9942 112.483 22.7562 110.344 22.7562ZM98.812 24.5512H96.158V20.2662H98.812C100.207 20.2662 100.999 21.4212 100.999 22.4082C100.999 23.3772 100.207 24.5512 98.812 24.5512ZM98.764 18.5262H94.293V31.0272H96.158V26.2912H98.764C100.832 26.2912 102.865 24.7932 102.865 22.4082C102.865 20.0232 100.832 18.5262 98.764 18.5262ZM74.383 29.6092C73.094 29.6092 72.015 28.5302 72.015 27.0482C72.015 25.5502 73.094 24.4542 74.383 24.4542C75.656 24.4542 76.654 25.5502 76.654 27.0482C76.654 28.5302 75.656 29.6092 74.383 29.6092ZM76.525 23.7292H76.461C76.042 23.2302 75.237 22.7792 74.222 22.7792C72.095 22.7792 70.146 24.6472 70.146 27.0482C70.146 29.4322 72.095 31.2852 74.222 31.2852C75.237 31.2852 76.042 30.8342 76.461 30.3182H76.525V30.9302C76.525 32.5582 75.656 33.4282 74.254 33.4282C73.11 33.4282 72.401 32.6062 72.111 31.9132L70.484 32.5902C70.951 33.7182 72.192 35.1032 74.254 35.1032C76.445 35.1032 78.298 33.8142 78.298 30.6732V23.0362H76.525V23.7292ZM79.587 31.0272H81.456V18.5252H79.587V31.0272ZM84.21 26.9032C84.162 25.2602 85.483 24.4222 86.433 24.4222C87.175 24.4222 87.803 24.7922 88.012 25.3242L84.21 26.9032ZM90.01 25.4852C89.656 24.5352 88.576 22.7792 86.369 22.7792C84.178 22.7792 82.358 24.5022 82.358 27.0322C82.358 29.4162 84.162 31.2852 86.578 31.2852C88.528 31.2852 89.656 30.0932 90.123 29.4002L88.673 28.4332C88.19 29.1422 87.529 29.6092 86.578 29.6092C85.628 29.6092 84.951 29.1742 84.516 28.3212L90.203 25.9692L90.01 25.4852ZM44.702 24.0842V25.8882H49.019C48.89 26.9032 48.552 27.6442 48.037 28.1602C47.408 28.7882 46.425 29.4802 44.702 29.4802C42.044 29.4802 39.965 27.3382 39.965 24.6802C39.965 22.0212 42.044 19.8792 44.702 19.8792C46.136 19.8792 47.183 20.4432 47.956 21.1682L49.229 19.8952C48.149 18.8642 46.716 18.0742 44.702 18.0742C41.061 18.0742 38 21.0392 38 24.6802C38 28.3212 41.061 31.2852 44.702 31.2852C46.667 31.2852 48.149 30.6412 49.309 29.4322C50.501 28.2402 50.872 26.5652 50.872 25.2112C50.872 24.7922 50.84 24.4062 50.775 24.0842H44.702ZM55.781 29.6092C54.492 29.6092 53.38 28.5462 53.38 27.0322C53.38 25.5012 54.492 24.4542 55.781 24.4542C57.069 24.4542 58.181 25.5012 58.181 27.0322C58.181 28.5462 57.069 29.6092 55.781 29.6092ZM55.781 22.7792C53.428 22.7792 51.511 24.5672 51.511 27.0322C51.511 29.4802 53.428 31.2852 55.781 31.2852C58.133 31.2852 60.05 29.4802 60.05 27.0322C60.05 24.5672 58.133 22.7792 55.781 22.7792ZM65.094 29.6092C63.805 29.6092 62.693 28.5462 62.693 27.0322C62.693 25.5012 63.805 24.4542 65.094 24.4542C66.383 24.4542 67.494 25.5012 67.494 27.0322C67.494 28.5462 66.383 29.6092 65.094 29.6092ZM65.094 22.7792C62.742 22.7792 60.825 24.5672 60.825 27.0322C60.825 29.4802 62.742 31.2852 65.094 31.2852C67.446 31.2852 69.363 29.4802 69.363 27.0322C69.363 24.5672 67.446 22.7792 65.094 22.7792Z" fill="#FFFFFE"/>
<path d="M43.4712 10.8882V13.2305C43.3921 13.3477 43.2661 13.4795 43.0933 13.626C42.9204 13.7695 42.6816 13.8955 42.377 14.0039C42.0752 14.1094 41.6855 14.1621 41.208 14.1621C40.8184 14.1621 40.4595 14.0947 40.1313 13.96C39.8062 13.8223 39.5234 13.623 39.2832 13.3623C39.0459 13.0986 38.8613 12.7793 38.7295 12.4043C38.6006 12.0264 38.5361 11.5986 38.5361 11.1211V10.6245C38.5361 10.147 38.5918 9.7207 38.7031 9.3457C38.8174 8.9707 38.9844 8.65283 39.2041 8.39209C39.4238 8.12842 39.6934 7.9292 40.0127 7.79443C40.332 7.65674 40.6982 7.58789 41.1113 7.58789C41.6006 7.58789 42.0093 7.67285 42.3374 7.84277C42.6685 8.00977 42.9263 8.24121 43.1108 8.53711C43.2983 8.83301 43.4185 9.16992 43.4712 9.54785H42.623C42.585 9.31641 42.5088 9.10547 42.3945 8.91504C42.2832 8.72461 42.1235 8.57227 41.9155 8.45801C41.7075 8.34082 41.4395 8.28223 41.1113 8.28223C40.8154 8.28223 40.5591 8.33643 40.3423 8.44482C40.1255 8.55322 39.9468 8.7085 39.8062 8.91064C39.6655 9.11279 39.5601 9.35742 39.4897 9.64453C39.4224 9.93164 39.3887 10.2554 39.3887 10.6157V11.1211C39.3887 11.4902 39.4312 11.8198 39.5161 12.1099C39.604 12.3999 39.7285 12.6475 39.8896 12.8525C40.0508 13.0547 40.2427 13.2085 40.4653 13.314C40.6909 13.4194 40.9399 13.4722 41.2124 13.4722C41.5142 13.4722 41.7588 13.4473 41.9463 13.3975C42.1338 13.3447 42.2803 13.2832 42.3857 13.2129C42.4912 13.1396 42.5718 13.0708 42.6274 13.0063V11.5737H41.1465V10.8882H43.4712ZM48.6724 13.3843V14.0742H45.2842V13.3843H48.6724ZM45.4556 7.67578V14.0742H44.6074V7.67578H45.4556ZM48.2241 10.4268V11.1167H45.2842V10.4268H48.2241ZM48.6284 7.67578V8.37012H45.2842V7.67578H48.6284ZM51.9048 7.67578V14.0742H51.0699V7.67578H51.9048ZM53.9615 7.67578V8.37012H49.0176V7.67578H53.9615ZM57.337 7.67578V14.0742H56.4888V7.67578H57.337ZM60.8419 7.67578V14.0742H60.0069V7.67578H60.8419ZM62.8985 7.67578V8.37012H57.9547V7.67578H62.8985ZM70.2907 10.6729V11.0771C70.2907 11.5576 70.2306 11.9883 70.1105 12.3691C69.9904 12.75 69.8175 13.0737 69.5919 13.3403C69.3663 13.6069 69.0954 13.8105 68.7789 13.9512C68.4655 14.0918 68.1139 14.1621 67.7243 14.1621C67.3463 14.1621 66.9992 14.0918 66.6828 13.9512C66.3693 13.8105 66.0968 13.6069 65.8654 13.3403C65.6369 13.0737 65.4596 12.75 65.3336 12.3691C65.2077 11.9883 65.1447 11.5576 65.1447 11.0771V10.6729C65.1447 10.1924 65.2062 9.76318 65.3292 9.38525C65.4552 9.00439 65.6325 8.68066 65.861 8.41406C66.0895 8.14453 66.3605 7.93945 66.674 7.79883C66.9904 7.6582 67.3375 7.58789 67.7155 7.58789C68.1051 7.58789 68.4567 7.6582 68.7702 7.79883C69.0866 7.93945 69.3576 8.14453 69.5831 8.41406C69.8117 8.68066 69.986 9.00439 70.1061 9.38525C70.2291 9.76318 70.2907 10.1924 70.2907 10.6729ZM69.4513 11.0771V10.6641C69.4513 10.2832 69.4118 9.94629 69.3327 9.65332C69.2565 9.36035 69.1437 9.11426 68.9943 8.91504C68.8449 8.71582 68.6618 8.56494 68.445 8.4624C68.2311 8.35986 67.9879 8.30859 67.7155 8.30859C67.4518 8.30859 67.213 8.35986 66.9992 8.4624C66.7882 8.56494 66.6066 8.71582 66.4542 8.91504C66.3048 9.11426 66.1891 9.36035 66.1071 9.65332C66.025 9.94629 65.984 10.2832 65.984 10.6641V11.0771C65.984 11.4609 66.025 11.8008 66.1071 12.0967C66.1891 12.3896 66.3063 12.6372 66.4586 12.8394C66.6139 13.0386 66.797 13.1895 67.0079 13.292C67.2218 13.3945 67.4606 13.4458 67.7243 13.4458C67.9996 13.4458 68.2443 13.3945 68.4581 13.292C68.672 13.1895 68.8522 13.0386 68.9987 12.8394C69.1481 12.6372 69.2609 12.3896 69.3371 12.0967C69.4132 11.8008 69.4513 11.4609 69.4513 11.0771ZM76.2126 7.67578V14.0742H75.36L72.1388 9.13916V14.0742H71.2907V7.67578H72.1388L75.3732 12.624V7.67578H76.2126Z" fill="white"/>
<rect x="0.5" y="0.574219" width="129" height="39" rx="5.5" stroke="#A6A6A6"/>
<defs>
<linearGradient id="paint0_linear_54_978" x1="30.089" y1="20.0746" x2="21.8882" y2="20.0746" gradientUnits="userSpaceOnUse">
<stop stop-color="#FFBC00"/>
<stop offset="1" stop-color="#FFDA03"/>
</linearGradient>
<linearGradient id="paint1_linear_54_978" x1="23.8147" y1="24.045" x2="13.1112" y2="32.8676" gradientUnits="userSpaceOnUse">
<stop stop-color="#E22652"/>
<stop offset="1" stop-color="#FF3A44"/>
</linearGradient>
<linearGradient id="paint2_linear_54_978" x1="11.3207" y1="9.12043" x2="18.457" y2="15.3954" gradientUnits="userSpaceOnUse">
<stop stop-color="#0ED574"/>
<stop offset="1" stop-color="#07F076"/>
</linearGradient>
</defs>
</svg>
