<svg width="22" height="22" viewBox="0 0 22 22" fill="none" xmlns="http://www.w3.org/2000/svg">
<path d="M10.0003 6.99999V7.99999H12.0003V6.99999H10.0003ZM12.0003 6.98666V5.98666H10.0003V6.98666H12.0003ZM12.0003 15.6667V10.3333H10.0003V15.6667H12.0003ZM12.0003 6.99999V6.98666H10.0003V6.99999H12.0003ZM9.00032 12H11.0003V9.99999H9.00032V12ZM9.00032 16H13.0003V14H9.00032V16ZM11.0003 2.66666C15.6027 2.66666 19.3337 6.39762 19.3337 11L21.3337 11C21.3337 5.29305 16.7073 0.666657 11.0003 0.666656L11.0003 2.66666ZM2.66699 11C2.66699 6.39762 6.39795 2.66666 11.0003 2.66666L11.0003 0.666656C5.29338 0.666656 0.666993 5.29305 0.666992 11H2.66699ZM11.0003 19.3333C6.39795 19.3333 2.66699 15.6024 2.66699 11H0.666992C0.666992 16.7069 5.29338 21.3333 11.0003 21.3333V19.3333ZM11.0003 21.3333C16.7073 21.3333 21.3337 16.7069 21.3337 11L19.3337 11C19.3337 15.6024 15.6027 19.3333 11.0003 19.3333V21.3333Z" fill="#4364FA"/>
</svg>
