<svg width="64" height="40" viewBox="0 0 64 40" fill="none" xmlns="http://www.w3.org/2000/svg">
<g clip-path="url(#clip0_566_382)">
<path d="M56 0H8C3.58172 0 0 3.58172 0 8V32C0 36.4183 3.58172 40 8 40H56C60.4183 40 64 36.4183 64 32V8C64 3.58172 60.4183 0 56 0Z" fill="#F7F6FC"/>
<path d="M60 7.20001H4V14.4H60V7.20001Z" fill="#0B1319"/>
<path d="M52 21.64H12V32.8H52V21.64Z" fill="white"/>
<path d="M16.72 28.24L17.84 28.92L17.56 27.64L18.56 26.8L17.28 26.68L16.76 25.48L16.24 26.68L14.96 26.8L15.96 27.64L15.68 28.92L16.8 28.24H16.72Z" fill="#0B1319"/>
<path d="M21.0403 28.24L22.1603 28.92L21.8803 27.64L22.8803 26.8L21.6003 26.68L21.0803 25.48L20.5603 26.68L19.2803 26.8L20.2803 27.64L20.0003 28.92L21.1203 28.24H21.0403Z" fill="#0B1319"/>
<path d="M25.5598 28.24L26.6798 28.92L26.3998 27.64L27.3998 26.8L26.1198 26.68L25.5998 25.48L25.0798 26.68L23.7998 26.8L24.7998 27.64L24.5198 28.92L25.6398 28.24H25.5598Z" fill="#0B1319"/>
<path d="M30.2004 28.24L31.3204 28.92L31.0404 27.64L32.0404 26.8L30.7604 26.68L30.2404 25.48L29.7204 26.68L28.4404 26.8L29.4404 27.64L29.1604 28.92L30.2804 28.24H30.2004Z" fill="#0B1319"/>
<path d="M34.9199 28.88L37.2799 26.76C37.3999 26.64 37.5199 26.52 37.6399 26.4C37.7599 26.28 37.7999 26.12 37.7999 25.92C37.7999 25.72 37.7199 25.56 37.5599 25.44C37.3999 25.32 37.2399 25.28 37.0399 25.28C36.8399 25.28 36.5999 25.36 36.4799 25.52C36.3599 25.68 36.2799 25.84 36.2399 26.08L34.9599 26C34.9599 25.68 35.0399 25.4 35.1599 25.2C35.2799 24.96 35.4399 24.76 35.5999 24.64C35.7999 24.48 35.9999 24.36 36.2799 24.28C36.5199 24.2 36.7999 24.16 37.1199 24.16C37.4399 24.16 37.6399 24.16 37.8799 24.28C38.1199 24.36 38.3199 24.48 38.5199 24.64C38.6799 24.8 38.8399 25 38.9199 25.2C38.9999 25.44 39.0799 25.68 39.0799 26C39.0799 26.32 39.0799 26.36 39.0399 26.52C38.9999 26.68 38.9599 26.8 38.8799 26.96C38.7999 27.08 38.7199 27.2 38.6399 27.32C38.5599 27.44 38.4399 27.52 38.3199 27.64L36.4799 29.24H39.1599V30.36H34.9199V29V28.88Z" fill="#0B1319"/>
<path d="M41.44 26.56H41.84C41.96 26.56 42.08 26.56 42.2 26.56C42.32 26.56 42.4 26.52 42.52 26.48C42.64 26.44 42.68 26.36 42.76 26.28C42.8 26.2 42.84 26.08 42.84 25.92C42.84 25.76 42.76 25.6 42.64 25.48C42.48 25.36 42.32 25.32 42.12 25.32C41.92 25.32 41.76 25.36 41.64 25.48C41.52 25.6 41.44 25.72 41.4 25.88L40 25.6C40.08 25.32 40.16 25.12 40.32 24.92C40.44 24.72 40.6 24.6 40.8 24.48C41 24.36 41.2 24.28 41.44 24.24C41.68 24.2 41.92 24.16 42.16 24.16C42.4 24.16 42.68 24.16 42.92 24.24C43.16 24.32 43.4 24.4 43.56 24.56C43.72 24.72 43.88 24.88 44 25.08C44.12 25.28 44.16 25.56 44.16 25.84C44.16 26.12 44.08 26.48 43.88 26.72C43.72 26.96 43.44 27.12 43.12 27.2C43.32 27.24 43.48 27.32 43.6 27.4C43.72 27.48 43.84 27.6 43.96 27.72C44.04 27.84 44.12 28 44.2 28.16C44.24 28.32 44.28 28.48 44.28 28.68C44.28 29 44.24 29.24 44.12 29.48C44 29.72 43.84 29.88 43.64 30.04C43.44 30.2 43.2 30.32 42.96 30.36C42.72 30.4 42.4 30.48 42.12 30.48C41.56 30.48 41.12 30.36 40.72 30.12C40.32 29.88 40.08 29.48 39.96 28.92L41.32 28.6C41.36 28.8 41.44 29 41.6 29.12C41.72 29.24 41.96 29.32 42.24 29.32C42.52 29.32 42.72 29.24 42.88 29.12C43 28.96 43.08 28.8 43.08 28.56C43.08 28.32 43.08 28.24 42.96 28.16C42.88 28.08 42.8 28 42.68 27.96C42.56 27.92 42.44 27.88 42.28 27.88C42.12 27.88 42 27.88 41.84 27.88H41.56V26.76L41.44 26.56Z" fill="#0B1319"/>
<path d="M47.4798 29.04H44.8398V27.96L47.3198 24.2H48.7198V27.96H49.4798V29.04H48.7198V30.24H47.4798V29.04ZM47.4798 25.8799L46.1198 27.96H47.4798V25.8799Z" fill="#0B1319"/>
<path d="M42.2001 37.32C47.7892 37.32 52.3201 32.7891 52.3201 27.2C52.3201 21.6109 47.7892 17.08 42.2001 17.08C36.611 17.08 32.0801 21.6109 32.0801 27.2C32.0801 32.7891 36.611 37.32 42.2001 37.32Z" stroke="#60D38E" stroke-width="2" stroke-miterlimit="10"/>
</g>
<defs>
<clipPath id="clip0_566_382">
<rect width="64" height="40" fill="white"/>
</clipPath>
</defs>
</svg>
