<svg width="20" height="22" viewBox="0 0 20 22" fill="none" xmlns="http://www.w3.org/2000/svg">
<path d="M6.66667 8.33333H8M12 8.33333H13.3333M6 11.6667C8 14.3333 12 14.3333 14 11.6667M2 18.4477C2 19.4891 2.84422 20.3333 3.88562 20.3333C4.38572 20.3333 4.86533 20.1347 5.21895 19.781L5.33333 19.6667C5.76019 19.2398 6.33914 19 6.94281 19H7.05719C7.66086 19 8.23981 19.2398 8.66667 19.6667L8.86193 19.8619C9.16376 20.1638 9.57314 20.3333 10 20.3333C10.4269 20.3333 10.8362 20.1638 11.1381 19.8619L11.3333 19.6667C11.7602 19.2398 12.3391 19 12.9428 19H13.0572C13.6609 19 14.2398 19.2398 14.6667 19.6667L14.781 19.781C15.1347 20.1347 15.6143 20.3333 16.1144 20.3333C17.1558 20.3333 18 19.4891 18 18.4477V9.66666C18 5.24839 14.4183 1.66666 10 1.66666C5.58172 1.66666 2 5.24839 2 9.66666V18.4477Z" stroke="#4364FA" stroke-width="2"/>
</svg>
