<svg width="22" height="22" viewBox="0 0 22 22" fill="none" xmlns="http://www.w3.org/2000/svg">
<path d="M7.80033 12.4L7.20033 11.6L5.60033 12.8L6.20033 13.6L7.80033 12.4ZM15.8003 13.6L16.4003 12.8L14.8003 11.6L14.2003 12.4L15.8003 13.6ZM11.0003 19.3333C6.39795 19.3333 2.66699 15.6024 2.66699 11H0.666992C0.666992 16.7069 5.29338 21.3333 11.0003 21.3333V19.3333ZM19.3337 11C19.3337 15.6024 15.6027 19.3333 11.0003 19.3333V21.3333C16.7073 21.3333 21.3337 16.7069 21.3337 11H19.3337ZM11.0003 2.66666C15.6027 2.66666 19.3337 6.39762 19.3337 11H21.3337C21.3337 5.29306 16.7073 0.666664 11.0003 0.666664V2.66666ZM11.0003 0.666664C5.29338 0.666664 0.666992 5.29306 0.666992 11H2.66699C2.66699 6.39762 6.39795 2.66666 11.0003 2.66666V0.666664ZM6.33366 9.33333H7.66699V7.33333H6.33366V9.33333ZM14.3337 9.33333H15.667V7.33333H14.3337V9.33333ZM14.2003 12.4C12.6003 14.5333 9.40033 14.5333 7.80033 12.4L6.20033 13.6C8.60033 16.8 13.4003 16.8 15.8003 13.6L14.2003 12.4Z" fill="#0B1319"/>
</svg>
