<svg width="18" height="18" viewBox="0 0 18 18" fill="none" xmlns="http://www.w3.org/2000/svg">
<path d="M7.99987 5.79999V6.79999H9.99987V5.79999H7.99987ZM9.99987 5.78933V4.78933H7.99987V5.78933H9.99987ZM9.99987 12.7333V8.46666H7.99987V12.7333H9.99987ZM9.99987 5.79999V5.78933H7.99987V5.79999H9.99987ZM7.39987 9.99999H8.99987V7.99999H7.39987V9.99999ZM7.39987 13.2H10.5999V11.2H7.39987V13.2ZM8.99987 2.53333C12.5713 2.53333 15.4665 5.42855 15.4665 8.99999H17.4665C17.4665 4.32398 13.6759 0.533326 8.99987 0.533325V2.53333ZM2.5332 8.99999C2.5332 5.42855 5.42843 2.53332 8.99987 2.53333V0.533325C4.32386 0.533325 0.533204 4.32398 0.533203 8.99999H2.5332ZM8.99987 15.4667C5.42843 15.4667 2.5332 12.5714 2.5332 8.99999H0.533203C0.533203 13.676 4.32386 17.4667 8.99987 17.4667V15.4667ZM8.99987 17.4667C13.6759 17.4667 17.4665 13.676 17.4665 8.99999H15.4665C15.4665 12.5714 12.5713 15.4667 8.99987 15.4667V17.4667Z" fill="#0B1319"/>
</svg>
