<svg width="90" height="90" viewBox="0 0 90 90" fill="none" xmlns="http://www.w3.org/2000/svg">
<g clip-path="url(#clip0_54_807)">
<path d="M34.4121 0H39.7062V10.5882H34.4121V0Z" fill="#4364FA"/>
<path d="M44.9893 10.8701L52.4751 3.38423L56.2181 7.12718L48.7322 14.6131L44.9893 10.8701Z" fill="#4364FA"/>
<path d="M17.8906 7.1239L21.6336 3.38096L29.1195 10.8668L25.3765 14.6098L17.8906 7.1239Z" fill="#4364FA"/>
<path d="M77.8618 50.7484C75.7948 48.6812 72.4439 48.6809 70.3762 50.7468L72.2466 48.8764C74.3142 46.8091 74.3142 43.457 72.2466 41.3895C70.1796 39.3223 66.8285 39.3219 64.7609 41.3881L66.6315 39.5175C68.6989 37.4501 68.6989 34.0981 66.6315 32.0305C64.5645 29.9634 61.2135 29.963 59.146 32.0289L74.1183 17.0566C76.1858 14.9893 76.1858 11.6372 74.1183 9.5697C72.0508 7.50199 68.6987 7.50199 66.6313 9.5697L33.0499 43.2062C33.0499 43.2062 22.0688 24.2392 12.4605 33.8476L10.5889 35.7193L16.828 41.9584C22.6858 47.8162 22.6858 57.3138 16.828 63.1716L14.3322 65.6672L38.6652 90.0001L44.2805 84.3848L53.909 80.2584C56.2037 79.2749 58.2896 77.8628 60.0548 76.0974L77.8618 58.2354C79.9293 56.1678 79.9293 52.8159 77.8618 50.7484Z" fill="#4364FA"/>
</g>
<defs>
<clipPath id="clip0_54_807">
<rect width="90" height="90" fill="white"/>
</clipPath>
</defs>
</svg>
