<svg width="20" height="23" viewBox="0 0 20 23" fill="none" xmlns="http://www.w3.org/2000/svg">
<path d="M5.68992 7.33812L8.64341 5.6146C8.58915 5.44781 8.55039 5.27307 8.55039 5.08245C8.55039 4.35174 9.06977 3.74811 9.75194 3.62103V1H10.2481V3.62103C10.9302 3.74811 11.4496 4.35174 11.4496 5.08245C11.4496 5.81316 11.4109 5.44781 11.3488 5.6146L14.3101 7.33812C14.4186 7.21104 14.5504 7.09985 14.6977 7.00454C15.3178 6.63918 16.093 6.79803 16.5349 7.33812L18.7519 6.02761L19 6.47239L16.7829 7.78291C17.0233 8.45008 16.7674 9.21256 16.1473 9.57791C16.0078 9.65734 15.8682 9.71294 15.7209 9.74471V13.2553C15.8682 13.2871 16.0078 13.3427 16.1473 13.4221C16.7674 13.7874 17.0233 14.5499 16.7829 15.2171L19 16.5276L18.7519 16.9724L16.5349 15.6619C16.093 16.202 15.3178 16.3608 14.6977 15.9955C14.5504 15.9002 14.4186 15.789 14.3101 15.6619C13.3256 16.2337 12.3411 16.8135 11.3488 17.3854C11.4109 17.5522 11.4496 17.7269 11.4496 17.9175C11.4496 18.6483 10.9302 19.2519 10.2481 19.379V22H9.75194V19.379C9.06977 19.2519 8.55039 18.6483 8.55039 17.9175C8.55039 17.1868 8.58915 17.5522 8.64341 17.3854L5.68992 15.6619C5.5814 15.789 5.44961 15.9002 5.30233 15.9955C4.68217 16.3608 3.90698 16.202 3.46512 15.6619L1.24806 16.9724L1 16.5276L3.21705 15.2171C2.97674 14.5499 3.23256 13.7874 3.85271 13.4221C3.99225 13.3427 4.13178 13.2871 4.27907 13.2553V9.74471C4.13178 9.71294 3.99225 9.65734 3.85271 9.57791C3.23256 9.21256 2.97674 8.45008 3.21705 7.78291L1 6.47239L1.24806 6.02761L3.46512 7.33812C3.90698 6.79803 4.68217 6.63918 5.30233 7.00454C5.44961 7.09985 5.5814 7.21104 5.68992 7.33812ZM14.062 15.2171C13.9225 14.82 13.9457 14.3593 14.1705 13.9701C14.4031 13.5571 14.7984 13.303 15.2248 13.2394V9.76059C14.7984 9.69705 14.4031 9.44289 14.1705 9.02988C13.9457 8.6407 13.9225 8.18003 14.062 7.78291L11.1008 6.05144C10.8295 6.36914 10.4419 6.5677 10 6.5677C9.55814 6.5677 9.17054 6.36914 8.89922 6.05144L5.93798 7.78291C6.07752 8.18003 6.05426 8.6407 5.82946 9.02988C5.5969 9.44289 5.20155 9.69705 4.77519 9.76059V13.2394C5.20155 13.303 5.5969 13.5571 5.82946 13.9701C6.05426 14.3593 6.07752 14.82 5.93798 15.2171L8.89922 16.9486C9.17054 16.6309 9.55814 16.4323 10 16.4323C10.4419 16.4323 10.8295 16.6309 11.1008 16.9486L14.062 15.2171Z" fill="#0B1319" stroke="#0B1319" stroke-width="0.6"/>
</svg>
