<svg width="23" height="22" viewBox="0 0 23 22" fill="none" xmlns="http://www.w3.org/2000/svg">
<path d="M9.17995 19.175L9.79153 21H12.8495L13.461 19.175C14.2637 18.9888 15.0282 18.6536 15.7163 18.2439L17.1305 18.9516C17.3217 19.0633 17.5892 19.0261 17.7421 18.8399L19.6151 17.0149L18.736 15.3017C19.1564 14.594 19.4622 13.8492 19.6916 13.1043L21.5645 12.5084V9.52886L19.6916 8.93296C19.5004 8.15084 19.1564 7.40596 18.736 6.73557L19.6151 5.02235L17.4363 2.89944L15.678 3.75605C14.9518 3.34637 14.1873 3.04842 13.4228 2.82495L12.8112 1H9.75331L9.14172 2.82495C8.33902 3.01117 7.57454 3.34637 6.8865 3.75605L5.1282 2.89944L2.94943 5.02235L3.82858 6.73557C3.40811 7.4432 3.10232 8.18808 2.87298 8.93296L1 9.52886V12.5084L2.87298 13.1043C3.0641 13.8864 3.40811 14.6313 3.82858 15.3017L2.94943 17.0149L4.8224 18.8399C4.9753 18.9888 5.24287 19.0261 5.43399 18.9516L6.84828 18.2439C7.57454 18.6536 8.33902 18.9516 9.1035 19.175H9.17995Z" stroke="#4364FA" stroke-miterlimit="10"/>
<path d="M11.2822 15.8603C14.0266 15.8603 16.2514 13.6926 16.2514 11.0186C16.2514 8.34459 14.0266 6.17688 11.2822 6.17688C8.53786 6.17688 6.31311 8.34459 6.31311 11.0186C6.31311 13.6926 8.53786 15.8603 11.2822 15.8603Z" stroke="#4364FA" stroke-miterlimit="10"/>
</svg>
