<svg width="22" height="21" viewBox="0 0 22 21" fill="none" xmlns="http://www.w3.org/2000/svg">
<path d="M12.938 3.9665V2.62679C12.938 1.7177 13.6659 1 14.5879 1H15.3158" stroke="#4364FA" stroke-miterlimit="10"/>
<path d="M8.61904 3.9665V2.62679C8.61904 1.7177 7.89113 1 6.96912 1H6.24121" stroke="#4364FA" stroke-miterlimit="10"/>
<path d="M5.31909 8.99031C5.31909 6.02381 7.74545 3.63147 10.7541 3.63147C13.7628 3.63147 16.1892 6.02381 16.1892 8.99031" stroke="#4364FA" stroke-miterlimit="10"/>
<path d="M20.5564 6.07166C20.5564 9.03816 18.1301 11.4305 15.1214 11.4305H6.43503C3.47488 11.4305 1 9.03816 1 6.07166" stroke="#4364FA" stroke-miterlimit="10"/>
<path d="M1 21C1 18.0335 3.42635 15.6411 6.43503 15.6411H15.1214C18.1301 15.6411 20.5564 18.0335 20.5564 21" stroke="#4364FA" stroke-miterlimit="10"/>
<path d="M16.2377 10.9998V14.971C16.2377 17.9375 13.7629 20.3299 10.8027 20.3299C7.79403 20.3299 5.36768 17.8897 5.36768 14.971V10.9998" stroke="#4364FA" stroke-miterlimit="10"/>
</svg>
