<svg width="23" height="22" viewBox="0 0 23 22" fill="none" xmlns="http://www.w3.org/2000/svg">
<path d="M5.0699 9.0262L4.69662 8.69354L3.95456 9.5262H5.0699V9.0262ZM12.2228 1L12.5961 1.33266L13.3381 0.5H12.2228V1ZM10.8691 9.0262L11.2433 9.35774L11.98 8.5262H10.8691V9.0262ZM3.8212 16.9823L3.44693 16.6507L4.09754 17.399L3.8212 16.9823ZM19.5327 6.56332L19.8091 6.98002L21.2261 6.04032L19.5259 6.06336L19.5327 6.56332ZM13.7336 6.64192L13.3604 6.30916L12.6041 7.15728L13.7403 7.14188L13.7336 6.64192ZM18.7642 1V0.5H18.5401L18.391 0.667243L18.7642 1ZM21.9258 1H22.4258V0.5H21.9258V1ZM21.9258 9.0262L22.3972 9.19283L22.4258 9.11197V9.0262H21.9258ZM19.1135 16.9825L19.346 17.4252L19.5196 17.334L19.5849 17.1492L19.1135 16.9825ZM11.4628 21L11.2301 21.4426L11.4627 21.5648L11.6953 21.4427L11.4628 21ZM3.82082 16.9825L3.54557 16.5651L2.83881 17.0312L3.58816 17.4251L3.82082 16.9825ZM3.82095 16.9824L4.0962 17.3999L4.42303 17.1843L4.29221 16.8154L3.82095 16.9824ZM1 9.0262H0.5V9.11222L0.528744 9.19329L1 9.0262ZM1 1V0.5H0.5V1H1ZM5.44318 9.35886L12.5961 1.33266L11.8495 0.667338L4.69662 8.69354L5.44318 9.35886ZM10.8691 8.5262H5.0699V9.5262H10.8691V8.5262ZM4.19547 17.3138L11.2433 9.35774L10.4948 8.69465L3.44693 16.6507L4.19547 17.3138ZM19.2564 6.14662L3.54487 16.5656L4.09754 17.399L19.8091 6.98002L19.2564 6.14662ZM13.7403 7.14188L19.5395 7.06327L19.5259 6.06336L13.7268 6.14197L13.7403 7.14188ZM18.391 0.667243L13.3604 6.30916L14.1067 6.97468L19.1374 1.33276L18.391 0.667243ZM21.9258 0.5H18.7642V1.5H21.9258V0.5ZM22.4258 9.0262V1H21.4258V9.0262H22.4258ZM19.5849 17.1492L22.3972 9.19283L21.4543 8.85957L18.6421 16.8159L19.5849 17.1492ZM11.6953 21.4427L19.346 17.4252L18.8811 16.5399L11.2303 20.5573L11.6953 21.4427ZM3.58816 17.4251L11.2301 21.4426L11.6955 20.5574L4.05348 16.54L3.58816 17.4251ZM3.5457 16.565L3.54557 16.5651L4.09607 17.3999L4.0962 17.3999L3.5457 16.565ZM0.528744 9.19329L3.3497 17.1495L4.29221 16.8154L1.47126 8.85911L0.528744 9.19329ZM0.5 1V9.0262H1.5V1H0.5ZM11.463 0.5H1V1.5H11.463V0.5ZM12.2226 0.5H11.463V1.5H12.2226V0.5ZM12.2228 0.5H12.2226V1.5H12.2228V0.5Z" fill="#4364FA"/>
</svg>
