<svg width="96" height="90" viewBox="0 0 96 90" fill="none" xmlns="http://www.w3.org/2000/svg">
<g clip-path="url(#clip0_527_2592)">
<path d="M67.1181 30.6728H62.8695V25.0941C62.8695 17.5103 55.5835 11.3559 47.9997 11.3559C40.4159 11.3559 33.1298 17.5103 33.1298 25.0941V30.6728H28.8813V56.1838H67.1379V30.6728H67.1181ZM54.3725 30.6728H41.6269V25.0941C41.6269 21.2427 44.1681 18.1257 47.9997 18.1257C51.8512 18.1257 54.3725 21.2625 54.3725 25.0941V30.6728ZM21.9129 69.525C21.6945 68.8302 21.0394 68.3338 20.3247 68.3338C20.1262 68.3338 19.9475 68.3735 19.7688 68.453L14.3688 70.7162L14.885 64.8794C14.9247 64.4625 14.7659 64.0258 14.4482 63.6883C14.1306 63.3309 13.6938 63.1324 13.2372 63.1324H10.6762C10.2195 63.1324 9.78278 63.3309 9.46514 63.6883C9.16734 64.0258 9.00852 64.4427 9.02837 64.8794L9.50484 70.7559L4.08499 68.453C3.90631 68.3735 3.72764 68.3338 3.52911 68.3338C2.8144 68.3338 2.1394 68.8302 1.94087 69.525L1.16661 71.9272C1.02764 72.364 1.0872 72.8802 1.32543 73.2971C1.54381 73.6941 1.90117 73.9522 2.29823 74.0515L7.95631 75.3618L4.1644 79.7493C3.90631 80.0868 3.7872 80.5235 3.8269 80.9603C3.88646 81.4169 4.1247 81.814 4.48205 82.0919L6.56661 83.5809C6.8644 83.7993 7.22175 83.9184 7.59896 83.9184C8.1747 83.9184 8.67102 83.6404 8.90925 83.2037L11.9269 78.1809L14.9445 83.2037C15.2225 83.6404 15.7387 83.9184 16.2945 83.9184C16.632 83.9184 16.9696 83.8191 17.2673 83.6206L19.3519 82.1118C19.749 81.8338 19.9872 81.3971 20.0468 80.9007C20.0865 80.4441 19.9673 80.0272 19.6894 79.7096L15.8975 75.2824L21.5556 73.9522C21.9725 73.853 22.3298 73.5949 22.5482 73.1978C22.7865 72.7809 22.8262 72.3044 22.6872 71.8875L21.9129 69.525ZM45.9548 69.525C45.7365 68.8302 45.0813 68.3338 44.3666 68.3338C44.1681 68.3338 43.9894 68.3735 43.8107 68.453L38.4107 70.7162L38.9269 64.8794C38.9666 64.4625 38.8078 64.0258 38.4901 63.6883C38.1725 63.3309 37.7357 63.1522 37.2791 63.1522H34.7181C34.2615 63.1522 33.8247 63.3507 33.507 63.7081C33.2093 64.0456 33.0504 64.4625 33.0703 64.8993L33.5468 70.7758L28.1269 68.4728C27.9482 68.3934 27.7695 68.3537 27.571 68.3537C26.8563 68.3537 26.1813 68.85 25.9828 69.5449L25.2085 71.9471C25.0695 72.3838 25.1291 72.9 25.3673 73.3169C25.5857 73.714 25.9431 73.9721 26.3401 74.0713L31.9982 75.3816L28.2063 79.7691C27.9482 80.1066 27.8291 80.5434 27.8688 80.9802C27.9284 81.4368 28.1666 81.8338 28.5438 82.1118L30.6284 83.6007C30.9262 83.8191 31.2835 83.9382 31.6607 83.9382C32.2365 83.9382 32.7328 83.6603 32.971 83.2235L35.9887 78.2007L39.0063 83.2235C39.2843 83.6603 39.8004 83.9382 40.3563 83.9382C40.6938 83.9382 41.0313 83.839 41.3291 83.6405L43.4137 82.1316C43.8107 81.8537 44.049 81.4169 44.1085 80.9206C44.1482 80.464 44.0291 80.0471 43.7512 79.7294L39.9593 75.3022L45.6173 73.9721C46.0343 73.8728 46.3916 73.6147 46.61 73.2177C46.8482 72.8008 46.8879 72.3243 46.749 71.9074L45.9548 69.525ZM94.8328 71.9471L94.0585 69.5449C93.8401 68.85 93.185 68.3537 92.4703 68.3537C92.2718 68.3537 92.0931 68.3934 91.9144 68.4728L86.5144 70.736L87.0306 64.8993C87.0703 64.4824 86.9115 64.0456 86.5938 63.7081C86.2762 63.3507 85.8394 63.1721 85.3828 63.1721H82.8218C82.3651 63.1721 81.9284 63.3706 81.6107 63.728C81.3129 64.0655 81.1541 64.4824 81.174 64.9191L81.6504 70.7956L76.2306 68.4927C76.0519 68.4132 75.8732 68.3735 75.6747 68.3735C74.96 68.3735 74.285 68.8699 74.0865 69.5647L73.3122 71.9669C73.1732 72.4037 73.2328 72.9199 73.471 73.3368C73.6894 73.7338 74.0468 73.9919 74.4438 74.0912L80.1019 75.4015L76.31 79.789C76.0519 80.1265 75.9328 80.5632 75.9725 81C76.032 81.4566 76.2703 81.8537 76.6475 82.1316L78.732 83.6206C79.0298 83.839 79.3872 83.9581 79.7644 83.9581C80.3401 83.9581 80.8365 83.6802 81.0747 83.2434L84.0923 78.2206L87.11 83.2434C87.3879 83.6802 87.9041 83.9581 88.46 83.9581C88.7975 83.9581 89.135 83.8588 89.4328 83.6603L91.5173 82.1515C91.9144 81.8735 92.1526 81.4368 92.2122 80.9405C92.2519 80.4838 92.1328 80.0669 91.8548 79.7493L88.0629 75.3221L93.721 73.9919C94.1379 73.8927 94.4953 73.6346 94.7137 73.2375C94.9122 72.8405 94.9718 72.364 94.8328 71.9471ZM70.0166 69.525C69.7982 68.8302 69.1431 68.3338 68.4284 68.3338C68.2298 68.3338 68.0512 68.3735 67.8725 68.453L62.4725 70.7162L62.9887 64.8794C63.0284 64.4625 62.8695 64.0258 62.5519 63.6883C62.2343 63.3309 61.7975 63.1522 61.3409 63.1522H58.7798C58.3232 63.1522 57.8865 63.3507 57.5688 63.7081C57.271 64.0456 57.1122 64.4625 57.132 64.8993L57.6085 70.7758L52.1887 68.4728C52.01 68.3934 51.8313 68.3537 51.6328 68.3537C50.9181 68.3537 50.2431 68.85 50.0445 69.5449L49.2703 71.9471C49.1313 72.3838 49.1909 72.9 49.4291 73.3169C49.6475 73.714 50.0048 73.9721 50.4019 74.0713L56.06 75.3816L52.2681 79.7691C52.01 80.1066 51.8909 80.5434 51.9306 80.9802C51.9901 81.4368 52.2284 81.8338 52.6056 82.1118L54.6901 83.6007C54.9879 83.8191 55.3453 83.9382 55.7225 83.9382C56.2982 83.9382 56.7945 83.6603 57.0328 83.2235L60.0504 78.2007L63.0681 83.2235C63.346 83.6603 63.8622 83.9382 64.4181 83.9382C64.7556 83.9382 65.0931 83.839 65.3909 83.6405L67.4754 82.1316C67.8725 81.8537 68.1107 81.4169 68.1703 80.9206C68.21 80.464 68.0909 80.0471 67.8129 79.7294L64.021 75.3022L69.6791 73.9721C70.096 73.8728 70.4534 73.6147 70.6717 73.2177C70.91 72.8008 70.9497 72.3243 70.8107 71.9074L70.0166 69.525Z" fill="#4364FA"/>
</g>
<defs>
<clipPath id="clip0_527_2592">
<rect width="95.2941" height="90" fill="white" transform="translate(0.352539)"/>
</clipPath>
</defs>
</svg>
