<svg width="90" height="90" viewBox="0 0 90 90" fill="none" xmlns="http://www.w3.org/2000/svg">
<path d="M8.98195 14.5263C8.95318 14.555 8.91424 14.5711 8.87365 14.5711C8.83305 14.5711 8.79411 14.555 8.76534 14.5263L5.86708 11.6326C5.01222 10.7785 4.51869 9.6313 4.49503 8.44343C4.47138 7.25555 4.91955 6.12428 5.74095 5.29845L5.77934 5.25998C6.60048 4.43403 7.72762 3.98103 8.91285 4.00061C10.0981 4.02019 11.2444 4.51076 12.0996 5.36441L14.9978 8.25806C15.0265 8.2869 15.0425 8.32592 15.0425 8.36661C15.0425 8.40729 15.0265 8.44632 14.9978 8.47515L8.98195 14.5263Z" fill="#4364FA"/>
<path d="M74.6715 22.7887L49.2074 15.7883C48.9738 15.7233 48.9738 15.6592 49.2074 15.596C55.9899 13.7382 62.7569 11.8776 69.5086 10.0142C70.8122 9.65467 71.4993 9.95007 71.8497 11.271C72.8546 15.074 73.8422 18.8649 74.8127 22.6437C74.8183 22.6639 74.8187 22.6851 74.8136 22.7054C74.8085 22.7257 74.7982 22.7442 74.7838 22.759C74.7693 22.7738 74.7513 22.7843 74.7316 22.7895C74.7118 22.7948 74.6911 22.7945 74.6715 22.7887Z" fill="#4364FA"/>
<path d="M16.7583 10.4629L10.6799 16.5544C10.6523 16.5821 10.6523 16.6269 10.6799 16.6546L12.6381 18.617C12.6657 18.6447 12.7105 18.6447 12.7381 18.617L18.8165 12.5255C18.8441 12.4978 18.8441 12.453 18.8165 12.4253L16.8583 10.4629C16.8307 10.4352 16.7859 10.4352 16.7583 10.4629Z" fill="#4364FA"/>
<path d="M65.0973 52.3745C65.6651 51.7613 65.6192 50.742 64.9324 50.2459C64.8008 50.1496 64.4592 50.027 63.9076 49.878C58.7972 48.4898 53.6877 47.0989 48.5792 45.7053C48.4926 45.6817 48.4359 45.6272 48.4088 45.5418C47.3381 42.2513 46.2655 38.9716 45.1912 35.7029C45.0596 35.3068 44.8496 34.9634 44.5612 34.6727C37.1921 27.2304 29.833 19.7781 22.4838 12.3158C22.3991 12.2304 22.4153 12.2031 22.5325 12.234C40.6342 17.0944 58.7251 21.9775 76.8052 26.8833C77.976 27.2022 78.579 27.7255 78.2383 29.0065C73.2685 47.7594 68.2906 66.5097 63.3046 85.2572C63.018 86.3392 61.9229 86.3337 60.9712 86.0775C43.3444 81.3598 25.7366 76.5684 8.11796 71.8152C6.99043 71.5127 4.07021 71.1802 4.5461 69.3841C8.23422 55.5043 12.0098 41.2937 15.8727 26.7525C15.9322 26.5308 16.0422 26.5009 16.2026 26.6626L34.2944 44.8986C34.5541 45.1603 34.8716 45.3581 35.2219 45.4764C38.3206 46.5248 41.4751 47.5868 44.6855 48.6625C45.394 48.9005 46.1141 48.8005 46.846 48.3627C46.9253 48.3154 47.0082 48.3036 47.0947 48.3272C52.5133 49.799 57.9311 51.2671 63.3479 52.7316C64.1014 52.9369 64.6845 52.8179 65.0973 52.3745ZM69.9333 34.8332C69.9819 34.6503 69.9943 34.4596 69.9698 34.2719C69.9453 34.0841 69.8843 33.9031 69.7904 33.7392C69.6965 33.5752 69.5715 33.4315 69.4224 33.3162C69.2734 33.201 69.1033 33.1164 68.9219 33.0674L48.3412 27.5089C48.1597 27.4599 47.9705 27.4474 47.7843 27.4721C47.598 27.4968 47.4184 27.5582 47.2558 27.6529C47.0931 27.7476 46.9505 27.8736 46.8362 28.0238C46.7218 28.174 46.6379 28.3455 46.5893 28.5284L46.5795 28.5652C46.5309 28.7481 46.5185 28.9388 46.543 29.1265C46.5676 29.3143 46.6285 29.4953 46.7224 29.6592C46.8164 29.8232 46.9414 29.9669 47.0904 30.0822C47.2394 30.1974 47.4095 30.282 47.591 30.331L68.1717 35.8895C68.3531 35.9385 68.5424 35.951 68.7286 35.9263C68.9148 35.9016 69.0944 35.8402 69.2571 35.7455C69.4198 35.6508 69.5623 35.5248 69.6767 35.3746C69.791 35.2244 69.8749 35.0529 69.9235 34.8701L69.9333 34.8332ZM67.6818 43.2848C67.7794 42.9176 67.7283 42.5263 67.5397 42.197C67.3511 41.8677 67.0405 41.6275 66.6761 41.5291L52.6405 37.7382C52.4601 37.6895 52.2719 37.6771 52.0868 37.7016C51.9016 37.7262 51.723 37.7873 51.5613 37.8814C51.3995 37.9756 51.2577 38.1009 51.144 38.2502C51.0303 38.3996 50.9469 38.5701 50.8986 38.7519L50.886 38.7993C50.7884 39.1666 50.8395 39.5579 51.0281 39.8871C51.2167 40.2164 51.5273 40.4567 51.8917 40.5551L65.9273 44.3459C66.1077 44.3947 66.2959 44.4071 66.4811 44.3825C66.6662 44.3579 66.8448 44.2968 67.0066 44.2027C67.1683 44.1086 67.3101 43.9833 67.4238 43.8339C67.5375 43.6845 67.6209 43.5141 67.6692 43.3322L67.6818 43.2848ZM22.6108 49.2333C22.6584 49.0568 22.671 48.8726 22.648 48.6912C22.6249 48.5098 22.5666 48.3347 22.4765 48.176C22.3863 48.0173 22.266 47.878 22.1224 47.7662C21.9788 47.6543 21.8148 47.5721 21.6397 47.5241L17.3657 46.3537C17.1906 46.3057 17.0078 46.293 16.8278 46.3162C16.6479 46.3395 16.4742 46.3982 16.3167 46.4891C16.1593 46.58 16.0211 46.7012 15.9102 46.846C15.7992 46.9907 15.7176 47.156 15.67 47.3325L15.6403 47.443C15.5927 47.6194 15.5801 47.8037 15.6031 47.9851C15.6262 48.1665 15.6845 48.3415 15.7746 48.5003C15.8648 48.659 15.9851 48.7982 16.1287 48.9101C16.2723 49.0219 16.4363 49.1042 16.6114 49.1521L20.8854 50.3226C21.0605 50.3705 21.2433 50.3833 21.4232 50.36C21.6032 50.3368 21.7769 50.278 21.9343 50.1872C22.0918 50.0963 22.23 49.975 22.3409 49.8303C22.4519 49.6856 22.5335 49.5203 22.581 49.3438L22.6108 49.2333ZM63.1787 60.2154C63.2773 59.8446 63.2257 59.4496 63.0353 59.1172C62.8449 58.7848 62.5313 58.5422 62.1635 58.4429L30.0074 49.758C29.8253 49.7088 29.6353 49.6963 29.4484 49.7211C29.2614 49.7459 29.0812 49.8076 28.9179 49.9026C28.7546 49.9976 28.6115 50.1241 28.4967 50.2749C28.3819 50.4257 28.2977 50.5978 28.2489 50.7814L28.2419 50.8077C28.1434 51.1784 28.195 51.5735 28.3853 51.9059C28.5757 52.2383 28.8893 52.4808 29.2572 52.5802L61.4133 61.2651C61.5954 61.3142 61.7853 61.3268 61.9723 61.302C62.1592 61.2772 62.3395 61.2155 62.5028 61.1205C62.666 61.0254 62.8092 60.8989 62.9239 60.7481C63.0387 60.5974 63.1229 60.4253 63.1717 60.2417L63.1787 60.2154ZM20.362 57.6923C20.458 57.3336 20.4088 56.9512 20.225 56.6291C20.0413 56.307 19.7381 56.0717 19.3823 55.9749L15.1218 54.8162C14.7659 54.7194 14.3865 54.7691 14.067 54.9543C13.7474 55.1395 13.514 55.445 13.418 55.8038L13.3898 55.909C13.2938 56.2677 13.343 56.6502 13.5268 56.9723C13.7105 57.2943 14.0137 57.5297 14.3695 57.6265L18.63 58.7852C18.9858 58.8819 19.3653 58.8323 19.6848 58.6471C20.0044 58.4619 20.2378 58.1563 20.3338 57.7976L20.362 57.6923ZM60.9343 68.6875C61.0328 68.3168 60.9813 67.9217 60.7909 67.5893C60.6005 67.2569 60.2869 67.0144 59.9191 66.915L27.7525 58.2273C27.3847 58.128 26.9928 58.18 26.663 58.3719C26.3332 58.5638 26.0926 58.8799 25.994 59.2507L25.987 59.277C25.8885 59.6477 25.9401 60.0428 26.1305 60.3752C26.3209 60.7076 26.6345 60.9501 27.0023 61.0495L59.1688 69.7372C59.5366 69.8365 59.9286 69.7845 60.2583 69.5926C60.5881 69.4007 60.8287 69.0846 60.9273 68.7138L60.9343 68.6875Z" fill="#4364FA"/>
<path d="M21.5369 23.0621C22.8975 23.9737 24.5193 22.0816 23.2961 20.812C21.9822 19.4497 20.6417 18.0864 19.2747 16.7222C19.1904 16.6378 19.1904 16.5533 19.2747 16.4688L21.1026 14.6346C21.1869 14.5502 21.2703 14.5502 21.3527 14.6346L41.9491 35.2736C42.0169 35.3416 42.0169 35.4095 41.9491 35.4774L40.0717 37.3612C40.0057 37.4273 39.9389 37.4273 39.8711 37.3612C35.7754 33.2558 31.6816 29.1523 27.5896 25.0505C26.4791 23.9351 24.5385 24.9073 25.091 26.4661C25.1845 26.7305 25.4172 27.0491 25.7892 27.4218C29.7969 31.4299 33.8009 35.4407 37.8012 39.4543C37.8599 39.5131 37.8599 39.5718 37.8012 39.6306L35.8936 41.5529C35.872 41.5743 35.8429 41.5863 35.8125 41.5863C35.7822 41.5863 35.753 41.5743 35.7314 41.5529L15.0993 20.8809C15.0242 20.8037 15.0242 20.7276 15.0993 20.6523L16.941 18.807C17.0234 18.7226 17.1068 18.7226 17.1911 18.807C18.4042 20.028 19.6522 21.2774 20.9349 22.5553C21.1475 22.7665 21.3481 22.9354 21.5369 23.0621Z" fill="#4364FA"/>
<path d="M71.3028 67.3428L78.9129 37.103C78.9844 36.8207 79.0542 36.816 79.1223 37.0891C81.1251 45.0616 83.1533 53.102 85.2067 61.2102C85.4841 62.3052 85.5208 63.4058 84.2751 63.7624C80.0059 64.981 75.708 66.2014 71.3813 67.4236C71.3706 67.427 71.3593 67.4272 71.3486 67.4244C71.3378 67.4216 71.3279 67.4158 71.3199 67.4076C71.312 67.3993 71.3062 67.389 71.3031 67.3777C71.3001 67.3663 71.3 67.3543 71.3028 67.3428Z" fill="#4364FA"/>
<path d="M43.244 38.1373L45.5099 44.9657C45.5164 44.985 45.5174 45.0057 45.5128 45.0255C45.5082 45.0454 45.4981 45.0635 45.4838 45.0779C45.4694 45.0923 45.4513 45.1024 45.4315 45.107C45.4117 45.1117 45.391 45.1106 45.3717 45.1041L38.558 42.8333C38.5404 42.8274 38.5245 42.8171 38.512 42.8034C38.4994 42.7896 38.4906 42.7728 38.4863 42.7547C38.482 42.7365 38.4825 42.7176 38.4876 42.6997C38.4927 42.6817 38.5023 42.6654 38.5155 42.6523L43.0633 38.0947C43.0764 38.0815 43.0927 38.0718 43.1106 38.0667C43.1285 38.0616 43.1474 38.0611 43.1655 38.0654C43.1836 38.0697 43.2004 38.0785 43.2141 38.0911C43.2278 38.1037 43.2381 38.1196 43.244 38.1373Z" fill="#4364FA"/>
</svg>
