<svg width="90" height="90" viewBox="0 0 90 90" fill="none" xmlns="http://www.w3.org/2000/svg">
<g clip-path="url(#clip0_527_2569)">
<path d="M60.4688 4.21875V15.4688C60.4688 17.0156 61.7344 18.2812 63.2812 18.2812H74.5312L60.4688 4.21875Z" fill="#4364FA"/>
<path d="M61.875 21.0938C59.4844 21.0938 57.6562 19.2656 57.6562 16.875V2.8125H16.875C15.3281 2.8125 14.0625 4.07812 14.0625 5.625V84.375C14.0625 85.9219 15.3281 87.1875 16.875 87.1875H73.125C74.6719 87.1875 75.9375 85.9219 75.9375 84.375V21.0938H61.875ZM70.3125 46.4062L67.5 49.2188H64.6875L63.2812 46.4062L61.875 49.2188H60.4688L59.0625 46.4062L57.6562 49.2188H56.25L54.8438 46.4062L53.4375 49.2188H52.0312L50.625 46.4062L49.2188 49.2188H47.8125L46.4062 46.4062L45 49.2188H43.5938L42.1875 46.4062L40.7812 49.2188H38.3906C36.8437 52.5938 33.4688 54.8438 29.5312 54.8438C24.0469 54.8438 19.6875 50.4844 19.6875 45C19.6875 39.5156 24.0469 35.1562 29.5312 35.1562C33.4688 35.1562 36.8437 37.4062 38.3906 40.7812H67.5L70.3125 43.5938V46.4062Z" fill="#4364FA"/>
<path d="M26.7188 49.2188C29.0487 49.2188 30.9375 47.33 30.9375 45C30.9375 42.67 29.0487 40.7812 26.7188 40.7812C24.3888 40.7812 22.5 42.67 22.5 45C22.5 47.33 24.3888 49.2188 26.7188 49.2188Z" fill="#4364FA"/>
</g>
<defs>
<clipPath id="clip0_527_2569">
<rect width="90" height="90" fill="white"/>
</clipPath>
</defs>
</svg>
