<svg width="579" height="424" viewBox="0 0 579 424" fill="none" xmlns="http://www.w3.org/2000/svg">
<g filter="url(#filter0_d_18_113)">
<circle cx="161" cy="70" r="30" fill="#4364FA"/>
</g>
<rect width="30" height="30" transform="translate(146 55)" fill="#4364FA"/>
<path d="M155 68V62C155 58.6863 157.686 56 161 56C164.314 56 167 58.6863 167 62V68M151 68H171C172.105 68 173 68.8954 173 70V82C173 83.1046 172.105 84 171 84H151C149.895 84 149 83.1046 149 82V70C149 68.8954 149.895 68 151 68Z" stroke="white" stroke-width="2"/>
<g filter="url(#filter1_d_18_113)">
<circle cx="489" cy="66" r="30" fill="#4364FA"/>
</g>
<rect width="30" height="30" transform="translate(474 51)" fill="#4364FA"/>
<path d="M478 76V77H480V76H478ZM488 76V77H490V76H488ZM480 76V74.9998H478V76H480ZM488 74.9993V76H490V74.9993H488ZM484 71C486.209 71 488 72.7904 488 74.9993H490C490 71.6854 487.314 69 484 69V71ZM480 74.9998C480 72.7907 481.791 71 484 71V69C480.686 69 478 71.686 478 74.9998H480ZM484 59C481.791 59 480 60.7909 480 63H482C482 61.8954 482.895 61 484 61V59ZM488 63C488 60.7909 486.209 59 484 59V61C485.105 61 486 61.8954 486 63H488ZM484 67C486.209 67 488 65.2091 488 63H486C486 64.1046 485.105 65 484 65V67ZM484 65C482.895 65 482 64.1046 482 63H480C480 65.2091 481.791 67 484 67V65ZM477 57H501V55H477V57ZM502 58V74H504V58H502ZM501 75H477V77H501V75ZM476 74V58H474V74H476ZM477 75C476.448 75 476 74.5523 476 74H474C474 75.6569 475.343 77 477 77V75ZM502 74C502 74.5523 501.552 75 501 75V77C502.657 77 504 75.6569 504 74H502ZM501 57C501.552 57 502 57.4477 502 58H504C504 56.3431 502.657 55 501 55V57ZM477 55C475.343 55 474 56.3431 474 58H476C476 57.4477 476.448 57 477 57V55ZM492 63H498V61H492V63ZM492 69H498V67H492V69Z" fill="white"/>
<g filter="url(#filter2_d_18_113)">
<circle cx="431" cy="191" r="30" fill="#4364FA"/>
</g>
<rect width="30" height="30" transform="translate(416 176)" fill="#4364FA"/>
<path d="M441.175 183.025C442.52 185.274 443.094 187.906 442.81 190.516V192.015C442.809 193.592 443.219 195.142 444 196.509M424.966 189.018C424.966 187.429 425.593 185.905 426.708 184.781C427.824 183.657 429.337 183.025 430.914 183.025C432.492 183.025 434.005 183.657 435.12 184.781C436.236 185.905 436.862 187.429 436.862 189.018V190.516C436.862 193.758 437.906 196.912 439.836 199.505M430.914 189.018V192.015C430.909 196.298 432.207 200.481 434.632 204M424.966 195.011C425.33 198.142 426.236 201.184 427.643 204M420.356 201.004C419.353 197.603 418.901 194.062 419.018 190.516V189.018C419.012 186.912 419.558 184.841 420.6 183.014C421.641 181.187 423.143 179.67 424.952 178.614C426.761 177.558 428.815 177.001 430.906 177C432.997 176.999 435.051 177.552 436.862 178.606" stroke="white" stroke-width="2" stroke-linecap="square" stroke-linejoin="round"/>
<g filter="url(#filter3_d_18_113)">
<circle cx="473" cy="310" r="30" fill="#4364FA"/>
</g>
<rect width="40" height="40" transform="translate(453 290)" fill="#4364FA"/>
<path d="M470.334 291.333L473.001 292.667V295.333L470.334 296.667L474.334 299.333H475.667V296.667H479.667V299.333L481.001 300.667V303.333L479.667 304.667H477.001L471.667 302L469.001 303.333H465.001L463.667 308.667L467.667 312.667L470.334 314V318L471.667 319.333V322L473.001 324.667H475.667L478.334 320.667L479.667 318V315.333L483.667 310L482.334 307.333H486.334V304.667H491.667M473.001 328.667C462.691 328.667 454.334 320.309 454.334 310C454.334 299.691 462.691 291.333 473.001 291.333C483.31 291.333 491.667 299.691 491.667 310C491.667 320.309 483.31 328.667 473.001 328.667Z" stroke="white" stroke-width="2" stroke-linejoin="round"/>
<g filter="url(#filter4_d_18_113)">
<circle cx="90" cy="238" r="30" fill="#4364FA"/>
</g>
<rect width="30" height="30" transform="translate(75 223)" fill="#4364FA"/>
<path d="M76 238L75.0715 237.629C74.9762 237.867 74.9762 238.133 75.0715 238.371L76 238ZM104 238L104.928 238.371C105.024 238.133 105.024 237.867 104.928 237.629L104 238ZM90 247C85.3719 247 82.1222 244.697 79.9933 242.331C78.9281 241.148 78.1562 239.961 77.6513 239.069C77.3994 238.625 77.2154 238.257 77.0959 238.003C77.0362 237.877 76.9927 237.779 76.9649 237.715C76.951 237.683 76.9411 237.659 76.935 237.644C76.932 237.637 76.9299 237.632 76.9289 237.63C76.9283 237.628 76.928 237.627 76.9279 237.627C76.9279 237.627 76.9279 237.627 76.928 237.628C76.9281 237.628 76.9282 237.628 76.9282 237.628C76.9283 237.628 76.9285 237.629 76 238C75.0715 238.371 75.0717 238.372 75.0719 238.372C75.072 238.372 75.0722 238.373 75.0723 238.373C75.0727 238.374 75.0731 238.375 75.0735 238.376C75.0744 238.379 75.0756 238.381 75.077 238.385C75.0798 238.392 75.0837 238.401 75.0885 238.413C75.0982 238.436 75.112 238.469 75.1298 238.51C75.1655 238.592 75.2177 238.709 75.2869 238.856C75.4252 239.149 75.6319 239.563 75.9112 240.056C76.4688 241.039 77.3219 242.352 78.5067 243.669C80.8777 246.303 84.628 249 90 249V247ZM76 238C76.9285 238.371 76.9283 238.372 76.9282 238.372C76.9282 238.372 76.9281 238.372 76.928 238.372C76.9279 238.373 76.9279 238.373 76.9279 238.373C76.928 238.373 76.9283 238.372 76.9289 238.37C76.9299 238.368 76.932 238.363 76.935 238.356C76.9411 238.341 76.951 238.317 76.9649 238.285C76.9927 238.221 77.0362 238.123 77.0959 237.997C77.2154 237.743 77.3994 237.375 77.6513 236.931C78.1562 236.039 78.9281 234.852 79.9933 233.669C82.1222 231.303 85.3719 229 90 229V227C84.628 227 80.8777 229.697 78.5067 232.331C77.3219 233.648 76.4688 234.961 75.9112 235.944C75.6319 236.437 75.4252 236.851 75.2869 237.144C75.2177 237.291 75.1655 237.408 75.1298 237.49C75.112 237.531 75.0982 237.564 75.0885 237.587C75.0837 237.599 75.0798 237.608 75.077 237.615C75.0756 237.619 75.0744 237.621 75.0735 237.624C75.0731 237.625 75.0727 237.626 75.0723 237.627C75.0722 237.627 75.072 237.628 75.0719 237.628C75.0717 237.628 75.0715 237.629 76 238ZM90 229C94.628 229 97.8777 231.303 100.007 233.669C101.072 234.852 101.844 236.039 102.349 236.931C102.601 237.375 102.785 237.743 102.904 237.997C102.964 238.123 103.007 238.221 103.035 238.285C103.049 238.317 103.059 238.341 103.065 238.356C103.068 238.363 103.07 238.368 103.071 238.37C103.072 238.372 103.072 238.373 103.072 238.373C103.072 238.373 103.072 238.373 103.072 238.373C103.072 238.372 103.072 238.372 103.072 238.372C103.072 238.372 103.072 238.371 104 238C104.928 237.629 104.928 237.628 104.928 237.628C104.928 237.628 104.928 237.627 104.928 237.627C104.927 237.626 104.927 237.625 104.926 237.624C104.926 237.621 104.924 237.619 104.923 237.615C104.92 237.608 104.916 237.599 104.911 237.587C104.902 237.564 104.888 237.531 104.87 237.49C104.834 237.408 104.782 237.291 104.713 237.144C104.575 236.851 104.368 236.437 104.089 235.944C103.531 234.961 102.678 233.648 101.493 232.331C99.1222 229.697 95.3719 227 90 227V229ZM104 238C103.072 237.629 103.072 237.628 103.072 237.628C103.072 237.628 103.072 237.628 103.072 237.627C103.072 237.627 103.072 237.627 103.072 237.627C103.072 237.627 103.072 237.628 103.071 237.63C103.07 237.632 103.068 237.637 103.065 237.644C103.059 237.659 103.049 237.683 103.035 237.715C103.007 237.779 102.964 237.877 102.904 238.003C102.785 238.257 102.601 238.625 102.349 239.069C101.844 239.961 101.072 241.148 100.007 242.331C97.8777 244.697 94.628 247 90 247V249C95.3719 249 99.1222 246.303 101.493 243.669C102.678 242.352 103.531 241.039 104.089 240.056C104.368 239.563 104.575 239.149 104.713 238.856C104.782 238.709 104.834 238.592 104.87 238.51C104.888 238.469 104.902 238.436 104.911 238.413C104.916 238.401 104.92 238.392 104.923 238.385C104.924 238.381 104.926 238.379 104.926 238.376C104.927 238.375 104.927 238.374 104.928 238.373C104.928 238.373 104.928 238.372 104.928 238.372C104.928 238.372 104.928 238.371 104 238ZM90 241C88.3431 241 87 239.657 87 238H85C85 240.761 87.2386 243 90 243V241ZM93 238C93 239.657 91.6569 241 90 241V243C92.7614 243 95 240.761 95 238H93ZM90 235C91.6569 235 93 236.343 93 238H95C95 235.239 92.7614 233 90 233V235ZM90 233C87.2386 233 85 235.239 85 238H87C87 236.343 88.3431 235 90 235V233Z" fill="white"/>
<rect x="210" y="99" width="153.738" height="153.738" rx="16" fill="#F7F6FC"/>
<path d="M259.416 99H226C217.163 99 210 106.163 210 115V148.416" stroke="#0B1319" stroke-width="2"/>
<path d="M314.322 252.738L347.738 252.738C356.575 252.738 363.738 245.575 363.738 236.738L363.738 203.322" stroke="#0B1319" stroke-width="2"/>
<path d="M363.738 148.416L363.738 115C363.738 106.163 356.575 99 347.738 99L314.322 99" stroke="#0B1319" stroke-width="2"/>
<path d="M210 203.322L210 236.738C210 245.575 217.163 252.738 226 252.738L259.416 252.738" stroke="#0B1319" stroke-width="2"/>
<path d="M311.778 161.124L293.028 182.162H314.681C314.681 182.128 248.596 228.2 248.596 228.2L282.339 191.042H260.686L287.359 161.09H311.744L311.778 161.124Z" fill="#4364FA"/>
<path d="M260.719 191.076L279.469 170.038H257.816L323.902 124L290.159 161.158H311.812L285.139 191.11H260.719V191.076Z" fill="#4364FA"/>
<path opacity="0.2" d="M248.596 228.2L314.681 182.128L293.028 182.162L311.778 161.124L260.72 191.076H282.339L248.596 228.2Z" fill="url(#paint0_linear_18_113)"/>
<defs>
<filter id="filter0_d_18_113" x="71" y="4" width="180" height="180" filterUnits="userSpaceOnUse" color-interpolation-filters="sRGB">
<feFlood flood-opacity="0" result="BackgroundImageFix"/>
<feColorMatrix in="SourceAlpha" type="matrix" values="0 0 0 0 0 0 0 0 0 0 0 0 0 0 0 0 0 0 127 0" result="hardAlpha"/>
<feOffset dy="24"/>
<feGaussianBlur stdDeviation="30"/>
<feComposite in2="hardAlpha" operator="out"/>
<feColorMatrix type="matrix" values="0 0 0 0 0.0431373 0 0 0 0 0.0745098 0 0 0 0 0.0980392 0 0 0 0.1 0"/>
<feBlend mode="normal" in2="BackgroundImageFix" result="effect1_dropShadow_18_113"/>
<feBlend mode="normal" in="SourceGraphic" in2="effect1_dropShadow_18_113" result="shape"/>
</filter>
<filter id="filter1_d_18_113" x="399" y="0" width="180" height="180" filterUnits="userSpaceOnUse" color-interpolation-filters="sRGB">
<feFlood flood-opacity="0" result="BackgroundImageFix"/>
<feColorMatrix in="SourceAlpha" type="matrix" values="0 0 0 0 0 0 0 0 0 0 0 0 0 0 0 0 0 0 127 0" result="hardAlpha"/>
<feOffset dy="24"/>
<feGaussianBlur stdDeviation="30"/>
<feComposite in2="hardAlpha" operator="out"/>
<feColorMatrix type="matrix" values="0 0 0 0 0.0431373 0 0 0 0 0.0745098 0 0 0 0 0.0980392 0 0 0 0.1 0"/>
<feBlend mode="normal" in2="BackgroundImageFix" result="effect1_dropShadow_18_113"/>
<feBlend mode="normal" in="SourceGraphic" in2="effect1_dropShadow_18_113" result="shape"/>
</filter>
<filter id="filter2_d_18_113" x="341" y="125" width="180" height="180" filterUnits="userSpaceOnUse" color-interpolation-filters="sRGB">
<feFlood flood-opacity="0" result="BackgroundImageFix"/>
<feColorMatrix in="SourceAlpha" type="matrix" values="0 0 0 0 0 0 0 0 0 0 0 0 0 0 0 0 0 0 127 0" result="hardAlpha"/>
<feOffset dy="24"/>
<feGaussianBlur stdDeviation="30"/>
<feComposite in2="hardAlpha" operator="out"/>
<feColorMatrix type="matrix" values="0 0 0 0 0.0431373 0 0 0 0 0.0745098 0 0 0 0 0.0980392 0 0 0 0.1 0"/>
<feBlend mode="normal" in2="BackgroundImageFix" result="effect1_dropShadow_18_113"/>
<feBlend mode="normal" in="SourceGraphic" in2="effect1_dropShadow_18_113" result="shape"/>
</filter>
<filter id="filter3_d_18_113" x="383" y="244" width="180" height="180" filterUnits="userSpaceOnUse" color-interpolation-filters="sRGB">
<feFlood flood-opacity="0" result="BackgroundImageFix"/>
<feColorMatrix in="SourceAlpha" type="matrix" values="0 0 0 0 0 0 0 0 0 0 0 0 0 0 0 0 0 0 127 0" result="hardAlpha"/>
<feOffset dy="24"/>
<feGaussianBlur stdDeviation="30"/>
<feComposite in2="hardAlpha" operator="out"/>
<feColorMatrix type="matrix" values="0 0 0 0 0.0431373 0 0 0 0 0.0745098 0 0 0 0 0.0980392 0 0 0 0.1 0"/>
<feBlend mode="normal" in2="BackgroundImageFix" result="effect1_dropShadow_18_113"/>
<feBlend mode="normal" in="SourceGraphic" in2="effect1_dropShadow_18_113" result="shape"/>
</filter>
<filter id="filter4_d_18_113" x="0" y="172" width="180" height="180" filterUnits="userSpaceOnUse" color-interpolation-filters="sRGB">
<feFlood flood-opacity="0" result="BackgroundImageFix"/>
<feColorMatrix in="SourceAlpha" type="matrix" values="0 0 0 0 0 0 0 0 0 0 0 0 0 0 0 0 0 0 127 0" result="hardAlpha"/>
<feOffset dy="24"/>
<feGaussianBlur stdDeviation="30"/>
<feComposite in2="hardAlpha" operator="out"/>
<feColorMatrix type="matrix" values="0 0 0 0 0.0431373 0 0 0 0 0.0745098 0 0 0 0 0.0980392 0 0 0 0.1 0"/>
<feBlend mode="normal" in2="BackgroundImageFix" result="effect1_dropShadow_18_113"/>
<feBlend mode="normal" in="SourceGraphic" in2="effect1_dropShadow_18_113" result="shape"/>
</filter>
<linearGradient id="paint0_linear_18_113" x1="281.638" y1="124.137" x2="281.638" y2="228.2" gradientUnits="userSpaceOnUse">
<stop stop-color="white"/>
<stop offset="0.932292" stop-color="white" stop-opacity="0"/>
</linearGradient>
</defs>
</svg>
