<svg width="116" height="90" viewBox="0 0 116 90" fill="none" xmlns="http://www.w3.org/2000/svg">
<mask id="mask0_1_2202" style="mask-type:alpha" maskUnits="userSpaceOnUse" x="9" y="8" width="98" height="74">
<rect x="9" y="8" width="97.3151" height="74" rx="10" fill="#D9D9D9"/>
</mask>
<g mask="url(#mask0_1_2202)">
<rect x="9" y="8" width="97.3151" height="74" fill="#BDAC8E"/>
<path d="M8.51651 33.3426H45.4931M40.9549 7.51672L55.6301 22.192V33.3426H45.4931M76.8944 7.51672L62.2191 22.192V33.3426M106.798 33.3426H69.315V57.6714H106.798M8.51651 57.6714H45.4931V33.3426" stroke="#0B1319" stroke-width="2" stroke-linecap="square" stroke-linejoin="round"/>
<path d="M76.8938 82.4834L61.7117 67.3013V63.6712C61.7117 60.3575 64.398 57.6712 67.7117 57.6712H71.3419" stroke="#0B1319" stroke-width="2" stroke-linecap="square" stroke-linejoin="round"/>
<path d="M38.9272 82.4834L54.1092 67.3013V63.6712C54.1092 60.3575 51.4229 57.6712 48.1092 57.6712H44.4791" stroke="#0B1319" stroke-width="2" stroke-linecap="square" stroke-linejoin="round"/>
</g>
<rect x="1" y="1" width="114" height="88" rx="13" stroke="#BDAC8E" stroke-width="2" stroke-linecap="square" stroke-dasharray="14 14"/>
</svg>
