<svg width="22" height="20" viewBox="0 0 22 20" fill="none" xmlns="http://www.w3.org/2000/svg">
<path d="M15.667 14H17.667V12M15.667 5.99998H17.667V7.99998M6.33366 5.99998H4.33366V7.99998M4.33366 12V14H6.33366M11.0003 12.6666C9.52757 12.6666 8.33366 11.4727 8.33366 9.99998C8.33366 8.52722 9.52757 7.33331 11.0003 7.33331C12.4731 7.33331 13.667 8.52722 13.667 9.99998C13.667 11.4727 12.4731 12.6666 11.0003 12.6666ZM3.00033 3.33331H19.0003C19.7367 3.33331 20.3337 3.93027 20.3337 4.66665V15.3333C20.3337 16.0697 19.7367 16.6666 19.0003 16.6666H3.00033C2.26395 16.6666 1.66699 16.0697 1.66699 15.3333V4.66665C1.66699 3.93027 2.26395 3.33331 3.00033 3.33331Z" stroke="#080E16" stroke-width="2"/>
</svg>
