<svg width="20" height="22" viewBox="0 0 20 22" fill="none" xmlns="http://www.w3.org/2000/svg">
<path d="M9.99967 1.66669L10.7679 1.0265C10.5779 0.79851 10.2965 0.666687 9.99967 0.666687C9.70289 0.666687 9.42145 0.79851 9.23145 1.0265L9.99967 1.66669ZM3.33301 9.66669L2.56479 9.0265C2.28822 9.35838 2.25604 9.83034 2.48501 10.1967L3.33301 9.66669ZM9.99967 20.3334L9.15168 20.8634C9.33441 21.1557 9.65488 21.3334 9.99967 21.3334C10.3445 21.3334 10.6649 21.1557 10.8477 20.8634L9.99967 20.3334ZM16.6663 9.66669L17.5143 10.1967C17.7433 9.83034 17.7111 9.35838 17.4346 9.0265L16.6663 9.66669ZM9.99967 7.00002L10.3711 6.07154L9.99967 5.92299L9.62828 6.07154L9.99967 7.00002ZM9.23145 1.0265L2.56479 9.0265L4.10123 10.3069L10.7679 2.30687L9.23145 1.0265ZM2.48501 10.1967L9.15168 20.8634L10.8477 19.8034L4.18101 9.13669L2.48501 10.1967ZM10.8477 20.8634L17.5143 10.1967L15.8183 9.13669L9.15168 19.8034L10.8477 20.8634ZM17.4346 9.0265L10.7679 1.0265L9.23145 2.30687L15.8981 10.3069L17.4346 9.0265ZM3.7044 10.5952L10.3711 7.9285L9.62828 6.07154L2.96162 8.73821L3.7044 10.5952ZM9.62828 7.9285L16.2949 10.5952L17.0377 8.73821L10.3711 6.07154L9.62828 7.9285Z" fill="#080E16"/>
</svg>
