<svg width="737" height="513" viewBox="0 0 737 513" fill="none" xmlns="http://www.w3.org/2000/svg">
<path d="M0 1H154.333C156.167 1 158 1.66667 159.333 3.16667L219 62.8333C220.333 64.1667 221.167 66 221.167 67.8334V210.833C221.167 212.667 222 214.5 223.333 215.833L261.667 254C263 255.333 264.833 256.167 266.667 256.167L736 256.167" stroke="#4364FA" stroke-width="2" stroke-miterlimit="8"/>
<path d="M0 171.167H90.5C92.3333 171.167 94.1667 171.833 95.5 173.333L219 296.833C220.333 298.167 222.167 299 224 299H735.5" stroke="#4364FA" stroke-width="2" stroke-miterlimit="8"/>
<path d="M0.166626 405.167H48.1666C50 405.167 51.8333 404.5 53.1666 403L112.833 343.333C114.167 342 116 341.167 117.833 341.167H736.5" stroke="#4364FA" stroke-width="2" stroke-miterlimit="8"/>
<path d="M0 511.666H196.833C198.667 511.666 200.5 511 201.833 509.5L346.667 364.666C348 363.333 349.833 362.5 351.667 362.5H735.5" stroke="#4364FA" stroke-width="2" stroke-miterlimit="8"/>
<path d="M0 43.5H90.5C92.3333 43.5 94.1667 44.1667 95.5 45.6667L176.5 126.667C177.833 128 178.667 129.833 178.667 131.667V210.833C178.667 212.667 179.333 214.5 180.833 215.833L240.5 275.5C241.833 276.833 243.667 277.667 245.5 277.667H736.5" stroke="#4364FA" stroke-width="2" stroke-miterlimit="8"/>
<path d="M0 213.833H69.1666C71 213.833 72.8333 214.5 74.1666 216L176.333 318.167C177.667 319.5 179.5 320.333 181.333 320.333H736.5" stroke="#4364FA" stroke-width="2" stroke-miterlimit="8"/>
</svg>
