<svg width="307" height="627" viewBox="0 0 307 627" fill="none" xmlns="http://www.w3.org/2000/svg">
<rect width="305.287" height="626.5" rx="40.5562" fill="black"/>
<g filter="url(#filter0_f_361_2093)">
<path d="M3.29004 39.9424C3.29004 19.2317 20.0794 2.44238 40.79 2.44238H264.251C285.514 2.44238 302.751 19.6794 302.751 40.9424V586.318C302.751 607.305 285.737 624.318 264.751 624.318H39.29C19.4077 624.318 3.29004 608.2 3.29004 588.318V39.9424Z" stroke="white" stroke-opacity="0.5" stroke-width="0.25"/>
</g>
<g filter="url(#filter1_f_361_2093)">
<path d="M5.53906 40.1924C5.53906 20.7243 21.321 4.94238 40.7891 4.94238H264.25C283.994 4.94238 300 20.9482 300 40.6924V586.569C300 606.451 283.882 622.569 264 622.569H40.0391C20.9853 622.569 5.53906 607.122 5.53906 588.069V40.1924Z" fill="black"/>
<path d="M5.53906 40.1924C5.53906 20.7243 21.321 4.94238 40.7891 4.94238H264.25C283.994 4.94238 300 20.9482 300 40.6924V586.569C300 606.451 283.882 622.569 264 622.569H40.0391C20.9853 622.569 5.53906 607.122 5.53906 588.069V40.1924Z" fill="url(#paint0_angular_361_2093)"/>
</g>
<g filter="url(#filter2_f_361_2093)">
<path d="M5.79004 40.6924C5.79004 21.2243 21.572 5.44238 41.04 5.44238H264.001C283.745 5.44238 299.751 21.4482 299.751 41.1924V586.069C299.751 605.951 283.634 622.069 263.751 622.069H40.2901C21.2363 622.069 5.79004 606.623 5.79004 587.569V40.6924Z" fill="url(#paint1_angular_361_2093)"/>
</g>
<path d="M10.2891 40.4413C10.2891 23.3205 24.1682 9.44141 41.2891 9.44141H265.002C281.708 9.44141 295.251 22.9848 295.251 39.6914V587.069C295.251 604.328 281.26 618.319 264.001 618.319H36.789C22.1535 618.319 10.2891 606.455 10.2891 591.819V40.4413Z" fill="black"/>
<mask id="mask0_361_2093" style="mask-type:alpha" maskUnits="userSpaceOnUse" x="16" y="16" width="274" height="596">
<rect x="16" y="16" width="274" height="596" rx="22" fill="#D9D9D9"/>
</mask>
<g mask="url(#mask0_361_2093)">
<rect x="16" y="16" width="274" height="596" rx="22" fill="#F7F6FC"/>
<path d="M79.4303 566V556.2H82.5943C84.4563 556.2 85.5623 557.278 85.5623 558.706C85.5623 559.672 85.1003 560.4 84.3163 560.82V560.904C84.9743 561.128 85.8983 561.828 85.8983 563.214C85.8983 564.978 84.5263 566 82.8743 566H79.4303ZM80.5503 560.442H82.5523C83.6583 560.442 84.4003 559.784 84.4003 558.79C84.4003 557.824 83.6443 557.208 82.5943 557.208H80.5503V560.442ZM80.5503 565.006H82.6783C83.8403 565.006 84.7223 564.446 84.7223 563.186C84.7223 561.898 83.6863 561.394 82.5523 561.394H80.5503V565.006ZM90.9425 566.182C88.7165 566.182 87.3025 564.544 87.3025 562.36C87.3025 560.036 88.8845 558.538 90.8725 558.538C93.0845 558.538 94.4005 560.162 94.4005 562.262V562.752H88.4645C88.5205 564.208 89.4585 565.174 90.9565 565.174C91.9225 565.174 92.8465 564.712 93.1825 563.858H94.3305C93.9245 565.216 92.6505 566.182 90.9425 566.182ZM88.4925 561.772H93.2245C93.1265 560.316 92.1045 559.546 90.8725 559.546C89.6545 559.546 88.6045 560.428 88.4925 561.772ZM99.5444 566.182C97.3464 566.182 95.8064 564.516 95.8064 562.36C95.8064 560.204 97.3884 558.538 99.5304 558.538C101.112 558.538 102.582 559.49 102.974 561.114H101.826C101.532 560.162 100.608 559.546 99.5584 559.546C98.0044 559.546 96.9544 560.778 96.9544 562.36C96.9544 563.998 98.0604 565.174 99.5864 565.174C100.636 565.174 101.574 564.558 101.854 563.606H102.988C102.61 565.23 101.126 566.182 99.5444 566.182ZM108.018 566.182C105.876 566.182 104.392 564.6 104.392 562.374C104.392 560.134 105.876 558.538 107.934 558.538C109.46 558.538 110.272 559.518 110.496 559.896H110.58V558.72H111.686V566H110.622V564.852H110.538C110.356 565.118 109.6 566.182 108.018 566.182ZM108.088 565.188C109.67 565.188 110.622 563.9 110.622 562.374C110.622 560.582 109.502 559.546 108.06 559.546C106.562 559.546 105.526 560.722 105.526 562.374C105.526 564.082 106.562 565.188 108.088 565.188ZM116.648 566.182C114.954 566.182 113.932 564.908 113.932 563.298V558.72H115.038V563.256C115.038 564.418 115.892 565.174 116.914 565.174C118.062 565.174 118.958 564.292 118.958 563.088V558.72H120.064V566H118.958V564.936H118.874C118.566 565.594 117.782 566.182 116.648 566.182ZM124.847 566.182C123.125 566.182 122.145 565.244 122.019 563.886H123.097C123.223 564.754 123.839 565.216 124.903 565.216C125.995 565.216 126.597 564.684 126.597 563.942C126.597 561.898 122.243 563.452 122.243 560.568C122.243 559.336 123.349 558.538 124.875 558.538C126.219 558.538 127.339 559.322 127.451 560.638H126.387C126.289 559.952 125.771 559.49 124.805 559.49C123.895 559.49 123.307 559.938 123.307 560.568C123.307 562.416 127.675 560.876 127.675 563.886C127.675 565.258 126.541 566.182 124.847 566.182ZM132.929 566.182C130.703 566.182 129.289 564.544 129.289 562.36C129.289 560.036 130.871 558.538 132.859 558.538C135.071 558.538 136.387 560.162 136.387 562.262V562.752H130.451C130.507 564.208 131.445 565.174 132.943 565.174C133.909 565.174 134.833 564.712 135.169 563.858H136.317C135.911 565.216 134.637 566.182 132.929 566.182ZM130.479 561.772H135.211C135.113 560.316 134.091 559.546 132.859 559.546C131.641 559.546 130.591 560.428 130.479 561.772ZM142.151 569.22V568.212H142.697C143.411 568.212 143.817 567.904 144.055 567.274L144.391 566.392L141.437 558.72H142.669L144.923 564.88H145.007L147.275 558.72H148.521L145.049 567.666C144.671 568.66 144.097 569.22 142.907 569.22H142.151ZM153.167 566.182C150.983 566.182 149.373 564.572 149.373 562.36C149.373 560.162 151.011 558.538 153.181 558.538C155.379 558.538 156.975 560.176 156.975 562.36C156.975 564.544 155.351 566.182 153.167 566.182ZM153.167 565.174C154.735 565.174 155.841 563.984 155.841 562.36C155.841 560.75 154.735 559.546 153.167 559.546C151.599 559.546 150.507 560.764 150.507 562.36C150.507 563.998 151.613 565.174 153.167 565.174ZM161.505 566.182C159.811 566.182 158.789 564.908 158.789 563.298V558.72H159.895V563.256C159.895 564.418 160.749 565.174 161.771 565.174C162.919 565.174 163.815 564.292 163.815 563.088V558.72H164.921V566H163.815V564.936H163.731C163.423 565.594 162.639 566.182 161.505 566.182ZM167.296 566V558.72H168.388V560.078H168.472C168.682 559.462 169.396 558.72 170.46 558.72H171.076V559.826H170.474C169.144 559.826 168.402 560.862 168.402 562.248V566H167.296ZM176.489 569.22V558.608H178.631V559.434H178.743C178.953 559.098 179.569 558.426 180.801 558.426C182.817 558.426 184.203 559.938 184.203 562.262C184.203 564.586 182.845 566.182 180.857 566.182C179.653 566.182 179.009 565.566 178.771 565.16H178.659V569.22H176.489ZM180.311 564.222C181.319 564.222 182.005 563.438 182.005 562.304C182.005 561.142 181.319 560.386 180.311 560.386C179.275 560.386 178.617 561.198 178.617 562.304C178.617 563.48 179.317 564.222 180.311 564.222ZM185.636 566V558.608H187.68V559.728H187.792C188.044 559.182 188.702 558.552 189.696 558.552H190.41V560.596H189.556C188.492 560.596 187.806 561.366 187.806 562.64V566H185.636ZM192.921 557.782C192.179 557.782 191.647 557.334 191.647 556.606C191.647 555.878 192.179 555.43 192.921 555.43C193.663 555.43 194.195 555.878 194.195 556.606C194.195 557.334 193.663 557.782 192.921 557.782ZM191.843 566V558.608H194.013V566H191.843ZM197.521 566L194.903 558.608H197.157L198.697 563.424H198.809L200.349 558.608H202.631L200.027 566H197.521ZM206.392 566.182C204.362 566.182 202.976 564.67 202.976 562.346C202.976 560.022 204.348 558.426 206.336 558.426C207.498 558.426 208.17 559.056 208.422 559.448H208.534V558.608H210.704V566H208.548V565.16H208.436C208.226 565.496 207.61 566.182 206.392 566.182ZM206.882 564.222C207.918 564.222 208.576 563.396 208.576 562.304C208.576 561.128 207.862 560.386 206.868 560.386C205.86 560.386 205.174 561.17 205.174 562.304C205.174 563.452 205.86 564.222 206.882 564.222ZM215.796 566.182C213.416 566.182 211.876 564.474 211.876 562.304C211.876 560.12 213.402 558.426 215.782 558.426C217.84 558.426 219.31 559.672 219.52 561.478H217.322C217.126 560.848 216.566 560.386 215.796 560.386C214.732 560.386 214.074 561.24 214.074 562.304C214.074 563.382 214.76 564.222 215.81 564.222C216.538 564.222 217.112 563.802 217.294 563.214H219.506C219.268 564.964 217.826 566.182 215.796 566.182ZM220.735 569.22V567.302H221.589C222.177 567.302 222.513 566.98 222.709 566.49L222.835 566.14L219.909 558.608H222.177L223.801 563.298H223.913L225.453 558.608H227.749L224.613 567.064C224.109 568.422 223.269 569.22 221.715 569.22H220.735ZM91.4788 583V575.72H92.5848V576.77H92.6688C93.0188 576.098 93.7188 575.538 94.7968 575.538C95.8888 575.538 96.6868 576.07 97.0928 576.868H97.1908C97.6808 575.93 98.4788 575.538 99.5008 575.538C101.125 575.538 102.175 576.686 102.175 578.282V583H101.069V578.646C101.069 577.274 100.383 576.574 99.3048 576.574C98.2828 576.574 97.3868 577.302 97.3868 578.66V583H96.2808V578.436C96.2808 577.274 95.4968 576.574 94.4748 576.574C93.4528 576.574 92.5848 577.386 92.5848 578.618V583H91.4788ZM107.615 583.182C105.473 583.182 103.989 581.6 103.989 579.374C103.989 577.134 105.473 575.538 107.531 575.538C109.057 575.538 109.869 576.518 110.093 576.896H110.177V575.72H111.283V583H110.219V581.852H110.135C109.953 582.118 109.197 583.182 107.615 583.182ZM107.685 582.188C109.267 582.188 110.219 580.9 110.219 579.374C110.219 577.582 109.099 576.546 107.657 576.546C106.159 576.546 105.123 577.722 105.123 579.374C105.123 581.082 106.159 582.188 107.685 582.188ZM116.51 583C115.166 583 114.34 582.272 114.34 580.802V576.658H112.968V575.72H114.06C114.256 575.72 114.41 575.594 114.41 575.356V573.606H115.446V575.72H117.686V576.658H115.446V580.788C115.446 581.572 115.74 582.034 116.58 582.034H117.588V583H116.51ZM122.485 583C121.141 583 120.315 582.272 120.315 580.802V576.658H118.943V575.72H120.035C120.231 575.72 120.385 575.594 120.385 575.356V573.606H121.421V575.72H123.661V576.658H121.421V580.788C121.421 581.572 121.715 582.034 122.555 582.034H123.563V583H122.485ZM128.697 583.182C126.471 583.182 125.057 581.544 125.057 579.36C125.057 577.036 126.639 575.538 128.627 575.538C130.839 575.538 132.155 577.162 132.155 579.262V579.752H126.219C126.275 581.208 127.213 582.174 128.711 582.174C129.677 582.174 130.601 581.712 130.937 580.858H132.085C131.679 582.216 130.405 583.182 128.697 583.182ZM126.247 578.772H130.979C130.881 577.316 129.859 576.546 128.627 576.546C127.409 576.546 126.359 577.428 126.247 578.772ZM134.121 583V575.72H135.213V577.078H135.297C135.507 576.462 136.221 575.72 137.285 575.72H137.901V576.826H137.299C135.969 576.826 135.227 577.862 135.227 579.248V583H134.121ZM142.135 583.182C140.413 583.182 139.433 582.244 139.307 580.886H140.385C140.511 581.754 141.127 582.216 142.191 582.216C143.283 582.216 143.885 581.684 143.885 580.942C143.885 578.898 139.531 580.452 139.531 577.568C139.531 576.336 140.637 575.538 142.163 575.538C143.507 575.538 144.627 576.322 144.739 577.638H143.675C143.577 576.952 143.059 576.49 142.093 576.49C141.183 576.49 140.595 576.938 140.595 577.568C140.595 579.416 144.963 577.876 144.963 580.886C144.963 582.258 143.829 583.182 142.135 583.182ZM153.903 583C152.559 583 151.733 582.272 151.733 580.802V576.658H150.361V575.72H151.453C151.649 575.72 151.803 575.594 151.803 575.356V573.606H152.839V575.72H155.079V576.658H152.839V580.788C152.839 581.572 153.133 582.034 153.973 582.034H154.981V583H153.903ZM157.035 583V572.5H158.141V576.784H158.225C158.533 576.126 159.345 575.538 160.479 575.538C162.173 575.538 163.223 576.812 163.223 578.422V583H162.117V578.492C162.117 577.33 161.235 576.574 160.213 576.574C159.093 576.574 158.141 577.4 158.141 578.576V583H157.035ZM168.688 583.182C166.462 583.182 165.048 581.544 165.048 579.36C165.048 577.036 166.63 575.538 168.618 575.538C170.83 575.538 172.146 577.162 172.146 579.262V579.752H166.21C166.266 581.208 167.204 582.174 168.702 582.174C169.668 582.174 170.592 581.712 170.928 580.858H172.076C171.67 582.216 170.396 583.182 168.688 583.182ZM166.238 578.772H170.97C170.872 577.316 169.85 576.546 168.618 576.546C167.4 576.546 166.35 577.428 166.238 578.772ZM178.035 583V575.72H179.141V576.77H179.225C179.575 576.098 180.275 575.538 181.353 575.538C182.445 575.538 183.243 576.07 183.649 576.868H183.747C184.237 575.93 185.035 575.538 186.057 575.538C187.681 575.538 188.731 576.686 188.731 578.282V583H187.625V578.646C187.625 577.274 186.939 576.574 185.861 576.574C184.839 576.574 183.943 577.302 183.943 578.66V583H182.837V578.436C182.837 577.274 182.053 576.574 181.031 576.574C180.009 576.574 179.141 577.386 179.141 578.618V583H178.035ZM194.34 583.182C192.156 583.182 190.546 581.572 190.546 579.36C190.546 577.162 192.184 575.538 194.354 575.538C196.552 575.538 198.148 577.176 198.148 579.36C198.148 581.544 196.524 583.182 194.34 583.182ZM194.34 582.174C195.908 582.174 197.014 580.984 197.014 579.36C197.014 577.75 195.908 576.546 194.34 576.546C192.772 576.546 191.68 577.764 191.68 579.36C191.68 580.998 192.786 582.174 194.34 582.174ZM202.51 583.182C200.788 583.182 199.808 582.244 199.682 580.886H200.76C200.886 581.754 201.502 582.216 202.566 582.216C203.658 582.216 204.26 581.684 204.26 580.942C204.26 578.898 199.906 580.452 199.906 577.568C199.906 576.336 201.012 575.538 202.538 575.538C203.882 575.538 205.002 576.322 205.114 577.638H204.05C203.952 576.952 203.434 576.49 202.468 576.49C201.558 576.49 200.97 576.938 200.97 577.568C200.97 579.416 205.338 577.876 205.338 580.886C205.338 582.258 204.204 583.182 202.51 583.182ZM210.354 583C209.01 583 208.184 582.272 208.184 580.802V576.658H206.812V575.72H207.904C208.1 575.72 208.254 575.594 208.254 575.356V573.606H209.29V575.72H211.53V576.658H209.29V580.788C209.29 581.572 209.584 582.034 210.424 582.034H211.432V583H210.354ZM213.871 583.182C213.437 583.182 213.073 582.832 213.073 582.398C213.073 581.964 213.437 581.614 213.871 581.614C214.305 581.614 214.655 581.964 214.655 582.398C214.655 582.832 214.305 583.182 213.871 583.182Z" fill="#0B1319"/>
<path fill-rule="evenodd" clip-rule="evenodd" d="M96.8303 383.952V368H99.6108V383.795C99.6108 384.515 99.9833 384.903 100.668 384.903H101.251V387.297H100.111C98.0193 387.297 96.8265 386.062 96.8265 383.952H96.8303ZM53 381.766H55.7805C55.8069 383.62 57.3684 385.085 59.9382 385.085C62.508 385.085 63.618 384.109 63.618 382.486C63.618 380.298 61.5842 379.824 59.3474 379.303C56.6149 378.666 53.5794 377.959 53.5794 373.969C53.5794 371.447 55.8596 368.95 59.7802 368.95C63.7008 368.95 66.0825 370.595 66.1352 374.353H63.2493C63.2493 372.577 62.0039 371.447 59.7538 371.447C57.5038 371.447 56.4164 372.631 56.4164 373.918C56.4164 375.812 58.3434 376.261 60.5177 376.767C63.3319 377.422 66.5603 378.174 66.5603 382.282C66.5603 385.085 64.0959 387.633 59.8328 387.633C55.5698 387.633 53 385.239 53 381.766ZM71.2449 383.024V376.053H68.7541V373.867H70.5827C71.0605 373.867 71.4029 373.531 71.4029 372.993V370.033H74.0255V373.842H78.0514V376.053H74.0255V382.947C74.0255 384.234 74.5823 385.005 76.0384 385.005H77.9197V387.294H75.617C72.8892 387.294 71.2487 385.828 71.2487 383.024H71.2449ZM87.2958 373.509C83.3489 373.509 80.3839 376.338 80.3839 380.608H80.3877C80.3877 384.651 83.9396 387.633 87.3523 387.633C90.7649 387.633 93.2294 385.831 93.9443 383.232H91.2428C90.6859 384.545 89.9672 385.367 87.4275 385.367C84.8878 385.367 83.2698 383.773 83.1645 381.43H94.076V380.429C94.076 376.598 91.2428 373.509 87.2958 373.509ZM87.2958 375.771C89.4405 375.771 91.1374 377.084 91.3218 379.347H83.2172C83.4279 377.237 85.1511 375.771 87.2958 375.771ZM104.404 368V383.952C104.404 386.062 105.597 387.297 107.689 387.297H108.829V384.903H108.246C107.557 384.903 107.185 384.515 107.185 383.795V368H104.404ZM110.944 380.608C110.944 376.44 113.672 373.509 117.54 373.509C120.883 373.509 121.494 374.7 121.89 375.471C121.952 375.592 122.008 375.703 122.07 375.797H122.254V373.841H125.035V387.297H122.307V385.393H122.149C121.776 385.908 120.425 387.63 117.675 387.63C113.702 387.63 110.948 384.775 110.948 380.604L110.944 380.608ZM122.333 380.582C122.333 377.676 120.478 375.976 118.044 375.976C115.609 375.976 113.781 377.881 113.781 380.582C113.781 383.283 115.53 385.188 118.07 385.188C120.61 385.188 122.333 383.13 122.333 380.582ZM131.71 373.841H129.034V387.301H131.815V380.662C131.815 378.169 133.166 376.444 135.521 376.444H136.819V373.819H135.6C133.644 373.819 132.319 375.102 131.894 376.184H131.71V373.841ZM146.086 381.766H148.867C148.893 383.62 150.455 385.086 153.024 385.086C155.594 385.086 156.704 384.109 156.704 382.486C156.704 380.298 154.671 379.824 152.435 379.303C149.704 378.667 146.669 377.959 146.669 373.969C146.669 371.451 148.946 368.954 152.866 368.954C156.787 368.954 159.169 370.599 159.221 374.357H156.336C156.336 372.58 155.09 371.451 152.84 371.451C150.59 371.451 149.503 372.635 149.503 373.922C149.503 375.816 151.43 376.265 153.604 376.771C156.418 377.426 159.647 378.178 159.647 382.285C159.647 385.086 157.182 387.637 152.919 387.637C148.656 387.637 146.086 385.243 146.086 381.77V381.766ZM168.918 373.509C164.971 373.509 162.006 376.338 162.006 380.608C162.006 384.651 165.554 387.633 168.97 387.633C172.387 387.633 174.851 385.831 175.566 383.232H172.865C172.308 384.545 171.593 385.367 169.049 385.367C166.506 385.367 164.892 383.773 164.786 381.43H175.698V380.429C175.698 376.598 172.865 373.509 168.918 373.509ZM168.918 375.771C171.062 375.771 172.759 377.084 172.944 379.347H164.839C165.05 377.237 166.773 375.771 168.918 375.771ZM178.08 380.582C178.08 376.594 181.044 373.505 185.255 373.505C189.465 373.505 191.32 375.461 191.956 378.546H189.096C188.619 377.003 187.11 375.972 185.281 375.972C182.659 375.972 180.939 377.979 180.939 380.578C180.939 383.177 182.741 385.184 185.334 385.184C187.926 385.184 188.645 384.157 189.119 382.636H191.952C191.343 385.725 188.536 387.626 185.277 387.626C182.019 387.626 178.076 384.537 178.076 380.575L178.08 380.582ZM195.135 373.841V382.483C195.135 385.392 197.065 387.63 200.218 387.63C202.284 387.63 203.714 386.602 204.271 385.495H204.455V387.297H207.157V373.841H204.376V381.741C204.376 383.696 202.758 385.137 201.012 385.137C199.267 385.137 197.916 383.901 197.916 381.997V373.841H195.135ZM211.235 373.841H213.911V376.184H214.095C214.52 375.102 215.845 373.819 217.801 373.819H219.02V376.444H217.722C215.367 376.444 214.016 378.169 214.016 380.662V387.301H211.235V373.841ZM223.633 368.307C222.572 368.307 221.805 369.031 221.805 370.007C221.805 371.038 222.546 371.732 223.633 371.732C224.721 371.732 225.488 370.987 225.488 370.007C225.488 369.027 224.694 368.307 223.633 368.307ZM225.01 373.841H222.23V387.297H225.01V373.841ZM230.357 383.024V376.053H227.866V373.867H229.695C230.172 373.867 230.515 373.531 230.515 372.993V370.033H233.137V373.842H237.163V376.053H233.137V382.947C233.137 384.234 233.694 385.005 235.15 385.005H237.032V387.294H234.729C232.001 387.294 230.36 385.828 230.36 383.024H230.357ZM241.746 390.795H240.527V393.215H242.089C244.579 393.215 245.851 392.031 246.645 389.973L253 373.841H249.956L246.141 384.237H245.956L242.115 373.841H239.097L244.685 387.864L244.181 389.15C243.759 390.229 243.018 390.795 241.746 390.795Z" fill="#0B1319"/>
<rect x="83" y="200" width="140" height="140" rx="16" fill="#F7F6FC"/>
<path d="M128 200H99C90.1634 200 83 207.163 83 216V245" stroke="#0B1319" stroke-width="2"/>
<path d="M178 340L207 340C215.837 340 223 332.837 223 324L223 295" stroke="#0B1319" stroke-width="2"/>
<path d="M223 245L223 216C223 207.163 215.837 200 207 200L178 200" stroke="#0B1319" stroke-width="2"/>
<path d="M83 295L83 324C83 332.837 90.1634 340 99 340L128 340" stroke="#0B1319" stroke-width="2"/>
<path fill-rule="evenodd" clip-rule="evenodd" d="M156.991 222.562L121.631 262.239H150.299L115.457 301.57L101.512 262.239V222.562H153.235H156.991ZM115.457 301.57L193.128 250.064L164.46 250.452L189.328 222.562H204.958V262.239L191.055 301.57L153.235 321.43L115.457 301.57Z" fill="#4364FA"/>
</g>
<ellipse cx="33.993" cy="34.1427" rx="9.45487" ry="9.45422" fill="black"/>
<ellipse cx="33.9112" cy="34.0616" rx="7.12406" ry="7.12357" fill="#0A0A0A"/>
<ellipse cx="33.9112" cy="34.0616" rx="7.12406" ry="7.12357" fill="url(#paint2_radial_361_2093)"/>
<g filter="url(#filter3_i_361_2093)">
<ellipse cx="2.94578" cy="2.94594" rx="2.94578" ry="2.94594" transform="matrix(-0.323349 -0.94628 0.946293 -0.323309 32.287 37.9358)" fill="black"/>
<ellipse cx="2.94578" cy="2.94594" rx="2.94578" ry="2.94594" transform="matrix(-0.323349 -0.94628 0.946293 -0.323309 32.287 37.9358)" fill="url(#paint3_angular_361_2093)"/>
<ellipse cx="2.94578" cy="2.94594" rx="2.94578" ry="2.94594" transform="matrix(-0.323349 -0.94628 0.946293 -0.323309 32.287 37.9358)" fill="url(#paint4_radial_361_2093)"/>
</g>
<g filter="url(#filter4_f_361_2093)">
<ellipse cx="35.0371" cy="33.6864" rx="0.75" ry="0.749851" fill="#BA7FD6"/>
</g>
<path d="M15.4971 583.384C15.2471 593.007 15.4971 617.877 59.2413 611.878C35.1195 618.502 2.59878 617.277 15.4971 583.384Z" fill="black"/>
<path d="M289.898 580.884C289.898 613.377 265.214 611.37 262.215 611.795C259.59 614.295 302.147 615.627 289.898 580.884Z" fill="black"/>
<path d="M15.4965 39.9924C15.7465 32.3689 20.9458 16.857 39.7433 15.7572C30.9944 14.8824 13.8967 18.4967 15.4965 39.9924Z" fill="black"/>
<path d="M261.464 15.7472C272.463 15.7472 289.96 19.8714 289.96 42.4918C291.835 30.8692 288.76 9.24851 261.464 15.7472Z" fill="#020203"/>
<path d="M305.251 149.913H305.751C306.441 149.913 307.001 150.473 307.001 151.163V192.904C307.001 193.595 306.441 194.154 305.751 194.154H305.251V149.913Z" fill="black"/>
<path d="M305.251 149.913H305.751C306.441 149.913 307.001 150.473 307.001 151.163V192.904C307.001 193.595 306.441 194.154 305.751 194.154H305.251V149.913Z" fill="url(#paint5_linear_361_2093)"/>
<path d="M305.251 236.896H305.751C306.441 236.896 307.001 237.455 307.001 238.146V321.128C307.001 321.819 306.441 322.378 305.751 322.378H305.251V236.896Z" fill="black"/>
<defs>
<filter id="filter0_f_361_2093" x="2.16504" y="1.31738" width="301.711" height="624.125" filterUnits="userSpaceOnUse" color-interpolation-filters="sRGB">
<feFlood flood-opacity="0" result="BackgroundImageFix"/>
<feBlend mode="normal" in="SourceGraphic" in2="BackgroundImageFix" result="shape"/>
<feGaussianBlur stdDeviation="0.5" result="effect1_foregroundBlur_361_2093"/>
</filter>
<filter id="filter1_f_361_2093" x="5.03906" y="4.44238" width="295.461" height="618.626" filterUnits="userSpaceOnUse" color-interpolation-filters="sRGB">
<feFlood flood-opacity="0" result="BackgroundImageFix"/>
<feBlend mode="normal" in="SourceGraphic" in2="BackgroundImageFix" result="shape"/>
<feGaussianBlur stdDeviation="0.25" result="effect1_foregroundBlur_361_2093"/>
</filter>
<filter id="filter2_f_361_2093" x="5.29004" y="4.94238" width="294.961" height="617.627" filterUnits="userSpaceOnUse" color-interpolation-filters="sRGB">
<feFlood flood-opacity="0" result="BackgroundImageFix"/>
<feBlend mode="normal" in="SourceGraphic" in2="BackgroundImageFix" result="shape"/>
<feGaussianBlur stdDeviation="0.25" result="effect1_foregroundBlur_361_2093"/>
</filter>
<filter id="filter3_i_361_2093" x="31.1755" y="31.2493" width="5.89352" height="5.89307" filterUnits="userSpaceOnUse" color-interpolation-filters="sRGB">
<feFlood flood-opacity="0" result="BackgroundImageFix"/>
<feBlend mode="normal" in="SourceGraphic" in2="BackgroundImageFix" result="shape"/>
<feColorMatrix in="SourceAlpha" type="matrix" values="0 0 0 0 0 0 0 0 0 0 0 0 0 0 0 0 0 0 127 0" result="hardAlpha"/>
<feMorphology radius="0.25" operator="erode" in="SourceAlpha" result="effect1_innerShadow_361_2093"/>
<feOffset/>
<feGaussianBlur stdDeviation="0.375"/>
<feComposite in2="hardAlpha" operator="arithmetic" k2="-1" k3="1"/>
<feColorMatrix type="matrix" values="0 0 0 0 0 0 0 0 0 0 0 0 0 0 0 0 0 0 1 0"/>
<feBlend mode="normal" in2="shape" result="effect1_innerShadow_361_2093"/>
</filter>
<filter id="filter4_f_361_2093" x="33.2871" y="31.9365" width="3.5" height="3.49976" filterUnits="userSpaceOnUse" color-interpolation-filters="sRGB">
<feFlood flood-opacity="0" result="BackgroundImageFix"/>
<feBlend mode="normal" in="SourceGraphic" in2="BackgroundImageFix" result="shape"/>
<feGaussianBlur stdDeviation="0.5" result="effect1_foregroundBlur_361_2093"/>
</filter>
<radialGradient id="paint0_angular_361_2093" cx="0" cy="0" r="1" gradientUnits="userSpaceOnUse" gradientTransform="translate(152.77 313.756) rotate(90) scale(308.813 147.231)">
<stop offset="0.00370279"/>
<stop offset="0.0860873"/>
<stop offset="0.142579"/>
<stop offset="0.551797" stop-color="#898686"/>
<stop offset="0.597149"/>
<stop offset="0.62222"/>
<stop offset="0.635363"/>
<stop offset="0.644459" stop-color="#898686"/>
<stop offset="0.86974" stop-color="#1C1C1C"/>
<stop offset="0.875025"/>
</radialGradient>
<radialGradient id="paint1_angular_361_2093" cx="0" cy="0" r="1" gradientUnits="userSpaceOnUse" gradientTransform="translate(152.771 313.756) rotate(90) scale(308.313 165.875)">
<stop offset="0.000303672" stop-color="#4A4A4A"/>
<stop offset="0.0904875" stop-color="#404040"/>
<stop offset="0.111563"/>
<stop offset="0.136566" stop-color="#404040"/>
<stop offset="0.404505" stop-color="#848484"/>
<stop offset="0.596482" stop-color="#5E5E5E"/>
<stop offset="0.607769"/>
<stop offset="0.614698"/>
<stop offset="0.626401" stop-color="#535353"/>
<stop offset="0.872212" stop-color="#585858"/>
<stop offset="0.886458"/>
<stop offset="0.902914" stop-color="#575757"/>
</radialGradient>
<radialGradient id="paint2_radial_361_2093" cx="0" cy="0" r="1" gradientUnits="userSpaceOnUse" gradientTransform="translate(33.9112 34.0616) rotate(90) scale(7.12357 7.12406)">
<stop offset="0.552083" stop-opacity="0"/>
<stop offset="0.666667" stop-color="#5B5B5B" stop-opacity="0.21"/>
<stop offset="0.708333" stop-opacity="0"/>
</radialGradient>
<radialGradient id="paint3_angular_361_2093" cx="0" cy="0" r="1" gradientUnits="userSpaceOnUse" gradientTransform="translate(2.94578 2.94596) rotate(89.9999) scale(2.94593 2.78517)">
<stop offset="0.109898" stop-opacity="0.718268"/>
<stop offset="0.266542" stop-color="#6777CA"/>
<stop offset="0.473888" stop-color="#6C86CA"/>
<stop offset="0.665391" stop-color="#5583C7"/>
<stop offset="0.865938" stop-opacity="0.718268"/>
<stop offset="1" stop-color="#5351BA" stop-opacity="0"/>
</radialGradient>
<radialGradient id="paint4_radial_361_2093" cx="0" cy="0" r="1" gradientUnits="userSpaceOnUse" gradientTransform="translate(2.94578 2.94594) rotate(90) scale(2.94594 2.94578)">
<stop offset="0.0520833"/>
<stop offset="0.671875" stop-color="#767676" stop-opacity="0"/>
</radialGradient>
<linearGradient id="paint5_linear_361_2093" x1="306.126" y1="149.913" x2="306.126" y2="194.154" gradientUnits="userSpaceOnUse">
<stop stop-color="#353535"/>
<stop offset="0.0416667" stop-color="#AEAEAE"/>
<stop offset="0.104167" stop-color="#49494A"/>
<stop offset="0.677083" stop-color="#49494A"/>
<stop offset="0.901042" stop-color="#787879" stop-opacity="0.435484"/>
<stop offset="1" stop-opacity="0"/>
</linearGradient>
</defs>
</svg>
