<svg width="60" height="60" viewBox="0 0 60 60" fill="none" xmlns="http://www.w3.org/2000/svg">
<path d="M29.5337 59.0674C45.8447 59.0674 59.0674 45.8447 59.0674 29.5337C59.0674 13.2227 45.8447 0 29.5337 0C13.2227 0 0 13.2227 0 29.5337C0 45.8447 13.2227 59.0674 29.5337 59.0674Z" fill="#4364FA"/>
<path d="M27.7513 11L30.3768 12.3132V14.9378L27.7513 16.2511L31.6891 18.8756H33.0014V16.2511H36.9392V18.8756L38.2525 20.1889V22.8135L36.9392 24.1267H34.3147L29.0636 21.5012L26.439 22.8135H22.5012L21.1879 28.0645L25.1257 32.0024L27.7513 33.3147V37.2525L29.0636 38.5648V41.1903L30.3768 43.8158H33.0014L35.6269 39.878L36.9392 37.2525V34.6269L40.877 29.3768L39.5648 26.7513H43.5026V24.1267H48.7527M30.3768 47.7537C20.2271 47.7537 12 39.5256 12 29.3768C12 19.2281 20.2271 11 30.3768 11C40.5256 11 48.7527 19.2281 48.7527 29.3768C48.7527 39.5256 40.5256 47.7537 30.3768 47.7537Z" stroke="white" stroke-width="1.96891" stroke-linejoin="round"/>
</svg>
