<svg width="390" height="711" viewBox="0 0 390 711" fill="none" xmlns="http://www.w3.org/2000/svg">
<g filter="url(#filter0_d_707_1977)">
<rect x="42" y="26" width="305.043" height="626" rx="42.584" fill="black"/>
<g filter="url(#filter1_f_707_1977)">
<path d="M45.2891 67.8156C45.2891 46.0694 62.9178 28.4407 84.664 28.4407H304.085C326.411 28.4407 344.51 46.5395 344.51 68.8656V609.92C344.51 631.956 326.646 649.82 304.61 649.82H83.089C62.2127 649.82 45.2891 632.896 45.2891 612.02V67.8156Z" stroke="white" stroke-opacity="0.5" stroke-width="0.2625"/>
</g>
<g filter="url(#filter2_f_707_1977)">
<path d="M47.5352 67.9507C47.5352 47.5093 64.1062 30.9382 84.5476 30.9382H304.223C324.954 30.9382 341.76 47.7443 341.76 68.4757V610.272C341.76 631.148 324.837 648.072 303.961 648.072H83.7601C63.7536 648.072 47.5352 631.853 47.5352 611.847V67.9507Z" fill="black"/>
<path d="M47.5352 67.9507C47.5352 47.5093 64.1062 30.9382 84.5476 30.9382H304.223C324.954 30.9382 341.76 47.7443 341.76 68.4757V610.272C341.76 631.148 324.837 648.072 303.961 648.072H83.7601C63.7536 648.072 47.5352 631.853 47.5352 611.847V67.9507Z" fill="url(#paint0_angular_707_1977)"/>
</g>
<g filter="url(#filter3_f_707_1977)">
<path d="M47.7832 68.4502C47.7832 48.0088 64.3542 31.4378 84.7957 31.4378H303.972C324.703 31.4378 341.509 48.2439 341.509 68.9753V609.772C341.509 630.649 324.585 647.572 303.709 647.572H84.0082C64.0017 647.572 47.7832 631.354 47.7832 611.347V68.4502Z" fill="url(#paint1_angular_707_1977)"/>
</g>
<path d="M52.2793 67.9835C52.2793 50.0067 66.8524 35.4336 84.8293 35.4336H305.251C322.793 35.4336 337.013 49.6541 337.013 67.1961V611.013C337.013 629.135 322.323 643.826 304.201 643.826H80.1042C64.7369 643.826 52.2793 631.368 52.2793 616.001V67.9835Z" fill="black"/>
<mask id="mask0_707_1977" style="mask-type:alpha" maskUnits="userSpaceOnUse" x="57" y="41" width="275" height="597">
<rect x="57.9863" y="41.9872" width="273.781" height="595.524" rx="23.1" fill="#D9D9D9"/>
</mask>
<g mask="url(#mask0_707_1977)">
<rect x="57.9863" y="41.9872" width="273.781" height="595.524" rx="23.1" fill="#F7F6FC"/>
<path fill-rule="evenodd" clip-rule="evenodd" d="M175.894 402.43V383.762H179.05V402.262C179.05 403.102 179.487 403.572 180.259 403.572H180.93V406.359H179.621C177.237 406.325 175.894 404.881 175.894 402.43ZM126 399.845H129.156C129.19 402.027 130.969 403.74 133.89 403.74C136.812 403.74 138.088 402.598 138.088 400.684C138.088 398.113 135.771 397.558 133.225 396.949C130.119 396.205 126.672 395.38 126.672 390.712C126.672 387.757 129.257 384.836 133.723 384.836C138.188 384.836 140.908 386.75 140.942 391.148H137.651C137.651 389.067 136.241 387.757 133.689 387.757C131.137 387.757 129.895 389.134 129.895 390.645C129.895 392.871 132.092 393.398 134.57 393.992C137.773 394.76 141.445 395.64 141.445 400.449C141.445 403.74 138.658 406.728 133.79 406.728C128.921 406.728 126 403.941 126 399.845ZM146.751 401.322V393.163H143.931V390.611H146.012C146.549 390.611 146.952 390.208 146.952 389.57V386.112H149.941V390.578H154.507V393.163H149.941V401.255C149.941 402.766 150.579 403.672 152.224 403.672H154.373V406.359H151.754C148.631 406.325 146.751 404.613 146.751 401.322ZM165.017 390.175C160.552 390.175 157.16 393.499 157.16 398.502C157.16 403.236 160.35 406.694 165.085 406.694C168.946 406.694 171.766 404.613 172.572 401.557H169.483C168.845 403.068 168.039 404.042 165.152 404.042C162.264 404.042 160.451 402.195 160.317 399.442H172.74V398.267C172.74 393.801 169.483 390.175 165.017 390.175ZM165.051 392.827C167.468 392.827 169.416 394.372 169.617 397.024H160.417C160.652 394.54 162.633 392.827 165.051 392.827ZM184.49 383.762V402.43C184.49 404.881 185.867 406.325 188.217 406.359H189.527V403.572H188.855C188.083 403.572 187.646 403.102 187.646 402.262V383.762H184.49ZM191.945 398.502C191.945 393.633 195.034 390.175 199.433 390.175C203.236 390.175 203.927 391.58 204.369 392.482C204.439 392.623 204.502 392.752 204.57 392.861H204.772V390.578H207.928V406.325H204.839V404.109H204.671C204.234 404.713 202.723 406.728 199.567 406.728C195.068 406.728 191.945 403.37 191.945 398.502ZM204.906 398.468C204.906 395.077 202.791 393.062 200.037 393.062C197.284 393.062 195.202 395.278 195.202 398.468C195.202 401.658 197.183 403.874 200.071 403.874C202.958 403.874 204.906 401.456 204.906 398.468ZM215.581 390.578H212.525V406.359H215.681V398.569C215.681 395.648 217.226 393.633 219.912 393.633H221.389V390.544H220.013C217.763 390.544 216.252 392.055 215.782 393.331H215.581V390.578ZM223.943 395.782C223.943 389.57 228.644 384.836 234.99 384.836C241.336 384.836 246.003 389.637 246.003 395.782C246.003 401.926 241.336 406.728 234.956 406.728C228.577 406.728 223.943 402.061 223.943 395.782ZM242.645 395.782C242.645 391.316 239.422 387.925 234.99 387.925C230.558 387.925 227.334 391.316 227.334 395.782C227.334 400.248 230.558 403.639 234.99 403.639C239.422 403.639 242.645 400.315 242.645 395.782ZM251.711 399.845H248.555C248.555 403.941 251.476 406.728 256.344 406.728C261.213 406.728 264 403.74 264 400.449C264 395.64 260.328 394.76 257.125 393.992C254.647 393.398 252.449 392.871 252.449 390.645C252.449 389.134 253.692 387.757 256.244 387.757C258.795 387.757 260.206 389.067 260.206 391.148H263.496C263.462 386.75 260.743 384.836 256.277 384.836C251.811 384.836 249.226 387.757 249.226 390.712C249.226 395.38 252.674 396.205 255.78 396.949C258.326 397.558 260.642 398.113 260.642 400.684C260.642 402.598 259.366 403.74 256.445 403.74C253.524 403.74 251.744 402.027 251.711 399.845Z" fill="#0B1319"/>
<path d="M220.013 310.498L201.58 331.181H222.867C222.867 331.147 157.896 376.442 157.896 376.442L191.07 339.911H169.783L196.006 310.464H219.979L220.013 310.498Z" fill="#4364FA"/>
<path d="M169.817 339.944L188.25 319.261H166.963L231.933 274L198.76 310.531H220.047L193.824 339.978H169.817V339.944Z" fill="#4364FA"/>
<path opacity="0.2" d="M157.896 376.442L222.867 331.147L201.58 331.181L220.013 310.498L169.816 339.944H191.07L157.896 376.442Z" fill="url(#paint2_linear_707_1977)"/>
<path d="M290.984 426.774L594.242 426.296L-331.155 1071.03L140.43 552.524L141.952 550.851H139.69H-164.048L99.8349 254.472L101.32 252.804L99.0865 252.807L-204.172 253.285L721.241 -391.462L249.64 127.541L248.12 129.213H250.38H554.117L290.236 425.109L288.748 426.778L290.984 426.774Z" stroke="#4364FA" stroke-width="2"/>
<path d="M117.213 607V597.2H120.377C122.239 597.2 123.345 598.278 123.345 599.706C123.345 600.672 122.882 601.4 122.099 601.82V601.904C122.757 602.128 123.681 602.828 123.681 604.214C123.681 605.978 122.309 607 120.657 607H117.213ZM118.333 601.442H120.335C121.441 601.442 122.183 600.784 122.183 599.79C122.183 598.824 121.427 598.208 120.377 598.208H118.333V601.442ZM118.333 606.006H120.461C121.623 606.006 122.505 605.446 122.505 604.186C122.505 602.898 121.469 602.394 120.335 602.394H118.333V606.006ZM128.711 607.182C126.569 607.182 125.085 605.6 125.085 603.374C125.085 601.134 126.569 599.538 128.627 599.538C130.153 599.538 130.965 600.518 131.189 600.896H131.273V599.72H132.379V607H131.315V605.852H131.231C131.049 606.118 130.293 607.182 128.711 607.182ZM128.781 606.188C130.363 606.188 131.315 604.9 131.315 603.374C131.315 601.582 130.195 600.546 128.753 600.546C127.255 600.546 126.219 601.722 126.219 603.374C126.219 605.082 127.255 606.188 128.781 606.188ZM137.172 607.182C135.45 607.182 134.47 606.244 134.344 604.886H135.422C135.548 605.754 136.164 606.216 137.228 606.216C138.32 606.216 138.922 605.684 138.922 604.942C138.922 602.898 134.568 604.452 134.568 601.568C134.568 600.336 135.674 599.538 137.2 599.538C138.544 599.538 139.664 600.322 139.776 601.638H138.712C138.614 600.952 138.096 600.49 137.13 600.49C136.22 600.49 135.632 600.938 135.632 601.568C135.632 603.416 140 601.876 140 604.886C140 606.258 138.866 607.182 137.172 607.182ZM145.254 607.182C143.028 607.182 141.614 605.544 141.614 603.36C141.614 601.036 143.196 599.538 145.184 599.538C147.396 599.538 148.712 601.162 148.712 603.262V603.752H142.776C142.832 605.208 143.77 606.174 145.268 606.174C146.234 606.174 147.158 605.712 147.494 604.858H148.642C148.236 606.216 146.962 607.182 145.254 607.182ZM142.804 602.772H147.536C147.438 601.316 146.416 600.546 145.184 600.546C143.966 600.546 142.916 601.428 142.804 602.772ZM153.744 607.182C151.602 607.182 150.118 605.6 150.118 603.374C150.118 601.134 151.602 599.538 153.66 599.538C155.186 599.538 155.998 600.518 156.222 600.896H156.306V596.5H157.412V607H156.348V605.852H156.264C156.082 606.118 155.326 607.182 153.744 607.182ZM153.814 606.188C155.396 606.188 156.348 604.9 156.348 603.374C156.348 601.582 155.228 600.546 153.786 600.546C152.288 600.546 151.252 601.722 151.252 603.374C151.252 605.082 152.288 606.188 153.814 606.188ZM166.955 607.182C164.771 607.182 163.161 605.572 163.161 603.36C163.161 601.162 164.799 599.538 166.969 599.538C169.167 599.538 170.763 601.176 170.763 603.36C170.763 605.544 169.139 607.182 166.955 607.182ZM166.955 606.174C168.523 606.174 169.629 604.984 169.629 603.36C169.629 601.75 168.523 600.546 166.955 600.546C165.387 600.546 164.295 601.764 164.295 603.36C164.295 604.998 165.401 606.174 166.955 606.174ZM172.717 607V599.72H173.823V600.784H173.907C174.215 600.126 174.999 599.538 176.133 599.538C177.827 599.538 178.849 600.812 178.849 602.422V607H177.743V602.492C177.743 601.33 176.889 600.574 175.867 600.574C174.719 600.574 173.823 601.456 173.823 602.66V607H172.717ZM189.666 607.182C186.656 607.182 184.458 604.998 184.458 602.1C184.458 599.216 186.67 597.018 189.666 597.018C192.662 597.018 194.874 599.244 194.874 602.1C194.874 604.97 192.648 607.182 189.666 607.182ZM189.666 605.054C191.36 605.054 192.564 603.794 192.564 602.1C192.564 600.434 191.36 599.146 189.666 599.146C187.958 599.146 186.754 600.434 186.754 602.1C186.754 603.794 187.958 605.054 189.666 605.054ZM196.348 610.22V599.608H198.49V600.434H198.602C198.812 600.098 199.428 599.426 200.66 599.426C202.676 599.426 204.062 600.938 204.062 603.262C204.062 605.586 202.704 607.182 200.716 607.182C199.512 607.182 198.868 606.566 198.63 606.16H198.518V610.22H196.348ZM200.17 605.222C201.178 605.222 201.864 604.438 201.864 603.304C201.864 602.142 201.178 601.386 200.17 601.386C199.134 601.386 198.476 602.198 198.476 603.304C198.476 604.48 199.176 605.222 200.17 605.222ZM208.826 607.182C206.684 607.182 205.074 605.572 205.074 603.346C205.074 601.036 206.614 599.426 208.868 599.426C211.304 599.426 212.578 601.218 212.578 603.276V603.906H207.132C207.202 604.844 207.888 605.516 208.91 605.516C209.764 605.516 210.338 605.096 210.548 604.634H212.508C212.172 606.188 210.828 607.182 208.826 607.182ZM207.174 602.464H210.562C210.478 601.68 209.834 601.078 208.868 601.078C207.944 601.078 207.272 601.736 207.174 602.464ZM214.012 607V599.608H216.056V600.42H216.168C216.462 599.916 217.162 599.426 218.156 599.426C219.794 599.426 220.802 600.532 220.802 602.072V607H218.632V602.744C218.632 601.988 218.184 601.442 217.442 601.442C216.686 601.442 216.182 602.072 216.182 602.856V607H214.012ZM229.306 607.182C226.926 607.182 225.47 605.824 225.484 603.808H227.598C227.64 604.578 228.256 605.152 229.376 605.152C230.3 605.152 230.846 604.802 230.846 604.186C230.846 602.366 225.736 603.99 225.736 599.958C225.736 598.32 227.01 597.018 229.264 597.018C231.308 597.018 232.82 598.068 232.904 600.14H230.692C230.678 599.468 230.174 598.992 229.264 598.992C228.396 598.992 227.948 599.384 227.948 599.902C227.948 601.638 233.156 600.056 233.156 604.018C233.156 605.838 231.77 607.182 229.306 607.182ZM238.089 607.182C235.723 607.182 234.113 605.488 234.113 603.304C234.113 601.12 235.709 599.426 238.103 599.426C240.469 599.426 242.079 601.12 242.079 603.304C242.079 605.488 240.469 607.182 238.089 607.182ZM238.089 605.222C239.125 605.222 239.881 604.424 239.881 603.304C239.881 602.184 239.125 601.386 238.089 601.386C237.067 601.386 236.311 602.184 236.311 603.304C236.311 604.438 237.067 605.222 238.089 605.222ZM246.106 607.182C244.468 607.182 243.46 606.076 243.46 604.536V599.608H245.63V603.864C245.63 604.634 246.078 605.166 246.82 605.166C247.576 605.166 248.08 604.536 248.08 603.752V599.608H250.25V607H248.192V606.188H248.08C247.8 606.678 247.1 607.182 246.106 607.182ZM251.951 607V599.608H253.995V600.728H254.107C254.359 600.182 255.017 599.552 256.011 599.552H256.725V601.596H255.871C254.807 601.596 254.121 602.366 254.121 603.64V607H251.951ZM261.426 607.182C259.046 607.182 257.506 605.474 257.506 603.304C257.506 601.12 259.032 599.426 261.412 599.426C263.47 599.426 264.94 600.672 265.15 602.478H262.952C262.756 601.848 262.196 601.386 261.426 601.386C260.362 601.386 259.704 602.24 259.704 603.304C259.704 604.382 260.39 605.222 261.44 605.222C262.168 605.222 262.742 604.802 262.924 604.214H265.136C264.898 605.964 263.456 607.182 261.426 607.182ZM269.926 607.182C267.784 607.182 266.174 605.572 266.174 603.346C266.174 601.036 267.714 599.426 269.968 599.426C272.404 599.426 273.678 601.218 273.678 603.276V603.906H268.232C268.302 604.844 268.988 605.516 270.01 605.516C270.864 605.516 271.438 605.096 271.648 604.634H273.608C273.272 606.188 271.928 607.182 269.926 607.182ZM268.274 602.464H271.662C271.578 601.68 270.934 601.078 269.968 601.078C269.044 601.078 268.372 601.736 268.274 602.464Z" fill="#0B1319"/>
</g>
<ellipse cx="75.9668" cy="60.1151" rx="9.4473" ry="9.44668" fill="black"/>
<ellipse cx="75.8859" cy="60.0341" rx="7.11836" ry="7.11789" fill="#0A0A0A"/>
<ellipse cx="75.8859" cy="60.0341" rx="7.11836" ry="7.11789" fill="url(#paint3_radial_707_1977)"/>
<g filter="url(#filter4_i_707_1977)">
<ellipse cx="2.94343" cy="2.94359" rx="2.94343" ry="2.94359" transform="matrix(-0.323348 -0.94628 0.946293 -0.32331 74.2617 63.9052)" fill="black"/>
<ellipse cx="2.94343" cy="2.94359" rx="2.94343" ry="2.94359" transform="matrix(-0.323348 -0.94628 0.946293 -0.32331 74.2617 63.9052)" fill="url(#paint4_angular_707_1977)"/>
<ellipse cx="2.94343" cy="2.94359" rx="2.94343" ry="2.94359" transform="matrix(-0.323348 -0.94628 0.946293 -0.32331 74.2617 63.9052)" fill="url(#paint5_radial_707_1977)"/>
</g>
<g filter="url(#filter5_f_707_1977)">
<ellipse cx="77.0111" cy="59.6594" rx="0.749399" ry="0.749253" fill="#BA7FD6"/>
</g>
<path d="M57.4849 608.918C57.2352 618.533 57.4849 643.383 101.194 637.389C77.0916 644.008 44.597 642.784 57.4849 608.918Z" fill="black"/>
<path d="M331.665 606.42C331.665 638.888 307.001 636.882 304.004 637.307C301.381 639.804 343.904 641.135 331.665 606.42Z" fill="black"/>
<path d="M57.4837 65.9604C57.7335 58.343 62.9286 42.8435 81.7111 41.7446C72.9692 40.8705 55.8852 44.4819 57.4837 65.9604Z" fill="black"/>
<path d="M303.256 41.7344C314.246 41.7344 331.729 45.8553 331.729 68.4577C333.603 56.8443 330.53 35.2409 303.256 41.7344Z" fill="#020203"/>
</g>
<defs>
<filter id="filter0_d_707_1977" x="4.19617e-05" y="0.800024" width="389.043" height="710" filterUnits="userSpaceOnUse" color-interpolation-filters="sRGB">
<feFlood flood-opacity="0" result="BackgroundImageFix"/>
<feColorMatrix in="SourceAlpha" type="matrix" values="0 0 0 0 0 0 0 0 0 0 0 0 0 0 0 0 0 0 127 0" result="hardAlpha"/>
<feOffset dy="16.8"/>
<feGaussianBlur stdDeviation="21"/>
<feComposite in2="hardAlpha" operator="out"/>
<feColorMatrix type="matrix" values="0 0 0 0 0.0431373 0 0 0 0 0.0745098 0 0 0 0 0.0980392 0 0 0 0.1 0"/>
<feBlend mode="normal" in2="BackgroundImageFix" result="effect1_dropShadow_707_1977"/>
<feBlend mode="normal" in="SourceGraphic" in2="effect1_dropShadow_707_1977" result="shape"/>
</filter>
<filter id="filter1_f_707_1977" x="44.1082" y="27.2594" width="301.582" height="623.742" filterUnits="userSpaceOnUse" color-interpolation-filters="sRGB">
<feFlood flood-opacity="0" result="BackgroundImageFix"/>
<feBlend mode="normal" in="SourceGraphic" in2="BackgroundImageFix" result="shape"/>
<feGaussianBlur stdDeviation="0.524999" result="effect1_foregroundBlur_707_1977"/>
</filter>
<filter id="filter2_f_707_1977" x="47.0102" y="30.4132" width="295.275" height="618.183" filterUnits="userSpaceOnUse" color-interpolation-filters="sRGB">
<feFlood flood-opacity="0" result="BackgroundImageFix"/>
<feBlend mode="normal" in="SourceGraphic" in2="BackgroundImageFix" result="shape"/>
<feGaussianBlur stdDeviation="0.2625" result="effect1_foregroundBlur_707_1977"/>
</filter>
<filter id="filter3_f_707_1977" x="47.2582" y="30.9128" width="294.777" height="617.184" filterUnits="userSpaceOnUse" color-interpolation-filters="sRGB">
<feFlood flood-opacity="0" result="BackgroundImageFix"/>
<feBlend mode="normal" in="SourceGraphic" in2="BackgroundImageFix" result="shape"/>
<feGaussianBlur stdDeviation="0.2625" result="effect1_foregroundBlur_707_1977"/>
</filter>
<filter id="filter4_i_707_1977" x="73.1504" y="57.224" width="5.88867" height="5.88843" filterUnits="userSpaceOnUse" color-interpolation-filters="sRGB">
<feFlood flood-opacity="0" result="BackgroundImageFix"/>
<feBlend mode="normal" in="SourceGraphic" in2="BackgroundImageFix" result="shape"/>
<feColorMatrix in="SourceAlpha" type="matrix" values="0 0 0 0 0 0 0 0 0 0 0 0 0 0 0 0 0 0 127 0" result="hardAlpha"/>
<feMorphology radius="0.2625" operator="erode" in="SourceAlpha" result="effect1_innerShadow_707_1977"/>
<feOffset/>
<feGaussianBlur stdDeviation="0.393749"/>
<feComposite in2="hardAlpha" operator="arithmetic" k2="-1" k3="1"/>
<feColorMatrix type="matrix" values="0 0 0 0 0 0 0 0 0 0 0 0 0 0 0 0 0 0 1 0"/>
<feBlend mode="normal" in2="shape" result="effect1_innerShadow_707_1977"/>
</filter>
<filter id="filter5_f_707_1977" x="75.2117" y="57.8602" width="3.59804" height="3.59853" filterUnits="userSpaceOnUse" color-interpolation-filters="sRGB">
<feFlood flood-opacity="0" result="BackgroundImageFix"/>
<feBlend mode="normal" in="SourceGraphic" in2="BackgroundImageFix" result="shape"/>
<feGaussianBlur stdDeviation="0.524999" result="effect1_foregroundBlur_707_1977"/>
</filter>
<radialGradient id="paint0_angular_707_1977" cx="0" cy="0" r="1" gradientUnits="userSpaceOnUse" gradientTransform="translate(194.648 339.505) rotate(90) scale(308.567 147.113)">
<stop offset="0.00370279"/>
<stop offset="0.0860873"/>
<stop offset="0.142579"/>
<stop offset="0.551797" stop-color="#898686"/>
<stop offset="0.597149"/>
<stop offset="0.62222"/>
<stop offset="0.635363"/>
<stop offset="0.644459" stop-color="#898686"/>
<stop offset="0.86974" stop-color="#1C1C1C"/>
<stop offset="0.875025"/>
</radialGradient>
<radialGradient id="paint1_angular_707_1977" cx="0" cy="0" r="1" gradientUnits="userSpaceOnUse" gradientTransform="translate(194.646 339.505) rotate(90) scale(308.067 165.742)">
<stop offset="0.000303672" stop-color="#4A4A4A"/>
<stop offset="0.0904875" stop-color="#404040"/>
<stop offset="0.111563"/>
<stop offset="0.136566" stop-color="#404040"/>
<stop offset="0.404505" stop-color="#848484"/>
<stop offset="0.596482" stop-color="#5E5E5E"/>
<stop offset="0.607769"/>
<stop offset="0.614698"/>
<stop offset="0.626401" stop-color="#535353"/>
<stop offset="0.872212" stop-color="#585858"/>
<stop offset="0.886458"/>
<stop offset="0.902914" stop-color="#575757"/>
</radialGradient>
<linearGradient id="paint2_linear_707_1977" x1="190.382" y1="274.134" x2="190.382" y2="376.442" gradientUnits="userSpaceOnUse">
<stop stop-color="white"/>
<stop offset="0.932292" stop-color="white" stop-opacity="0"/>
</linearGradient>
<radialGradient id="paint3_radial_707_1977" cx="0" cy="0" r="1" gradientUnits="userSpaceOnUse" gradientTransform="translate(75.8859 60.0341) rotate(90) scale(7.11789 7.11836)">
<stop offset="0.552083" stop-opacity="0"/>
<stop offset="0.666667" stop-color="#5B5B5B" stop-opacity="0.21"/>
<stop offset="0.708333" stop-opacity="0"/>
</radialGradient>
<radialGradient id="paint4_angular_707_1977" cx="0" cy="0" r="1" gradientUnits="userSpaceOnUse" gradientTransform="translate(2.94343 2.9436) rotate(89.9999) scale(2.94357 2.78295)">
<stop offset="0.109898" stop-opacity="0.718268"/>
<stop offset="0.266542" stop-color="#6777CA"/>
<stop offset="0.473888" stop-color="#6C86CA"/>
<stop offset="0.665391" stop-color="#5583C7"/>
<stop offset="0.865938" stop-opacity="0.718268"/>
<stop offset="1" stop-color="#5351BA" stop-opacity="0"/>
</radialGradient>
<radialGradient id="paint5_radial_707_1977" cx="0" cy="0" r="1" gradientUnits="userSpaceOnUse" gradientTransform="translate(2.94343 2.94359) rotate(90) scale(2.94359 2.94343)">
<stop offset="0.0520833"/>
<stop offset="0.671875" stop-color="#767676" stop-opacity="0"/>
</radialGradient>
</defs>
</svg>
