<svg width="310" height="299" viewBox="0 0 310 299" fill="none" xmlns="http://www.w3.org/2000/svg">
<path fill-rule="evenodd" clip-rule="evenodd" d="M112.082 289.175V247.238H119.172V288.797C119.172 290.683 120.153 291.739 121.888 291.739H123.396V297.999H120.454C115.099 297.924 112.082 294.681 112.082 289.175ZM0 283.367H7.09002C7.16545 288.269 11.163 292.116 17.7251 292.116C24.2871 292.116 27.1533 289.552 27.1533 285.252C27.1533 279.476 21.9495 278.231 16.2302 276.862C9.25297 275.191 1.50852 273.338 1.50852 262.851C1.50852 256.214 7.3163 249.651 17.3479 249.651C27.3796 249.651 33.489 253.951 33.5645 263.831H26.1727C26.1727 259.155 23.0049 256.213 17.2725 256.213C11.5401 256.213 8.74939 259.306 8.74939 262.7C8.74939 267.701 13.6855 268.884 19.2518 270.219C26.4473 271.944 34.6959 273.922 34.6959 284.724C34.6959 292.116 28.4355 298.829 17.4988 298.829C6.56204 298.829 0 292.569 0 283.367ZM46.6137 286.685V268.357H40.2779V262.625H44.9543C46.1611 262.625 47.0662 261.72 47.0662 260.286V252.518H53.7791V262.549H64.037V268.357H53.7791V286.535C53.7791 289.929 55.2122 291.965 58.9081 291.965H63.7353V297.999H57.8521C50.8375 297.924 46.6137 294.077 46.6137 286.685ZM87.6458 261.644C77.6142 261.644 69.9962 269.111 69.9962 280.35C69.9962 290.985 77.1617 298.754 87.7967 298.754C96.4707 298.754 102.806 294.077 104.617 287.213H97.6775C96.2444 290.608 94.4342 292.795 87.9475 292.795C81.4609 292.795 77.3879 288.647 77.0862 282.462H104.994V279.822C104.994 269.79 97.6775 261.644 87.6458 261.644ZM87.7213 267.603C93.1519 267.603 97.5266 271.072 97.9792 277.031H77.3125C77.8405 271.449 82.2906 267.603 87.7213 267.603ZM131.392 247.238V289.175C131.392 294.681 134.484 297.924 139.764 297.999H142.706V291.739H141.197C139.462 291.739 138.482 290.683 138.482 288.797V247.238H131.392ZM148.137 280.35C148.137 269.413 155.076 261.644 164.957 261.644C173.5 261.644 175.051 264.802 176.046 266.827L176.046 266.827L176.046 266.827L176.046 266.827C176.202 267.144 176.344 267.433 176.497 267.678H176.95V262.549H184.04V297.924H177.1V292.946H176.723C175.743 294.304 172.349 298.829 165.259 298.829C155.152 298.829 148.137 291.286 148.137 280.35ZM177.251 280.274C177.251 272.656 172.499 268.131 166.315 268.131C160.13 268.131 155.453 273.109 155.453 280.274C155.453 287.44 159.903 292.418 166.39 292.418C172.877 292.418 177.251 286.987 177.251 280.274ZM201.236 262.549H194.372V297.999H201.462V280.501C201.462 273.938 204.932 269.413 210.966 269.413H214.285V262.474H211.192C206.139 262.474 202.744 265.868 201.689 268.734H201.236V262.549ZM220.017 274.24C220.017 260.286 230.576 249.651 244.832 249.651C259.087 249.651 269.571 260.437 269.571 274.24C269.571 288.043 259.087 298.829 244.756 298.829C230.425 298.829 220.017 288.345 220.017 274.24ZM262.029 274.24C262.029 264.209 254.788 256.591 244.832 256.591C234.875 256.591 227.635 264.209 227.635 274.24C227.635 284.272 234.875 291.89 244.832 291.89C254.788 291.89 262.029 284.423 262.029 274.24ZM282.394 283.367H275.304C275.304 292.569 281.866 298.829 292.803 298.829C303.739 298.829 310 292.116 310 284.724C310 273.922 301.751 271.944 294.556 270.219C288.989 268.884 284.053 267.701 284.053 262.7C284.053 259.306 286.844 256.213 292.576 256.213C298.309 256.213 301.477 259.155 301.477 263.831H308.868C308.793 253.951 302.683 249.651 292.652 249.651C282.62 249.651 276.812 256.213 276.812 262.851C276.812 273.338 284.557 275.191 291.534 276.862C297.253 278.231 302.457 279.476 302.457 285.252C302.457 289.552 299.591 292.116 293.029 292.116C286.467 292.116 282.469 288.269 282.394 283.367Z" fill="#0B1319"/>
<path d="M211.192 82.6587L169.783 129.121H217.603C217.603 129.046 71.6543 230.795 71.6543 230.795L146.175 148.732H98.355L157.263 82.5833H211.117L211.192 82.6587Z" fill="#4364FA"/>
<path d="M98.4307 148.807L139.839 102.345H92.0195L237.968 0.670898L163.448 82.7342H211.268L152.36 148.883H98.4307V148.807Z" fill="#4364FA"/>
<path opacity="0.2" d="M71.6543 230.795L217.603 129.046L169.783 129.121L211.192 82.6587L98.4305 148.807H146.175L71.6543 230.795Z" fill="url(#paint0_linear_1148_451)"/>
<defs>
<linearGradient id="paint0_linear_1148_451" x1="144.629" y1="0.972519" x2="144.629" y2="230.795" gradientUnits="userSpaceOnUse">
<stop stop-color="white"/>
<stop offset="0.932292" stop-color="white" stop-opacity="0"/>
</linearGradient>
</defs>
</svg>
