<svg width="20" height="20" viewBox="0 0 20 20" fill="none" xmlns="http://www.w3.org/2000/svg">
<path d="M5.825 0.487549C2.9 0.487549 0.5 2.88755 0.5 5.81255V14.6625C0.5 17.5875 2.9 19.9875 5.825 19.9875H14.675C17.6 19.9875 20 17.5875 20 14.6625V5.81255C20 2.88755 17.6 0.487549 14.675 0.487549H5.825ZM4.325 7.16255C4.625 7.16255 4.85 7.38755 4.85 7.68755C4.85 7.98755 4.625 8.21255 4.325 8.21255C4.025 8.21255 3.8 7.98755 3.8 7.68755C3.8 7.38755 4.025 7.16255 4.325 7.16255ZM8.975 7.38755C10.625 7.38755 11.6 8.51255 11.6 10.3125C11.6 12.1125 10.625 13.2375 8.975 13.2375C7.325 13.2375 6.35 12.1125 6.35 10.3125C6.35 8.51255 7.4 7.38755 8.975 7.38755ZM14.675 7.38755C15.8 7.38755 16.625 8.06255 16.7 9.03755H15.875C15.8 8.51255 15.35 8.21255 14.675 8.21255C14 8.21255 13.55 8.51255 13.55 9.03755C13.55 9.56255 13.85 9.63755 14.6 9.86255L15.2 10.0125C16.325 10.3125 16.85 10.7625 16.85 11.5875C16.85 12.4125 16.025 13.3125 14.675 13.3125C13.325 13.3125 12.575 12.6375 12.5 11.6625H13.4C13.475 12.1875 14 12.5625 14.75 12.5625C15.5 12.5625 15.95 12.1875 15.95 11.6625C15.95 11.1375 15.65 10.9875 14.9 10.8375L14.15 10.6875C13.1 10.4625 12.65 9.93755 12.65 9.11255C12.65 8.28755 13.475 7.46255 14.675 7.46255V7.38755ZM8.975 8.21255C7.925 8.21255 7.25 9.03755 7.25 10.3125C7.25 11.5875 7.925 12.4125 8.975 12.4125C10.025 12.4125 10.7 11.5875 10.7 10.3125C10.7 9.03755 10.025 8.21255 8.975 8.21255ZM3.95 8.88755H4.775V13.1625H3.95V8.88755Z" fill="#0B1319"/>
</svg>
