<svg width="20" height="23" viewBox="0 0 20 23" fill="none" xmlns="http://www.w3.org/2000/svg">
<path fill-rule="evenodd" clip-rule="evenodd" d="M14.25 0.5875C14.25 1.1875 14.1 1.7875 13.875 2.4625C13.575 3.1375 13.2 3.7375 12.6 4.3375C12.075 4.7875 11.55 5.1625 11.1 5.3125C10.8 5.3875 10.275 5.4625 9.675 5.5375C9.675 4.1875 10.05 3.0625 10.725 2.0875C11.4 1.1125 12.6 0.4375 14.25 0.0625C14.25 0.2125 14.25 0.2875 14.25 0.3625C14.25 0.4375 14.25 0.5125 14.25 0.6625M9.975 6.1375C10.35 6.1375 11.025 5.9875 12 5.6875C12.9 5.3875 13.725 5.2375 14.4 5.2375C15.525 5.2375 16.5 5.5375 17.4 6.1375C17.925 6.4375 18.375 6.8875 18.825 7.4875C18.075 8.0875 17.55 8.6125 17.25 9.0625C16.65 9.8875 16.35 10.8625 16.35 11.8375C16.35 12.8125 16.65 13.9375 17.325 14.8375C18 15.7375 18.675 16.3375 19.5 16.5625C19.125 17.6125 18.6 18.7375 17.775 19.9375C16.575 21.7375 15.375 22.5625 14.175 22.5625C12.975 22.5625 13.05 22.4125 12.225 22.1125C11.4 21.8125 10.725 21.6625 10.125 21.6625C9.525 21.6625 8.85 21.8125 8.1 22.1125C7.35 22.4125 6.75 22.5625 6.225 22.5625C4.8 22.5625 3.375 21.3625 2.025 19.0375C0.675001 16.7125 0 14.4625 0 12.2125C0 9.9625 0.524999 8.4625 1.575 7.1875C2.625 5.9125 3.975 5.2375 5.55 5.2375C7.125 5.2375 7.05 5.3875 8.025 5.6125C9 5.9125 9.6 5.9875 9.975 5.9875" fill="#0B1319"/>
</svg>
