<svg width="19" height="23" viewBox="0 0 19 23" fill="none" xmlns="http://www.w3.org/2000/svg">
<path d="M4.1 17.3374C4.1 17.8624 4.475 18.2374 5 18.2374H5.9V21.3874C5.9 22.1374 6.5 22.7374 7.25 22.7374C8 22.7374 8.6 22.1374 8.6 21.3874V18.2374H10.4V21.3874C10.4 22.1374 11 22.7374 11.75 22.7374C12.5 22.7374 13.1 22.1374 13.1 21.3874V18.2374H14C14.525 18.2374 14.9 17.8624 14.9 17.3374V8.26245H4.1V17.3374ZM1.85 8.26245C1.1 8.26245 0.5 8.86245 0.5 9.61245V15.9874C0.5 16.7374 1.1 17.3374 1.85 17.3374C2.6 17.3374 3.2 16.7374 3.2 15.9874V9.61245C3.2 8.86245 2.6 8.26245 1.85 8.26245ZM17.15 8.26245C16.4 8.26245 15.8 8.86245 15.8 9.61245V15.9874C15.8 16.7374 16.4 17.3374 17.15 17.3374C17.9 17.3374 18.5 16.7374 18.5 15.9874V9.61245C18.5 8.86245 17.9 8.26245 17.15 8.26245ZM12.65 2.93745L13.85 1.73745C14 1.58745 14 1.28745 13.85 1.06245C13.7 0.912451 13.4 0.912451 13.175 1.06245L11.825 2.41245C11.15 2.03745 10.325 1.81245 9.425 1.81245C8.525 1.81245 7.775 2.03745 7.025 2.41245L5.675 1.06245C5.525 0.912451 5.225 0.912451 5 1.06245C4.85 1.21245 4.85 1.51245 5 1.73745L6.2 2.93745C4.85 3.91245 4.025 5.48745 4.025 7.28745H14.825C14.825 5.48745 13.925 3.91245 12.575 2.93745H12.65ZM7.7 5.48745H6.8V4.58745H7.7V5.48745ZM12.2 5.48745H11.3V4.58745H12.2V5.48745Z" fill="#0B1319"/>
</svg>
