<svg width="1439" height="869" viewBox="0 0 1439 869" fill="none" xmlns="http://www.w3.org/2000/svg">
<path d="M1439 1H1284.67C1282.83 1 1281 1.66667 1279.67 3.16667L1220 62.8333C1218.67 64.1667 1217.83 66 1217.83 67.8333V210.833C1217.83 212.667 1217 214.5 1215.67 215.833L1177.33 254C1176 255.333 1174.17 256.167 1172.33 256.167H1005" stroke="#60D38E" stroke-width="2" stroke-miterlimit="8"/>
<path d="M1439 171.167H1348.5C1346.67 171.167 1344.83 171.833 1343.5 173.333L1220 296.833C1218.67 298.167 1216.83 299 1215 299H1005" stroke="#60D38E" stroke-width="2" stroke-miterlimit="8"/>
<path d="M1438.83 405.167H1390.83C1389 405.167 1387.17 404.5 1385.83 403L1326.17 343.333C1324.83 342 1323 341.167 1321.17 341.167H1005" stroke="#60D38E" stroke-width="2" stroke-miterlimit="8"/>
<path d="M1439 511.666H1242.17C1240.33 511.666 1238.5 511 1237.17 509.5L1092.33 364.666C1091 363.333 1089.17 362.5 1087.33 362.5H1005" stroke="#60D38E" stroke-width="2" stroke-miterlimit="8"/>
<path d="M1439 43.5H1348.5C1346.67 43.5 1344.83 44.1667 1343.5 45.6667L1262.5 126.667C1261.17 128 1260.33 129.833 1260.33 131.667V210.833C1260.33 212.667 1259.67 214.5 1258.17 215.833L1198.5 275.5C1197.17 276.833 1195.33 277.667 1193.5 277.667H1005" stroke="#60D38E" stroke-width="2" stroke-miterlimit="8"/>
<path d="M1439 213.833H1369.83C1368 213.833 1366.17 214.5 1364.83 216L1262.67 318.167C1261.33 319.5 1259.5 320.333 1257.67 320.333H1005" stroke="#60D38E" stroke-width="2" stroke-miterlimit="8"/>
<path d="M435 243H395.075C393.237 243 391.4 242.329 390.063 240.821L330.426 180.971C329.09 179.629 327.252 178.791 325.415 178.791H246.066C244.228 178.791 242.391 178.121 241.054 176.779L138.485 74.1794C137.149 72.8382 135.311 72 133.474 72H0" stroke="#60D38E" stroke-width="2" stroke-miterlimit="8"/>
<path d="M0 201H112.134C113.972 201 115.811 201.659 117.148 202.976L198.198 282.859C199.535 284.176 201.373 285 203.212 285H435" stroke="#60D38E" stroke-width="2" stroke-miterlimit="8"/>
<path d="M0 456H133.525C135.363 456 137.201 455.167 138.538 453.833L198.365 394.333C199.702 393 201.541 392.167 203.379 392.167H282.758C284.597 392.167 286.435 391.333 287.772 390L347.599 330.167C348.936 328.833 350.774 328 352.612 328H435" stroke="#60D38E" stroke-width="2" stroke-miterlimit="8"/>
<path d="M0 137H133.358C135.196 137 137.034 137.662 138.371 139.153L262.203 261.847C263.54 263.172 265.378 264 267.217 264H435" stroke="#60D38E" stroke-width="2" stroke-miterlimit="8"/>
<path d="M0 392H90.7782C92.6172 392 94.4562 391.328 95.7936 389.816L134.245 351.184C135.582 349.84 137.421 349 139.26 349H261.468C263.307 349 265.146 348.328 266.483 346.816L304.935 308.184C306.272 306.84 308.111 306 309.95 306H435" stroke="#60D38E" stroke-width="2" stroke-miterlimit="8"/>
<path d="M0 520H112.264C114.105 520 115.945 519.331 117.284 517.827L219.844 415.361C221.183 414.023 223.023 413.188 224.864 413.188H304.335C306.176 413.188 308.016 412.519 309.355 411.015L369.251 351.173C370.59 349.836 372.43 349 374.271 349H434" stroke="#60D38E" stroke-width="2" stroke-miterlimit="8"/>
<path d="M0 585H112.177C114.016 585 115.855 584.159 117.193 582.813L219.673 479.687C221.011 478.341 222.85 477.5 224.689 477.5H282.7C284.539 477.5 286.378 476.827 287.715 475.313L390.196 372.187C391.533 370.841 393.372 370 395.211 370H435" stroke="#60D38E" stroke-width="2" stroke-miterlimit="8"/>
<path d="M446.924 868.43V808.427C446.924 806.078 447.778 803.729 449.7 802.021L583.371 668.349L689.711 562.01C691.419 560.302 692.487 557.953 692.487 555.604V423" stroke="#60D38E" stroke-width="2" stroke-miterlimit="8"/>
<path d="M610.491 868.43V699.525C610.491 697.176 611.346 694.827 613.267 693.119L717.044 589.342C718.753 587.634 719.82 585.285 719.82 582.936V423" stroke="#60D38E" stroke-width="2" stroke-miterlimit="8"/>
<path d="M910.077 868V699.525C910.077 697.176 909.223 694.614 907.302 692.906L776.406 562.01C774.698 560.302 773.63 557.953 773.63 555.604V423" stroke="#60D38E" stroke-width="2" stroke-miterlimit="8"/>
<path d="M0 750.132H88.6162C90.965 750.132 93.3139 749.278 95.0222 747.357L253.25 589.129C254.958 587.42 257.307 586.353 259.656 586.353H551.983C554.332 586.353 556.68 585.285 558.389 583.577L634.834 507.132C636.542 505.424 637.609 503.075 637.609 500.726V423" stroke="#60D38E" stroke-width="2" stroke-miterlimit="8"/>
<path d="M1439 723.014H1213.93C1211.58 723.014 1209.24 722.16 1207.53 720.238L1076.63 589.342C1074.92 587.634 1072.57 586.566 1070.23 586.566H887.014C884.666 586.566 882.317 585.712 880.608 583.79L804.164 507.346C802.455 505.637 801.388 503.288 801.388 500.94V423" stroke="#60D38E" stroke-width="2" stroke-miterlimit="8"/>
<path d="M256.027 868.43V726.644C256.027 724.295 256.881 721.946 258.803 720.238L335.248 643.58C336.956 641.871 339.305 640.804 341.654 640.804H552.197C554.546 640.804 556.895 639.95 558.603 638.241L663.021 534.464C664.729 532.756 665.797 530.407 665.797 528.058V423" stroke="#60D38E" stroke-width="2" stroke-miterlimit="8"/>
<path d="M910.29 695.682H1042.89C1045.24 695.682 1047.59 696.536 1049.3 698.457L1153.08 802.234C1154.79 803.943 1157.13 805.01 1159.48 805.01H1439" stroke="#60D38E" stroke-width="2" stroke-miterlimit="8"/>
<path d="M337.811 868.43V781.095C337.811 778.746 338.878 776.397 340.586 774.689L444.364 671.125C446.072 669.417 448.421 668.349 450.769 668.349H583.373" stroke="#60D38E" stroke-width="2" stroke-miterlimit="8"/>
<path d="M1155.64 868.43V804.797" stroke="#60D38E" stroke-width="2" stroke-miterlimit="8"/>
<path d="M746.725 868.43V423" stroke="#60D38E" stroke-width="2" stroke-miterlimit="8"/>
<path d="M1439 586.566H1073.86" stroke="#60D38E" stroke-width="2" stroke-miterlimit="8"/>
</svg>
