<svg width="625" height="606" viewBox="0 0 625 606" fill="none" xmlns="http://www.w3.org/2000/svg">
<g filter="url(#filter0_d_54_876)">
<mask id="mask0_54_876" style="mask-type:alpha" maskUnits="userSpaceOnUse" x="110" y="174" width="405" height="257">
<path d="M498.5 174.937L126.5 174.937C117.663 174.937 110.5 182.101 110.5 190.937L110.5 414.137C110.5 422.974 117.663 430.137 126.5 430.137L498.5 430.137C507.337 430.137 514.5 422.974 514.5 414.137L514.5 190.937C514.5 182.101 507.337 174.937 498.5 174.937Z" fill="#4364FA"/>
</mask>
<g mask="url(#mask0_54_876)">
<path d="M514.5 174.937L110.5 174.937L110.5 430.137L514.5 430.137L514.5 174.937Z" fill="white"/>
<mask id="mask1_54_876" style="mask-type:luminance" maskUnits="userSpaceOnUse" x="35" y="73" width="470" height="449">
<path fill-rule="evenodd" clip-rule="evenodd" d="M320.713 200.024L433.396 73.673L504.215 73.673L504.215 253.42L441.225 431.605L269.847 521.576L98.6699 431.604L450.612 198.264L320.713 200.024ZM286.868 73.6732L126.645 253.421L256.544 253.421L98.6699 431.604L35.4804 253.421L35.4802 73.6734L269.848 73.6731L286.868 73.6732Z" fill="#F7F6FC"/>
</mask>
<g mask="url(#mask1_54_876)">
<path d="M433.396 73.673L433.396 71.6729L432.5 71.673L431.904 72.3419L433.396 73.673ZM320.713 200.024L319.22 198.694L316.194 202.087L320.739 202.025L320.713 200.024ZM504.215 73.673L506.215 73.673L506.215 71.673L504.215 71.673L504.215 73.673ZM504.215 253.42L506.1 254.087L506.216 253.764L506.215 253.42L504.215 253.42ZM441.225 431.605L442.154 433.376L442.849 433.012L443.105 432.269L441.225 431.605ZM269.847 521.576L268.918 523.346L269.847 523.834L270.778 523.346L269.847 521.576ZM98.6698 431.604L96.7851 432.272L97.0465 433.009L97.7392 433.374L98.6698 431.604ZM450.612 198.264L451.717 199.931L457.386 196.172L450.585 196.265L450.612 198.264ZM126.645 253.421L125.153 252.09L122.184 255.421L126.645 255.421L126.645 253.421ZM286.868 73.6732L288.36 75.0038L291.33 71.6732L286.868 71.6733L286.868 73.6732ZM256.544 253.421L258.042 254.748L260.989 251.42L256.544 251.421L256.544 253.421ZM35.4803 253.421L33.4804 253.421L33.4803 253.765L33.5957 254.089L35.4803 253.421ZM35.4801 73.6734L35.4801 71.6735L33.4802 71.6735L33.4802 73.6734L35.4801 73.6734ZM431.904 72.3419L319.22 198.694L322.205 201.356L434.889 75.0045L431.904 72.3419ZM504.215 71.673L433.396 71.6729L433.396 75.6729L504.215 75.673L504.215 71.673ZM506.215 253.42L506.215 73.673L502.215 73.6731L502.215 253.421L506.215 253.42ZM443.105 432.269L506.1 254.087L502.33 252.754L439.336 430.937L443.105 432.269ZM270.778 523.346L442.154 433.376L440.296 429.835L268.918 519.805L270.778 523.346ZM97.7392 433.374L268.918 523.346L270.778 519.805L99.6003 429.834L97.7392 433.374ZM449.507 196.598L97.5642 429.937L99.7744 433.27L451.717 199.931L449.507 196.598ZM320.739 202.025L450.639 200.264L450.585 196.265L320.685 198.025L320.739 202.025ZM128.138 254.751L288.36 75.0038L285.375 72.3426L125.153 252.09L128.138 254.751ZM256.544 251.421L126.645 251.421L126.645 255.421L256.544 255.421L256.544 251.421ZM100.166 432.93L258.042 254.748L255.048 252.094L97.1724 430.277L100.166 432.93ZM33.5957 254.089L96.7851 432.272L100.554 430.936L37.3654 252.752L33.5957 254.089ZM33.4802 73.6734L33.4804 253.421L37.4803 253.421L37.4801 73.6734L33.4802 73.6734ZM269.848 71.6732L35.4801 71.6735L35.4802 75.6734L269.848 75.6731L269.848 71.6732ZM286.868 71.6733L269.848 71.6732L269.848 75.6731L286.868 75.6732L286.868 71.6733Z" fill="#F7F6FC"/>
</g>
<path d="M209.685 408.409L209.686 401.689L211.855 401.689C213.131 401.689 213.89 402.428 213.89 403.407C213.89 404.07 213.574 404.569 213.035 404.857L213.036 404.914C213.487 405.068 214.12 405.548 214.12 406.498C214.12 407.708 213.179 408.409 212.047 408.409L209.685 408.409ZM210.453 404.597L211.826 404.598C212.584 404.598 213.094 404.146 213.093 403.465C213.093 402.803 212.575 402.38 211.855 402.38L210.453 402.38L210.453 404.597ZM210.453 407.728L211.913 407.727C212.709 407.728 213.314 407.344 213.315 406.479C213.314 405.596 212.604 405.25 211.826 405.25L210.453 405.251L210.453 407.728ZM217.58 408.534C216.053 408.534 215.083 407.41 215.084 405.913C215.084 404.319 216.168 403.292 217.531 403.291C219.048 403.292 219.951 404.405 219.951 405.845L219.951 406.181L215.88 406.182C215.919 407.18 216.562 407.842 217.589 407.842C218.251 407.842 218.885 407.525 219.115 406.94L219.903 406.94C219.624 407.871 218.751 408.533 217.58 408.534ZM215.9 405.51L219.144 405.51C219.076 404.511 218.376 403.983 217.532 403.983C216.696 403.984 215.976 404.587 215.9 405.51ZM223.478 408.534C221.971 408.534 220.915 407.391 220.915 405.913C220.914 404.434 222 403.292 223.468 403.292C224.553 403.292 225.561 403.945 225.83 405.058L225.042 405.059C224.841 404.405 224.207 403.983 223.487 403.983C222.422 403.983 221.702 404.828 221.701 405.913C221.702 407.036 222.46 407.843 223.506 407.843C224.227 407.843 224.87 407.42 225.061 406.767L225.84 406.767C225.58 407.881 224.562 408.533 223.478 408.534ZM229.289 408.533C227.82 408.534 226.802 407.449 226.802 405.922C226.802 404.386 227.82 403.292 229.23 403.292C230.277 403.293 230.834 403.964 230.987 404.223L231.045 404.223L231.045 403.417L231.804 403.417L231.804 408.409L231.074 408.408L231.074 407.622L231.017 407.621C230.892 407.804 230.373 408.533 229.289 408.533ZM229.337 407.852C230.421 407.852 231.074 406.969 231.074 405.922C231.074 404.693 230.306 403.983 229.318 403.983C228.29 403.983 227.58 404.789 227.58 405.922C227.579 407.094 228.291 407.852 229.337 407.852ZM235.205 408.534C234.043 408.534 233.344 407.66 233.344 406.556L233.343 403.417L234.102 403.416L234.102 406.527C234.102 407.324 234.688 407.842 235.388 407.843C236.176 407.842 236.79 407.237 236.789 406.411L236.79 403.417L237.549 403.417L237.549 408.409L236.79 408.409L236.79 407.679L236.732 407.68C236.521 408.131 235.983 408.534 235.205 408.534ZM240.827 408.534C239.647 408.534 238.975 407.89 238.889 406.96L239.628 406.959C239.714 407.554 240.137 407.872 240.867 407.872C241.615 407.871 242.028 407.506 242.028 406.997C242.028 405.596 239.042 406.661 239.042 404.684C239.042 403.839 239.801 403.292 240.847 403.292C241.768 403.292 242.537 403.829 242.614 404.732L241.884 404.732C241.817 404.261 241.462 403.945 240.799 403.945C240.175 403.945 239.772 404.252 239.772 404.684C239.772 405.951 242.767 404.895 242.768 406.959C242.767 407.9 241.989 408.534 240.827 408.534ZM246.37 408.534C244.843 408.534 243.874 407.411 243.874 405.913C243.874 404.319 244.959 403.292 246.322 403.292C247.838 403.292 248.742 404.406 248.742 405.846L248.742 406.182L244.67 406.181C244.709 407.18 245.352 407.843 246.38 407.842C247.042 407.842 247.676 407.526 247.906 406.939L248.693 406.94C248.415 407.871 247.541 408.534 246.37 408.534ZM244.69 405.51L247.935 405.509C247.868 404.511 247.167 403.983 246.322 403.983C245.487 403.983 244.767 404.588 244.69 405.51ZM252.693 410.617L252.693 409.925L253.068 409.926C253.558 409.926 253.836 409.714 253.999 409.282L254.23 408.678L252.204 403.417L253.049 403.417L254.594 407.641L254.652 407.64L256.207 403.417L257.061 403.417L254.681 409.551C254.421 410.232 254.028 410.617 253.212 410.617L252.693 410.617ZM260.247 408.534C258.749 408.534 257.645 407.43 257.646 405.913C257.645 404.406 258.769 403.292 260.257 403.292C261.764 403.292 262.858 404.415 262.858 405.913C262.859 407.41 261.745 408.533 260.247 408.534ZM260.248 407.842C261.323 407.843 262.081 407.027 262.081 405.913C262.081 404.809 261.323 403.983 260.247 403.983C259.172 403.984 258.424 404.818 258.423 405.913C258.424 407.036 259.182 407.842 260.248 407.842ZM265.965 408.534C264.803 408.534 264.102 407.66 264.102 406.556L264.103 403.417L264.861 403.417L264.862 406.527C264.861 407.324 265.446 407.843 266.147 407.842C266.934 407.843 267.549 407.238 267.549 406.412L267.549 403.417L268.307 403.417L268.307 408.409L267.549 408.409L267.549 407.679L267.492 407.68C267.28 408.13 266.743 408.533 265.965 408.534ZM269.936 408.408L269.936 403.416L270.685 403.417L270.685 404.348L270.742 404.347C270.886 403.926 271.377 403.417 272.106 403.416L272.528 403.417L272.528 404.175L272.116 404.175C271.203 404.175 270.695 404.886 270.695 405.836L270.694 408.409L269.936 408.408ZM276.24 410.617L276.24 403.34L277.709 403.34L277.709 403.907L277.786 403.906C277.93 403.676 278.352 403.215 279.197 403.215C280.579 403.215 281.529 404.252 281.529 405.846C281.53 407.439 280.599 408.533 279.235 408.534C278.409 408.534 277.968 408.112 277.805 407.833L277.728 407.833L277.728 410.617L276.24 410.617ZM278.861 407.189C279.552 407.19 280.022 406.652 280.022 405.874C280.023 405.077 279.552 404.559 278.861 404.559C278.151 404.559 277.699 405.116 277.699 405.874C277.7 406.681 278.18 407.19 278.861 407.189ZM282.512 408.408L282.512 403.34L283.914 403.34L283.914 404.108L283.99 404.108C284.163 403.734 284.615 403.302 285.296 403.301L285.785 403.302L285.786 404.704L285.2 404.703C284.471 404.703 283.999 405.231 284 406.105L284 408.408L282.512 408.408ZM287.507 402.774C286.998 402.773 286.634 402.466 286.634 401.967C286.634 401.468 286.999 401.161 287.508 401.161C288.016 401.16 288.381 401.468 288.381 401.967C288.381 402.467 288.017 402.774 287.507 402.774ZM286.769 408.409L286.768 403.34L288.256 403.34L288.256 408.408L286.769 408.409ZM290.661 408.409L288.866 403.34L290.412 403.34L291.467 406.642L291.545 406.642L292.601 403.34L294.165 403.34L292.38 408.408L290.661 408.409ZM296.745 408.534C295.353 408.533 294.402 407.497 294.402 405.903C294.402 404.309 295.343 403.215 296.706 403.215C297.503 403.215 297.963 403.647 298.136 403.916L298.213 403.916L298.213 403.34L299.701 403.34L299.701 408.409L298.223 408.409L298.223 407.833L298.146 407.833C298.003 408.063 297.58 408.534 296.745 408.534ZM297.081 407.19C297.791 407.19 298.242 406.623 298.242 405.875C298.242 405.068 297.752 404.559 297.071 404.559C296.379 404.559 295.909 405.097 295.91 405.875C295.909 406.662 296.38 407.19 297.081 407.19ZM303.193 408.533C301.561 408.534 300.505 407.363 300.505 405.874C300.505 404.377 301.552 403.216 303.184 403.215C304.595 403.215 305.603 404.069 305.747 405.308L304.24 405.308C304.105 404.875 303.721 404.559 303.193 404.559C302.463 404.559 302.012 405.145 302.012 405.874C302.012 406.614 302.483 407.189 303.203 407.19C303.702 407.19 304.096 406.901 304.22 406.498L305.737 406.498C305.574 407.698 304.585 408.534 303.193 408.533ZM306.58 410.617L306.579 409.302L307.165 409.301C307.568 409.301 307.799 409.081 307.933 408.745L308.02 408.505L306.013 403.34L307.568 403.341L308.682 406.556L308.759 406.556L309.815 403.34L311.39 403.34L309.238 409.138C308.894 410.07 308.317 410.617 307.252 410.617L306.58 410.617ZM314.88 408.409L314.88 403.417L315.639 403.417L315.638 404.137L315.696 404.137C315.936 403.676 316.416 403.292 317.155 403.292C317.904 403.292 318.451 403.657 318.729 404.204L318.797 404.205C319.132 403.561 319.68 403.292 320.38 403.292C321.494 403.292 322.214 404.079 322.214 405.174L322.215 408.409L321.456 408.409L321.456 405.423C321.456 404.482 320.985 404.003 320.246 404.002C319.545 404.003 318.931 404.502 318.931 405.433L318.931 408.409L318.173 408.409L318.173 405.279C318.172 404.482 317.635 404.003 316.934 404.002C316.233 404.003 315.639 404.559 315.638 405.404L315.639 408.409L314.88 408.409ZM325.945 408.534C324.476 408.534 323.458 407.449 323.458 405.922C323.458 404.387 324.476 403.292 325.887 403.292C326.933 403.291 327.491 403.964 327.644 404.223L327.701 404.223L327.702 403.416L328.46 403.417L328.461 408.409L327.731 408.409L327.73 407.622L327.673 407.621C327.547 407.804 327.029 408.534 325.945 408.534ZM325.993 407.852C327.078 407.852 327.731 406.969 327.731 405.923C327.73 404.694 326.962 403.984 325.974 403.983C324.946 403.984 324.236 404.789 324.236 405.922C324.236 407.093 324.946 407.852 325.993 407.852ZM332.045 408.409C331.123 408.409 330.557 407.91 330.557 406.902L330.557 404.06L329.615 404.06L329.615 403.416L330.364 403.417C330.498 403.417 330.604 403.33 330.604 403.167L330.604 401.968L331.315 401.967L331.315 403.417L332.851 403.417L332.851 404.06L331.315 404.06L331.315 406.893C331.314 407.429 331.516 407.747 332.092 407.747L332.784 407.746L332.783 408.409L332.045 408.409ZM336.141 408.409C335.22 408.409 334.652 407.91 334.653 406.902L334.653 404.06L333.712 404.06L333.712 403.417L334.461 403.417C334.596 403.416 334.701 403.33 334.702 403.167L334.701 401.967L335.412 401.967L335.412 403.416L336.948 403.416L336.948 404.06L335.411 404.059L335.411 406.892C335.411 407.43 335.613 407.746 336.189 407.746L336.88 407.747L336.881 408.409L336.141 408.409ZM340.401 408.533C338.875 408.534 337.905 407.41 337.905 405.912C337.906 404.319 338.991 403.292 340.353 403.292C341.87 403.292 342.773 404.405 342.773 405.845L342.773 406.181L338.702 406.182C338.74 407.18 339.384 407.842 340.41 407.843C341.073 407.842 341.707 407.525 341.937 406.94L342.725 406.94C342.446 407.871 341.573 408.533 340.401 408.533ZM338.722 405.51L341.966 405.51C341.898 404.511 341.198 403.983 340.354 403.983C339.518 403.983 338.798 404.588 338.722 405.51ZM344.121 408.409L344.12 403.417L344.87 403.417L344.869 404.348L344.927 404.348C345.071 403.925 345.56 403.417 346.29 403.417L346.713 403.417L346.712 404.175L346.299 404.175C345.388 404.175 344.879 404.886 344.878 405.836L344.879 408.409L344.121 408.409ZM349.615 408.534C348.435 408.534 347.763 407.89 347.677 406.959L348.416 406.959C348.501 407.555 348.924 407.871 349.654 407.871C350.403 407.872 350.816 407.506 350.815 406.998C350.816 405.596 347.83 406.661 347.83 404.684C347.83 403.839 348.588 403.292 349.635 403.292C350.556 403.292 351.324 403.83 351.401 404.732L350.671 404.732C350.605 404.262 350.249 403.945 349.587 403.945C348.962 403.944 348.559 404.252 348.56 404.684C348.559 405.951 351.554 404.895 351.554 406.959C351.555 407.9 350.777 408.534 349.615 408.534ZM357.685 408.409C356.763 408.409 356.197 407.91 356.197 406.902L356.197 404.06L355.256 404.06L355.256 403.417L356.005 403.417C356.139 403.417 356.245 403.33 356.244 403.167L356.245 401.967L356.956 401.967L356.955 403.417L358.492 403.417L358.491 404.06L356.955 404.06L356.955 406.892C356.955 407.43 357.157 407.746 357.733 407.746L358.424 407.747L358.424 408.408L357.685 408.409ZM359.833 408.409L359.832 401.209L360.591 401.208L360.592 404.146L360.649 404.147C360.86 403.695 361.417 403.292 362.194 403.292C363.356 403.292 364.076 404.166 364.076 405.27L364.076 408.408L363.317 408.409L363.318 405.317C363.318 404.52 362.713 404.002 362.013 404.002C361.244 404.002 360.591 404.568 360.591 405.375L360.591 408.409L359.833 408.409ZM367.823 408.534C366.297 408.534 365.327 407.41 365.328 405.913C365.327 404.319 366.412 403.292 367.775 403.292C369.292 403.292 370.194 404.405 370.195 405.845L370.195 406.181L366.124 406.182C366.162 407.18 366.806 407.842 367.832 407.843C368.495 407.842 369.129 407.525 369.359 406.94L370.147 406.94C369.868 407.871 368.995 408.533 367.823 408.534ZM366.144 405.51L369.388 405.51C369.32 404.511 368.62 403.983 367.775 403.983C366.939 403.983 366.219 404.588 366.144 405.51ZM374.233 408.409L374.233 403.417L374.991 403.417L374.991 404.137L375.049 404.137C375.289 403.676 375.769 403.292 376.508 403.292C377.257 403.292 377.804 403.657 378.083 404.204L378.15 404.204C378.486 403.561 379.033 403.292 379.734 403.292C380.848 403.292 381.567 404.079 381.567 405.173L381.567 408.409L380.809 408.409L380.809 405.423C380.809 404.483 380.339 404.002 379.599 404.002C378.899 404.003 378.284 404.502 378.285 405.433L378.285 408.409L377.526 408.409L377.526 405.279C377.526 404.482 376.988 404.002 376.287 404.003C375.586 404.002 374.991 404.559 374.991 405.405L374.991 408.409L374.233 408.409ZM385.413 408.534C383.915 408.534 382.811 407.43 382.811 405.912C382.812 404.406 383.935 403.292 385.422 403.292C386.93 403.292 388.024 404.415 388.024 405.913C388.024 407.411 386.911 408.534 385.413 408.534ZM385.413 407.842C386.488 407.842 387.246 407.026 387.247 405.912C387.246 404.808 386.488 403.984 385.413 403.983C384.338 403.984 383.589 404.819 383.589 405.913C383.589 407.036 384.347 407.842 385.413 407.842ZM391.016 408.534C389.835 408.533 389.162 407.89 389.076 406.959L389.815 406.959C389.902 407.555 390.324 407.871 391.054 407.871C391.802 407.872 392.215 407.506 392.215 406.998C392.215 405.596 389.23 406.661 389.229 404.684C389.23 403.839 389.988 403.292 391.034 403.292C391.957 403.292 392.724 403.83 392.801 404.732L392.071 404.732C392.004 404.262 391.649 403.945 390.986 403.944C390.363 403.945 389.959 404.252 389.959 404.684C389.96 405.951 392.955 404.895 392.955 406.959C392.955 407.899 392.177 408.534 391.016 408.534ZM396.394 408.408C395.472 408.409 394.906 407.909 394.906 406.901L394.906 404.06L393.966 404.061L393.966 403.416L394.715 403.417C394.849 403.417 394.954 403.33 394.955 403.167L394.954 401.968L395.665 401.967L395.665 403.417L397.201 403.417L397.2 404.06L395.664 404.06L395.665 406.891C395.665 407.429 395.866 407.747 396.442 407.747L397.133 407.746L397.134 408.409L396.394 408.408Z" fill="white"/>
<path fill-rule="evenodd" clip-rule="evenodd" d="M176.201 214.111L176.201 199.145L178.809 199.145L178.81 213.963C178.81 214.639 179.159 215.002 179.801 215.002L180.348 215.003L180.348 217.249L179.279 217.249C177.316 217.249 176.198 216.09 176.197 214.111L176.201 214.111ZM135.079 212.06L137.688 212.061C137.712 213.799 139.178 215.175 141.589 215.174C144 215.175 145.041 214.259 145.041 212.735C145.041 210.683 143.133 210.238 141.034 209.749C138.47 209.152 135.623 208.488 135.623 204.745C135.622 202.379 137.762 200.037 141.44 200.036C145.119 200.036 147.353 201.58 147.402 205.105L144.695 205.105C144.695 203.438 143.526 202.379 141.416 202.378C139.305 202.379 138.284 203.49 138.285 204.697C138.284 206.474 140.092 206.895 142.132 207.37C144.772 207.985 147.801 208.69 147.801 212.544C147.801 215.174 145.489 217.565 141.489 217.565C137.49 217.565 135.079 215.318 135.079 212.06ZM152.196 213.24L152.196 206.699L149.86 206.7L149.859 204.649L151.575 204.649C152.023 204.649 152.345 204.334 152.345 203.829L152.345 201.052L154.805 201.051L154.805 204.625L158.582 204.625L158.583 206.7L154.806 206.7L154.805 213.169C154.805 214.375 155.328 215.1 156.694 215.099L158.459 215.099L158.459 217.246L156.299 217.246C153.739 217.246 152.2 215.871 152.2 213.241L152.196 213.24ZM167.255 204.313C163.552 204.313 160.771 206.968 160.771 210.973L160.775 210.973C160.774 214.766 164.107 217.564 167.308 217.565C170.51 217.565 172.823 215.874 173.494 213.436L170.959 213.436C170.436 214.667 169.762 215.438 167.379 215.439C164.997 215.438 163.478 213.943 163.38 211.745L173.617 211.745L173.617 210.805C173.616 207.211 170.958 204.313 167.255 204.313ZM167.256 206.436C169.267 206.436 170.86 207.667 171.033 209.79L163.429 209.79C163.627 207.812 165.243 206.436 167.256 206.436ZM183.307 199.145L183.307 214.111C183.307 216.09 184.426 217.25 186.389 217.249L187.459 217.249L187.458 215.003L186.911 215.003C186.265 215.003 185.916 214.639 185.916 213.963L185.915 199.145L183.307 199.145ZM189.443 210.973C189.442 207.063 192.001 204.313 195.631 204.313C198.767 204.313 199.34 205.43 199.712 206.154C199.77 206.267 199.823 206.372 199.881 206.46L200.054 206.46L200.053 204.625L202.663 204.625L202.663 217.249L200.103 217.249L200.103 215.463L199.954 215.462C199.606 215.946 198.338 217.562 195.757 217.561C192.03 217.562 189.446 214.883 189.446 210.969L189.443 210.973ZM200.128 210.95C200.128 208.222 198.388 206.628 196.104 206.628C193.82 206.628 192.104 208.415 192.104 210.949C192.104 213.483 193.745 215.27 196.128 215.27C198.511 215.27 200.128 213.34 200.128 210.95ZM208.925 204.625L206.415 204.625L206.415 217.252L209.024 217.252L209.023 211.024C209.024 208.685 210.291 207.067 212.501 207.067L213.718 207.067L213.719 204.604L212.575 204.604C210.739 204.604 209.497 205.808 209.098 206.823L208.925 206.823L208.925 204.625ZM222.413 212.06L225.022 212.06C225.047 213.799 226.511 215.174 228.922 215.174C231.333 215.174 232.375 214.258 232.375 212.736C232.375 210.682 230.467 210.238 228.369 209.75C225.807 209.152 222.961 208.488 222.96 204.745C222.961 202.382 225.096 200.04 228.774 200.04C232.453 200.039 234.687 201.583 234.736 205.108L232.029 205.109C232.028 203.442 230.86 202.382 228.749 202.382C226.638 202.382 225.618 203.493 225.618 204.701C225.618 206.478 227.426 206.899 229.466 207.374C232.106 207.988 235.135 208.693 235.135 212.547C235.136 215.175 232.823 217.568 228.823 217.568C224.824 217.569 222.413 215.322 222.413 212.063L222.413 212.06ZM243.833 204.313C240.131 204.313 237.349 206.968 237.349 210.973C237.348 214.766 240.678 217.565 243.883 217.564C247.088 217.565 249.4 215.873 250.071 213.435L247.537 213.435C247.014 214.667 246.343 215.439 243.957 215.439C241.571 215.438 240.057 213.943 239.957 211.745L250.195 211.745L250.195 210.805C250.195 207.211 247.537 204.313 243.833 204.313ZM243.833 206.436C245.846 206.436 247.438 207.667 247.61 209.789L240.007 209.79C240.204 207.811 241.822 206.436 243.833 206.436ZM252.429 210.949C252.429 207.208 255.211 204.309 259.161 204.31C263.111 204.31 264.852 206.145 265.448 209.039L262.765 209.039C262.317 207.591 260.901 206.625 259.186 206.624C256.725 206.625 255.111 208.507 255.113 210.945C255.112 213.384 256.803 215.267 259.235 215.267C261.667 215.267 262.341 214.303 262.786 212.876L265.444 212.876C264.873 215.774 262.239 217.558 259.182 217.558C256.125 217.558 252.426 214.66 252.425 210.942L252.429 210.949ZM268.431 204.625L268.431 212.732C268.43 215.462 270.241 217.561 273.2 217.561C275.137 217.561 276.479 216.597 277.002 215.558L277.175 215.559L277.175 217.249L279.709 217.249L279.709 204.625L277.101 204.625L277.101 212.037C277.1 213.871 275.582 215.222 273.945 215.223C272.307 215.222 271.04 214.063 271.04 212.276L271.039 204.625L268.431 204.625ZM283.536 204.625L286.046 204.625L286.046 206.823L286.219 206.823C286.618 205.808 287.86 204.605 289.696 204.605L290.84 204.604L290.84 207.066L289.622 207.067C287.412 207.067 286.145 208.686 286.145 211.024L286.145 217.252L283.536 217.252L283.536 204.625ZM295.167 199.432C294.172 199.433 293.452 200.112 293.452 201.027C293.452 201.995 294.148 202.646 295.168 202.646C296.188 202.646 296.908 201.947 296.908 201.027C296.908 200.108 296.164 199.433 295.167 199.432ZM296.46 204.625L293.851 204.625L293.851 217.249L296.46 217.25L296.46 204.625ZM301.476 213.24L301.476 206.7L299.139 206.7L299.139 204.649L300.855 204.649C301.303 204.649 301.624 204.333 301.624 203.83L301.624 201.052L304.084 201.052L304.085 204.625L307.862 204.625L307.861 206.7L304.084 206.7L304.084 213.168C304.085 214.375 304.607 215.099 305.973 215.099L307.738 215.099L307.738 217.246L305.577 217.246C303.019 217.246 301.479 215.87 301.479 213.24L301.476 213.24ZM312.162 220.531L311.018 220.531L311.017 222.801L312.482 222.802C314.82 222.801 316.013 221.69 316.757 219.76L322.72 204.624L319.864 204.624L316.285 214.378L316.111 214.379L312.507 204.625L309.676 204.624L314.919 217.78L314.446 218.987C314.05 219.999 313.355 220.531 312.162 220.531Z" fill="#0B1319"/>
<path fill-rule="evenodd" clip-rule="evenodd" d="M477.888 197.433L468.59 207.866L476.128 207.865L466.966 218.207L463.3 207.866L463.3 197.433L476.9 197.433L477.888 197.433ZM479.851 204.766L486.39 197.433L490.5 197.433L490.5 207.866L486.845 218.207L476.901 223.429L466.966 218.207L487.389 204.664L479.851 204.766Z" fill="#4364FA"/>
<path d="M214.655 405.537L214.655 399.937L217.847 399.937L217.847 400.529L215.303 400.529L215.303 402.393L217.495 402.393L217.495 402.977L215.303 402.977L215.303 404.953L217.936 404.953L217.936 405.537L214.655 405.537ZM219.052 405.536L219.051 401.377L219.684 401.377L219.684 401.985L219.732 401.984C219.908 401.609 220.356 401.273 221.004 401.273C221.971 401.273 222.556 402.001 222.556 402.921L222.556 405.537L221.924 405.537L221.924 402.961C221.924 402.298 221.436 401.865 220.852 401.864C220.196 401.865 219.684 402.369 219.684 403.057L219.684 405.537L219.052 405.536ZM225.735 405.641C224.479 405.641 223.599 404.688 223.598 403.457C223.598 402.225 224.503 401.273 225.727 401.273C226.631 401.273 227.471 401.817 227.695 402.745L227.039 402.745C226.871 402.201 226.343 401.849 225.743 401.849C224.855 401.849 224.255 402.554 224.255 403.458C224.255 404.393 224.887 405.065 225.759 405.065C226.359 405.065 226.895 404.713 227.055 404.169L227.703 404.169C227.487 405.097 226.639 405.641 225.735 405.641ZM228.826 405.537L228.826 401.377L229.449 401.377L229.449 402.153L229.498 402.153C229.617 401.801 230.025 401.377 230.633 401.377L230.985 401.377L230.985 402.009L230.641 402.009C229.881 402.009 229.457 402.601 229.457 403.393L229.457 405.537L228.826 405.537ZM231.956 407.377L231.956 406.801L232.268 406.801C232.677 406.801 232.909 406.625 233.044 406.265L233.237 405.761L231.548 401.378L232.253 401.378L233.54 404.897L233.589 404.897L234.884 401.377L235.597 401.378L233.612 406.489C233.396 407.057 233.068 407.377 232.388 407.377L231.956 407.377ZM236.56 407.377L236.56 401.377L237.167 401.377L237.167 402.033L237.216 402.033C237.32 401.881 237.752 401.273 238.656 401.273C239.88 401.273 240.727 402.177 240.728 403.449C240.727 404.729 239.88 405.641 238.703 405.641C237.831 405.641 237.367 405.081 237.24 404.866L237.191 404.865L237.192 407.377L236.56 407.377ZM238.631 405.065C239.487 405.065 240.079 404.393 240.08 403.449C240.08 402.473 239.487 401.841 238.615 401.841C237.711 401.841 237.167 402.577 237.168 403.449C237.167 404.473 237.808 405.065 238.631 405.065ZM243.473 405.537C242.704 405.537 242.233 405.121 242.233 404.281L242.233 401.914L241.449 401.913L241.449 401.377L242.073 401.377C242.185 401.377 242.272 401.305 242.272 401.169L242.272 400.169L242.865 400.169L242.865 401.377L244.145 401.377L244.145 401.914L242.864 401.913L242.865 404.273C242.865 404.721 243.033 404.985 243.512 404.985L244.089 404.985L244.089 405.537L243.473 405.537ZM247.023 405.641C245.75 405.641 244.943 404.705 244.943 403.457C244.943 402.13 245.847 401.273 246.983 401.273C248.247 401.273 248.998 402.201 248.999 403.401L248.998 403.681L245.607 403.681C245.638 404.513 246.175 405.065 247.031 405.065C247.583 405.065 248.11 404.801 248.303 404.313L248.959 404.313C248.727 405.089 247.999 405.641 247.023 405.641ZM245.623 403.121L248.326 403.121C248.271 402.289 247.687 401.849 246.982 401.849C246.287 401.849 245.686 402.353 245.623 403.121ZM251.874 405.64C250.65 405.64 249.802 404.737 249.802 403.465C249.802 402.185 250.65 401.273 251.826 401.273C252.698 401.273 253.162 401.833 253.29 402.049L253.338 402.049L253.338 399.537L253.971 399.537L253.971 405.537L253.362 405.537L253.362 404.881L253.315 404.881C253.21 405.033 252.778 405.64 251.874 405.64ZM251.914 405.073C252.818 405.073 253.362 404.337 253.362 403.465C253.362 402.441 252.722 401.849 251.898 401.849C251.042 401.849 250.45 402.521 250.45 403.465C250.45 404.441 251.042 405.073 251.914 405.073ZM255.301 406.584L255.437 404.793L256.133 404.794L255.765 406.585L255.301 406.584ZM261.077 405.641C260.093 405.641 259.533 405.105 259.46 404.329L260.077 404.329C260.148 404.825 260.5 405.089 261.108 405.089C261.732 405.089 262.076 404.785 262.076 404.361C262.077 403.193 259.588 404.081 259.588 402.433C259.588 401.729 260.22 401.273 261.092 401.274C261.86 401.274 262.501 401.721 262.564 402.473L261.956 402.473C261.9 402.081 261.604 401.817 261.052 401.817C260.532 401.818 260.197 402.073 260.197 402.433C260.196 403.49 262.692 402.609 262.692 404.329C262.692 405.113 262.044 405.641 261.077 405.641ZM265.694 405.641C264.423 405.641 263.614 404.705 263.614 403.457C263.614 402.129 264.519 401.273 265.655 401.273C266.918 401.273 267.671 402.201 267.671 403.401L267.671 403.681L264.278 403.681C264.311 404.513 264.847 405.065 265.703 405.065C266.254 405.065 266.783 404.801 266.975 404.313L267.631 404.313C267.399 405.089 266.671 405.641 265.694 405.641ZM264.295 403.121L266.999 403.121C266.943 402.289 266.358 401.849 265.655 401.849C264.959 401.849 264.358 402.353 264.295 403.121ZM270.61 405.641C269.354 405.64 268.474 404.689 268.474 403.457C268.474 402.225 269.378 401.273 270.602 401.273C271.506 401.273 272.346 401.817 272.571 402.745L271.914 402.744C271.746 402.201 271.218 401.849 270.618 401.849C269.73 401.849 269.13 402.553 269.13 403.457C269.129 404.393 269.762 405.065 270.634 405.065C271.234 405.066 271.77 404.713 271.93 404.169L272.578 404.17C272.362 405.096 271.514 405.641 270.61 405.641ZM275.172 405.641C274.204 405.641 273.62 404.913 273.62 403.993L273.62 401.377L274.252 401.377L274.252 403.968C274.252 404.632 274.74 405.065 275.325 405.065C275.981 405.065 276.492 404.561 276.492 403.873L276.492 401.377L277.124 401.377L277.125 405.537L276.492 405.537L276.492 404.929L276.444 404.929C276.268 405.305 275.82 405.641 275.172 405.641ZM278.481 405.537L278.481 401.377L279.106 401.377L279.106 402.153L279.153 402.153C279.274 401.801 279.681 401.377 280.29 401.377L280.642 401.377L280.642 402.009L280.298 402.009C279.538 402.009 279.113 402.601 279.113 403.393L279.113 405.537L278.481 405.537ZM283.289 405.641C282.016 405.641 281.209 404.705 281.209 403.457C281.209 402.129 282.113 401.273 283.248 401.272C284.513 401.273 285.264 402.201 285.264 403.401L285.264 403.681L281.873 403.681C281.904 404.512 282.441 405.065 283.297 405.065C283.849 405.065 284.376 404.801 284.569 404.313L285.225 404.313C284.993 405.089 284.264 405.641 283.289 405.641ZM281.889 403.121L284.592 403.121C284.537 402.289 283.952 401.849 283.248 401.849C282.553 401.849 281.952 402.353 281.889 403.121ZM288.139 405.641C286.915 405.641 286.068 404.737 286.068 403.465C286.068 402.185 286.915 401.273 288.092 401.273C288.964 401.273 289.428 401.833 289.556 402.049L289.603 402.049L289.604 399.537L290.236 399.537L290.236 405.537L289.628 405.537L289.628 404.881L289.58 404.88C289.475 405.033 289.043 405.641 288.139 405.641ZM288.18 405.073C289.084 405.073 289.628 404.337 289.628 403.465C289.628 402.441 288.988 401.849 288.163 401.849C287.308 401.849 286.715 402.521 286.716 403.465C286.716 404.441 287.308 405.073 288.18 405.073ZM295.593 405.641C294.369 405.641 293.521 404.737 293.521 403.466C293.521 402.185 294.369 401.273 295.545 401.273C296.417 401.273 296.881 401.833 297.009 402.049L297.057 402.049L297.057 401.377L297.689 401.377L297.689 405.537L297.081 405.537L297.081 404.881L297.033 404.881C296.929 405.033 296.497 405.641 295.593 405.641ZM295.633 405.073C296.537 405.073 297.081 404.337 297.081 403.466C297.081 402.441 296.441 401.849 295.617 401.849C294.76 401.849 294.169 402.521 294.169 403.466C294.169 404.441 294.761 405.073 295.633 405.073ZM299.052 405.537L299.052 401.377L299.684 401.377L299.684 401.985L299.732 401.984C299.908 401.609 300.356 401.273 301.004 401.273C301.971 401.273 302.556 402.001 302.556 402.921L302.556 405.537L301.924 405.537L301.924 402.961C301.924 402.298 301.436 401.865 300.852 401.864C300.196 401.864 299.684 402.369 299.684 403.057L299.684 405.537L299.052 405.537ZM305.671 405.641C304.447 405.641 303.599 404.737 303.6 403.465C303.599 402.185 304.447 401.273 305.623 401.273C306.495 401.273 306.959 401.833 307.087 402.049L307.135 402.049L307.135 399.537L307.767 399.537L307.767 405.537L307.159 405.537L307.159 404.881L307.111 404.881C307.007 405.033 306.575 405.641 305.671 405.641ZM305.711 405.073C306.615 405.073 307.159 404.338 307.16 403.465C307.159 402.441 306.519 401.849 305.695 401.849C304.839 401.849 304.247 402.521 304.248 403.465C304.247 404.441 304.839 405.073 305.711 405.073ZM311.372 407.377L311.372 401.377L311.98 401.377L311.98 402.033L312.028 402.033C312.132 401.881 312.564 401.274 313.468 401.273C314.692 401.273 315.54 402.177 315.54 403.449C315.54 404.729 314.692 405.64 313.516 405.641C312.644 405.641 312.18 405.081 312.052 404.865L312.005 404.865L312.004 407.377L311.372 407.377ZM313.444 405.066C314.3 405.065 314.892 404.394 314.892 403.449C314.892 402.473 314.3 401.841 313.429 401.841C312.524 401.841 311.98 402.577 311.98 403.449C311.98 404.473 312.62 405.065 313.444 405.066ZM316.661 405.537L316.661 401.377L317.285 401.377L317.285 402.153L317.334 402.153C317.454 401.801 317.861 401.377 318.469 401.377L318.821 401.377L318.821 402.008L318.477 402.008C317.717 402.009 317.293 402.601 317.293 403.393L317.293 405.537L316.661 405.537ZM321.556 405.641C320.308 405.641 319.388 404.721 319.388 403.457C319.388 402.201 320.324 401.273 321.564 401.273C322.82 401.273 323.732 402.209 323.732 403.457C323.732 404.705 322.805 405.641 321.556 405.641ZM321.556 405.065C322.452 405.065 323.084 404.385 323.084 403.457C323.084 402.537 322.453 401.849 321.556 401.849C320.66 401.849 320.036 402.545 320.036 403.457C320.036 404.393 320.668 405.065 321.556 405.065ZM326.473 405.537C325.705 405.537 325.233 405.121 325.233 404.281L325.233 401.913L324.449 401.913L324.449 401.377L325.073 401.377C325.185 401.377 325.272 401.305 325.272 401.169L325.272 400.169L325.865 400.169L325.865 401.377L327.145 401.377L327.145 401.914L325.864 401.913L325.865 404.273C325.865 404.721 326.033 404.985 326.512 404.985L327.088 404.985L327.089 405.537L326.473 405.537ZM330.023 405.641C328.751 405.641 327.943 404.705 327.943 403.457C327.943 402.129 328.847 401.273 329.983 401.273C331.247 401.273 331.998 402.201 331.998 403.401L331.998 403.681L328.607 403.681C328.639 404.513 329.175 405.065 330.031 405.065C330.583 405.065 331.11 404.801 331.303 404.313L331.959 404.313C331.727 405.089 330.998 405.641 330.023 405.641ZM328.623 403.121L331.326 403.121C331.271 402.289 330.687 401.849 329.983 401.849C329.287 401.849 328.686 402.353 328.623 403.121ZM334.938 405.641C333.682 405.641 332.802 404.689 332.802 403.457C332.802 402.225 333.706 401.273 334.93 401.273C335.834 401.273 336.674 401.817 336.898 402.744L336.242 402.745C336.074 402.201 335.547 401.849 334.946 401.849C334.058 401.849 333.458 402.553 333.458 403.457C333.458 404.393 334.09 405.066 334.962 405.065C335.562 405.065 336.098 404.713 336.258 404.169L336.906 404.169C336.69 405.097 335.842 405.641 334.938 405.641ZM339.653 405.537C338.885 405.537 338.413 405.121 338.413 404.281L338.412 401.913L337.628 401.913L337.628 401.378L338.252 401.377C338.364 401.377 338.452 401.305 338.452 401.168L338.452 400.168L339.044 400.169L339.044 401.377L340.324 401.378L340.325 401.913L339.044 401.913L339.044 404.273C339.044 404.721 339.213 404.985 339.692 404.985L340.268 404.985L340.268 405.537L339.653 405.537ZM343.202 405.641C341.931 405.641 341.122 404.705 341.123 403.457C341.123 402.129 342.027 401.273 343.162 401.272C344.427 401.273 345.178 402.201 345.178 403.401L345.178 403.681L341.787 403.681C341.819 404.513 342.355 405.065 343.211 405.065C343.763 405.065 344.29 404.801 344.483 404.313L345.139 404.313C344.907 405.089 344.178 405.641 343.202 405.641ZM341.803 403.121L344.506 403.121C344.451 402.289 343.866 401.849 343.162 401.849C342.467 401.849 341.866 402.353 341.803 403.121ZM348.054 405.642C346.829 405.641 345.982 404.737 345.982 403.465C345.982 402.185 346.829 401.273 348.006 401.273C348.878 401.273 349.342 401.833 349.47 402.049L349.517 402.049L349.518 399.537L350.15 399.537L350.15 405.537L349.542 405.536L349.542 404.881L349.494 404.881C349.39 405.033 348.957 405.641 348.054 405.642ZM348.094 405.073C348.998 405.073 349.542 404.337 349.542 403.465C349.542 402.441 348.902 401.849 348.077 401.849C347.222 401.849 346.629 402.521 346.63 403.465C346.63 404.441 347.222 405.073 348.094 405.073ZM355.851 405.641C354.947 405.641 354.515 405.033 354.411 404.881L354.363 404.881L354.363 405.537L353.755 405.537L353.755 399.537L354.387 399.537L354.387 402.049L354.435 402.049C354.563 401.833 355.027 401.273 355.899 401.273C357.075 401.273 357.923 402.185 357.923 403.464C357.923 404.737 357.075 405.641 355.851 405.641ZM355.811 405.073C356.683 405.073 357.275 404.441 357.275 403.464C357.275 402.521 356.683 401.849 355.827 401.849C355.003 401.849 354.362 402.441 354.363 403.464C354.362 404.337 354.907 405.073 355.811 405.073ZM358.855 407.376L358.854 406.801L359.167 406.802C359.575 406.801 359.807 406.625 359.943 406.265L360.135 405.761L358.447 401.377L359.151 401.377L360.438 404.897L360.487 404.897L361.783 401.377L362.495 401.377L360.511 406.489C360.295 407.057 359.967 407.376 359.287 407.377L358.855 407.376ZM367.34 405.641C366.228 405.641 365.34 404.913 365.34 403.873L365.988 403.873C365.988 404.521 366.516 405.041 367.364 405.041C368.1 405.041 368.628 404.681 368.628 404.097C368.628 402.345 365.532 403.569 365.532 401.329C365.532 400.529 366.196 399.832 367.324 399.833C368.173 399.833 369.165 400.297 369.164 401.457L368.5 401.457C368.5 400.818 368.076 400.425 367.316 400.425C366.524 400.425 366.18 400.865 366.18 401.329C366.18 402.856 369.285 401.793 369.284 404.058C369.284 404.938 368.564 405.641 367.34 405.641ZM372.027 405.537C371.259 405.537 370.787 405.12 370.787 404.281L370.787 401.913L370.003 401.913L370.003 401.377L370.628 401.377C370.74 401.377 370.827 401.305 370.827 401.169L370.827 400.169L371.42 400.169L371.42 401.377L372.699 401.377L372.699 401.913L371.42 401.913L371.42 404.273C371.42 404.721 371.587 404.985 372.067 404.985L372.643 404.985L372.643 405.537L372.027 405.537ZM375.578 405.641C374.305 405.641 373.497 404.705 373.497 403.457C373.497 402.129 374.401 401.273 375.537 401.273C376.802 401.273 377.553 402.201 377.553 403.401L377.554 403.681L374.161 403.681C374.193 404.513 374.729 405.065 375.586 405.065C376.138 405.065 376.666 404.801 376.857 404.313L377.513 404.313C377.281 405.089 376.553 405.641 375.578 405.641ZM374.177 403.121L376.882 403.121C376.825 402.289 376.242 401.849 375.537 401.849C374.841 401.849 374.242 402.353 374.177 403.121ZM379.259 405.537C378.738 405.537 378.435 405.217 378.435 404.649L378.435 399.537L379.066 399.537L379.066 404.649C379.066 404.857 379.17 404.977 379.371 404.977L379.563 404.977L379.563 405.537L379.259 405.537ZM381.469 405.537C380.949 405.537 380.646 405.217 380.646 404.65L380.646 399.537L381.278 399.537L381.277 404.649C381.277 404.857 381.381 404.977 381.581 404.977L381.774 404.978L381.774 405.538L381.469 405.537ZM384.569 405.641C383.345 405.641 382.498 404.737 382.498 403.465C382.498 402.185 383.345 401.273 384.521 401.273C385.394 401.273 385.857 401.833 385.985 402.049L386.034 402.049L386.034 401.377L386.665 401.377L386.665 405.537L386.058 405.537L386.058 404.882L386.009 404.881C385.906 405.033 385.473 405.641 384.569 405.641ZM384.61 405.073C385.513 405.073 386.058 404.337 386.058 403.465C386.058 402.441 385.417 401.849 384.594 401.849C383.737 401.849 383.146 402.521 383.146 403.465C383.146 404.441 383.737 405.073 384.61 405.073ZM388.028 405.537L388.028 401.377L388.652 401.377L388.652 402.153L388.7 402.153C388.82 401.801 389.228 401.378 389.836 401.377L390.188 401.377L390.188 402.009L389.844 402.009C389.084 402.009 388.66 402.601 388.661 403.393L388.661 405.537L388.028 405.537ZM395.114 405.642C394.002 405.642 393.113 404.913 393.113 403.872L393.762 403.873C393.762 404.521 394.29 405.041 395.137 405.041C395.874 405.041 396.402 404.681 396.402 404.097C396.402 402.345 393.306 403.569 393.306 401.329C393.306 400.529 393.97 399.833 395.098 399.833C395.945 399.833 396.937 400.297 396.938 401.457L396.274 401.457C396.274 400.817 395.85 400.425 395.09 400.425C394.298 400.425 393.954 400.865 393.954 401.329C393.954 402.857 397.058 401.793 397.058 404.057C397.058 404.937 396.338 405.642 395.114 405.642ZM399.936 405.641C398.665 405.641 397.857 404.705 397.856 403.457C397.856 402.129 398.761 401.273 399.897 401.273C401.161 401.273 401.913 402.201 401.913 403.401L401.913 403.681L398.52 403.681C398.553 404.513 399.089 405.065 399.945 405.065C400.496 405.065 401.025 404.801 401.217 404.313L401.873 404.313C401.641 405.089 400.913 405.641 399.936 405.641ZM398.537 403.121L401.241 403.121C401.185 402.289 400.601 401.849 399.897 401.849C399.201 401.849 398.6 402.353 398.537 403.121ZM404.852 405.641C403.597 405.641 402.717 404.689 402.717 403.457C402.717 402.225 403.62 401.273 404.844 401.273C405.748 401.273 406.588 401.817 406.813 402.745L406.157 402.745C405.988 402.201 405.461 401.849 404.86 401.849C403.972 401.849 403.373 402.553 403.373 403.457C403.372 404.394 404.004 405.065 404.876 405.065C405.476 405.066 406.012 404.713 406.172 404.169L406.82 404.17C406.605 405.097 405.756 405.641 404.852 405.641ZM409.414 405.641C408.446 405.641 407.862 404.913 407.862 403.993L407.862 401.376L408.495 401.377L408.495 403.969C408.495 404.633 408.982 405.065 409.567 405.065C410.223 405.065 410.735 404.561 410.735 403.873L410.735 401.377L411.367 401.377L411.367 405.537L410.735 405.537L410.735 404.93L410.686 404.929C410.511 405.305 410.063 405.641 409.414 405.641ZM412.723 405.537L412.723 401.377L413.348 401.377L413.348 402.153L413.395 402.153C413.516 401.801 413.923 401.377 414.532 401.377L414.884 401.377L414.884 402.009L414.54 402.009C413.78 402.009 413.356 402.601 413.356 403.393L413.356 405.538L412.723 405.537ZM416.255 400.625C415.991 400.625 415.798 400.425 415.799 400.161C415.798 399.905 415.991 399.705 416.255 399.705C416.527 399.705 416.718 399.905 416.719 400.161C416.719 400.425 416.527 400.625 416.255 400.625ZM415.927 405.537L415.927 401.377L416.559 401.377L416.559 405.537L415.927 405.537ZM419.543 405.537C418.775 405.537 418.303 405.121 418.303 404.281L418.303 401.913L417.519 401.913L417.519 401.377L418.143 401.377C418.255 401.377 418.343 401.305 418.343 401.169L418.343 400.169L418.935 400.169L418.935 401.377L420.215 401.377L420.215 401.913L418.935 401.912L418.935 404.273C418.935 404.721 419.103 404.985 419.583 404.985L420.159 404.985L420.159 405.537L419.543 405.537ZM421.261 407.377L421.261 406.801L421.573 406.801C421.981 406.8 422.213 406.625 422.349 406.265L422.541 405.761L420.853 401.377L421.557 401.377L422.845 404.898L422.893 404.897L424.19 401.377L424.901 401.377L422.917 406.489C422.701 407.057 422.373 407.377 421.693 407.377L421.261 407.377Z" fill="#0B1319"/>
<path d="M205.3 400.137C204.637 400.137 204.101 400.674 204.1 401.337L204.1 401.738L206.5 401.737L206.5 401.337C206.5 400.674 205.962 400.137 205.3 400.137Z" fill="#60D38E"/>
<path fill-rule="evenodd" clip-rule="evenodd" d="M205.3 396.937C208.614 396.937 211.3 399.623 211.3 402.937C211.3 406.251 208.614 408.937 205.3 408.937C201.986 408.937 199.3 406.251 199.3 402.937C199.3 399.623 201.986 396.937 205.3 396.937ZM203.3 401.337L203.3 401.806C202.834 401.97 202.5 402.414 202.5 402.937L202.5 405.337C202.501 406 203.038 406.537 203.7 406.538L206.9 406.538C207.563 406.537 208.1 405.999 208.1 405.337L208.1 402.937C208.101 402.414 207.766 401.97 207.3 401.805L207.3 401.337C207.3 400.233 206.405 399.337 205.3 399.337C204.196 399.337 203.3 400.233 203.3 401.337Z" fill="#60D38E"/>
<path d="M486.5 293.137L486.499 282.137C486.499 277.719 482.917 274.137 478.499 274.137L417.099 274.137M403.9 274.137L386.014 274.137C383.891 274.137 381.857 274.98 380.356 276.48L366.043 290.794C364.543 292.294 363.699 294.329 363.699 296.451L363.699 344.537C363.699 348.955 367.281 352.537 371.7 352.537L403.9 352.537M417.1 352.537L478.502 352.538C482.915 352.535 486.496 348.953 486.504 344.539L486.504 334.54" stroke="#85898C" stroke-width="4.8" stroke-linecap="round" stroke-linejoin="round"/>
<mask id="mask2_54_876" style="mask-type:alpha" maskUnits="userSpaceOnUse" x="420" y="298" width="53" height="41">
<path d="M468.1 298.537L424.1 298.537C421.89 298.537 420.1 300.328 420.1 302.537L420.1 334.079C420.1 336.288 421.89 338.079 424.1 338.079L468.1 338.079C470.309 338.079 472.1 336.288 472.1 334.079L472.1 302.537C472.1 300.328 470.309 298.537 468.1 298.537Z" fill="#D9D9D9"/>
</mask>
<g mask="url(#mask2_54_876)">
<path d="M472.1 298.537L420.1 298.537L420.1 338.079L472.1 338.079L472.1 298.537Z" fill="#BDAC8E"/>
<path d="M419.842 312.078L439.6 312.078M439.6 312.078L445.016 312.079L445.016 306.12L437.174 298.279M439.6 312.078L439.599 325.079L419.841 325.079M456.379 298.278L448.537 306.12L448.537 312.078M472.358 312.079L452.329 312.079L452.329 325.079L472.359 325.078" stroke="black" stroke-width="0.8" stroke-linecap="square" stroke-linejoin="round"/>
<path d="M456.379 338.337L448.266 330.225L448.266 327.479C448.266 326.153 449.341 325.079 450.667 325.079L453.413 325.079" stroke="black" stroke-width="0.8" stroke-linecap="square" stroke-linejoin="round"/>
<path d="M436.091 338.337L444.203 330.224L444.204 327.479C444.204 326.153 443.129 325.079 441.804 325.079L439.058 325.078" stroke="black" stroke-width="0.8" stroke-linecap="square" stroke-linejoin="round"/>
</g>
</g>
</g>
<defs>
<filter id="filter0_d_54_876" x="60.5" y="144.937" width="504" height="355.2" filterUnits="userSpaceOnUse" color-interpolation-filters="sRGB">
<feFlood flood-opacity="0" result="BackgroundImageFix"/>
<feColorMatrix in="SourceAlpha" type="matrix" values="0 0 0 0 0 0 0 0 0 0 0 0 0 0 0 0 0 0 127 0" result="hardAlpha"/>
<feOffset dy="20"/>
<feGaussianBlur stdDeviation="25"/>
<feComposite in2="hardAlpha" operator="out"/>
<feColorMatrix type="matrix" values="0 0 0 0 0.262745 0 0 0 0 0.392157 0 0 0 0 0.980392 0 0 0 0.1 0"/>
<feBlend mode="normal" in2="BackgroundImageFix" result="effect1_dropShadow_54_876"/>
<feBlend mode="normal" in="SourceGraphic" in2="effect1_dropShadow_54_876" result="shape"/>
</filter>
</defs>
</svg>
