<svg width="142" height="142" viewBox="0 0 142 142" fill="none" xmlns="http://www.w3.org/2000/svg">
<rect x="1" y="1" width="140" height="140" rx="16" fill="#F7F6FC"/>
<path d="M46 1H17C8.16344 1 1 8.16345 1 17V46" stroke="#0B1319" stroke-width="2"/>
<path d="M96 141L125 141C133.837 141 141 133.837 141 125L141 96" stroke="#0B1319" stroke-width="2"/>
<path d="M141 46L141 17C141 8.16344 133.837 1 125 0.999999L96 0.999998" stroke="#0B1319" stroke-width="2"/>
<path d="M1.00001 96L1 125C1 133.837 8.16344 141 17 141L46 141" stroke="#0B1319" stroke-width="2"/>
<path d="M71 116C47.7118 98.1308 34 87.8886 34 58.4697V39.7288L71 26L108 39.7288V58.4697C108 87.8886 94.2882 97.9128 71 116Z" fill="#60D38E"/>
<path d="M52 64.8276L67.4061 80L89.8839 58" stroke="white" stroke-width="2" stroke-miterlimit="10"/>
<path opacity="0.2" fill-rule="evenodd" clip-rule="evenodd" d="M71 116C71.4788 115.628 71.9536 115.26 72.4244 114.894C94.8463 97.4924 108 87.2837 108 58.4697V39.7288L71 26V116Z" fill="white"/>
</svg>
