<svg width="1920" height="394" viewBox="0 0 1920 394" fill="none" xmlns="http://www.w3.org/2000/svg">
<g opacity="0.15" clip-path="url(#clip0_54_728)">
<path d="M819.402 406.158H766.132C763.68 406.158 761.228 405.263 759.445 403.251L679.873 323.395C678.091 321.605 675.639 320.487 673.188 320.487H567.315C564.863 320.487 562.412 319.593 560.628 317.802L393.775 180.908C391.992 179.118 389.54 178 387.089 178H-61M-61 350.119H358.616C361.068 350.119 363.522 350.999 365.306 352.756L503.447 459.34C505.231 461.097 507.684 462.197 510.137 462.197H819.402M-61 690.355H387.157C389.609 690.355 392.061 689.244 393.845 687.464L503.67 608.075C505.454 606.297 507.908 605.185 510.36 605.185H616.272C618.726 605.185 621.178 604.072 622.962 602.294L702.787 522.461C704.571 520.681 707.023 519.57 709.475 519.57H819.402M-61 264.727H386.934C389.386 264.727 391.839 265.61 393.623 267.599L588.846 431.305C590.63 433.073 593.083 434.178 595.536 434.178H819.402M-61 604.962H330.122C332.575 604.962 335.029 604.066 336.813 602.048L388.117 550.503C389.901 548.71 392.355 547.589 394.809 547.589H587.866C590.319 547.589 592.773 546.693 594.557 544.675L645.862 493.13C647.646 491.337 650.1 490.216 652.553 490.216H819.402M-61 775.748H358.789C361.245 775.748 363.7 774.855 365.487 772.848L532.329 636.132C534.115 634.347 536.57 633.233 539.026 633.233H645.061C647.518 633.233 649.973 632.34 651.759 630.333L731.676 550.489C733.463 548.705 735.918 547.589 738.374 547.589H818.068M-61 862.474H358.673C361.127 862.474 363.58 861.352 365.366 859.556L532.1 721.96C533.886 720.164 536.339 719.042 538.793 719.042H616.195C618.648 719.042 621.102 718.144 622.886 716.124L759.622 578.527C761.406 576.731 763.86 575.609 766.313 575.609H819.402" stroke="#4364FA" stroke-width="2.66852" stroke-miterlimit="8"/>
<path d="M1956.07 66H1410.15C1407.7 66 1405.26 66.8895 1403.48 68.8909L1323.87 148.502C1322.09 150.281 1320.97 152.727 1320.97 155.173V345.971C1320.97 348.418 1319.86 350.864 1318.09 352.643L1266.93 403.567C1265.16 405.346 1262.72 406.459 1260.26 406.459H1037M1956.07 293.047H1495.32C1492.88 293.047 1490.42 293.935 1488.65 295.937L1323.87 460.718C1322.09 462.497 1319.64 463.609 1317.19 463.609H1037M1955.84 605.263H1551.8C1549.35 605.263 1546.91 604.373 1545.13 602.372L1465.52 522.76C1463.74 520.982 1461.29 519.87 1458.85 519.87H1037M1956.07 747.36H1353.45C1350.99 747.36 1348.55 746.472 1346.77 744.47L1153.52 551.224C1151.75 549.446 1149.3 548.334 1146.85 548.334H1037M1956.07 122.706H1495.32C1492.88 122.706 1490.42 123.596 1488.65 125.597L1380.57 233.672C1378.8 235.451 1377.68 237.896 1377.68 240.344V345.971C1377.68 348.418 1376.8 350.864 1374.79 352.643L1295.18 432.254C1293.4 434.032 1290.95 435.145 1288.51 435.145H1037M1956.07 349.974H1523.78C1521.34 349.974 1518.89 350.864 1517.11 352.865L1380.8 489.183C1379.01 490.961 1376.57 492.073 1374.13 492.073H1037" stroke="#4364FA" stroke-width="2.66852" stroke-miterlimit="8"/>
</g>
<defs>
<clipPath id="clip0_54_728">
<rect width="1988" height="394" fill="white" transform="translate(-32)"/>
</clipPath>
</defs>
</svg>
