<svg width="18" height="18" viewBox="0 0 18 18" fill="none" xmlns="http://www.w3.org/2000/svg">
<path fill-rule="evenodd" clip-rule="evenodd" d="M14.5823 0.336622C14.0763 0.0524549 13.5373 0.0249549 12.968 0.0955382C12.4272 0.163372 11.7681 0.333871 10.977 0.540121L9.12628 1.02045C8.3352 1.2267 7.67703 1.3972 7.17378 1.60162C6.64303 1.81612 6.1847 2.10395 5.8877 2.60354C5.58887 3.10587 5.55953 3.64304 5.63378 4.20404C5.70437 4.73295 5.88128 5.37462 6.09212 6.13912L6.58987 7.93945C6.8007 8.70487 6.97853 9.34562 7.19028 9.83695C7.41487 10.3595 7.71462 10.804 8.22428 11.09C8.73028 11.3733 9.26928 11.4017 9.83945 11.3302C10.3803 11.2633 11.0394 11.0919 11.8304 10.8856L13.6812 10.4053C14.4723 10.2 15.1304 10.0285 15.6337 9.82412C16.1644 9.60962 16.6228 9.32179 16.9198 8.8222C17.2186 8.31987 17.2479 7.7827 17.1737 7.22262C17.1031 6.6937 16.9262 6.05112 16.7154 5.28662L16.2176 3.48629C16.0068 2.72179 15.8289 2.08012 15.6172 1.58879C15.3926 1.06629 15.091 0.621705 14.5823 0.336622ZM11.2777 1.88212C12.1256 1.66212 12.6967 1.51545 13.1385 1.46045C13.5611 1.40729 13.7637 1.45404 13.9113 1.53654C14.0552 1.6172 14.1936 1.75745 14.354 2.13237C14.5236 2.52654 14.6776 3.07562 14.9049 3.89879L15.3761 5.60654C15.6044 6.42971 15.7547 6.9797 15.8106 7.4032C15.8638 7.80562 15.8161 7.98804 15.7373 8.11912C15.6575 8.25387 15.5127 8.39045 15.1185 8.54995C14.7079 8.71587 14.1377 8.8662 13.2898 9.0862L11.5298 9.54362C10.6819 9.76362 10.1108 9.91029 9.66895 9.96529C9.24545 10.0194 9.04378 9.97262 8.8962 9.89012C8.75228 9.80945 8.61387 9.66829 8.45345 9.29429C8.28387 8.90012 8.12987 8.35012 7.90253 7.52695L7.43137 5.82012C7.20312 4.99512 7.05278 4.44604 6.99687 4.02345C6.9437 3.62012 6.99137 3.43862 7.0702 3.30662C7.14995 3.17187 7.29478 3.03529 7.68895 2.87579C8.09962 2.70987 8.66978 2.56046 9.5177 2.33954L11.2777 1.88212Z" fill="#0B1319"/>
<path fill-rule="evenodd" clip-rule="evenodd" d="M0.933235 2.3313C0.759569 2.28872 0.576147 2.31548 0.421884 2.4059C0.26762 2.49632 0.154653 2.64328 0.10695 2.81561C0.0592466 2.98794 0.0805601 3.17207 0.166369 3.32895C0.252177 3.48582 0.395729 3.6031 0.566569 3.65588L2.12765 4.08947C2.51815 4.19763 2.80874 4.4928 2.90774 4.85122L4.69707 11.3256C4.62783 11.3393 4.55905 11.3552 4.49082 11.3733C2.67857 11.8435 1.57124 13.6668 2.06807 15.468C2.56307 17.2601 4.4459 18.2932 6.25082 17.8239C7.83115 17.4141 8.87524 15.9759 8.78724 14.4212L16.5056 12.4155C16.593 12.3929 16.675 12.3532 16.7471 12.2988C16.8191 12.2444 16.8798 12.1763 16.9255 12.0984C16.9713 12.0206 17.0013 11.9345 17.0137 11.8451C17.0262 11.7557 17.021 11.6647 16.9983 11.5773C16.9756 11.4899 16.9359 11.4078 16.8815 11.3357C16.8271 11.2637 16.759 11.203 16.6812 11.1573C16.6033 11.1115 16.5172 11.0816 16.4278 11.0691C16.3384 11.0566 16.2474 11.0619 16.16 11.0845L8.42515 13.0948C8.19375 12.6526 7.86808 12.2666 7.47115 11.9641C7.07422 11.6616 6.6157 11.4499 6.12799 11.344L4.23324 4.48455C4.11693 4.07191 3.8957 3.69645 3.59111 3.39475C3.28652 3.09305 2.90896 2.87541 2.49524 2.76305L0.934152 2.33038L0.933235 2.3313ZM4.83732 12.7034C5.94832 12.4156 7.06299 13.06 7.34899 14.0958C7.63315 15.1225 7.00982 16.2069 5.90615 16.4938C4.79515 16.7825 3.68049 16.1372 3.39449 15.1014C3.11032 14.0747 3.73365 12.9903 4.83732 12.7034Z" fill="#0B1319"/>
</svg>
