<svg width="27" height="21" viewBox="0 0 27 21" fill="none" xmlns="http://www.w3.org/2000/svg">
<mask id="mask0_525_2563" style="mask-type:alpha" maskUnits="userSpaceOnUse" x="0" y="0" width="27" height="21">
<rect y="0.199951" width="26.3015" height="20" rx="4.00001" fill="#D9D9D9"/>
</mask>
<g mask="url(#mask0_525_2563)">
<rect x="1" y="1.19995" width="24.3015" height="18" stroke="#0B1319" stroke-width="2"/>
<path d="M-0.130859 7.04932H9.86286M8.6363 0.0693359L12.6026 4.03562V7.04932H9.86286M18.3497 0.0693359L14.3834 4.03562V7.04932M26.4319 7.04932H16.3012V13.6247H26.4319M-0.130859 13.6247H9.86286V7.04932" stroke="#0B1319" stroke-width="2" stroke-linecap="square" stroke-linejoin="round"/>
<path d="M18.3504 20.3306L14.2471 16.2274V16.0246C14.2471 14.6992 15.3216 13.6246 16.6471 13.6246H16.8498" stroke="#0B1319" stroke-width="2" stroke-linecap="square" stroke-linejoin="round"/>
<path d="M8.08812 20.3306L12.1914 16.2274V16.0246C12.1914 14.6992 11.1169 13.6246 9.7914 13.6246H9.58866" stroke="#0B1319" stroke-width="2" stroke-linecap="square" stroke-linejoin="round"/>
</g>
</svg>
