<svg width="27" height="20" viewBox="0 0 27 20" fill="none" xmlns="http://www.w3.org/2000/svg">
<mask id="mask0_525_2545" style="mask-type:alpha" maskUnits="userSpaceOnUse" x="0" y="0" width="27" height="20">
<rect x="0.2" y="0.2" width="25.9015" height="19.6" rx="3.80001" fill="#D9D9D9" stroke="#4364FA" stroke-width="0.400001"/>
</mask>
<g mask="url(#mask0_525_2545)">
<rect x="1" y="1" width="24.3015" height="18" stroke="#4364FA" stroke-width="2"/>
<path d="M-0.130859 6.84936H9.86286M8.6363 -0.130615L12.6026 3.83567V6.84936H9.86286M18.3497 -0.130615L14.3834 3.83567V6.84936M26.4319 6.84936H16.3012V13.4247H26.4319M-0.130859 13.4247H9.86286V6.84936" stroke="#4364FA" stroke-width="2" stroke-linecap="square" stroke-linejoin="round"/>
<path d="M18.3504 20.1307L14.2471 16.0274V15.8247C14.2471 14.4992 15.3216 13.4247 16.6471 13.4247H16.8498" stroke="#4364FA" stroke-width="2" stroke-linecap="square" stroke-linejoin="round"/>
<path d="M8.08812 20.1307L12.1914 16.0274V15.8247C12.1914 14.4992 11.1169 13.4247 9.7914 13.4247H9.58866" stroke="#4364FA" stroke-width="2" stroke-linecap="square" stroke-linejoin="round"/>
</g>
</svg>
