<svg width="92" height="92" viewBox="0 0 92 92" fill="none" xmlns="http://www.w3.org/2000/svg">
<rect x="1" y="1" width="90" height="90" rx="16" fill="#F7F6FC"/>
<path d="M29.9286 1L17 1C8.16345 1 1 8.16344 1 17L1 29.9286" stroke="#0B1319" stroke-width="2"/>
<path d="M62.0714 91L75 91C83.8366 91 91 83.8366 91 75L91 62.0714" stroke="#0B1319" stroke-width="2"/>
<path d="M91 29.9286L91 17C91 8.16345 83.8366 1 75 0.999999L62.0714 0.999999" stroke="#0B1319" stroke-width="2"/>
<path d="M1 62.0714L1 75C1 83.8366 8.16344 91 17 91L29.9286 91" stroke="#0B1319" stroke-width="2"/>
<mask id="mask0_15_6750" style="mask-type:alpha" maskUnits="userSpaceOnUse" x="20" y="26" width="52" height="40">
<rect x="20" y="26" width="52" height="39.5417" rx="4" fill="#D9D9D9"/>
</mask>
<g mask="url(#mask0_15_6750)">
<rect x="20" y="26" width="52" height="39.5417" fill="#BDAC8E"/>
<path d="M19.7412 39.5417L39.4995 39.5417M37.0745 25.7417L44.9162 33.5834L44.9162 39.5417L39.4995 39.5417M56.2787 25.7417L48.437 33.5834L48.437 39.5417M72.2579 39.5417L52.2287 39.5417L52.2287 52.5417L72.2579 52.5417M19.7412 52.5417L39.4995 52.5417L39.4995 39.5417" stroke="black" stroke-width="0.8" stroke-linecap="square" stroke-linejoin="round"/>
<path d="M56.2795 65.8002L48.167 57.6877L48.167 54.9419C48.167 53.6164 49.2415 52.5419 50.567 52.5419L53.3128 52.5419" stroke="black" stroke-width="0.8" stroke-linecap="square" stroke-linejoin="round"/>
<path d="M35.991 65.8001L44.1035 57.6876L44.1035 54.9417C44.1035 53.6163 43.029 52.5417 41.7035 52.5417L38.9577 52.5417" stroke="black" stroke-width="0.8" stroke-linecap="square" stroke-linejoin="round"/>
</g>
</svg>
