<svg width="24" height="25" viewBox="0 0 24 25" fill="none" xmlns="http://www.w3.org/2000/svg">
<path d="M4.00488 7.33717C4.00488 5.65701 4.00488 4.81693 4.33186 4.1752C4.61948 3.61071 5.07843 3.15177 5.64291 2.86415C6.28465 2.53717 7.12473 2.53717 8.80488 2.53717H12.0167C12.7504 2.53717 13.1173 2.53717 13.4626 2.62006C13.7687 2.69355 14.0613 2.81476 14.3297 2.97925C14.6325 3.16478 14.8919 3.4242 15.4108 3.94306L18.599 7.13128C19.1179 7.65014 19.3773 7.90957 19.5628 8.21232C19.7273 8.48073 19.8485 8.77337 19.922 9.07947C20.0049 9.42474 20.0049 9.79162 20.0049 10.5254V17.7372C20.0049 19.4173 20.0049 20.2574 19.6779 20.8991C19.3903 21.4636 18.9313 21.9226 18.3669 22.2102C17.7251 22.5372 16.885 22.5372 15.2049 22.5372H8.80488C7.12473 22.5372 6.28465 22.5372 5.64291 22.2102C5.07843 21.9226 4.61948 21.4636 4.33186 20.8991C4.00488 20.2574 4.00488 19.4173 4.00488 17.7372V7.33717Z" stroke="white" stroke-width="1.5" stroke-linecap="round" stroke-linejoin="round"/>
<path d="M8.00488 14.3372C8.00488 14.0571 8.00488 13.9171 8.05938 13.8102C8.10732 13.7161 8.18381 13.6396 8.27789 13.5917C8.38484 13.5372 8.52486 13.5372 8.80488 13.5372H15.2049C15.4849 13.5372 15.6249 13.5372 15.7319 13.5917C15.826 13.6396 15.9024 13.7161 15.9504 13.8102C16.0049 13.9171 16.0049 14.0571 16.0049 14.3372V17.7372C16.0049 18.0172 16.0049 18.1572 15.9504 18.2642C15.9024 18.3582 15.826 18.4347 15.7319 18.4827C15.6249 18.5372 15.4849 18.5372 15.2049 18.5372H8.80488C8.52486 18.5372 8.38484 18.5372 8.27789 18.4827C8.18381 18.4347 8.10732 18.3582 8.05938 18.2642C8.00488 18.1572 8.00488 18.0172 8.00488 17.7372V14.3372Z" stroke="white" stroke-width="1.5" stroke-linecap="round" stroke-linejoin="round"/>
</svg>
