<svg width="90" height="90" viewBox="0 0 90 90" fill="none" xmlns="http://www.w3.org/2000/svg">
<path fill-rule="evenodd" clip-rule="evenodd" d="M61.875 87.1875H78.75C83.4103 87.1875 87.1875 83.4103 87.1875 78.75V61.875C87.1875 60.3225 85.9275 59.0625 84.375 59.0625C82.8225 59.0625 81.5625 60.3225 81.5625 61.875V78.75C81.5625 80.3025 80.3025 81.5625 78.75 81.5625H61.875C60.3225 81.5625 59.0625 82.8225 59.0625 84.375C59.0625 85.9275 60.3225 87.1875 61.875 87.1875ZM28.125 81.5625H11.25C9.6975 81.5625 8.4375 80.3025 8.4375 78.75V61.875C8.4375 60.3225 7.1775 59.0625 5.625 59.0625C4.0725 59.0625 2.8125 60.3225 2.8125 61.875V78.75C2.8125 83.4103 6.58969 87.1875 11.25 87.1875H28.125C29.6775 87.1875 30.9375 85.9275 30.9375 84.375C30.9375 82.8225 29.6775 81.5625 28.125 81.5625ZM42.1875 56.25V73.125C42.1875 74.6775 43.4475 75.9375 45 75.9375C46.5525 75.9375 47.8125 74.6775 47.8125 73.125V56.25C47.8125 54.6975 46.5525 53.4375 45 53.4375C43.4475 53.4375 42.1875 54.6975 42.1875 56.25ZM36.5625 56.25C36.5625 54.6975 35.3025 53.4375 33.75 53.4375H16.875C15.3225 53.4375 14.0625 54.6975 14.0625 56.25V73.125C14.0625 74.6775 15.3225 75.9375 16.875 75.9375H33.75C35.3025 75.9375 36.5625 74.6775 36.5625 73.125V56.25ZM75.9375 56.25C75.9375 54.6975 74.6775 53.4375 73.125 53.4375H56.25C54.6975 53.4375 53.4375 54.6975 53.4375 56.25V73.125C53.4375 74.6775 54.6975 75.9375 56.25 75.9375H73.125C74.6775 75.9375 75.9375 74.6775 75.9375 73.125V56.25ZM30.9375 59.0625V70.3125H19.6875V59.0625H30.9375ZM70.3125 59.0625V70.3125H59.0625V59.0625H70.3125ZM42.1875 47.8125H45C46.5525 47.8125 47.8125 46.5525 47.8125 45C47.8125 43.4475 46.5525 42.1875 45 42.1875H42.1875C40.635 42.1875 39.375 43.4475 39.375 45C39.375 46.5525 40.635 47.8125 42.1875 47.8125ZM16.875 47.8125H30.9375C32.49 47.8125 33.75 46.5525 33.75 45C33.75 43.4475 32.49 42.1875 30.9375 42.1875H16.875C15.3225 42.1875 14.0625 43.4475 14.0625 45C14.0625 46.5525 15.3225 47.8125 16.875 47.8125ZM67.5 42.1875H70.3125V45C70.3125 46.5525 71.5725 47.8125 73.125 47.8125C74.6775 47.8125 75.9375 46.5525 75.9375 45V39.375C75.9375 37.8225 74.6775 36.5625 73.125 36.5625H67.5C65.9475 36.5625 64.6875 37.8225 64.6875 39.375C64.6875 40.9275 65.9475 42.1875 67.5 42.1875ZM59.0625 45V30.9375H61.875C63.4275 30.9375 64.6875 29.6775 64.6875 28.125C64.6875 26.5725 63.4275 25.3125 61.875 25.3125H56.25C54.6975 25.3125 53.4375 26.5725 53.4375 28.125V45C53.4375 46.5525 54.6975 47.8125 56.25 47.8125C57.8025 47.8125 59.0625 46.5525 59.0625 45ZM42.1875 28.125V33.75C42.1875 35.3025 43.4475 36.5625 45 36.5625C46.5525 36.5625 47.8125 35.3025 47.8125 33.75V28.125C47.8125 26.5725 46.5525 25.3125 45 25.3125C43.4475 25.3125 42.1875 26.5725 42.1875 28.125ZM36.5625 16.875C36.5625 15.3225 35.3025 14.0625 33.75 14.0625H16.875C15.3225 14.0625 14.0625 15.3225 14.0625 16.875V33.75C14.0625 35.3025 15.3225 36.5625 16.875 36.5625H33.75C35.3025 36.5625 36.5625 35.3025 36.5625 33.75V16.875ZM28.125 2.8125H11.25C6.58969 2.8125 2.8125 6.58969 2.8125 11.25V28.125C2.8125 29.6775 4.0725 30.9375 5.625 30.9375C7.1775 30.9375 8.4375 29.6775 8.4375 28.125V11.25C8.4375 9.6975 9.6975 8.4375 11.25 8.4375H28.125C29.6775 8.4375 30.9375 7.1775 30.9375 5.625C30.9375 4.0725 29.6775 2.8125 28.125 2.8125ZM30.9375 19.6875V30.9375H19.6875V19.6875H30.9375ZM61.875 8.4375H78.75C80.3025 8.4375 81.5625 9.6975 81.5625 11.25V28.125C81.5625 29.6775 82.8225 30.9375 84.375 30.9375C85.9275 30.9375 87.1875 29.6775 87.1875 28.125V11.25C87.1875 6.58969 83.4103 2.8125 78.75 2.8125H61.875C60.3225 2.8125 59.0625 4.0725 59.0625 5.625C59.0625 7.1775 60.3225 8.4375 61.875 8.4375ZM45 19.6875H70.3125V28.125C70.3125 29.6775 71.5725 30.9375 73.125 30.9375C74.6775 30.9375 75.9375 29.6775 75.9375 28.125V16.875C75.9375 15.3225 74.6775 14.0625 73.125 14.0625H45C43.4475 14.0625 42.1875 15.3225 42.1875 16.875C42.1875 18.4275 43.4475 19.6875 45 19.6875Z" fill="#4364FA"/>
</svg>
