<svg width="47" height="47" viewBox="0 0 47 47" fill="none" xmlns="http://www.w3.org/2000/svg">
<rect x="1" y="1" width="45" height="45" rx="8" fill="#F7F6FC"/>
<path d="M15.4643 1H9C4.58172 1 1 4.58172 1 9V15.4643" stroke="#0B1319" stroke-width="2"/>
<path d="M31.5357 46L38 46C42.4183 46 46 42.4183 46 38L46 31.5357" stroke="#0B1319" stroke-width="2"/>
<path d="M46 15.4643L46 9C46 4.58172 42.4183 1 38 1L31.5357 0.999999" stroke="#0B1319" stroke-width="2"/>
<path d="M1 31.5357L1 38C1 42.4183 4.58172 46 9 46L15.4643 46" stroke="#0B1319" stroke-width="2"/>
<path d="M21.0556 34.7143L21.9167 37.2857H26.3657L27.2269 34.7143C28.375 34.4286 29.5231 34 30.5278 33.4286L32.537 34.4286C32.8241 34.5714 33.2546 34.4286 33.3981 34.2857L36.125 31.7143L34.8333 29.2857C35.4074 28.2857 35.838 27.1429 36.2685 26.1429L38.9954 25.2857V21L36.2685 20.1429C35.9815 19 35.5509 18 34.8333 17L36.125 14.5714L32.9676 11.5714L30.3843 12.8571C29.3796 12.2857 28.2315 11.8571 27.0833 11.5714L26.2222 9H21.7731L20.912 11.5714C19.7639 11.8571 18.6157 12.2857 17.6111 12.8571L15.0278 11.5714L11.8704 14.5714L13.162 17C12.588 18 12.1574 19.1429 11.7269 20.1429L9 21V25.2857L11.7269 26.1429C12.0139 27.2857 12.4444 28.2857 13.162 29.2857L11.8704 31.7143L14.5972 34.2857C14.8843 34.4286 15.1713 34.5714 15.4583 34.4286L17.4676 33.4286C18.4722 34 19.6204 34.4286 20.7685 34.7143H21.0556Z" stroke="#4364FA" stroke-width="2" stroke-miterlimit="10"/>
<path d="M24.0695 30C27.9445 30 31.2454 26.8571 31.2454 23.1428C31.2454 19.4286 28.088 16.2857 24.0695 16.2857C20.051 16.2857 16.8936 19.4286 16.8936 23.1428C16.8936 26.8571 20.051 30 24.0695 30Z" stroke="#4364FA" stroke-width="2" stroke-miterlimit="10"/>
</svg>
