<svg width="47" height="47" viewBox="0 0 47 47" fill="none" xmlns="http://www.w3.org/2000/svg">
<rect x="1" y="1" width="45" height="45" rx="8" fill="#F7F6FC"/>
<path d="M15.4643 1H9C4.58172 1 1 4.58172 1 9V15.4643" stroke="#0B1319" stroke-width="2"/>
<path d="M31.5357 46L38 46C42.4183 46 46 42.4183 46 38L46 31.5357" stroke="#0B1319" stroke-width="2"/>
<path d="M46 15.4643L46 9C46 4.58172 42.4183 1 38 1L31.5357 0.999999" stroke="#0B1319" stroke-width="2"/>
<path d="M1 31.5357L1 38C1 42.4183 4.58172 46 9 46L15.4643 46" stroke="#0B1319" stroke-width="2"/>
<path d="M26.3301 13.1024V11.2634C26.3301 9.99024 27.3495 9 28.6602 9H29.6796" stroke="#4364FA" stroke-width="2" stroke-miterlimit="10"/>
<path d="M20.0678 13.1024V11.2634C20.0678 9.99024 19.0484 9 17.7377 9H16.7183" stroke="#4364FA" stroke-width="2" stroke-miterlimit="10"/>
<path d="M15.262 20.1756C15.262 15.9317 18.7571 12.5366 23.126 12.5366C27.495 12.5366 30.9901 15.9317 30.9901 20.1756" stroke="#4364FA" stroke-width="2" stroke-miterlimit="10"/>
<path d="M37.5437 16.0732C37.5437 20.3171 34.0485 23.7122 29.6796 23.7122H16.8641C12.4951 23.7122 9 20.3171 9 16.0732" stroke="#4364FA" stroke-width="2" stroke-miterlimit="10"/>
<path d="M9 37.1512C9 32.9073 12.4951 29.5122 16.8641 29.5122H29.534C33.9029 29.5122 37.3981 32.9073 37.3981 37.1512" stroke="#4364FA" stroke-width="2" stroke-miterlimit="10"/>
<path d="M31.1359 23.0049V28.6634C31.1359 32.9073 27.4951 36.3024 23.2718 36.3024C19.0485 36.3024 15.4077 32.9073 15.4077 28.6634V23.0049" stroke="#4364FA" stroke-width="2" stroke-miterlimit="10"/>
</svg>
