<?xml version="1.0" encoding="utf-8"?>
<!-- Generator: Adobe Illustrator 24.1.2, SVG Export Plug-In . SVG Version: 6.00 Build 0)  -->
<svg version="1.1" id="Layer_1" xmlns="http://www.w3.org/2000/svg" xmlns:xlink="http://www.w3.org/1999/xlink" x="0px" y="0px"
	 viewBox="0 0 319.66 635.23" style="enable-background:new 0 0 319.66 635.23;" xml:space="preserve">
<style type="text/css">
	.st0{fill:none;stroke:#FFFFFF;stroke-width:0.25;stroke-opacity:0.5;}
	.st1{fill:url(#SVGID_1_);}
	.st2{fill:url(#SVGID_2_);}
	.st3{fill:#FFFFFF;}
	.st4{fill:#0A0A0A;}
	.st5{fill:url(#SVGID_3_);}
	.st6{fill:url(#SVGID_4_);}
	.st7{fill:url(#SVGID_5_);}
	.st8{fill:#BA7FD6;}
	.st9{fill:#020203;}
	.st10{fill:url(#SVGID_6_);}
	.st11{fill:none;stroke:#0B1319;stroke-width:2;}
	.st12{fill:#4364FA;}
	.st13{fill:#0B1319;}
	.st14{fill:#D9D9D9;filter:url(#Adobe_OpacityMaskFilter);}
	.st15{mask:url(#mask0_351_3873_1_);}
	.st16{display:none;fill:#FFFFFF;}
</style>
<g>
	<path d="M270.93,10.02H49.24c-22.15,0-40.11,17.96-40.11,40.11v539.34c0,22.15,17.96,40.11,40.11,40.11h221.69
		c22.15,0,40.11-17.96,40.11-40.11V50.13C311.04,27.98,293.08,10.02,270.93,10.02z"/>
	<g>
		<path class="st0" d="M12.54,50.05c0-20.48,16.6-37.08,37.08-37.08h220.98c21.03,0,38.07,17.05,38.07,38.07v539.33
			c0,20.75-16.82,37.58-37.58,37.58l-222.96,0c-19.66,0-35.6-15.94-35.6-35.6V50.05z"/>
	</g>
	<g>
		<path d="M14.61,49.77c0-19.25,15.61-34.86,34.86-34.86h220.98c19.53,0,35.35,15.83,35.35,35.35v539.83
			c0,19.66-15.94,35.6-35.6,35.6l-221.48,0c-18.84,0-34.12-15.28-34.12-34.12V49.77z"/>
		
			<radialGradient id="SVGID_1_" cx="-140.1478" cy="680.0785" r="0.9518" gradientTransform="matrix(1.964627e-14 320.848 152.969 -9.366650e-15 -103870.7109 45286.4336)" gradientUnits="userSpaceOnUse">
			<stop  offset="3.702790e-03" style="stop-color:#000000"/>
			<stop  offset="0.0861" style="stop-color:#000000"/>
			<stop  offset="0.1426" style="stop-color:#000000"/>
			<stop  offset="0.5518" style="stop-color:#898686"/>
			<stop  offset="0.5971" style="stop-color:#000000"/>
			<stop  offset="0.6222" style="stop-color:#000000"/>
			<stop  offset="0.6354" style="stop-color:#000000"/>
			<stop  offset="0.6445" style="stop-color:#898686"/>
			<stop  offset="0.8697" style="stop-color:#1C1C1C"/>
			<stop  offset="0.875" style="stop-color:#000000"/>
		</radialGradient>
		<path class="st1" d="M14.61,49.77c0-19.25,15.61-34.86,34.86-34.86h220.98c19.53,0,35.35,15.83,35.35,35.35v539.83
			c0,19.66-15.94,35.6-35.6,35.6l-221.48,0c-18.84,0-34.12-15.28-34.12-34.12V49.77z"/>
	</g>
	<g>
		
			<radialGradient id="SVGID_2_" cx="-140.1483" cy="680.1821" r="0.9518" gradientTransform="matrix(1.961443e-14 320.328 172.339 -1.055272e-14 -117061.6875 45213.7227)" gradientUnits="userSpaceOnUse">
			<stop  offset="3.036720e-04" style="stop-color:#4A4A4A"/>
			<stop  offset="0.0905" style="stop-color:#404040"/>
			<stop  offset="0.1116" style="stop-color:#000000"/>
			<stop  offset="0.1366" style="stop-color:#404040"/>
			<stop  offset="0.4045" style="stop-color:#848484"/>
			<stop  offset="0.5965" style="stop-color:#5E5E5E"/>
			<stop  offset="0.6078" style="stop-color:#000000"/>
			<stop  offset="0.6147" style="stop-color:#000000"/>
			<stop  offset="0.6264" style="stop-color:#535353"/>
			<stop  offset="0.8722" style="stop-color:#585858"/>
			<stop  offset="0.8865" style="stop-color:#000000"/>
			<stop  offset="0.9029" style="stop-color:#575757"/>
		</radialGradient>
		<path class="st2" d="M14.86,50.27c0-19.25,15.61-34.86,34.86-34.86h220.49c19.53,0,35.35,15.83,35.35,35.35V589.6
			c0,19.66-15.94,35.6-35.6,35.6H48.98c-18.84,0-34.12-15.27-34.12-34.12L14.86,50.27z"/>
	</g>
	<path d="M19.31,50.02c0-16.93,13.73-30.66,30.66-30.66H271.2c16.52,0,29.91,13.39,29.91,29.91v541.31c0,17.07-13.84,30.9-30.9,30.9
		l-224.7,0c-14.47,0-26.21-11.73-26.21-26.21V50.02z"/>
	<path class="st3" d="M272.97,25.29H45.52c-12.02,0-21.76,9.76-21.76,21.79v546.79c0,12.04,9.74,21.79,21.76,21.79h227.45
		c12.02,0,21.76-9.76,21.76-21.79V47.08C294.72,35.04,284.98,25.29,272.97,25.29z"/>
	<path d="M42.9,53.66c5.16,0,9.35-4.19,9.35-9.35s-4.19-9.35-9.35-9.35c-5.16,0-9.35,4.19-9.35,9.35S37.74,53.66,42.9,53.66z"/>
	<path class="st4" d="M42.82,51.28c3.89,0,7.05-3.15,7.05-7.04c0-3.89-3.15-7.04-7.05-7.04c-3.89,0-7.04,3.15-7.04,7.04
		C35.77,48.13,38.93,51.28,42.82,51.28z"/>
	
		<radialGradient id="SVGID_3_" cx="-151.7268" cy="662.7586" r="0.9518" gradientTransform="matrix(4.531916e-16 7.4012 7.4017 -4.532228e-16 -4862.7139 1167.1924)" gradientUnits="userSpaceOnUse">
		<stop  offset="0.5521" style="stop-color:#000000;stop-opacity:0"/>
		<stop  offset="0.6667" style="stop-color:#5B5B5B;stop-opacity:0.21"/>
		<stop  offset="0.7083" style="stop-color:#000000;stop-opacity:0"/>
	</radialGradient>
	<path class="st5" d="M42.82,51.28c3.89,0,7.05-3.15,7.05-7.04c0-3.89-3.15-7.04-7.05-7.04c-3.89,0-7.04,3.15-7.04,7.04
		C35.77,48.13,38.93,51.28,42.82,51.28z"/>
	<g>
		<path d="M45.78,43.43c-0.52-1.52-2.18-2.33-3.7-1.81c-1.52,0.52-2.34,2.18-1.82,3.7c0.52,1.52,2.18,2.34,3.7,1.82
			C45.49,46.6,46.3,44.95,45.78,43.43z"/>
		
			<radialGradient id="SVGID_4_" cx="-172.2746" cy="724.8833" r="0.9518" gradientTransform="matrix(2.8964 -0.9896 -0.9356 -2.7383 1220.1747 1858.8351)" gradientUnits="userSpaceOnUse">
			<stop  offset="0.1099" style="stop-color:#000000;stop-opacity:0.7183"/>
			<stop  offset="0.2665" style="stop-color:#6777CA"/>
			<stop  offset="0.4739" style="stop-color:#6C86CA"/>
			<stop  offset="0.6654" style="stop-color:#5583C7"/>
			<stop  offset="0.8659" style="stop-color:#000000;stop-opacity:0.7183"/>
			<stop  offset="1" style="stop-color:#5351BA;stop-opacity:0"/>
		</radialGradient>
		<path class="st6" d="M45.78,43.43c-0.52-1.52-2.18-2.33-3.7-1.81c-1.52,0.52-2.34,2.18-1.82,3.7c0.52,1.52,2.18,2.34,3.7,1.82
			C45.49,46.6,46.3,44.95,45.78,43.43z"/>
		
			<radialGradient id="SVGID_5_" cx="-172.2746" cy="722.4907" r="0.9518" gradientTransform="matrix(2.8964 -0.9896 -0.9895 -2.8962 1256.9135 1966.3719)" gradientUnits="userSpaceOnUse">
			<stop  offset="0.0521" style="stop-color:#000000"/>
			<stop  offset="0.6719" style="stop-color:#767676;stop-opacity:0"/>
		</radialGradient>
		<path class="st7" d="M45.78,43.43c-0.52-1.52-2.18-2.33-3.7-1.81c-1.52,0.52-2.34,2.18-1.82,3.7c0.52,1.52,2.18,2.34,3.7,1.82
			C45.49,46.6,46.3,44.95,45.78,43.43z"/>
	</g>
	<g>
		<path class="st8" d="M43.93,44.61c0.41,0,0.74-0.33,0.74-0.74c0-0.41-0.33-0.74-0.74-0.74c-0.41,0-0.74,0.33-0.74,0.74
			C43.19,44.27,43.52,44.61,43.93,44.61z"/>
	</g>
	<path d="M296,585.05c0,32.13-24.41,30.15-27.38,30.57C266.03,618.09,308.11,619.41,296,585.05z"/>
	<path d="M23.66,49.15c0.25-7.54,5.39-22.88,23.98-23.97C38.98,24.32,22.07,27.89,23.66,49.15z"/>
	<path class="st9" d="M267.85,25.17c10.88,0,28.18,4.08,28.18,26.45C297.88,40.13,294.84,18.74,267.85,25.17z"/>
	<path d="M311.15,158.8h0.49c0.68,0,1.24,0.55,1.24,1.24v41.28c0,0.68-0.55,1.24-1.24,1.24h-0.49L311.15,158.8z"/>
	
		<linearGradient id="SVGID_6_" gradientUnits="userSpaceOnUse" x1="312.0165" y1="481.1971" x2="312.0165" y2="437.4465" gradientTransform="matrix(1 0 0 -1 0 640)">
		<stop  offset="0" style="stop-color:#353535"/>
		<stop  offset="0.0417" style="stop-color:#AEAEAE"/>
		<stop  offset="0.1042" style="stop-color:#49494A"/>
		<stop  offset="0.6771" style="stop-color:#49494A"/>
		<stop  offset="0.901" style="stop-color:#787879;stop-opacity:0.4355"/>
		<stop  offset="1" style="stop-color:#000000;stop-opacity:0"/>
	</linearGradient>
	<path class="st10" d="M311.15,158.8h0.49c0.68,0,1.24,0.55,1.24,1.24v41.28c0,0.68-0.55,1.24-1.24,1.24h-0.49L311.15,158.8z"/>
	<path d="M311.15,244.82h0.49c0.68,0,1.24,0.55,1.24,1.24l0,82.06c0,0.68-0.55,1.24-1.24,1.24h-0.49V244.82z"/>
	<path class="st11" d="M138.76,213.74l-28.68-0.13c-8.74-0.04-15.86,7.01-15.9,15.75l-0.13,28.68"/>
	<path class="st11" d="M187.56,352.41l28.68,0.13c8.74,0.04,15.86-7.01,15.9-15.75l0.13-28.68"/>
	<path class="st11" d="M232.5,258.68l0.13-28.68c0.04-8.74-7.01-15.86-15.75-15.9l-28.68-0.13"/>
	<path class="st11" d="M93.82,307.47l-0.13,28.68c-0.04,8.74,7.01,15.86,15.75,15.9l28.68,0.13"/>
	<path class="st12" d="M162.95,233.3c-16.19,0-29.31,13.12-29.31,29.31v9.77h16.28v-9.77c0-7.19,5.83-13.02,13.02-13.02
		c7.19,0,13.02,5.83,13.02,13.02v9.77h16.28v-9.77C192.26,246.42,179.14,233.3,162.95,233.3z"/>
	<path class="st12" d="M146.15,316.27l15.08-17.02h-12.41l15.3-17.17h13.99l-10.76,12.07l12.41-0.17L146.15,316.27z M138.2,267.42
		l-13.73,13.73v37.67l13.73,13.73h49.51l13.73-13.73v-37.67l-13.73-13.73H138.2z"/>
	<path class="st13" d="M46.49,386.81h3.4c0.03,2.33,1.94,4.18,5.09,4.18c2.69,0,4.5-1.23,4.5-3.27c0-6.12-12.28-1.59-12.28-10.73
		c0-3.44,2.79-6.32,7.58-6.32c3.86,0,7.71,2.07,7.78,6.8h-3.53c0-2.23-1.52-3.66-4.28-3.66c-2.79,0-4.08,1.49-4.08,3.11
		c0,5.48,12.41,1.36,12.41,10.53c0,3.79-3.01,6.74-8.23,6.74C49.99,394.2,46.49,391.19,46.49,386.81z"/>
	<path class="st13" d="M68.82,388.4v-8.78h-3.05v-2.75h2.24c0.58,0,1.01-0.42,1.01-1.1v-3.73h3.21v4.8h4.93v2.79h-4.93v8.68
		c0,1.62,0.68,2.59,2.46,2.59h2.3v2.88h-2.82C70.83,393.78,68.82,391.93,68.82,388.4z"/>
	<path class="st13" d="M93.38,383.77c-0.23-2.85-2.3-4.5-4.92-4.5c-2.59,0-4.73,1.85-4.99,4.5H93.38z M80,385.36
		c0-5.38,3.63-8.94,8.46-8.94c5.28,0,8.29,3.89,8.29,8.72v1.26H83.4c0.13,2.95,2.11,4.96,5.22,4.96c2.14,0,3.99-1.04,4.67-2.69h3.3
		c-0.87,3.27-3.89,5.54-8.07,5.54C83.43,394.2,80,390.44,80,385.36z"/>
	<path class="st13" d="M100.12,389.57v-20.09h3.4v19.89c0,0.91,0.45,1.39,1.3,1.39h0.71v3.01h-1.39
		C101.58,393.78,100.12,392.23,100.12,389.57z"/>
	<path class="st13" d="M109.39,389.57v-20.09h3.4v19.9c0,0.91,0.45,1.39,1.3,1.39h0.71v3.01h-1.39
		C110.85,393.78,109.39,392.23,109.39,389.57z"/>
	<path class="st13" d="M131.33,385.32c0-3.66-2.27-5.8-5.25-5.8c-3.08,0-5.22,2.4-5.22,5.8c0,3.53,2.14,5.8,5.25,5.8
		C129.35,391.12,131.33,388.53,131.33,385.32z M117.39,385.36c0-5.25,3.34-8.94,8.07-8.94c3.24,0,4.99,2.01,5.54,2.88h0.23v-2.46
		h3.4v16.95h-3.34v-2.4h-0.2c-0.45,0.65-2.11,2.82-5.47,2.82C120.76,394.2,117.39,390.6,117.39,385.36z"/>
	<path class="st13" d="M139.52,376.83h3.27v2.95h0.23c0.52-1.36,2.14-2.98,4.54-2.98h1.49v3.3h-1.59c-2.88,0-4.54,2.17-4.54,5.31
		v8.36h-3.4V376.83z"/>
	<path class="st13" d="M170.05,382.31c2.43,0,4.05-1.75,4.05-4.15c0-2.37-1.62-4.05-4.05-4.05h-4.54v8.2H170.05z M162.01,371.1h8.36
		c4.24,0,7.26,2.82,7.26,7.06c0,4.21-3.14,7.16-7.26,7.16h-4.86v8.46h-3.5V371.1z"/>
	<path class="st13" d="M181.45,376.83h3.27v2.95h0.23c0.52-1.36,2.14-2.98,4.54-2.98h1.49v3.3h-1.59c-2.88,0-4.54,2.17-4.54,5.31
		v8.36h-3.4V376.83z"/>
	<path class="st13" d="M207.5,385.32c0-3.37-2.27-5.8-5.48-5.8c-3.21,0-5.47,2.46-5.47,5.8c0,3.37,2.3,5.8,5.47,5.8
		C205.24,391.12,207.5,388.66,207.5,385.32z M193.08,385.32c0-5.09,3.76-8.91,8.98-8.91c5.22,0,8.91,3.86,8.91,8.91
		c0,5.05-3.76,8.88-8.94,8.88C196.81,394.2,193.08,390.41,193.08,385.32z"/>
	<path class="st13" d="M216.74,388.4v-8.78h-3.05v-2.75h2.24c0.58,0,1.01-0.42,1.01-1.1v-3.73h3.21v4.8h4.92v2.79h-4.92v8.68
		c0,1.62,0.68,2.59,2.46,2.59h2.3v2.88h-2.82C218.75,393.78,216.74,391.93,216.74,388.4z"/>
	<path class="st13" d="M241.3,383.77c-0.23-2.85-2.3-4.5-4.92-4.5c-2.59,0-4.73,1.85-4.99,4.5H241.3z M227.92,385.36
		c0-5.38,3.63-8.94,8.46-8.94c5.28,0,8.3,3.89,8.3,8.72v1.26h-13.35c0.13,2.95,2.11,4.96,5.22,4.96c2.14,0,3.99-1.04,4.67-2.69h3.3
		c-0.87,3.27-3.89,5.54-8.07,5.54C231.35,394.2,227.92,390.44,227.92,385.36z"/>
	<path class="st13" d="M247.59,385.32c0-5.02,3.63-8.91,8.78-8.91c4.02,0,7.42,2.46,8.2,6.35h-3.5c-0.58-1.94-2.43-3.24-4.66-3.24
		c-3.21,0-5.31,2.53-5.31,5.8c0,3.34,2.2,5.8,5.38,5.8c2.17,0,4.05-1.3,4.63-3.21h3.47c-0.75,3.89-4.18,6.29-8.16,6.29
		C251.15,394.2,247.59,390.31,247.59,385.32z"/>
	<path class="st13" d="M270.37,388.4v-8.78h-3.05v-2.75h2.24c0.58,0,1-0.42,1-1.1v-3.73h3.21v4.8h4.93v2.79h-4.93v8.68
		c0,1.62,0.68,2.59,2.46,2.59h2.3v2.88h-2.82C272.38,393.78,270.37,391.93,270.37,388.4z"/>
	<defs>
		<filter id="Adobe_OpacityMaskFilter" filterUnits="userSpaceOnUse" x="24.96" y="25.85" width="270.96" height="589.39">
			<feColorMatrix  type="matrix" values="1 0 0 0 0  0 1 0 0 0  0 0 1 0 0  0 0 0 1 0"/>
		</filter>
	</defs>
	<mask maskUnits="userSpaceOnUse" x="24.96" y="25.85" width="270.96" height="589.39" id="mask0_351_3873_1_">
		<path class="st14" d="M274.17,25.85H46.72c-12.02,0-21.76,9.74-21.76,21.76v545.88c0,12.02,9.74,21.76,21.76,21.76h227.45
			c12.02,0,21.76-9.74,21.76-21.76V47.6C295.92,35.59,286.18,25.85,274.17,25.85z"/>
	</mask>
	<g class="st15">
		<path class="st16" d="M274.17,25.85H46.72c-12.02,0-21.76,9.74-21.76,21.76v545.88c0,12.02,9.74,21.76,21.76,21.76h227.45
			c12.02,0,21.76-9.74,21.76-21.76V47.6C295.92,35.59,286.18,25.85,274.17,25.85z"/>
		<path class="st13" d="M87.83,570.28v-9.69h3.13c1.84,0,2.93,1.07,2.94,2.48c0,0.96-0.46,1.68-1.23,2.09v0.08
			c0.65,0.22,1.56,0.91,1.56,2.28c0,1.74-1.36,2.76-2.99,2.76H87.83z M88.94,564.78h1.98c1.09,0,1.83-0.65,1.83-1.63
			c0-0.96-0.75-1.56-1.79-1.56h-2.02V564.78z M88.94,569.29h2.1c1.15,0,2.02-0.55,2.02-1.8c0-1.27-1.03-1.77-2.15-1.77l-1.98,0
			V569.29z M99.22,570.46c-2.2,0-3.6-1.62-3.6-3.78c0-2.3,1.56-3.78,3.53-3.78c2.19,0,3.49,1.6,3.49,3.68v0.48l-5.87,0
			c0.06,1.44,0.98,2.39,2.46,2.4c0.95,0,1.87-0.46,2.2-1.3h1.14C102.17,569.5,100.91,570.46,99.22,570.46z M96.8,566.1h4.68
			c-0.1-1.44-1.11-2.2-2.33-2.2C97.94,563.9,96.91,564.77,96.8,566.1z M107.72,570.46c-2.17,0-3.7-1.65-3.7-3.78
			s1.56-3.78,3.68-3.78c1.56,0,3.02,0.94,3.41,2.55h-1.14c-0.29-0.94-1.2-1.55-2.24-1.55c-1.54,0-2.57,1.22-2.57,2.78
			c0,1.62,1.09,2.78,2.6,2.78c1.04,0,1.97-0.61,2.24-1.55h1.12C110.76,569.52,109.29,570.46,107.72,570.46z M116.11,570.46
			c-2.12,0-3.59-1.56-3.59-3.77c0-2.22,1.47-3.79,3.5-3.79c1.51,0,2.31,0.97,2.53,1.34l0.08,0v-1.16h1.09v7.2h-1.05l0-1.13h-0.08
			C118.42,569.41,117.67,570.46,116.11,570.46z M116.17,569.48c1.56,0,2.51-1.27,2.51-2.78c0-1.77-1.11-2.8-2.53-2.8
			c-1.48,0-2.51,1.16-2.51,2.8C113.64,568.38,114.66,569.48,116.17,569.48z M124.64,570.46c-1.68,0-2.69-1.26-2.69-2.85v-4.53
			l1.09,0v4.49c0,1.15,0.85,1.9,1.86,1.9c1.13,0,2.02-0.87,2.02-2.06v-4.32h1.09l0,7.2h-1.09v-1.05h-0.08
			C126.54,569.88,125.76,570.46,124.64,570.46z M132.75,570.46c-1.7,0-2.67-0.93-2.8-2.27h1.07c0.12,0.86,0.73,1.32,1.79,1.32
			c1.08,0,1.68-0.53,1.68-1.26c0-2.02-4.31-0.48-4.31-3.34c0-1.22,1.09-2.01,2.6-2.01c1.33,0,2.44,0.78,2.55,2.08h-1.05
			c-0.1-0.68-0.61-1.13-1.56-1.14c-0.9,0-1.48,0.44-1.48,1.07c0,1.83,4.32,0.3,4.32,3.28C135.54,569.54,134.42,570.46,132.75,570.46
			z M140.74,570.46c-2.2,0-3.6-1.62-3.6-3.78c0-2.3,1.56-3.78,3.53-3.78c2.19,0,3.49,1.61,3.49,3.68v0.48l-5.87,0
			c0.05,1.44,0.98,2.39,2.46,2.39c0.95,0,1.87-0.46,2.2-1.3h1.13C143.69,569.5,142.43,570.46,140.74,570.46z M138.32,566.1H143
			c-0.1-1.44-1.11-2.2-2.33-2.2C139.47,563.9,138.43,564.77,138.32,566.1z M149.86,573.46v-1h0.54c0.71,0,1.11-0.3,1.34-0.93
			l0.33-0.87l-2.92-7.59h1.22l2.23,6.09l0.08,0l2.24-6.09h1.23l-3.43,8.85c-0.37,0.98-0.94,1.54-2.12,1.54H149.86z M160.75,570.46
			c-2.16,0-3.75-1.59-3.75-3.78c0-2.17,1.62-3.78,3.77-3.78c2.17,0,3.75,1.62,3.75,3.78S162.91,570.46,160.75,570.46z
			 M160.75,569.46c1.55,0,2.64-1.18,2.64-2.78c0-1.59-1.09-2.78-2.64-2.78c-1.55,0-2.63,1.2-2.63,2.78
			C158.12,568.3,159.22,569.46,160.75,569.46z M169,570.46c-1.68,0-2.69-1.26-2.69-2.85v-4.53h1.09v4.49c0,1.15,0.85,1.9,1.86,1.9
			c1.13,0,2.02-0.87,2.02-2.06v-4.32h1.09v7.2l-1.09,0v-1.05l-0.08,0C170.89,569.88,170.12,570.46,169,570.46z M174.73,570.28v-7.2
			h1.08v1.34h0.08c0.21-0.61,0.91-1.34,1.97-1.34h0.61v1.09h-0.59c-1.32,0-2.05,1.03-2.05,2.4v3.71H174.73z M183.82,573.46v-10.49
			h2.12l0,0.82h0.11c0.21-0.33,0.82-1,2.04-1c1.99,0,3.36,1.5,3.36,3.79c0,2.3-1.34,3.88-3.31,3.88c-1.19,0-1.83-0.61-2.06-1.01
			h-0.11v4.01L183.82,573.46z M187.6,568.52c1,0,1.68-0.78,1.68-1.9c0-1.15-0.68-1.9-1.68-1.9c-1.02,0-1.68,0.8-1.68,1.9
			C185.92,567.79,186.61,568.52,187.6,568.52z M192.86,570.28v-7.31l2.02,0v1.11h0.11c0.25-0.54,0.9-1.16,1.88-1.16h0.71l0,2.02
			h-0.85c-1.05,0-1.73,0.76-1.73,2.02v3.32H192.86z M200.07,562.15c-0.73,0-1.26-0.44-1.26-1.16c0-0.72,0.53-1.16,1.26-1.16
			c0.73,0,1.26,0.44,1.26,1.16C201.33,561.71,200.8,562.15,200.07,562.15z M199,570.28v-7.31h2.15l0,7.31H199z M204.62,570.28
			l-2.59-7.31h2.23l1.52,4.76h0.11l1.52-4.76h2.26l-2.57,7.31H204.62z M213.39,570.46c-2.01,0-3.38-1.49-3.38-3.79
			c0-2.3,1.36-3.88,3.32-3.88c1.15,0,1.81,0.62,2.06,1.01h0.11v-0.83l2.15,0v7.31h-2.13v-0.83h-0.11
			C215.2,569.78,214.59,570.46,213.39,570.46z M213.87,568.52c1.02,0,1.68-0.82,1.68-1.9c0-1.16-0.71-1.9-1.69-1.9
			c-1,0-1.67,0.77-1.68,1.9C212.18,567.76,212.86,568.52,213.87,568.52z M222.69,570.46c-2.35,0-3.88-1.69-3.88-3.84
			c0-2.16,1.51-3.83,3.86-3.83c2.04,0,3.49,1.23,3.7,3.02h-2.17c-0.19-0.62-0.75-1.08-1.51-1.08c-1.05,0-1.7,0.85-1.7,1.9
			c0,1.07,0.68,1.9,1.72,1.9c0.72,0,1.29-0.41,1.47-1h2.19C226.12,569.25,224.7,570.46,222.69,570.46z M227.57,573.46v-1.9l0.84,0
			c0.58,0,0.91-0.32,1.11-0.8l0.12-0.35l-2.89-7.45H229l1.61,4.64h0.11l1.52-4.64h2.27l-3.1,8.36c-0.5,1.34-1.33,2.13-2.87,2.13
			H227.57z M99.75,587.09v-7.2h1.09v1.04h0.08c0.35-0.66,1.04-1.22,2.1-1.22c1.08,0,1.87,0.53,2.27,1.32h0.1
			c0.49-0.93,1.27-1.32,2.28-1.32c1.61,0,2.65,1.14,2.65,2.71v4.67l-1.09,0v-4.31c0-1.36-0.68-2.05-1.74-2.05
			c-1.01,0-1.9,0.72-1.9,2.06l0,4.29l-1.09,0v-4.51c0-1.15-0.77-1.84-1.79-1.84c-1.01,0-1.87,0.8-1.87,2.02v4.33L99.75,587.09z
			 M115.71,587.27c-2.12,0-3.59-1.56-3.59-3.77c0-2.21,1.47-3.79,3.5-3.79c1.51,0,2.31,0.97,2.53,1.34h0.08l0-1.16h1.09v7.2l-1.05,0
			v-1.13h-0.08C118.02,586.22,117.27,587.27,115.71,587.27z M115.77,586.29c1.56,0,2.51-1.27,2.51-2.78c0-1.77-1.11-2.8-2.53-2.8
			c-1.48,0-2.51,1.16-2.51,2.8C113.24,585.19,114.27,586.29,115.77,586.29z M124.5,587.09c-1.33,0-2.15-0.72-2.15-2.17v-4.1H121
			v-0.93h1.08c0.19,0,0.35-0.12,0.35-0.36l0-1.73h1.02v2.09h2.21v0.93h-2.21v4.08c0,0.78,0.29,1.23,1.12,1.23h1v0.96H124.5z
			 M130.41,587.09c-1.33,0-2.15-0.72-2.15-2.17v-4.1l-1.36,0l0-0.93h1.08c0.19,0,0.35-0.13,0.35-0.36v-1.73h1.02v2.09h2.21v0.93
			h-2.21v4.09c0,0.77,0.29,1.23,1.12,1.23h1l0,0.95H130.41z M136.55,587.27c-2.2,0-3.6-1.62-3.6-3.78c0-2.3,1.56-3.78,3.53-3.78
			c2.19,0,3.49,1.61,3.49,3.68l0,0.48h-5.87c0.06,1.44,0.98,2.4,2.46,2.4c0.96,0,1.87-0.46,2.2-1.3h1.13
			C139.5,586.31,138.24,587.27,136.55,587.27z M134.13,582.91h4.68c-0.1-1.44-1.11-2.2-2.33-2.2
			C135.28,580.71,134.24,581.58,134.13,582.91z M141.92,587.09v-7.2l1.08,0v1.34l0.08,0c0.21-0.61,0.91-1.34,1.97-1.34h0.61v1.09
			h-0.59c-1.32,0-2.05,1.02-2.05,2.4v3.71L141.92,587.09z M149.84,587.27c-1.7,0-2.67-0.93-2.8-2.27h1.07
			c0.12,0.86,0.73,1.32,1.79,1.32c1.08,0,1.68-0.53,1.68-1.26c0-2.02-4.31-0.48-4.31-3.34c0-1.22,1.09-2.01,2.6-2.01
			c1.33,0,2.44,0.77,2.55,2.08h-1.05c-0.1-0.68-0.61-1.14-1.56-1.14c-0.9,0-1.48,0.44-1.48,1.07c0,1.83,4.32,0.3,4.32,3.28
			C152.64,586.36,151.52,587.27,149.84,587.27z M161.48,587.09c-1.33,0-2.15-0.72-2.15-2.17v-4.1h-1.36v-0.93h1.08
			c0.19,0,0.35-0.12,0.35-0.36l0-1.73h1.03l0,2.09h2.22v0.93l-2.21,0l0,4.09c0,0.77,0.29,1.23,1.12,1.23h1v0.95L161.48,587.09z
			 M164.58,587.09v-10.38h1.09v4.24l0.08,0c0.3-0.65,1.11-1.23,2.23-1.23c1.68,0,2.71,1.26,2.71,2.85v4.53h-1.09v-4.46
			c0-1.15-0.87-1.9-1.88-1.9c-1.11,0-2.05,0.82-2.05,1.98v4.37L164.58,587.09z M176.1,587.27c-2.2,0-3.6-1.62-3.6-3.78
			c0-2.3,1.56-3.78,3.53-3.78c2.19,0,3.49,1.61,3.49,3.68v0.48h-5.87c0.06,1.44,0.98,2.39,2.46,2.39c0.95,0,1.87-0.46,2.2-1.3
			l1.13,0C179.05,586.31,177.79,587.27,176.1,587.27z M173.68,582.91h4.68c-0.1-1.44-1.11-2.2-2.33-2.2
			C174.83,580.71,173.79,581.58,173.68,582.91z M185.35,587.09v-7.2h1.09l0,1.04h0.08c0.35-0.66,1.04-1.22,2.1-1.22
			c1.08,0,1.87,0.53,2.27,1.31h0.1c0.48-0.93,1.27-1.31,2.28-1.31c1.61,0,2.64,1.14,2.64,2.71v4.67h-1.09v-4.31
			c0-1.36-0.68-2.05-1.74-2.05c-1.01,0-1.9,0.72-1.9,2.06v4.29h-1.09v-4.51c0-1.15-0.78-1.84-1.79-1.84c-1.01,0-1.87,0.8-1.87,2.02
			v4.33H185.35z M201.47,587.27c-2.16,0-3.75-1.59-3.75-3.78c0-2.17,1.62-3.78,3.77-3.78c2.17,0,3.75,1.62,3.75,3.78
			C205.24,585.65,203.63,587.27,201.47,587.27z M201.47,586.27c1.55,0,2.64-1.18,2.65-2.78c0-1.59-1.09-2.78-2.65-2.78
			c-1.55,0-2.63,1.2-2.63,2.78C198.84,585.11,199.93,586.27,201.47,586.27z M209.55,587.27c-1.7,0-2.67-0.93-2.8-2.27h1.07
			c0.12,0.86,0.73,1.32,1.79,1.32c1.08,0,1.68-0.53,1.68-1.26c0-2.02-4.31-0.48-4.31-3.34c0-1.22,1.09-2.01,2.6-2.01
			c1.33,0,2.44,0.77,2.55,2.08h-1.05c-0.1-0.68-0.61-1.14-1.56-1.14c-0.9,0-1.48,0.44-1.48,1.07c0,1.83,4.32,0.3,4.32,3.28
			C212.35,586.36,211.22,587.27,209.55,587.27z M217.31,587.09c-1.33,0-2.15-0.72-2.15-2.17v-4.1h-1.36v-0.93h1.08
			c0.19,0,0.35-0.12,0.35-0.36l0-1.73h1.02v2.09h2.21v0.93h-2.21v4.08c0,0.78,0.29,1.23,1.12,1.23h1v0.96H217.31z M220.78,587.27
			c-0.43,0-0.79-0.35-0.79-0.77s0.36-0.78,0.79-0.78c0.43,0,0.77,0.35,0.77,0.78S221.21,587.27,220.78,587.27z"/>
	</g>
</g>
</svg>
