<svg width="570" height="421" viewBox="0 0 570 421" fill="none" xmlns="http://www.w3.org/2000/svg">
<rect opacity="0.7" x="108" y="39" width="354" height="468" rx="37.4" stroke="#4364FA" stroke-width="2"/>
<rect opacity="0.4" x="55" y="103" width="460" height="404" rx="37.4" stroke="#4364FA" stroke-width="2"/>
<rect opacity="0.1" x="1" y="166" width="568" height="346" rx="37.4" stroke="#4364FA" stroke-width="2"/>
<rect x="132" width="305.287" height="626.5" rx="40.5562" fill="black"/>
<g filter="url(#filter0_f_303_1414)">
<path d="M135.29 39.9424C135.29 19.2317 152.079 2.44238 172.79 2.44238H396.251C417.514 2.44238 434.751 19.6794 434.751 40.9424V586.318C434.751 607.305 417.737 624.318 396.751 624.318H171.29C151.408 624.318 135.29 608.2 135.29 588.318V39.9424Z" stroke="white" stroke-opacity="0.5" stroke-width="0.25"/>
</g>
<g filter="url(#filter1_f_303_1414)">
<path d="M137.539 40.1924C137.539 20.7243 153.321 4.94238 172.789 4.94238H396.25C415.994 4.94238 432 20.9482 432 40.6924V586.569C432 606.451 415.882 622.569 396 622.569H172.039C152.985 622.569 137.539 607.123 137.539 588.069V40.1924Z" fill="black"/>
<path d="M137.539 40.1924C137.539 20.7243 153.321 4.94238 172.789 4.94238H396.25C415.994 4.94238 432 20.9482 432 40.6924V586.569C432 606.451 415.882 622.569 396 622.569H172.039C152.985 622.569 137.539 607.123 137.539 588.069V40.1924Z" fill="url(#paint0_angular_303_1414)"/>
</g>
<g filter="url(#filter2_f_303_1414)">
<path d="M137.79 40.6924C137.79 21.2243 153.572 5.44238 173.04 5.44238H396.001C415.745 5.44238 431.751 21.4482 431.751 41.1924V586.069C431.751 605.951 415.634 622.069 395.751 622.069H172.29C153.236 622.069 137.79 606.623 137.79 587.569V40.6924Z" fill="url(#paint1_angular_303_1414)"/>
</g>
<path d="M142.289 40.4413C142.289 23.3205 156.168 9.44141 173.289 9.44141H397.002C413.708 9.44141 427.251 22.9848 427.251 39.6914V587.069C427.251 604.328 413.26 618.319 396.001 618.319H168.789C154.153 618.319 142.289 606.455 142.289 591.819V40.4413Z" fill="black"/>
<mask id="mask0_303_1414" style="mask-type:alpha" maskUnits="userSpaceOnUse" x="148" y="16" width="274" height="596">
<rect x="148" y="16" width="274" height="596" rx="22" fill="#D9D9D9"/>
</mask>
<g mask="url(#mask0_303_1414)">
<rect x="148" y="16" width="274" height="596" rx="22" fill="#F7F6FC"/>
<path fill-rule="evenodd" clip-rule="evenodd" d="M228.83 383.952V368H231.611V383.795C231.611 384.515 231.983 384.903 232.668 384.903H233.251V387.297H232.111C230.019 387.297 228.827 386.062 228.827 383.952H228.83ZM185 381.766H187.781C187.807 383.62 189.368 385.085 191.938 385.085C194.508 385.085 195.618 384.109 195.618 382.486C195.618 380.298 193.584 379.824 191.347 379.303C188.615 378.666 185.579 377.959 185.579 373.969C185.579 371.447 187.86 368.95 191.78 368.95C195.701 368.95 198.082 370.595 198.135 374.353H195.249C195.249 372.577 194.004 371.447 191.754 371.447C189.504 371.447 188.416 372.631 188.416 373.918C188.416 375.812 190.343 376.261 192.518 376.767C195.332 377.422 198.56 378.174 198.56 382.282C198.56 385.085 196.096 387.633 191.833 387.633C187.57 387.633 185 385.239 185 381.766ZM203.245 383.024V376.053H200.754V373.867H202.583C203.061 373.867 203.403 373.531 203.403 372.993V370.033H206.025V373.842H210.051V376.053H206.025V382.947C206.025 384.234 206.582 385.005 208.038 385.005H209.92V387.294H207.617C204.889 387.294 203.249 385.828 203.249 383.024H203.245ZM219.296 373.509C215.349 373.509 212.384 376.338 212.384 380.608H212.388C212.388 384.651 215.94 387.633 219.352 387.633C222.765 387.633 225.229 385.831 225.944 383.232H223.243C222.686 384.545 221.967 385.367 219.428 385.367C216.888 385.367 215.27 383.773 215.164 381.43H226.076V380.429C226.076 376.598 223.243 373.509 219.296 373.509ZM219.296 375.771C221.44 375.771 223.137 377.084 223.322 379.347H215.217C215.428 377.237 217.151 375.771 219.296 375.771ZM236.404 368V383.952C236.404 386.062 237.597 387.297 239.689 387.297H240.829V384.903H240.246C239.557 384.903 239.185 384.515 239.185 383.795V368H236.404ZM242.944 380.608C242.944 376.44 245.672 373.509 249.54 373.509C252.883 373.509 253.494 374.7 253.89 375.471C253.952 375.592 254.008 375.703 254.07 375.797H254.254V373.841H257.035V387.297H254.307V385.393H254.149C253.776 385.908 252.425 387.63 249.675 387.63C245.702 387.63 242.948 384.775 242.948 380.604L242.944 380.608ZM254.333 380.582C254.333 377.676 252.478 375.976 250.044 375.976C247.609 375.976 245.781 377.881 245.781 380.582C245.781 383.283 247.53 385.188 250.07 385.188C252.61 385.188 254.333 383.13 254.333 380.582ZM263.709 373.841H261.034V387.301H263.815V380.662C263.815 378.169 265.165 376.444 267.521 376.444H268.819V373.819H267.6C265.643 373.819 264.319 375.102 263.894 376.184H263.709V373.841ZM278.086 381.766H280.867C280.893 383.62 282.455 385.086 285.024 385.086C287.594 385.086 288.704 384.109 288.704 382.486C288.704 380.298 286.671 379.824 284.435 379.303C281.704 378.667 278.669 377.959 278.669 373.969C278.669 371.451 280.946 368.954 284.866 368.954C288.787 368.954 291.169 370.599 291.221 374.357H288.336C288.336 372.58 287.09 371.451 284.84 371.451C282.59 371.451 281.503 372.635 281.503 373.922C281.503 375.816 283.43 376.265 285.604 376.771C288.418 377.426 291.647 378.178 291.647 382.285C291.647 385.086 289.182 387.637 284.919 387.637C280.656 387.637 278.086 385.243 278.086 381.77V381.766ZM300.918 373.509C296.971 373.509 294.006 376.338 294.006 380.608C294.006 384.651 297.554 387.633 300.97 387.633C304.387 387.633 306.851 385.831 307.566 383.232H304.865C304.308 384.545 303.593 385.367 301.049 385.367C298.506 385.367 296.892 383.773 296.786 381.43H307.698V380.429C307.698 376.598 304.865 373.509 300.918 373.509ZM300.918 375.771C303.062 375.771 304.759 377.084 304.944 379.347H296.839C297.05 377.237 298.773 375.771 300.918 375.771ZM310.08 380.582C310.08 376.594 313.044 373.505 317.255 373.505C321.465 373.505 323.32 375.461 323.956 378.546H321.096C320.619 377.003 319.11 375.972 317.281 375.972C314.659 375.972 312.939 377.979 312.939 380.578C312.939 383.177 314.741 385.184 317.334 385.184C319.926 385.184 320.645 384.157 321.119 382.636H323.952C323.343 385.725 320.536 387.626 317.277 387.626C314.019 387.626 310.076 384.537 310.076 380.575L310.08 380.582ZM327.135 373.841V382.483C327.135 385.392 329.065 387.63 332.218 387.63C334.284 387.63 335.714 386.602 336.271 385.495H336.455V387.297H339.157V373.841H336.376V381.741C336.376 383.696 334.758 385.137 333.012 385.137C331.267 385.137 329.916 383.901 329.916 381.997V373.841H327.135ZM343.235 373.841H345.911V376.184H346.095C346.52 375.102 347.845 373.819 349.801 373.819H351.02V376.444H349.722C347.367 376.444 346.016 378.169 346.016 380.662V387.301H343.235V373.841ZM355.633 368.307C354.572 368.307 353.805 369.031 353.805 370.007C353.805 371.038 354.546 371.732 355.633 371.732C356.721 371.732 357.488 370.987 357.488 370.007C357.488 369.027 356.694 368.307 355.633 368.307ZM357.01 373.841H354.23V387.297H357.01V373.841ZM362.357 383.024V376.053H359.866V373.867H361.695C362.172 373.867 362.515 373.531 362.515 372.993V370.033H365.137V373.842H369.163V376.053H365.137V382.947C365.137 384.234 365.694 385.005 367.15 385.005H369.032V387.294H366.729C364.001 387.294 362.36 385.828 362.36 383.024H362.357ZM373.746 390.795H372.527V393.215H374.089C376.579 393.215 377.851 392.031 378.645 389.973L385 373.841H381.956L378.141 384.237H377.956L374.115 373.841H371.097L376.685 387.864L376.181 389.15C375.759 390.229 375.018 390.795 373.746 390.795Z" fill="#0B1319"/>
<rect x="215" y="200" width="140" height="140" rx="16" fill="#F7F6FC"/>
<path d="M260 200H231C222.163 200 215 207.163 215 216V245" stroke="#0B1319" stroke-width="2"/>
<path d="M310 340L339 340C347.837 340 355 332.837 355 324L355 295" stroke="#0B1319" stroke-width="2"/>
<path d="M355 245L355 216C355 207.163 347.837 200 339 200L310 200" stroke="#0B1319" stroke-width="2"/>
<path d="M215 295L215 324C215 332.837 222.163 340 231 340L260 340" stroke="#0B1319" stroke-width="2"/>
<path fill-rule="evenodd" clip-rule="evenodd" d="M288.991 222.562L253.631 262.239H282.299L247.457 301.57L233.512 262.239V222.562H285.235H288.991ZM247.457 301.57L325.128 250.064L296.46 250.452L321.328 222.562H336.958V262.239L323.055 301.57L285.235 321.43L247.457 301.57Z" fill="#4364FA"/>
</g>
<ellipse cx="165.993" cy="34.1427" rx="9.45487" ry="9.45422" fill="black"/>
<ellipse cx="165.911" cy="34.0616" rx="7.12406" ry="7.12357" fill="#0A0A0A"/>
<ellipse cx="165.911" cy="34.0616" rx="7.12406" ry="7.12357" fill="url(#paint2_radial_303_1414)"/>
<g filter="url(#filter3_i_303_1414)">
<ellipse cx="2.94578" cy="2.94594" rx="2.94578" ry="2.94594" transform="matrix(-0.323349 -0.94628 0.946293 -0.323309 164.287 37.9358)" fill="black"/>
<ellipse cx="2.94578" cy="2.94594" rx="2.94578" ry="2.94594" transform="matrix(-0.323349 -0.94628 0.946293 -0.323309 164.287 37.9358)" fill="url(#paint3_angular_303_1414)"/>
<ellipse cx="2.94578" cy="2.94594" rx="2.94578" ry="2.94594" transform="matrix(-0.323349 -0.94628 0.946293 -0.323309 164.287 37.9358)" fill="url(#paint4_radial_303_1414)"/>
</g>
<g filter="url(#filter4_f_303_1414)">
<ellipse cx="167.037" cy="33.6864" rx="0.75" ry="0.749851" fill="#BA7FD6"/>
</g>
<path d="M147.496 39.9924C147.746 32.3689 152.946 16.857 171.743 15.7572C162.994 14.8824 145.897 18.4967 147.496 39.9924Z" fill="black"/>
<path d="M393.464 15.7472C404.463 15.7472 421.96 19.8714 421.96 42.4918C423.835 30.8692 420.76 9.24851 393.464 15.7472Z" fill="#020203"/>
<path d="M437.251 149.913H437.751C438.441 149.913 439.001 150.473 439.001 151.163V192.904C439.001 193.595 438.441 194.154 437.751 194.154H437.251V149.913Z" fill="black"/>
<path d="M437.251 149.913H437.751C438.441 149.913 439.001 150.473 439.001 151.163V192.904C439.001 193.595 438.441 194.154 437.751 194.154H437.251V149.913Z" fill="url(#paint5_linear_303_1414)"/>
<path d="M437.251 236.896H437.751C438.441 236.896 439.001 237.455 439.001 238.146V321.128C439.001 321.819 438.441 322.378 437.751 322.378H437.251V236.896Z" fill="black"/>
<defs>
<filter id="filter0_f_303_1414" x="134.165" y="1.31738" width="301.711" height="624.125" filterUnits="userSpaceOnUse" color-interpolation-filters="sRGB">
<feFlood flood-opacity="0" result="BackgroundImageFix"/>
<feBlend mode="normal" in="SourceGraphic" in2="BackgroundImageFix" result="shape"/>
<feGaussianBlur stdDeviation="0.5" result="effect1_foregroundBlur_303_1414"/>
</filter>
<filter id="filter1_f_303_1414" x="137.039" y="4.44238" width="295.461" height="618.626" filterUnits="userSpaceOnUse" color-interpolation-filters="sRGB">
<feFlood flood-opacity="0" result="BackgroundImageFix"/>
<feBlend mode="normal" in="SourceGraphic" in2="BackgroundImageFix" result="shape"/>
<feGaussianBlur stdDeviation="0.25" result="effect1_foregroundBlur_303_1414"/>
</filter>
<filter id="filter2_f_303_1414" x="137.29" y="4.94238" width="294.961" height="617.627" filterUnits="userSpaceOnUse" color-interpolation-filters="sRGB">
<feFlood flood-opacity="0" result="BackgroundImageFix"/>
<feBlend mode="normal" in="SourceGraphic" in2="BackgroundImageFix" result="shape"/>
<feGaussianBlur stdDeviation="0.25" result="effect1_foregroundBlur_303_1414"/>
</filter>
<filter id="filter3_i_303_1414" x="163.176" y="31.2493" width="5.89355" height="5.89307" filterUnits="userSpaceOnUse" color-interpolation-filters="sRGB">
<feFlood flood-opacity="0" result="BackgroundImageFix"/>
<feBlend mode="normal" in="SourceGraphic" in2="BackgroundImageFix" result="shape"/>
<feColorMatrix in="SourceAlpha" type="matrix" values="0 0 0 0 0 0 0 0 0 0 0 0 0 0 0 0 0 0 127 0" result="hardAlpha"/>
<feMorphology radius="0.25" operator="erode" in="SourceAlpha" result="effect1_innerShadow_303_1414"/>
<feOffset/>
<feGaussianBlur stdDeviation="0.375"/>
<feComposite in2="hardAlpha" operator="arithmetic" k2="-1" k3="1"/>
<feColorMatrix type="matrix" values="0 0 0 0 0 0 0 0 0 0 0 0 0 0 0 0 0 0 1 0"/>
<feBlend mode="normal" in2="shape" result="effect1_innerShadow_303_1414"/>
</filter>
<filter id="filter4_f_303_1414" x="165.287" y="31.9365" width="3.5" height="3.49976" filterUnits="userSpaceOnUse" color-interpolation-filters="sRGB">
<feFlood flood-opacity="0" result="BackgroundImageFix"/>
<feBlend mode="normal" in="SourceGraphic" in2="BackgroundImageFix" result="shape"/>
<feGaussianBlur stdDeviation="0.5" result="effect1_foregroundBlur_303_1414"/>
</filter>
<radialGradient id="paint0_angular_303_1414" cx="0" cy="0" r="1" gradientUnits="userSpaceOnUse" gradientTransform="translate(284.77 313.756) rotate(90) scale(308.813 147.231)">
<stop offset="0.00370279"/>
<stop offset="0.0860873"/>
<stop offset="0.142579"/>
<stop offset="0.551797" stop-color="#898686"/>
<stop offset="0.597149"/>
<stop offset="0.62222"/>
<stop offset="0.635363"/>
<stop offset="0.644459" stop-color="#898686"/>
<stop offset="0.86974" stop-color="#1C1C1C"/>
<stop offset="0.875025"/>
</radialGradient>
<radialGradient id="paint1_angular_303_1414" cx="0" cy="0" r="1" gradientUnits="userSpaceOnUse" gradientTransform="translate(284.771 313.756) rotate(90) scale(308.313 165.875)">
<stop offset="0.000303672" stop-color="#4A4A4A"/>
<stop offset="0.0904875" stop-color="#404040"/>
<stop offset="0.111563"/>
<stop offset="0.136566" stop-color="#404040"/>
<stop offset="0.404505" stop-color="#848484"/>
<stop offset="0.596482" stop-color="#5E5E5E"/>
<stop offset="0.607769"/>
<stop offset="0.614698"/>
<stop offset="0.626401" stop-color="#535353"/>
<stop offset="0.872212" stop-color="#585858"/>
<stop offset="0.886458"/>
<stop offset="0.902914" stop-color="#575757"/>
</radialGradient>
<radialGradient id="paint2_radial_303_1414" cx="0" cy="0" r="1" gradientUnits="userSpaceOnUse" gradientTransform="translate(165.911 34.0616) rotate(90) scale(7.12357 7.12406)">
<stop offset="0.552083" stop-opacity="0"/>
<stop offset="0.666667" stop-color="#5B5B5B" stop-opacity="0.21"/>
<stop offset="0.708333" stop-opacity="0"/>
</radialGradient>
<radialGradient id="paint3_angular_303_1414" cx="0" cy="0" r="1" gradientUnits="userSpaceOnUse" gradientTransform="translate(2.94578 2.94596) rotate(89.9999) scale(2.94593 2.78517)">
<stop offset="0.109898" stop-opacity="0.718268"/>
<stop offset="0.266542" stop-color="#6777CA"/>
<stop offset="0.473888" stop-color="#6C86CA"/>
<stop offset="0.665391" stop-color="#5583C7"/>
<stop offset="0.865938" stop-opacity="0.718268"/>
<stop offset="1" stop-color="#5351BA" stop-opacity="0"/>
</radialGradient>
<radialGradient id="paint4_radial_303_1414" cx="0" cy="0" r="1" gradientUnits="userSpaceOnUse" gradientTransform="translate(2.94578 2.94594) rotate(90) scale(2.94594 2.94578)">
<stop offset="0.0520833"/>
<stop offset="0.671875" stop-color="#767676" stop-opacity="0"/>
</radialGradient>
<linearGradient id="paint5_linear_303_1414" x1="438.126" y1="149.913" x2="438.126" y2="194.154" gradientUnits="userSpaceOnUse">
<stop stop-color="#353535"/>
<stop offset="0.0416667" stop-color="#AEAEAE"/>
<stop offset="0.104167" stop-color="#49494A"/>
<stop offset="0.677083" stop-color="#49494A"/>
<stop offset="0.901042" stop-color="#787879" stop-opacity="0.435484"/>
<stop offset="1" stop-opacity="0"/>
</linearGradient>
</defs>
</svg>
