<svg width="18" height="23" viewBox="0 0 18 23" fill="none" xmlns="http://www.w3.org/2000/svg">
<path fill-rule="evenodd" clip-rule="evenodd" d="M2.6 9.7C2.6 9.36863 2.86863 9.1 3.2 9.1H10.9V19.9H2.6V9.7ZM3.4 9.9V19.1H10.1V9.9H3.4Z" fill="#4364FA"/>
<path fill-rule="evenodd" clip-rule="evenodd" d="M14.5 9.9C14.5552 9.9 14.6 9.94477 14.6 10V13.1H12.4V9.9H14.5ZM15.4 10C15.4 9.50294 14.9971 9.1 14.5 9.1H11.6V13.9H15.4V10Z" fill="#4364FA"/>
<path fill-rule="evenodd" clip-rule="evenodd" d="M14.6 19C14.6 19.0552 14.5552 19.1 14.5 19.1H12.4V18.4H14.6V19ZM14.5 19.9C14.9971 19.9 15.4 19.4971 15.4 19V17.6H11.6V19.9H14.5Z" fill="#4364FA"/>
<path fill-rule="evenodd" clip-rule="evenodd" d="M15.4 16.9V14.6H11.6V16.9H15.4ZM14.6 16.1H12.4V15.4H14.6V16.1Z" fill="#4364FA"/>
<path fill-rule="evenodd" clip-rule="evenodd" d="M2.5 21.9999H15.5C16.0523 21.9999 16.5 21.5522 16.5 20.9999V5.76758L11.529 1H2.5C1.94771 1 1.5 1.44771 1.5 2V20.9999C1.5 21.5522 1.94772 21.9999 2.5 21.9999ZM11.931 0H2.5C1.39543 0 0.5 0.895428 0.5 2V20.9999C0.5 22.1045 1.39543 22.9999 2.5 22.9999H15.5C16.6046 22.9999 17.5 22.1045 17.5 20.9999V5.34108L11.931 0Z" fill="#4364FA"/>
<path fill-rule="evenodd" clip-rule="evenodd" d="M6.7783 10.6H9.74741L7.74741 13.6H9.96569L4.78284 18.7828L4.13234 18.3424L5.39338 15.4H3.7783L6.7783 10.6ZM7.2217 11.4L5.2217 14.6H6.60662L5.68584 16.7485L8.03432 14.4H6.25259L8.25259 11.4H7.2217Z" fill="#4364FA"/>
</svg>
