<svg width="19" height="22" viewBox="0 0 19 22" fill="none" xmlns="http://www.w3.org/2000/svg">
<g clip-path="url(#clip0_495_1141)">
<path d="M12.129 8.02841V6.41494C12.129 5.22473 10.9946 4.26028 9.49954 4.26028C8.00451 4.26028 6.79187 5.2251 6.79187 6.41494L6.79176 8.02841H12.6169M3.44698 9.26983L1.5 10.9635V18.7949L4.35364 21.6482H14.6464L17.5 18.7949V10.9635L15.5909 9.26983V6.83591C15.5909 3.47155 12.864 0.791257 9.49923 0.791257C6.13451 0.791257 3.44698 3.47116 3.44698 6.83589V9.26983Z" stroke="#4364FA" stroke-miterlimit="10"/>
<path d="M8.6414 14.517L5.5 18.5L12.5 13.2841L9.91593 13.3238L12.156 10.5H9.2433L6.05733 14.517H8.6414Z" stroke="#4364FA" stroke-width="0.8" stroke-miterlimit="10"/>
</g>
<defs>
<clipPath id="clip0_495_1141">
<rect width="19" height="22" fill="white"/>
</clipPath>
</defs>
</svg>
