<svg width="47" height="47" viewBox="0 0 47 47" fill="none" xmlns="http://www.w3.org/2000/svg">
<rect x="1" y="1" width="45" height="45" rx="8" fill="#F7F6FC"/>
<path d="M15.4643 1H9C4.58172 1 1 4.58172 1 9V15.4643" stroke="#0B1319" stroke-width="2"/>
<path d="M31.5357 46L38 46C42.4183 46 46 42.4183 46 38L46 31.5357" stroke="#0B1319" stroke-width="2"/>
<path d="M46 15.4643L46 9C46 4.58172 42.4183 1 38 1L31.5357 0.999999" stroke="#0B1319" stroke-width="2"/>
<path d="M1 31.5357L1 38C1 42.4183 4.58172 46 9 46L15.4643 46" stroke="#0B1319" stroke-width="2"/>
<path fill-rule="evenodd" clip-rule="evenodd" d="M35.9664 38.5102H16.2006C15.3894 38.5102 14.6518 37.8397 14.6518 37.0948V26.8894L13.103 25.1016V37.0948C13.103 38.6591 14.4306 39.9255 16.1269 39.9255H35.8926C37.5889 39.9255 38.9165 38.6591 38.9165 37.0948V14.6727L30.8037 7.29797L30.5087 7H16.2006C14.5043 7 13.1768 8.26637 13.1768 9.8307V13.1828L14.7256 14.9707V9.8307C14.7256 9.01129 15.3894 8.41535 16.2744 8.41535H29.4024V15.0451C29.4024 16.386 29.9186 16.833 30.5824 16.833H37.5152V37.0948C37.5152 37.9142 36.8514 38.5102 35.9664 38.5102ZM32.5737 15.2686H37.4414C37.4414 15.2686 33.385 11.395 30.8037 9.08578V14.5237C30.8037 15.1941 31.1724 15.2686 32.5737 15.2686ZM10.079 18.0993L6.98141 14.3002L6.90765 14.2257C6.68639 13.9278 6.61264 13.6298 6.68639 13.2573C6.8339 12.8849 7.05516 12.4379 7.42392 12.1399C7.79269 11.842 8.2352 11.6185 8.60397 11.6185C8.89898 11.544 9.26774 11.693 9.56275 12.0655L12.6604 15.8645L10.079 18.0993ZM11.2591 19.4402L13.8404 17.2054L23.5758 28.9752L20.9944 31.2099L11.2591 19.4402ZM22.4695 32.1783L24.3133 30.614L24.9771 33.2957L22.4695 32.1783ZM10.8165 11.0226C10.1528 10.2032 9.41525 9.97967 8.53021 9.97967C7.64518 10.0542 6.90765 10.4266 6.31763 10.9481C5.72761 11.4695 5.21134 12.1399 5.06383 12.9594C4.91633 13.7788 4.99008 14.6727 5.65386 15.4176L20.2569 33.0722L27.4109 36.3499L26.9856 34.7111H33.5325V32.9977H26.5409L25.6323 29.4966H33.6062V27.7833H24.6802L21.8459 24.3567H33.5325V22.6433H20.4287L10.8165 11.0226Z" fill="#4364FA"/>
<path d="M14.6518 26.8894H14.9018V26.7962L14.8408 26.7257L14.6518 26.8894ZM13.103 25.1016L13.292 24.9379L12.853 24.4312V25.1016H13.103ZM38.9165 14.6727H39.1665V14.5621L39.0846 14.4877L38.9165 14.6727ZM30.8037 7.29797L30.6258 7.47411L30.6355 7.48296L30.8037 7.29797ZM30.5087 7L30.6863 6.82411L30.613 6.75H30.5087V7ZM13.1768 13.1828H12.9268V13.2761L12.9878 13.3465L13.1768 13.1828ZM14.7256 14.9707L14.5366 15.1343L14.9756 15.641V14.9707H14.7256ZM29.4024 8.41535H29.6524V8.16535H29.4024V8.41535ZM37.5152 16.833H37.7652V16.583H37.5152V16.833ZM37.4414 15.2686V15.5186H38.0652L37.6141 15.0878L37.4414 15.2686ZM30.8037 9.08578L30.9704 8.89946L30.5537 8.52669V9.08578H30.8037ZM6.98141 14.3002L7.17516 14.1422L7.16754 14.1329L7.15906 14.1243L6.98141 14.3002ZM10.079 18.0993L9.88526 18.2573L10.048 18.4569L10.2427 18.2883L10.079 18.0993ZM6.90765 14.2257L6.70694 14.3748L6.71751 14.389L6.73 14.4016L6.90765 14.2257ZM6.68639 13.2573L6.45396 13.1653L6.44558 13.1864L6.44116 13.2088L6.68639 13.2573ZM7.42392 12.1399L7.58104 12.3344L7.42392 12.1399ZM8.60397 11.6185V11.8685H8.63504L8.66517 11.8609L8.60397 11.6185ZM9.56275 12.0655L9.36676 12.2207L9.36899 12.2234L9.56275 12.0655ZM12.6604 15.8645L12.824 16.0536L13.0075 15.8947L12.8541 15.7066L12.6604 15.8645ZM13.8404 17.2054L14.033 17.0461L13.8701 16.849L13.6768 17.0164L13.8404 17.2054ZM11.2591 19.4402L11.0954 19.2512L10.9106 19.4112L11.0664 19.5995L11.2591 19.4402ZM23.5758 28.9752L23.7394 29.1642L23.9242 29.0042L23.7684 28.8158L23.5758 28.9752ZM20.9944 31.2099L20.8018 31.3693L20.9647 31.5663L21.1581 31.3989L20.9944 31.2099ZM24.3133 30.614L24.556 30.5539L24.4591 30.1624L24.1516 30.4234L24.3133 30.614ZM22.4695 32.1783L22.3077 31.9877L22.0046 32.2449L22.3677 32.4067L22.4695 32.1783ZM24.9771 33.2957L24.8753 33.5241L25.3427 33.7323L25.2197 33.2356L24.9771 33.2957ZM8.53021 9.97967V9.72967H8.51971L8.50924 9.73055L8.53021 9.97967ZM10.8165 11.0226L10.6223 11.1799L10.6239 11.1819L10.8165 11.0226ZM6.31763 10.9481L6.48319 11.1354H6.48319L6.31763 10.9481ZM5.06383 12.9594L5.30988 13.0036L5.06383 12.9594ZM5.65386 15.4176L5.84663 15.2581L5.84051 15.2513L5.65386 15.4176ZM20.2569 33.0722L20.0643 33.2316L20.1007 33.2757L20.1528 33.2995L20.2569 33.0722ZM27.4109 36.3499L27.3068 36.5772L27.785 36.7963L27.6529 36.2871L27.4109 36.3499ZM26.9856 34.7111V34.4611H26.6624L26.7436 34.7739L26.9856 34.7111ZM33.5325 34.7111V34.9611H33.7825V34.7111H33.5325ZM33.5325 32.9977H33.7825V32.7477H33.5325V32.9977ZM26.5409 32.9977L26.2989 33.0605L26.3475 33.2477H26.5409V32.9977ZM25.6323 29.4966V29.2466H25.3091L25.3903 29.5594L25.6323 29.4966ZM33.6062 29.4966V29.7466H33.8562V29.4966H33.6062ZM33.6062 27.7833H33.8562V27.5333H33.6062V27.7833ZM24.6802 27.7833L24.4876 27.9426L24.5625 28.0333H24.6802V27.7833ZM21.8459 24.3567V24.1067H21.3146L21.6532 24.516L21.8459 24.3567ZM33.5325 24.3567V24.6067H33.7825V24.3567H33.5325ZM33.5325 22.6433H33.7825V22.3933H33.5325V22.6433ZM20.4287 22.6433L20.236 22.8027L20.311 22.8933H20.4287V22.6433ZM16.2006 38.7602H35.9664V38.2602H16.2006V38.7602ZM14.4018 37.0948C14.4018 37.9989 15.2734 38.7602 16.2006 38.7602V38.2602C15.5053 38.2602 14.9018 37.6806 14.9018 37.0948H14.4018ZM14.4018 26.8894V37.0948H14.9018V26.8894H14.4018ZM12.9141 25.2653L14.4629 27.0531L14.8408 26.7257L13.292 24.9379L12.9141 25.2653ZM13.353 37.0948V25.1016H12.853V37.0948H13.353ZM16.1269 39.6755C14.5542 39.6755 13.353 38.5071 13.353 37.0948H12.853C12.853 38.8112 14.3069 40.1755 16.1269 40.1755V39.6755ZM35.8926 39.6755H16.1269V40.1755H35.8926V39.6755ZM38.6665 37.0948C38.6665 38.5071 37.4653 39.6755 35.8926 39.6755V40.1755C37.7126 40.1755 39.1665 38.8112 39.1665 37.0948H38.6665ZM38.6665 14.6727V37.0948H39.1665V14.6727H38.6665ZM30.6355 7.48296L38.7483 14.8577L39.0846 14.4877L30.9718 7.11298L30.6355 7.48296ZM30.331 7.17589L30.626 7.47386L30.9813 7.12208L30.6863 6.82411L30.331 7.17589ZM16.2006 7.25H30.5087V6.75H16.2006V7.25ZM13.4268 9.8307C13.4268 8.41841 14.628 7.25 16.2006 7.25V6.75C14.3807 6.75 12.9268 8.11432 12.9268 9.8307H13.4268ZM13.4268 13.1828V9.8307H12.9268V13.1828H13.4268ZM14.9145 14.807L13.3657 13.0191L12.9878 13.3465L14.5366 15.1343L14.9145 14.807ZM14.4756 9.8307V14.9707H14.9756V9.8307H14.4756ZM16.2744 8.16535C15.2743 8.16535 14.4756 8.85131 14.4756 9.8307H14.9756C14.9756 9.17126 15.5045 8.66535 16.2744 8.66535V8.16535ZM29.4024 8.16535H16.2744V8.66535H29.4024V8.16535ZM29.6524 15.0451V8.41535H29.1524V15.0451H29.6524ZM30.5824 16.583C30.3119 16.583 30.0981 16.4955 29.9426 16.2907C29.7777 16.0735 29.6524 15.6903 29.6524 15.0451H29.1524C29.1524 15.7409 29.2852 16.2516 29.5444 16.593C29.813 16.9469 30.1892 17.083 30.5824 17.083V16.583ZM37.5152 16.583H30.5824V17.083H37.5152V16.583ZM37.7652 37.0948V16.833H37.2652V37.0948H37.7652ZM35.9664 38.7602C36.9665 38.7602 37.7652 38.0742 37.7652 37.0948H37.2652C37.2652 37.7542 36.7363 38.2602 35.9664 38.2602V38.7602ZM37.4414 15.0186H32.5737V15.5186H37.4414V15.0186ZM30.637 9.2721C31.9252 10.4245 33.5828 11.9685 34.9193 13.2253C35.5873 13.8535 36.1748 14.4096 36.5952 14.8086C36.8054 15.0081 36.9738 15.1684 37.0897 15.2787C37.1476 15.3339 37.1924 15.3766 37.2227 15.4055C37.2379 15.4199 37.2494 15.4309 37.2571 15.4383C37.261 15.442 37.2639 15.4448 37.2658 15.4466C37.2668 15.4476 37.2676 15.4483 37.268 15.4487C37.2683 15.449 37.2685 15.4491 37.2686 15.4493C37.2687 15.4493 37.2687 15.4494 37.2687 15.4494C37.2688 15.4494 37.2688 15.4494 37.4414 15.2686C37.6141 15.0878 37.6141 15.0878 37.614 15.0878C37.614 15.0877 37.6139 15.0877 37.6139 15.0876C37.6138 15.0875 37.6136 15.0873 37.6133 15.0871C37.6128 15.0866 37.6121 15.0859 37.6111 15.085C37.6091 15.0831 37.6062 15.0803 37.6023 15.0766C37.5945 15.0692 37.583 15.0581 37.5678 15.0436C37.5374 15.0147 37.4925 14.9719 37.4345 14.9166C37.3184 14.8061 37.1498 14.6457 36.9394 14.446C36.5185 14.0465 35.9305 13.4899 35.2618 12.861C33.9248 11.6038 32.2635 10.0563 30.9704 8.89946L30.637 9.2721ZM31.0537 14.5237V9.08578H30.5537V14.5237H31.0537ZM32.5737 15.0186C32.224 15.0186 31.9463 15.0139 31.7248 14.9972C31.5008 14.9803 31.3521 14.9522 31.2527 14.9141C31.1605 14.8788 31.1233 14.8401 31.1015 14.8012C31.0751 14.7538 31.0537 14.673 31.0537 14.5237H30.5537C30.5537 14.7096 30.5783 14.8896 30.6648 15.0447C30.756 15.2082 30.8985 15.3139 31.0738 15.381C31.2417 15.4453 31.448 15.4778 31.6872 15.4958C31.929 15.514 32.2229 15.5186 32.5737 15.5186V15.0186ZM6.78765 14.4582L9.88526 18.2573L10.2728 17.9413L7.17516 14.1422L6.78765 14.4582ZM6.73 14.4016L6.80375 14.4761L7.15906 14.1243L7.08531 14.0498L6.73 14.4016ZM6.44116 13.2088C6.35319 13.653 6.44522 14.0223 6.70694 14.3748L7.10837 14.0767C6.92757 13.8332 6.87209 13.6066 6.93163 13.3059L6.44116 13.2088ZM7.2668 11.9455C6.84558 12.2858 6.60493 12.7841 6.45396 13.1653L6.91883 13.3494C7.06287 12.9857 7.26474 12.59 7.58104 12.3344L7.2668 11.9455ZM8.60397 11.3685C8.15013 11.3685 7.65197 11.6343 7.2668 11.9455L7.58104 12.3344C7.9334 12.0497 8.32027 11.8685 8.60397 11.8685V11.3685ZM9.75872 11.9102C9.42776 11.4924 8.96706 11.269 8.54276 11.3761L8.66517 11.8609C8.83089 11.819 9.10772 11.8936 9.36678 12.2207L9.75872 11.9102ZM12.8541 15.7066L9.75651 11.9075L9.36899 12.2234L12.4666 16.0225L12.8541 15.7066ZM10.2427 18.2883L12.824 16.0536L12.4967 15.6755L9.91539 17.9103L10.2427 18.2883ZM13.6768 17.0164L11.0954 19.2512L11.4227 19.6292L14.004 17.3944L13.6768 17.0164ZM23.7684 28.8158L14.033 17.0461L13.6478 17.3647L23.3831 29.1345L23.7684 28.8158ZM21.1581 31.3989L23.7394 29.1642L23.4121 28.7862L20.8308 31.0209L21.1581 31.3989ZM11.0664 19.5995L20.8018 31.3693L21.1871 31.0506L11.4517 19.2808L11.0664 19.5995ZM24.1516 30.4234L22.3077 31.9877L22.6312 32.369L24.475 30.8046L24.1516 30.4234ZM25.2197 33.2356L24.556 30.5539L24.0706 30.6741L24.7344 33.3558L25.2197 33.2356ZM22.3677 32.4067L24.8753 33.5241L25.0788 33.0673L22.5712 31.95L22.3677 32.4067ZM8.53021 10.2297C8.95223 10.2297 9.32222 10.2831 9.65978 10.4244C9.99522 10.5649 10.3132 10.7984 10.6223 11.1799L11.0108 10.8652C10.6561 10.4273 10.2735 10.1394 9.85292 9.96324C9.43452 9.78802 8.99323 9.72967 8.53021 9.72967V10.2297ZM6.48319 11.1354C7.0391 10.6441 7.72741 10.2981 8.55118 10.2288L8.50924 9.73055C7.56295 9.8102 6.77621 10.2092 6.15208 10.7607L6.48319 11.1354ZM5.30988 13.0036C5.44344 12.2617 5.9147 11.6378 6.48319 11.1354L6.15208 10.7607C5.54052 11.3012 4.97924 12.0182 4.81779 12.9151L5.30988 13.0036ZM5.84051 15.2513C5.2458 14.5839 5.17035 13.7788 5.30988 13.0036L4.81779 12.9151C4.66231 13.7788 4.73437 14.7615 5.46721 15.5839L5.84051 15.2513ZM20.4495 32.9129L5.8465 15.2583L5.46122 15.5769L20.0643 33.2316L20.4495 32.9129ZM27.515 36.1226L20.361 32.8449L20.1528 33.2995L27.3068 36.5772L27.515 36.1226ZM26.7436 34.7739L27.1689 36.4127L27.6529 36.2871L27.2276 34.6483L26.7436 34.7739ZM33.5325 34.4611H26.9856V34.9611H33.5325V34.4611ZM33.2825 32.9977V34.7111H33.7825V32.9977H33.2825ZM26.5409 33.2477H33.5325V32.7477H26.5409V33.2477ZM25.3903 29.5594L26.2989 33.0605L26.7829 32.9349L25.8742 29.4338L25.3903 29.5594ZM25.6323 29.7466H33.6062V29.2466H25.6323V29.7466ZM33.8562 29.4966V27.7833H33.3562V29.4966H33.8562ZM33.6062 27.5333H24.6802V28.0333H33.6062V27.5333ZM21.6532 24.516L24.4876 27.9426L24.8728 27.624L22.0385 24.1973L21.6532 24.516ZM33.5325 24.1067H21.8459V24.6067H33.5325V24.1067ZM33.2825 22.6433V24.3567H33.7825V22.6433H33.2825ZM20.4287 22.8933H33.5325V22.3933H20.4287V22.8933ZM10.6239 11.1819L20.236 22.8027L20.6213 22.484L11.0092 10.8632L10.6239 11.1819Z" fill="#4364FA"/>
</svg>
