<?xml version="1.0" encoding="utf-8"?>
<!-- Generator: Adobe Illustrator 24.1.2, SVG Export Plug-In . SVG Version: 6.00 Build 0)  -->
<svg version="1.1" id="Layer_1" xmlns="http://www.w3.org/2000/svg" xmlns:xlink="http://www.w3.org/1999/xlink" x="0px" y="0px"
	 viewBox="0 0 202 401" style="enable-background:new 0 0 202 401;" xml:space="preserve">
<style type="text/css">
	.st0{fill:none;stroke:#FFFFFF;stroke-width:0.25;stroke-opacity:0.5;}
	.st1{fill:url(#SVGID_1_);}
	.st2{fill:url(#SVGID_2_);}
	.st3{fill:#FFFFFF;}
	.st4{fill:#0A0A0A;}
	.st5{fill:url(#SVGID_3_);}
	.st6{fill:url(#SVGID_4_);}
	.st7{fill:url(#SVGID_5_);}
	.st8{fill:#BA7FD6;}
	.st9{fill:#020203;}
	.st10{fill:url(#SVGID_6_);}
	.st11{fill:none;stroke:#0B1319;stroke-width:2;}
	.st12{fill:#4364FA;}
	.st13{fill:#0B1319;}
	.st14{display:none;fill:#FFFFFF;}
</style>
<g>
	<path d="M170.82,7.86H32.04c-13.87,0-25.11,11.24-25.11,25.11v337.65c0,13.87,11.24,25.11,25.11,25.11h138.79
		c13.87,0,25.11-11.24,25.11-25.11V32.98C195.93,19.11,184.69,7.86,170.82,7.86z"/>
	<g>
		<path class="st0" d="M9.06,32.93c0-12.82,10.39-23.21,23.21-23.21h138.34c13.17,0,23.83,10.67,23.83,23.83v337.64
			c0,12.99-10.53,23.53-23.53,23.53H31.34c-12.31,0-22.29-9.98-22.29-22.29L9.06,32.93L9.06,32.93z"/>
	</g>
	<g>
		<path d="M10.36,32.75c0-12.05,9.77-21.82,21.82-21.82h138.34c12.23,0,22.13,9.91,22.13,22.13v337.96
			c0,12.31-9.98,22.29-22.29,22.29H31.71c-11.79,0-21.36-9.57-21.36-21.36L10.36,32.75L10.36,32.75z"/>
		
			<radialGradient id="SVGID_1_" cx="-338.0175" cy="-118.9891" r="0.5959" gradientTransform="matrix(1.964627e-14 320.848 -152.969 9.366650e-15 -18100.1367 108654.3359)" gradientUnits="userSpaceOnUse">
			<stop  offset="3.702790e-03" style="stop-color:#000000"/>
			<stop  offset="0.0861" style="stop-color:#000000"/>
			<stop  offset="0.1426" style="stop-color:#000000"/>
			<stop  offset="0.5518" style="stop-color:#898686"/>
			<stop  offset="0.5971" style="stop-color:#000000"/>
			<stop  offset="0.6222" style="stop-color:#000000"/>
			<stop  offset="0.6354" style="stop-color:#000000"/>
			<stop  offset="0.6445" style="stop-color:#898686"/>
			<stop  offset="0.8697" style="stop-color:#1C1C1C"/>
			<stop  offset="0.875" style="stop-color:#000000"/>
		</radialGradient>
		<path class="st1" d="M10.36,32.75c0-12.05,9.77-21.82,21.82-21.82h138.34c12.23,0,22.13,9.91,22.13,22.13v337.96
			c0,12.31-9.98,22.29-22.29,22.29H31.71c-11.79,0-21.36-9.57-21.36-21.36L10.36,32.75L10.36,32.75z"/>
	</g>
	<g>
		
			<radialGradient id="SVGID_2_" cx="-338.0178" cy="-118.9903" r="0.5958" gradientTransform="matrix(1.961443e-14 320.328 -172.339 1.055272e-14 -20405.166 108478.6641)" gradientUnits="userSpaceOnUse">
			<stop  offset="3.036720e-04" style="stop-color:#4A4A4A"/>
			<stop  offset="0.0905" style="stop-color:#404040"/>
			<stop  offset="0.1116" style="stop-color:#000000"/>
			<stop  offset="0.1366" style="stop-color:#404040"/>
			<stop  offset="0.4045" style="stop-color:#848484"/>
			<stop  offset="0.5965" style="stop-color:#5E5E5E"/>
			<stop  offset="0.6078" style="stop-color:#000000"/>
			<stop  offset="0.6147" style="stop-color:#000000"/>
			<stop  offset="0.6264" style="stop-color:#535353"/>
			<stop  offset="0.8722" style="stop-color:#585858"/>
			<stop  offset="0.8865" style="stop-color:#000000"/>
			<stop  offset="0.9029" style="stop-color:#575757"/>
		</radialGradient>
		<path class="st2" d="M10.51,33.06c0-12.05,9.77-21.82,21.82-21.82h138.04c12.23,0,22.13,9.91,22.13,22.13v337.34
			c0,12.31-9.98,22.29-22.29,22.29H31.87c-11.79,0-21.36-9.56-21.36-21.36V33.06z"/>
	</g>
	<path d="M13.3,32.91c0-10.6,8.6-19.19,19.19-19.19h138.5c10.34,0,18.72,8.38,18.72,18.72v338.88c0,10.69-8.66,19.34-19.34,19.34
		H29.7c-9.06,0-16.41-7.34-16.41-16.41L13.3,32.91L13.3,32.91z"/>
	<path class="st3" d="M172.1,17.42H29.71c-7.53,0-13.62,6.11-13.62,13.64v342.31c0,7.54,6.1,13.64,13.62,13.64H172.1
		c7.53,0,13.62-6.11,13.62-13.64V31.07C185.72,23.53,179.62,17.42,172.1,17.42z"/>
	<path d="M28.07,35.19c3.23,0,5.85-2.62,5.85-5.85s-2.62-5.85-5.85-5.85s-5.85,2.62-5.85,5.85S24.84,35.19,28.07,35.19z"/>
	<path class="st4" d="M28.02,33.7c2.44,0,4.41-1.97,4.41-4.41s-1.97-4.41-4.41-4.41c-2.44,0-4.41,1.97-4.41,4.41
		C23.6,31.72,25.58,33.7,28.02,33.7z"/>
	
		<radialGradient id="SVGID_3_" cx="-330.1278" cy="-125.5087" r="0.5957" gradientTransform="matrix(4.531916e-16 7.4012 -7.4017 4.532228e-16 -900.9584 2472.6299)" gradientUnits="userSpaceOnUse">
		<stop  offset="0.5521" style="stop-color:#000000;stop-opacity:0"/>
		<stop  offset="0.6667" style="stop-color:#5B5B5B;stop-opacity:0.21"/>
		<stop  offset="0.7083" style="stop-color:#000000;stop-opacity:0"/>
	</radialGradient>
	<path class="st5" d="M28.02,33.7c2.44,0,4.41-1.97,4.41-4.41s-1.97-4.41-4.41-4.41c-2.44,0-4.41,1.97-4.41,4.41
		C23.6,31.72,25.58,33.7,28.02,33.7z"/>
	<g>
		<path d="M29.87,28.78c-0.33-0.95-1.36-1.46-2.32-1.13c-0.95,0.33-1.46,1.36-1.14,2.32c0.33,0.95,1.36,1.46,2.32,1.14
			C29.69,30.77,30.19,29.73,29.87,28.78z"/>
		
			<radialGradient id="SVGID_4_" cx="-328.974" cy="-95.0052" r="0.5959" gradientTransform="matrix(2.8964 -0.9896 0.9356 2.7383 1069.8547 -36.0304)" gradientUnits="userSpaceOnUse">
			<stop  offset="0.1099" style="stop-color:#000000;stop-opacity:0.7183"/>
			<stop  offset="0.2665" style="stop-color:#6777CA"/>
			<stop  offset="0.4739" style="stop-color:#6C86CA"/>
			<stop  offset="0.6654" style="stop-color:#5583C7"/>
			<stop  offset="0.8659" style="stop-color:#000000;stop-opacity:0.7183"/>
			<stop  offset="1" style="stop-color:#5351BA;stop-opacity:0"/>
		</radialGradient>
		<path class="st6" d="M29.87,28.78c-0.33-0.95-1.36-1.46-2.32-1.13c-0.95,0.33-1.46,1.36-1.14,2.32c0.33,0.95,1.36,1.46,2.32,1.14
			C29.69,30.77,30.19,29.73,29.87,28.78z"/>
		
			<radialGradient id="SVGID_5_" cx="-328.9767" cy="-96.3156" r="0.596" gradientTransform="matrix(2.8964 -0.9896 0.9895 2.8962 1076.3016 -17.2332)" gradientUnits="userSpaceOnUse">
			<stop  offset="0.0521" style="stop-color:#000000"/>
			<stop  offset="0.6719" style="stop-color:#767676;stop-opacity:0"/>
		</radialGradient>
		<path class="st7" d="M29.87,28.78c-0.33-0.95-1.36-1.46-2.32-1.13c-0.95,0.33-1.46,1.36-1.14,2.32c0.33,0.95,1.36,1.46,2.32,1.14
			C29.69,30.77,30.19,29.73,29.87,28.78z"/>
	</g>
	<g>
		<path class="st8" d="M28.71,29.52c0.26,0,0.46-0.21,0.46-0.46c0-0.26-0.21-0.46-0.46-0.46s-0.46,0.21-0.46,0.46
			C28.25,29.31,28.45,29.52,28.71,29.52z"/>
	</g>
	<path d="M186.52,367.86c0,20.11-15.28,18.88-17.14,19.14C167.75,388.54,194.1,389.37,186.52,367.86z"/>
	<path d="M16.02,32.36c0.16-4.72,3.37-14.32,15.01-15.01C25.61,16.82,15.03,19.05,16.02,32.36z"/>
	<path class="st9" d="M168.89,17.35c6.81,0,17.64,2.55,17.64,16.56C187.69,26.72,185.79,13.32,168.89,17.35z"/>
	<path d="M196,101.01h0.31c0.43,0,0.78,0.34,0.78,0.78v25.84c0,0.43-0.34,0.78-0.78,0.78H196V101.01z"/>
	
		<linearGradient id="SVGID_6_" gradientUnits="userSpaceOnUse" x1="196.5435" y1="183.0074" x2="196.5435" y2="210.4029" gradientTransform="matrix(1 0 0 1 0 -82)">
		<stop  offset="0" style="stop-color:#353535"/>
		<stop  offset="0.0417" style="stop-color:#AEAEAE"/>
		<stop  offset="0.1042" style="stop-color:#49494A"/>
		<stop  offset="0.6771" style="stop-color:#49494A"/>
		<stop  offset="0.901" style="stop-color:#787879;stop-opacity:0.4355"/>
		<stop  offset="1" style="stop-color:#000000;stop-opacity:0"/>
	</linearGradient>
	<path class="st10" d="M196,101.01h0.31c0.43,0,0.78,0.34,0.78,0.78v25.84c0,0.43-0.34,0.78-0.78,0.78H196V101.01z"/>
	<path d="M196,154.86h0.31c0.43,0,0.78,0.34,0.78,0.78v51.37c0,0.43-0.34,0.78-0.78,0.78H196V154.86z"/>
	<path class="st11" d="M88.08,135.4l-17.95-0.08c-5.47-0.03-9.93,4.39-9.95,9.86l-0.08,17.95"/>
	<path class="st11" d="M118.63,222.22l17.95,0.08c5.47,0.03,9.93-4.39,9.95-9.86l0.08-17.95"/>
	<path class="st11" d="M146.76,163.54l0.08-17.95c0.03-5.47-4.39-9.93-9.86-9.95l-17.95-0.08"/>
	<path class="st11" d="M59.94,194.08l-0.08,17.95c-0.03,5.47,4.39,9.93,9.86,9.95l17.95,0.08"/>
	<path class="st12" d="M103.22,147.65c-10.14,0-18.35,8.21-18.35,18.35v6.12h10.19V166c0-4.5,3.65-8.15,8.15-8.15
		c4.5,0,8.15,3.65,8.15,8.15v6.12h10.19V166C121.57,155.86,113.36,147.65,103.22,147.65z"/>
	<path class="st12" d="M92.71,199.59l9.44-10.66h-7.77l9.58-10.75h8.76l-6.74,7.56l7.77-0.11L92.71,199.59z M87.73,169.01l-8.6,8.6
		v23.58l8.6,8.6h31l8.6-8.6V177.6l-8.6-8.6H87.73z"/>
	<path class="st13" d="M30.31,243.75h2.13c0.02,1.46,1.21,2.62,3.19,2.62c1.68,0,2.82-0.77,2.82-2.05c0-3.83-7.69-1-7.69-6.72
		c0-2.15,1.75-3.96,4.75-3.96c2.42,0,4.83,1.3,4.87,4.26h-2.21c0-1.4-0.95-2.29-2.68-2.29c-1.75,0-2.55,0.93-2.55,1.95
		c0,3.43,7.77,0.85,7.77,6.59c0,2.37-1.88,4.22-5.15,4.22C32.51,248.38,30.31,246.49,30.31,243.75z"/>
	<path class="st13" d="M44.29,244.75v-5.5h-1.91v-1.72h1.4c0.36,0,0.63-0.26,0.63-0.69v-2.34h2.01v3h3.09v1.75h-3.09v5.43
		c0,1.01,0.43,1.62,1.54,1.62h1.44v1.8h-1.77C45.55,248.11,44.29,246.96,44.29,244.75z"/>
	<path class="st13" d="M59.67,241.85c-0.14-1.78-1.44-2.82-3.08-2.82c-1.62,0-2.96,1.16-3.12,2.82H59.67z M51.29,242.84
		c0-3.37,2.27-5.6,5.3-5.6c3.31,0,5.19,2.44,5.19,5.46v0.79h-8.36c0.08,1.85,1.32,3.11,3.27,3.11c1.34,0,2.5-0.65,2.92-1.68h2.07
		c-0.54,2.05-2.44,3.47-5.05,3.47C53.44,248.38,51.29,246.02,51.29,242.84z"/>
	<path class="st13" d="M63.89,245.48V232.9h2.13v12.45c0,0.57,0.28,0.87,0.81,0.87h0.44v1.88h-0.87
		C64.8,248.11,63.89,247.14,63.89,245.48z"/>
	<path class="st13" d="M69.69,245.48V232.9h2.13v12.46c0,0.57,0.28,0.87,0.81,0.87h0.44v1.88h-0.87
		C70.61,248.11,69.69,247.14,69.69,245.48z"/>
	<path class="st13" d="M83.43,242.82c0-2.29-1.42-3.63-3.29-3.63c-1.93,0-3.27,1.5-3.27,3.63c0,2.21,1.34,3.63,3.29,3.63
		C82.19,246.45,83.43,244.83,83.43,242.82z M74.7,242.84c0-3.29,2.09-5.6,5.05-5.6c2.03,0,3.12,1.26,3.47,1.8h0.14v-1.54h2.13v10.61
		H83.4v-1.5h-0.13c-0.28,0.41-1.32,1.77-3.42,1.77C76.81,248.38,74.7,246.12,74.7,242.84z"/>
	<path class="st13" d="M88.55,237.5h2.05v1.85h0.14c0.33-0.85,1.34-1.87,2.84-1.87h0.93v2.07h-1c-1.8,0-2.84,1.36-2.84,3.32v5.23
		h-2.13L88.55,237.5L88.55,237.5z"/>
	<path class="st13" d="M107.67,240.93c1.52,0,2.54-1.1,2.54-2.6c0-1.48-1.01-2.54-2.54-2.54h-2.84v5.13L107.67,240.93L107.67,240.93
		z M102.63,233.92h5.23c2.65,0,4.55,1.77,4.55,4.42c0,2.64-1.97,4.48-4.55,4.48h-3.04v5.3h-2.19V233.92z"/>
	<path class="st13" d="M114.8,237.5h2.05v1.85H117c0.33-0.85,1.34-1.87,2.84-1.87h0.93v2.07h-1c-1.8,0-2.84,1.36-2.84,3.32v5.23
		h-2.13L114.8,237.5L114.8,237.5z"/>
	<path class="st13" d="M131.11,242.82c0-2.11-1.42-3.63-3.43-3.63c-2.01,0-3.42,1.54-3.42,3.63c0,2.11,1.44,3.63,3.42,3.63
		C129.7,246.45,131.11,244.91,131.11,242.82z M122.09,242.82c0-3.19,2.35-5.58,5.62-5.58c3.27,0,5.58,2.42,5.58,5.58
		c0,3.16-2.35,5.56-5.6,5.56C124.42,248.38,122.09,246,122.09,242.82z"/>
	<path class="st13" d="M136.9,244.75v-5.5h-1.91v-1.72h1.4c0.36,0,0.63-0.26,0.63-0.69v-2.34h2.01v3h3.08v1.75h-3.08v5.43
		c0,1.01,0.43,1.62,1.54,1.62h1.44v1.8h-1.77C138.16,248.11,136.9,246.96,136.9,244.75z"/>
	<path class="st13" d="M152.27,241.85c-0.14-1.78-1.44-2.82-3.08-2.82c-1.62,0-2.96,1.16-3.12,2.82H152.27z M143.9,242.84
		c0-3.37,2.27-5.6,5.3-5.6c3.31,0,5.2,2.44,5.2,5.46v0.79h-8.36c0.08,1.85,1.32,3.11,3.27,3.11c1.34,0,2.5-0.65,2.92-1.68h2.07
		c-0.54,2.05-2.44,3.47-5.05,3.47C146.04,248.38,143.9,246.02,143.9,242.84z"/>
	<path class="st13" d="M156.21,242.82c0-3.14,2.27-5.58,5.5-5.58c2.52,0,4.65,1.54,5.13,3.98h-2.19c-0.36-1.21-1.52-2.03-2.92-2.03
		c-2.01,0-3.32,1.58-3.32,3.63c0,2.09,1.38,3.63,3.37,3.63c1.36,0,2.54-0.81,2.9-2.01h2.17c-0.47,2.44-2.62,3.94-5.11,3.94
		C158.44,248.38,156.21,245.94,156.21,242.82z"/>
	<path class="st13" d="M170.47,244.75v-5.5h-1.91v-1.72h1.4c0.36,0,0.63-0.26,0.63-0.69v-2.34h2.01v3h3.09v1.75h-3.09v5.43
		c0,1.01,0.43,1.62,1.54,1.62h1.44v1.8h-1.77C171.73,248.11,170.47,246.96,170.47,244.75z"/>
	<g>
		<path class="st14" d="M172.85,17.78H30.46c-7.53,0-13.62,6.1-13.62,13.62v341.74c0,7.53,6.1,13.62,13.62,13.62h142.39
			c7.53,0,13.62-6.1,13.62-13.62V31.39C186.47,23.87,180.37,17.78,172.85,17.78z"/>
		<path class="st13" d="M56.19,358.61v-6.07h1.96c1.15,0,1.83,0.67,1.84,1.55c0,0.6-0.29,1.05-0.77,1.31v0.05
			c0.41,0.14,0.98,0.57,0.98,1.43c0,1.09-0.85,1.73-1.87,1.73L56.19,358.61L56.19,358.61z M56.89,355.17h1.24
			c0.68,0,1.15-0.41,1.15-1.02c0-0.6-0.47-0.98-1.12-0.98h-1.26C56.89,353.17,56.89,355.17,56.89,355.17z M56.89,357.99h1.31
			c0.72,0,1.26-0.34,1.26-1.13c0-0.8-0.64-1.11-1.35-1.11h-1.24L56.89,357.99L56.89,357.99z M63.33,358.72
			c-1.38,0-2.25-1.01-2.25-2.37c0-1.44,0.98-2.37,2.21-2.37c1.37,0,2.18,1,2.18,2.3v0.3h-3.67c0.04,0.9,0.61,1.5,1.54,1.5
			c0.59,0,1.17-0.29,1.38-0.81h0.71C65.17,358.12,64.38,358.72,63.33,358.72z M61.81,355.99h2.93c-0.06-0.9-0.69-1.38-1.46-1.38
			C62.52,354.62,61.88,355.16,61.81,355.99z M68.65,358.72c-1.36,0-2.32-1.03-2.32-2.37s0.98-2.37,2.3-2.37
			c0.98,0,1.89,0.59,2.13,1.6h-0.71c-0.18-0.59-0.75-0.97-1.4-0.97c-0.96,0-1.61,0.76-1.61,1.74c0,1.01,0.68,1.74,1.63,1.74
			c0.65,0,1.23-0.38,1.4-0.97h0.7C70.55,358.14,69.63,358.72,68.65,358.72z M73.9,358.72c-1.33,0-2.25-0.98-2.25-2.36
			c0-1.39,0.92-2.37,2.19-2.37c0.95,0,1.45,0.61,1.58,0.84h0.05v-0.73h0.68v4.51H75.5v-0.71h-0.05
			C75.35,358.07,74.88,358.72,73.9,358.72z M73.94,358.11c0.98,0,1.57-0.8,1.57-1.74c0-1.11-0.69-1.75-1.58-1.75
			c-0.93,0-1.57,0.73-1.57,1.75C72.35,357.42,72.99,358.11,73.94,358.11z M79.24,358.72c-1.05,0-1.68-0.79-1.68-1.78v-2.84h0.68
			v2.81c0,0.72,0.53,1.19,1.16,1.19c0.71,0,1.26-0.54,1.26-1.29v-2.7h0.68v4.51h-0.68v-0.66h-0.05
			C80.43,358.36,79.94,358.72,79.24,358.72z M84.32,358.72c-1.06,0-1.67-0.58-1.75-1.42h0.67c0.08,0.54,0.46,0.83,1.12,0.83
			c0.68,0,1.05-0.33,1.05-0.79c0-1.26-2.7-0.3-2.7-2.09c0-0.76,0.68-1.26,1.63-1.26c0.83,0,1.53,0.49,1.6,1.3h-0.66
			c-0.06-0.43-0.38-0.71-0.98-0.71c-0.56,0-0.93,0.28-0.93,0.67c0,1.15,2.7,0.19,2.7,2.05C86.06,358.15,85.36,358.72,84.32,358.72z
			 M89.32,358.72c-1.38,0-2.25-1.01-2.25-2.37c0-1.44,0.98-2.37,2.21-2.37c1.37,0,2.18,1.01,2.18,2.3v0.3h-3.67
			c0.03,0.9,0.61,1.5,1.54,1.5c0.59,0,1.17-0.29,1.38-0.81h0.71C91.17,358.12,90.38,358.72,89.32,358.72z M87.8,355.99h2.93
			c-0.06-0.9-0.69-1.38-1.46-1.38C88.52,354.62,87.87,355.16,87.8,355.99z M95.03,360.6v-0.63h0.34c0.44,0,0.69-0.19,0.84-0.58
			l0.21-0.54l-1.83-4.75h0.76l1.4,3.81h0.05l1.4-3.81h0.77l-2.15,5.54c-0.23,0.61-0.59,0.96-1.33,0.96L95.03,360.6L95.03,360.6z
			 M101.85,358.72c-1.35,0-2.35-1-2.35-2.37c0-1.36,1.01-2.37,2.36-2.37c1.36,0,2.35,1.01,2.35,2.37S103.2,358.72,101.85,358.72z
			 M101.85,358.1c0.97,0,1.65-0.74,1.65-1.74c0-1-0.68-1.74-1.65-1.74c-0.97,0-1.65,0.75-1.65,1.74
			C100.2,357.37,100.89,358.1,101.85,358.1z M107.01,358.72c-1.05,0-1.68-0.79-1.68-1.78v-2.84h0.68v2.81
			c0,0.72,0.53,1.19,1.16,1.19c0.71,0,1.26-0.54,1.26-1.29v-2.7h0.68v4.51h-0.68v-0.66h-0.05
			C108.19,358.36,107.71,358.72,107.01,358.72z M110.6,358.61v-4.51h0.68v0.84h0.05c0.13-0.38,0.57-0.84,1.23-0.84h0.38v0.68h-0.37
			c-0.83,0-1.28,0.64-1.28,1.5v2.32L110.6,358.61L110.6,358.61z M116.29,360.6v-6.57h1.33v0.51h0.07c0.13-0.21,0.51-0.63,1.28-0.63
			c1.25,0,2.1,0.94,2.1,2.37c0,1.44-0.84,2.43-2.07,2.43c-0.74,0-1.15-0.38-1.29-0.63h-0.07v2.51H116.29z M118.65,357.51
			c0.63,0,1.05-0.49,1.05-1.19c0-0.72-0.43-1.19-1.05-1.19c-0.64,0-1.05,0.5-1.05,1.19C117.6,357.05,118.03,357.51,118.65,357.51z
			 M121.95,358.61v-4.58h1.26v0.69h0.07c0.16-0.34,0.56-0.73,1.18-0.73h0.44v1.26h-0.53c-0.66,0-1.08,0.48-1.08,1.26v2.08
			L121.95,358.61L121.95,358.61z M126.46,353.52c-0.46,0-0.79-0.28-0.79-0.73c0-0.45,0.33-0.73,0.79-0.73s0.79,0.28,0.79,0.73
			C127.25,353.25,126.92,353.52,126.46,353.52z M125.79,358.61v-4.58h1.35v4.58H125.79z M129.31,358.61l-1.62-4.58h1.4l0.95,2.98
			h0.07l0.95-2.98h1.41l-1.61,4.58H129.31z M134.8,358.72c-1.26,0-2.12-0.93-2.12-2.37s0.85-2.43,2.08-2.43
			c0.72,0,1.13,0.39,1.29,0.63h0.07v-0.52h1.35v4.58h-1.33v-0.52h-0.07C135.93,358.3,135.55,358.72,134.8,358.72z M135.1,357.51
			c0.64,0,1.05-0.51,1.05-1.19c0-0.73-0.44-1.19-1.06-1.19c-0.63,0-1.05,0.48-1.05,1.19C134.04,357.03,134.47,357.51,135.1,357.51z
			 M140.62,358.72c-1.47,0-2.43-1.06-2.43-2.4c0-1.35,0.95-2.4,2.42-2.4c1.28,0,2.18,0.77,2.32,1.89h-1.36
			c-0.12-0.39-0.47-0.68-0.95-0.68c-0.66,0-1.06,0.53-1.06,1.19c0,0.67,0.43,1.19,1.08,1.19c0.45,0,0.81-0.26,0.92-0.63h1.37
			C142.77,357.97,141.88,358.72,140.62,358.72z M143.68,360.6v-1.19h0.53c0.36,0,0.57-0.2,0.69-0.5l0.08-0.22l-1.81-4.66h1.41
			l1.01,2.9h0.07l0.95-2.9h1.42l-1.94,5.23c-0.31,0.84-0.83,1.33-1.8,1.33L143.68,360.6L143.68,360.6z M63.66,369.13v-4.51h0.68
			v0.65h0.05c0.22-0.41,0.65-0.76,1.31-0.76c0.68,0,1.17,0.33,1.42,0.83h0.06c0.31-0.58,0.8-0.83,1.43-0.83
			c1.01,0,1.66,0.71,1.66,1.7v2.92h-0.68v-2.7c0-0.85-0.43-1.28-1.09-1.28c-0.63,0-1.19,0.45-1.19,1.29v2.69h-0.68v-2.82
			c0-0.72-0.48-1.15-1.12-1.15c-0.63,0-1.17,0.5-1.17,1.26v2.71L63.66,369.13z M73.65,369.25c-1.33,0-2.25-0.98-2.25-2.36
			c0-1.38,0.92-2.37,2.19-2.37c0.95,0,1.45,0.61,1.58,0.84h0.05v-0.73h0.68v4.51h-0.66v-0.71H75.2
			C75.09,368.59,74.63,369.25,73.65,369.25z M73.69,368.63c0.98,0,1.57-0.8,1.57-1.74c0-1.11-0.69-1.75-1.58-1.75
			c-0.93,0-1.57,0.73-1.57,1.75C72.1,367.95,72.75,368.63,73.69,368.63z M79.15,369.13c-0.83,0-1.35-0.45-1.35-1.36v-2.57h-0.85
			v-0.58h0.68c0.12,0,0.22-0.08,0.22-0.23v-1.08h0.64v1.31h1.38v0.58h-1.38v2.55c0,0.49,0.18,0.77,0.7,0.77h0.63v0.6L79.15,369.13
			L79.15,369.13z M82.85,369.13c-0.83,0-1.35-0.45-1.35-1.36v-2.57h-0.85v-0.58h0.68c0.12,0,0.22-0.08,0.22-0.23v-1.08h0.64v1.31
			h1.38v0.58h-1.38v2.56c0,0.48,0.18,0.77,0.7,0.77h0.63v0.59L82.85,369.13L82.85,369.13z M86.7,369.25c-1.38,0-2.25-1.01-2.25-2.37
			c0-1.44,0.98-2.37,2.21-2.37c1.37,0,2.18,1.01,2.18,2.3v0.3h-3.67c0.04,0.9,0.61,1.5,1.54,1.5c0.6,0,1.17-0.29,1.38-0.81h0.71
			C88.54,368.65,87.75,369.25,86.7,369.25z M85.18,366.52h2.93c-0.06-0.9-0.69-1.38-1.46-1.38
			C85.9,365.14,85.25,365.69,85.18,366.52z M90.06,369.13v-4.51h0.68v0.84h0.05c0.13-0.38,0.57-0.84,1.23-0.84h0.38v0.68h-0.37
			c-0.83,0-1.28,0.64-1.28,1.5v2.32L90.06,369.13z M95.02,369.25c-1.06,0-1.67-0.58-1.75-1.42h0.67c0.08,0.54,0.46,0.83,1.12,0.83
			c0.68,0,1.05-0.33,1.05-0.79c0-1.26-2.7-0.3-2.7-2.09c0-0.76,0.68-1.26,1.63-1.26c0.83,0,1.53,0.48,1.6,1.3h-0.66
			c-0.06-0.43-0.38-0.71-0.98-0.71c-0.56,0-0.93,0.28-0.93,0.67c0,1.15,2.7,0.19,2.7,2.05C96.77,368.68,96.07,369.25,95.02,369.25z
			 M102.3,369.13c-0.83,0-1.35-0.45-1.35-1.36v-2.57h-0.85v-0.58h0.68c0.12,0,0.22-0.08,0.22-0.23v-1.08h0.64v1.31h1.39v0.58h-1.38
			v2.56c0,0.48,0.18,0.77,0.7,0.77h0.63v0.59L102.3,369.13z M104.24,369.13v-6.5h0.68v2.65h0.05c0.19-0.41,0.69-0.77,1.4-0.77
			c1.05,0,1.7,0.79,1.7,1.78v2.84h-0.68v-2.79c0-0.72-0.54-1.19-1.18-1.19c-0.69,0-1.28,0.51-1.28,1.24v2.74L104.24,369.13z
			 M111.46,369.25c-1.38,0-2.25-1.01-2.25-2.37c0-1.44,0.98-2.37,2.21-2.37c1.37,0,2.18,1.01,2.18,2.3v0.3h-3.67
			c0.04,0.9,0.61,1.5,1.54,1.5c0.59,0,1.17-0.29,1.38-0.81h0.71C113.3,368.65,112.51,369.25,111.46,369.25z M109.94,366.52h2.93
			c-0.06-0.9-0.69-1.38-1.46-1.38C110.66,365.14,110.01,365.69,109.94,366.52z M117.25,369.13v-4.51h0.68v0.65h0.05
			c0.22-0.41,0.65-0.76,1.31-0.76c0.68,0,1.17,0.33,1.42,0.82h0.06c0.3-0.58,0.8-0.82,1.43-0.82c1.01,0,1.65,0.71,1.65,1.7v2.92
			h-0.68v-2.7c0-0.85-0.43-1.28-1.09-1.28c-0.63,0-1.19,0.45-1.19,1.29v2.69h-0.68v-2.82c0-0.72-0.49-1.15-1.12-1.15
			c-0.63,0-1.17,0.5-1.17,1.26v2.71L117.25,369.13L117.25,369.13z M127.34,369.25c-1.35,0-2.35-1-2.35-2.37
			c0-1.36,1.01-2.37,2.36-2.37c1.36,0,2.35,1.01,2.35,2.37S128.69,369.25,127.34,369.25z M127.34,368.62c0.97,0,1.65-0.74,1.66-1.74
			c0-1-0.68-1.74-1.66-1.74c-0.97,0-1.65,0.75-1.65,1.74C125.69,367.9,126.37,368.62,127.34,368.62z M132.4,369.25
			c-1.06,0-1.67-0.58-1.75-1.42h0.67c0.08,0.54,0.46,0.83,1.12,0.83c0.68,0,1.05-0.33,1.05-0.79c0-1.26-2.7-0.3-2.7-2.09
			c0-0.76,0.68-1.26,1.63-1.26c0.83,0,1.53,0.48,1.6,1.3h-0.66c-0.06-0.43-0.38-0.71-0.98-0.71c-0.56,0-0.93,0.28-0.93,0.67
			c0,1.15,2.7,0.19,2.7,2.05C134.15,368.68,133.44,369.25,132.4,369.25z M137.25,369.13c-0.83,0-1.35-0.45-1.35-1.36v-2.57h-0.85
			v-0.58h0.68c0.12,0,0.22-0.08,0.22-0.23v-1.08h0.64v1.31h1.38v0.58h-1.38v2.55c0,0.49,0.18,0.77,0.7,0.77h0.63v0.6L137.25,369.13
			L137.25,369.13z M139.43,369.25c-0.27,0-0.49-0.22-0.49-0.48s0.23-0.49,0.49-0.49s0.48,0.22,0.48,0.49S139.7,369.25,139.43,369.25
			z"/>
	</g>
</g>
</svg>
