<svg width="47" height="47" viewBox="0 0 47 47" fill="none" xmlns="http://www.w3.org/2000/svg">
<rect x="1" y="1" width="45" height="45" rx="8" fill="#F7F6FC"/>
<path d="M15.4643 1H9C4.58172 1 1 4.58172 1 9V15.4643" stroke="#0B1319" stroke-width="2"/>
<path d="M31.5357 46L38 46C42.4183 46 46 42.4183 46 38L46 31.5357" stroke="#0B1319" stroke-width="2"/>
<path d="M46 15.4643L46 9C46 4.58172 42.4183 1 38 1L31.5357 0.999999" stroke="#0B1319" stroke-width="2"/>
<path d="M1 31.5357L1 38C1 42.4183 4.58172 46 9 46L15.4643 46" stroke="#0B1319" stroke-width="2"/>
<path d="M15.4222 20.5L13 22.625V32.375L16.697 36H29.8276L33.5245 32.375V22.625L31.1024 20.5V17.5C31.1024 13.25 27.6604 10 23.326 10C18.9916 10 15.4222 13.375 15.4222 17.5V20.5Z" stroke="#4364FA" stroke-width="2" stroke-miterlimit="10"/>
<path d="M20.843 26.125L23.2907 23.125H24.4302L22.9279 24.9997L22.0262 26.125H20.843ZM23.7209 26.625H23.9515L23.408 27.0209L23.7209 26.625Z" stroke="#4364FA" stroke-width="2" stroke-miterlimit="10"/>
</svg>
