<svg width="431" height="279" viewBox="0 0 431 279" fill="none" xmlns="http://www.w3.org/2000/svg">
<g opacity="0.8" clip-path="url(#clip0_720_5419)">
<g opacity="0.2">
<path d="M86.4231 105.232H4.25391C4.25391 105.232 4.25391 97.8329 18.2752 101.113C18.2752 101.113 23.504 93.4869 36.4129 97.2197C42.4143 90.9072 63.8825 91.8604 63.2431 101.566C72.948 97.353 84.4381 100.146 86.4231 105.232Z" fill="white"/>
<path d="M102.096 8.71137H163.929C163.929 8.71137 161.884 3.75869 148.855 5.93173C145.791 -2.62047 131.35 -0.514081 128.54 2.19889C119.467 -2.62047 108.737 1.85894 111.294 6.6783C105.42 5.72509 102.096 8.71137 102.096 8.71137Z" fill="white"/>
<path d="M324.324 14.2307H372.869C372.869 14.2307 372.869 10.4779 364.583 12.1376C364.583 12.1376 361.492 8.27149 353.872 10.1646C350.322 6.96499 337.646 7.44493 338.019 12.3709C332.284 10.2312 325.503 11.6444 324.324 14.2307Z" fill="white"/>
<path d="M351.135 29.3153H425.99C425.99 29.3153 425.99 22.5762 413.215 25.5624C413.215 25.5624 408.445 18.6167 396.695 22.0162C391.227 16.2637 371.67 17.1302 372.257 25.9757C363.411 22.1429 352.947 24.6825 351.135 29.3153Z" fill="white"/>
<path d="M59.7383 17.3236H90.3985C90.3985 17.3236 90.272 13.9307 83.3712 14.5373C80.9467 9.10465 70.5956 10.9977 68.4241 14.4639C62.1629 12.2976 59.7383 17.3236 59.7383 17.3236Z" fill="white"/>
<path d="M225.93 11.391H256.59C256.59 11.391 256.463 7.48489 249.563 8.19147C247.138 1.94562 236.787 4.11867 234.616 8.10481C228.354 5.61181 225.93 11.391 225.93 11.391Z" fill="white"/>
<path d="M425.031 80.5953H455.691C455.691 80.5953 455.565 76.6891 448.664 77.3957C446.24 71.1498 435.889 73.3229 433.717 77.309C427.456 74.8094 425.031 80.5953 425.031 80.5953Z" fill="white"/>
</g>
<path d="M360.199 166.584C360.039 166.584 359.879 166.584 359.719 166.577C359.16 166.571 358.707 166.097 358.734 165.537V165.524C358.76 164.977 359.213 164.564 359.759 164.571C378.137 164.844 381.627 149.146 382.22 145.093C382.293 144.573 382.759 144.207 383.286 144.254C383.865 144.3 384.285 144.833 384.192 145.407C383.472 149.853 379.476 166.584 360.199 166.584Z" fill="#40649F"/>
<path d="M348.775 248.82C348.775 249.726 353.704 250.46 359.786 250.46C365.867 250.46 370.796 249.726 370.796 248.82C370.796 247.913 365.867 247.18 359.786 247.18C353.704 247.173 348.775 247.907 348.775 248.82Z" fill="#4EA2E5"/>
<path d="M368.226 148.881C396.942 144.218 416.443 117.141 411.782 88.4038C407.122 59.6667 380.065 40.1515 351.349 44.8154C322.633 49.4792 303.132 76.556 307.792 105.293C312.452 134.03 339.509 153.545 368.226 148.881Z" fill="#5C8BC6"/>
<path d="M316.506 138.212C325.178 136.804 331.067 128.627 329.659 119.949C328.252 111.272 320.082 105.379 311.41 106.787C302.739 108.195 296.85 116.372 298.257 125.049C299.664 133.727 307.835 139.62 316.506 138.212Z" fill="#5C8BC6"/>
<path d="M327.296 150.623C336.08 150.528 343.123 143.324 343.028 134.534C342.932 125.743 335.734 118.695 326.95 118.791C318.166 118.887 311.123 126.09 311.218 134.881C311.314 143.671 318.512 150.719 327.296 150.623Z" fill="#5C8BC6"/>
<path d="M345.086 156.792C353.871 156.792 360.992 149.665 360.992 140.874C360.992 132.083 353.871 124.956 345.086 124.956C336.301 124.956 329.18 132.083 329.18 140.874C329.18 149.665 336.301 156.792 345.086 156.792Z" fill="#5C8BC6"/>
<path d="M387.481 158.328C396.153 156.92 402.041 148.744 400.634 140.066C399.227 131.388 391.056 125.495 382.385 126.903C373.713 128.312 367.824 136.488 369.232 145.166C370.639 153.844 378.81 159.737 387.481 158.328Z" fill="#5C8BC6"/>
<path d="M412.314 119.51C421.099 119.51 428.221 112.383 428.221 103.592C428.221 94.801 421.099 87.6743 412.314 87.6743C403.53 87.6743 396.408 94.801 396.408 103.592C396.408 112.383 403.53 119.51 412.314 119.51Z" fill="#5C8BC6"/>
<path d="M388.561 68.8968C397.345 68.8968 404.467 61.7701 404.467 52.9789C404.467 44.1877 397.345 37.061 388.561 37.061C379.776 37.061 372.654 44.1877 372.654 52.9789C372.654 61.7701 379.776 68.8968 388.561 68.8968Z" fill="#5C8BC6"/>
<path d="M331.824 68.8968C340.609 68.8968 347.731 61.7701 347.731 52.9789C347.731 44.1877 340.609 37.061 331.824 37.061C323.039 37.061 315.918 44.1877 315.918 52.9789C315.918 61.7701 323.039 68.8968 331.824 68.8968Z" fill="#5C8BC6"/>
<path d="M313.951 94.9134C322.736 94.9134 329.858 87.7868 329.858 78.9955C329.858 70.2043 322.736 63.0776 313.951 63.0776C305.166 63.0776 298.045 70.2043 298.045 78.9955C298.045 87.7868 305.166 94.9134 313.951 94.9134Z" fill="#5C8BC6"/>
<path d="M345.592 65.7567C354.713 63.6737 360.419 54.5863 358.337 45.4594C356.256 36.3326 347.175 30.6224 338.055 32.7054C328.934 34.7884 323.228 43.8758 325.31 53.0027C327.391 62.1295 336.472 67.8397 345.592 65.7567Z" fill="#5C8BC6"/>
<path d="M246.398 150.441C250.045 147.024 250.233 141.296 246.819 137.646C243.404 133.997 237.68 133.808 234.033 137.225C230.386 140.642 230.198 146.371 233.612 150.021C237.027 153.67 242.751 153.859 246.398 150.441Z" fill="#5C8BC6"/>
<path d="M307.658 104.472C311.863 104.472 315.272 101.061 315.272 96.8531C315.272 92.6453 311.863 89.2341 307.658 89.2341C303.454 89.2341 300.045 92.6453 300.045 96.8531C300.045 101.061 303.454 104.472 307.658 104.472Z" fill="#5C8BC6"/>
<path d="M304.853 116.327C309.057 116.274 312.422 112.82 312.369 108.612C312.316 104.405 308.864 101.038 304.66 101.091C300.455 101.144 297.09 104.599 297.144 108.806C297.197 113.013 300.649 116.381 304.853 116.327Z" fill="#5C8BC6"/>
<path d="M316.889 67.4104C321.094 67.4104 324.502 63.9992 324.502 59.7914C324.502 55.5835 321.094 52.1724 316.889 52.1724C312.684 52.1724 309.275 55.5835 309.275 59.7914C309.275 63.9992 312.684 67.4104 316.889 67.4104Z" fill="#5C8BC6"/>
<path d="M357.635 49.887C361.793 49.2659 364.661 45.3888 364.041 41.2272C363.42 37.0657 359.546 34.1955 355.387 34.8166C351.229 35.4377 348.361 39.3148 348.981 43.4763C349.602 47.6379 353.476 50.508 357.635 49.887Z" fill="#5C8BC6"/>
<path d="M365.408 50.5127C370.713 50.5127 375.013 46.2092 375.013 40.9006C375.013 35.592 370.713 31.2886 365.408 31.2886C360.103 31.2886 355.803 35.592 355.803 40.9006C355.803 46.2092 360.103 50.5127 365.408 50.5127Z" fill="#5C8BC6"/>
<path d="M380.913 49.3665C384.143 46.6726 384.58 41.8684 381.888 38.6359C379.196 35.4034 374.395 34.9668 371.165 37.6607C367.935 40.3545 367.499 45.1588 370.191 48.3912C372.882 51.6237 377.683 52.0603 380.913 49.3665Z" fill="#5C8BC6"/>
<path d="M414.074 68.4151C417.008 64.5015 416.216 58.9488 412.305 56.0127C408.395 53.0767 402.846 53.8691 399.912 57.7827C396.978 61.6963 397.77 67.249 401.681 70.1851C405.591 73.1211 411.14 72.3287 414.074 68.4151Z" fill="#5C8BC6"/>
<path d="M408.532 80.1061C412.679 79.4097 415.477 75.4811 414.781 71.3313C414.085 67.1815 410.159 64.382 406.012 65.0784C401.866 65.7748 399.068 69.7034 399.764 73.8532C400.46 78.003 404.386 80.8025 408.532 80.1061Z" fill="#5C8BC6"/>
<path d="M413.539 128.476C417.744 128.476 421.153 125.065 421.153 120.857C421.153 116.649 417.744 113.238 413.539 113.238C409.334 113.238 405.926 116.649 405.926 120.857C405.926 125.065 409.334 128.476 413.539 128.476Z" fill="#5C8BC6"/>
<path d="M412.915 137.534C416.999 136.531 419.497 132.405 418.495 128.318C417.493 124.232 413.37 121.732 409.287 122.734C405.203 123.737 402.705 127.863 403.707 131.95C404.709 136.036 408.832 138.536 412.915 137.534Z" fill="#5C8BC6"/>
<path d="M404.115 144.147C408.32 144.147 411.729 140.736 411.729 136.528C411.729 132.32 408.32 128.909 404.115 128.909C399.911 128.909 396.502 132.32 396.502 136.528C396.502 140.736 399.911 144.147 404.115 144.147Z" fill="#5C8BC6"/>
<path d="M379.111 154.636C380.734 150.754 378.905 146.29 375.026 144.666C371.147 143.042 366.687 144.872 365.064 148.754C363.441 152.635 365.269 157.099 369.148 158.723C373.027 160.347 377.488 158.517 379.111 154.636Z" fill="#5C8BC6"/>
<path d="M360.111 159.312C364.316 159.312 367.725 155.901 367.725 151.693C367.725 147.485 364.316 144.074 360.111 144.074C355.907 144.074 352.498 147.485 352.498 151.693C352.498 155.901 355.907 159.312 360.111 159.312Z" fill="#5C8BC6"/>
<path d="M406.649 134.424C410.741 133.457 413.275 129.353 412.309 125.258C411.342 121.163 407.242 118.627 403.15 119.594C399.058 120.561 396.524 124.665 397.49 128.76C398.456 132.855 402.557 135.391 406.649 134.424Z" fill="#5C8BC6"/>
<path d="M413.545 88.9477C417.75 88.9477 421.159 85.5366 421.159 81.3287C421.159 77.1209 417.75 73.7097 413.545 73.7097C409.34 73.7097 405.932 77.1209 405.932 81.3287C405.932 85.5366 409.34 88.9477 413.545 88.9477Z" fill="#5C8BC6"/>
<path d="M426.975 99.2596C425.59 100.646 425.104 102.419 425.896 103.212C426.689 104.006 428.454 103.519 429.846 102.133C431.232 100.746 431.718 98.973 430.925 98.1797C430.126 97.3865 428.361 97.8731 426.975 99.2596Z" fill="#40649F"/>
<path d="M346.318 154.299C344.753 153.112 342.935 152.872 342.262 153.766C341.582 154.659 342.302 156.345 343.867 157.532C345.432 158.718 347.251 158.958 347.924 158.065C348.596 157.179 347.877 155.492 346.318 154.299Z" fill="#40649F"/>
<path d="M403.257 50.1795C401.871 51.566 401.385 53.3391 402.177 54.1323C402.97 54.9255 404.735 54.4389 406.127 53.0524C407.513 51.6659 407.999 49.8928 407.206 49.0996C406.414 48.3064 404.642 48.7863 403.257 50.1795Z" fill="#40649F"/>
<path d="M404.427 53.0324C402.482 53.2924 401.024 54.3989 401.17 55.5121C401.317 56.6253 403.015 57.3185 404.96 57.0586C406.905 56.7986 408.364 55.6921 408.218 54.5789C408.071 53.4724 406.372 52.7791 404.427 53.0324Z" fill="#40649F"/>
<path d="M303.329 67.2304C304.714 68.6169 306.486 69.1035 307.279 68.3103C308.071 67.5171 307.585 65.7506 306.2 64.3575C304.814 62.971 303.042 62.4844 302.25 63.2776C301.457 64.0709 301.943 65.8439 303.329 67.2304Z" fill="#40649F"/>
<path d="M305.712 63.5576C305.972 65.504 307.078 66.9638 308.19 66.8172C309.303 66.6705 309.995 64.9708 309.736 63.0244C309.476 61.0779 308.37 59.6181 307.258 59.7648C306.152 59.9114 305.459 61.6045 305.712 63.5576Z" fill="#40649F"/>
<path d="M316.943 42.6069C317.203 44.5533 318.308 46.0132 319.421 45.8665C320.533 45.7199 321.226 44.0201 320.966 42.0737C320.706 40.1273 319.6 38.6675 318.488 38.8141C317.382 38.9608 316.69 40.6605 316.943 42.6069Z" fill="#40649F"/>
<path d="M296.674 126.603C298.606 126.956 300.338 126.349 300.538 125.243C300.737 124.143 299.339 122.956 297.407 122.603C295.475 122.25 293.743 122.856 293.544 123.963C293.337 125.069 294.743 126.249 296.674 126.603Z" fill="#40649F"/>
<path d="M424.077 106.832C422.691 108.218 422.205 109.991 422.998 110.785C423.79 111.578 425.556 111.091 426.948 109.705C428.333 108.318 428.819 106.545 428.027 105.752C427.234 104.959 425.462 105.439 424.077 106.832Z" fill="#40649F"/>
<path d="M299.112 73.6897C301.07 73.8496 302.729 73.0764 302.822 71.9565C302.915 70.8367 301.403 69.8035 299.445 69.6435C297.486 69.4835 295.828 70.2568 295.735 71.3766C295.641 72.4965 297.153 73.5297 299.112 73.6897Z" fill="#40649F"/>
<path d="M304.828 133.582C305.34 131.682 304.881 129.909 303.795 129.616C302.716 129.322 301.424 130.622 300.911 132.522C300.398 134.422 300.858 136.195 301.943 136.488C303.022 136.781 304.315 135.475 304.828 133.582Z" fill="#40649F"/>
<path d="M350.421 35.0347C351.92 33.7682 352.546 32.0417 351.826 31.1885C351.1 30.3353 349.302 30.6686 347.803 31.9351C346.305 33.2016 345.678 34.928 346.398 35.7812C347.117 36.6344 348.922 36.3012 350.421 35.0347Z" fill="#40649F"/>
<path d="M397.473 153.266C397.367 151.306 396.381 149.76 395.262 149.82C394.143 149.88 393.317 151.519 393.423 153.479C393.53 155.439 394.516 156.985 395.635 156.925C396.754 156.865 397.58 155.226 397.473 153.266Z" fill="#40649F"/>
<path d="M352.585 92.9936C354.084 91.7271 354.71 90.0007 353.991 89.1475C353.264 88.2943 351.466 88.6275 349.967 89.894C348.469 91.1605 347.842 92.887 348.562 93.7402C349.288 94.5934 351.086 94.2601 352.585 92.9936Z" fill="#40649F"/>
<path d="M296.541 122.217C297.86 123.676 299.598 124.243 300.431 123.49C301.263 122.737 300.864 120.943 299.545 119.49C298.226 118.03 296.488 117.464 295.655 118.217C294.829 118.97 295.229 120.763 296.541 122.217Z" fill="#40649F"/>
<path d="M417.27 74.0362C415.885 75.4227 415.399 77.1958 416.191 77.989C416.984 78.7822 418.749 78.2956 420.141 76.9092C421.527 75.5227 422.013 73.7496 421.22 72.9563C420.428 72.1631 418.656 72.6497 417.27 74.0362Z" fill="#40649F"/>
<path d="M330.391 64.9041C329.006 66.2906 328.52 68.0637 329.312 68.8569C330.105 69.6502 331.87 69.1636 333.262 67.7771C334.648 66.3906 335.134 64.6175 334.341 63.8243C333.549 63.031 331.783 63.5176 330.391 64.9041Z" fill="#40649F"/>
<path d="M416.071 131.615C414.686 133.002 414.199 134.775 414.992 135.568C415.785 136.361 417.55 135.875 418.942 134.488C420.327 133.102 420.814 131.329 420.021 130.535C419.228 129.742 417.463 130.222 416.071 131.615Z" fill="#40649F"/>
<path d="M327.154 63.1776C326.994 65.1373 327.767 66.7971 328.886 66.8904C330.005 66.9838 331.037 65.4706 331.197 63.5109C331.357 61.5511 330.584 59.8914 329.465 59.798C328.353 59.7047 327.314 61.2178 327.154 63.1776Z" fill="#40649F"/>
<path d="M390.98 63.6242C390.594 65.5506 391.166 67.2904 392.265 67.5103C393.365 67.7303 394.57 66.3505 394.956 64.4241C395.343 62.4977 394.77 60.7579 393.671 60.5379C392.572 60.318 391.366 61.6978 390.98 63.6242Z" fill="#40649F"/>
<path d="M381.349 37.9211C380.963 39.8475 381.536 41.5873 382.635 41.8072C383.734 42.0272 384.939 40.6474 385.326 38.721C385.712 36.7946 385.139 35.0548 384.04 34.8348C382.941 34.6082 381.735 35.9947 381.349 37.9211Z" fill="#40649F"/>
<path d="M344.16 31.9885C343.773 33.9149 344.346 35.6546 345.445 35.8746C346.544 36.0946 347.75 34.7148 348.136 32.7883C348.522 30.8619 347.95 29.1222 346.851 28.9022C345.752 28.6822 344.546 30.062 344.16 31.9885Z" fill="#40649F"/>
<path d="M420.781 76.9826C418.836 77.2426 417.377 78.3491 417.524 79.4623C417.67 80.5755 419.369 81.2687 421.314 81.0087C423.259 80.7488 424.718 79.6423 424.571 78.5291C424.425 77.4226 422.726 76.7293 420.781 76.9826Z" fill="#40649F"/>
<path d="M387.177 157.665C386.204 159.372 386.204 161.205 387.177 161.765C388.149 162.318 389.728 161.385 390.7 159.678C391.673 157.972 391.673 156.139 390.7 155.579C389.728 155.019 388.149 155.959 387.177 157.665Z" fill="#40649F"/>
<path d="M385.71 150.646C383.965 151.546 382.959 153.079 383.472 154.079C383.985 155.079 385.816 155.159 387.562 154.259C389.307 153.359 390.313 151.826 389.8 150.826C389.287 149.833 387.455 149.753 385.71 150.646Z" fill="#40649F"/>
<path d="M387.636 100.599C385.891 101.499 384.885 103.032 385.398 104.032C385.91 105.032 387.742 105.112 389.487 104.212C391.233 103.312 392.238 101.779 391.725 100.779C391.219 99.7795 389.387 99.6995 387.636 100.599Z" fill="#40649F"/>
<path d="M368.212 127.202C367.499 125.369 366.074 124.216 365.028 124.623C363.982 125.029 363.716 126.843 364.429 128.676C365.141 130.509 366.567 131.662 367.613 131.255C368.658 130.849 368.925 129.036 368.212 127.202Z" fill="#40649F"/>
<path d="M352.353 81.6551C351.64 79.822 350.214 78.6688 349.169 79.0755C348.123 79.4821 347.856 81.2952 348.569 83.1283C349.282 84.9613 350.707 86.1145 351.753 85.7079C352.799 85.3013 353.065 83.4882 352.353 81.6551Z" fill="#40649F"/>
<path d="M316.804 46.0265C315.032 45.1733 313.207 45.3066 312.721 46.3198C312.235 47.333 313.28 48.8395 315.045 49.6927C316.817 50.5459 318.642 50.4126 319.129 49.3994C319.621 48.3862 318.576 46.8797 316.804 46.0265Z" fill="#40649F"/>
<path d="M400.019 44.1269C399.633 46.0533 400.205 47.7931 401.304 48.013C402.404 48.233 403.609 46.8532 403.996 44.9268C404.382 43.0004 403.809 41.2606 402.71 41.0406C401.611 40.814 400.405 42.2005 400.019 44.1269Z" fill="#40649F"/>
<path d="M425.576 108.758C423.631 109.018 422.172 110.125 422.319 111.238C422.465 112.351 424.164 113.044 426.109 112.784C428.054 112.524 429.513 111.418 429.366 110.305C429.219 109.198 427.528 108.505 425.576 108.758Z" fill="#40649F"/>
<path d="M304.293 92.0404C305.499 90.8339 305.925 89.2941 305.232 88.6009C304.546 87.9143 303.007 88.3343 301.795 89.5408C300.589 90.7473 300.163 92.2871 300.856 92.9803C301.549 93.6669 303.087 93.2469 304.293 92.0404Z" fill="#6FA1D8"/>
<path d="M374.466 44.1535C375.825 45.1866 377.41 45.3933 377.997 44.6201C378.589 43.8402 377.963 42.3737 376.598 41.3405C375.239 40.3073 373.654 40.1006 373.068 40.8739C372.481 41.6538 373.107 43.1203 374.466 44.1535Z" fill="#6FA1D8"/>
<path d="M324.928 134.741C326.133 133.535 326.56 131.995 325.867 131.302C325.181 130.615 323.642 131.035 322.43 132.242C321.224 133.448 320.798 134.988 321.491 135.681C322.183 136.375 323.722 135.955 324.928 134.741Z" fill="#6FA1D8"/>
<path d="M323.909 132.262C325.601 132.035 326.873 131.075 326.747 130.109C326.62 129.142 325.142 128.536 323.45 128.762C321.758 128.989 320.486 129.949 320.612 130.915C320.739 131.882 322.218 132.482 323.909 132.262Z" fill="#6FA1D8"/>
<path d="M411.868 119.903C410.663 118.697 409.124 118.27 408.431 118.964C407.745 119.65 408.165 121.19 409.37 122.403C410.576 123.61 412.115 124.036 412.807 123.343C413.493 122.656 413.074 121.117 411.868 119.903Z" fill="#6FA1D8"/>
<path d="M409.789 123.103C409.562 121.41 408.603 120.137 407.637 120.263C406.671 120.39 406.065 121.87 406.292 123.563C406.518 125.256 407.477 126.529 408.443 126.403C409.409 126.276 410.015 124.803 409.789 123.103Z" fill="#6FA1D8"/>
<path d="M400.017 141.334C399.791 139.641 398.831 138.368 397.866 138.494C396.9 138.621 396.294 140.101 396.52 141.794C396.747 143.487 397.706 144.76 398.672 144.633C399.637 144.507 400.244 143.027 400.017 141.334Z" fill="#6FA1D8"/>
<path d="M417.661 68.257C415.983 67.9504 414.477 68.4769 414.298 69.4368C414.124 70.3967 415.343 71.4232 417.022 71.7298C418.701 72.0365 420.206 71.5099 420.379 70.55C420.559 69.5901 419.34 68.5636 417.661 68.257Z" fill="#6FA1D8"/>
<path d="M306.811 85.4546C308.016 84.2481 308.442 82.7083 307.75 82.0151C307.064 81.3285 305.525 81.7484 304.313 82.9549C303.107 84.1614 302.681 85.7012 303.374 86.3945C304.066 87.0811 305.605 86.6611 306.811 85.4546Z" fill="#6FA1D8"/>
<path d="M415.537 114.284C413.832 114.144 412.386 114.818 412.306 115.791C412.226 116.764 413.538 117.664 415.244 117.804C416.949 117.944 418.394 117.271 418.474 116.297C418.554 115.331 417.242 114.424 415.537 114.284Z" fill="#6FA1D8"/>
<path d="M410.561 62.1843C410.115 63.8374 410.515 65.3772 411.461 65.6305C412.4 65.8838 413.526 64.7506 413.972 63.1042C414.418 61.4511 414.018 59.9113 413.073 59.658C412.133 59.398 411.008 60.5312 410.561 62.1843Z" fill="#6FA1D8"/>
<path d="M370.895 147.92C369.589 149.026 369.043 150.526 369.676 151.266C370.308 152.012 371.874 151.719 373.179 150.613C374.485 149.506 375.031 148.006 374.398 147.266C373.765 146.526 372.2 146.82 370.895 147.92Z" fill="#6FA1D8"/>
<path d="M329.957 45.0533C330.051 46.7597 330.91 48.1062 331.882 48.0529C332.855 47.9995 333.574 46.5731 333.481 44.8666C333.388 43.1602 332.528 41.8137 331.556 41.867C330.583 41.9203 329.864 43.3468 329.957 45.0533Z" fill="#6FA1D8"/>
<path d="M369.012 97.4932C367.706 98.5997 367.16 100.099 367.793 100.839C368.426 101.586 369.991 101.293 371.296 100.186C372.602 99.0796 373.148 97.5798 372.515 96.8399C371.883 96.1 370.317 96.3866 369.012 97.4932Z" fill="#6FA1D8"/>
<path d="M417.769 72.0632C416.623 70.7967 415.104 70.2968 414.385 70.9567C413.665 71.6099 414.005 73.1697 415.151 74.4362C416.297 75.7027 417.815 76.2026 418.535 75.5427C419.261 74.8895 418.914 73.3364 417.769 72.0632Z" fill="#6FA1D8"/>
<path d="M312.732 113.984C313.938 112.778 314.364 111.238 313.672 110.545C312.986 109.858 311.447 110.278 310.235 111.485C309.029 112.691 308.603 114.231 309.295 114.924C309.988 115.617 311.527 115.197 312.732 113.984Z" fill="#6FA1D8"/>
<path d="M388.32 121.93C389.526 120.723 389.952 119.184 389.26 118.49C388.567 117.797 387.035 118.224 385.822 119.43C384.617 120.637 384.191 122.176 384.883 122.87C385.576 123.563 387.115 123.143 388.32 121.93Z" fill="#6FA1D8"/>
<path d="M313.779 63.8909C314.985 62.6844 315.411 61.1446 314.718 60.4513C314.032 59.7648 312.494 60.1847 311.281 61.3912C310.076 62.5977 309.65 64.1375 310.342 64.8308C311.028 65.524 312.567 65.0974 313.779 63.8909Z" fill="#6FA1D8"/>
<path d="M391.139 123.436C391.279 121.73 390.606 120.283 389.634 120.203C388.661 120.123 387.762 121.437 387.622 123.143C387.482 124.849 388.155 126.296 389.127 126.376C390.1 126.456 390.999 125.143 391.139 123.436Z" fill="#6FA1D8"/>
<path d="M343.987 145.407C344.326 143.734 343.82 142.214 342.868 142.021C341.915 141.827 340.863 143.034 340.53 144.707C340.19 146.38 340.696 147.9 341.649 148.093C342.601 148.286 343.654 147.087 343.987 145.407Z" fill="#6FA1D8"/>
<path d="M376.344 150.566C376.684 148.893 376.178 147.373 375.225 147.18C374.273 146.987 373.22 148.193 372.887 149.866C372.547 151.539 373.054 153.059 374.006 153.252C374.959 153.446 376.004 152.246 376.344 150.566Z" fill="#6FA1D8"/>
<path d="M309.681 111.424C311.373 111.198 312.645 110.238 312.518 109.271C312.392 108.305 310.913 107.698 309.221 107.925C307.529 108.152 306.257 109.111 306.384 110.078C306.51 111.045 307.989 111.644 309.681 111.424Z" fill="#6FA1D8"/>
<path d="M338.917 41.2272C339.763 39.7407 339.763 38.1476 338.917 37.661C338.071 37.181 336.699 37.9876 335.853 39.4741C335.007 40.9605 335.007 42.5537 335.853 43.0403C336.699 43.5269 338.071 42.7136 338.917 41.2272Z" fill="#6FA1D8"/>
<path d="M340.195 47.333C341.714 46.5531 342.586 45.2133 342.14 44.3467C341.694 43.4802 340.102 43.4069 338.583 44.1868C337.065 44.9667 336.192 46.3065 336.638 47.173C337.078 48.0396 338.676 48.1129 340.195 47.333Z" fill="#6FA1D8"/>
<path d="M396.626 41.6537C397.245 43.2468 398.484 44.2534 399.397 43.9001C400.303 43.5468 400.536 41.967 399.917 40.3739C399.297 38.7808 398.058 37.7742 397.146 38.1275C396.24 38.4875 396.007 40.0606 396.626 41.6537Z" fill="#6FA1D8"/>
<path d="M367.519 119.277C368.138 120.87 369.377 121.877 370.29 121.523C371.195 121.17 371.429 119.59 370.809 117.997C370.19 116.404 368.951 115.397 368.038 115.751C367.132 116.104 366.899 117.684 367.519 119.277Z" fill="#6FA1D8"/>
<path d="M400.143 138.354C401.682 139.094 403.274 138.981 403.694 138.101C404.113 137.221 403.208 135.908 401.669 135.168C400.13 134.428 398.538 134.542 398.119 135.421C397.692 136.301 398.605 137.614 400.143 138.354Z" fill="#6FA1D8"/>
<path d="M327.746 140.007C328.086 138.334 327.58 136.814 326.627 136.621C325.675 136.428 324.622 137.634 324.289 139.307C323.95 140.981 324.456 142.5 325.408 142.694C326.361 142.887 327.407 141.687 327.746 140.007Z" fill="#6FA1D8"/>
<path d="M305.505 83.7749C307.197 83.5483 308.469 82.5884 308.343 81.6219C308.216 80.6553 306.737 80.0488 305.045 80.2754C303.354 80.502 302.081 81.4619 302.208 82.4285C302.334 83.395 303.813 84.0016 305.505 83.7749Z" fill="#6FA1D8"/>
<path d="M359.779 248.82C358.966 248.82 358.307 248.027 358.307 247.047V116.564C358.307 115.584 358.966 114.791 359.779 114.791C360.591 114.791 361.251 115.584 361.251 116.564V247.047C361.257 248.027 360.598 248.82 359.779 248.82Z" fill="#40649F"/>
<path d="M357.834 137.901C331.684 137.901 326.721 114.697 325.935 109.425C325.849 108.858 326.268 108.332 326.841 108.292L327.494 108.238C328.02 108.198 328.486 108.572 328.56 109.092C329.219 113.991 333.569 135.761 358.734 135.228C359.28 135.215 359.739 135.635 359.759 136.181L359.786 136.855C359.813 137.408 359.38 137.881 358.82 137.894C358.5 137.901 358.167 137.901 357.834 137.901Z" fill="#40649F"/>
<path d="M346.059 239.381H46.6035V250.446H346.059V239.381Z" fill="#3459FF"/>
<path d="M321.12 15.7905H71.5352V26.4225H321.12V15.7905Z" fill="#4364FA"/>
<path d="M70.3697 34.1082H46.6035V38.121H70.3697V34.1082Z" fill="#1C344D"/>
<path d="M70.3697 59.8914H46.6035V63.9042H70.3697V59.8914Z" fill="#1C344D"/>
<path d="M331.111 36.3479H61.543V229.209H331.111V36.3479Z" fill="#F7F7FF"/>
<path d="M147.122 128.136H75.8105V234.982H147.122V128.136Z" fill="#40649F"/>
<path d="M140.27 134.721H82.666V234.982H140.27V134.721Z" fill="#B0A8C6"/>
<path d="M316.265 128.136H156.969V213.198H316.265V128.136Z" fill="#40649F"/>
<path d="M140.27 134.721H82.666V214.871H140.27V134.721Z" fill="#E9E4F2"/>
<path d="M311.136 134.721H162.098V200.159H311.136V134.721Z" fill="#E9E4F2"/>
<mask id="mask0_720_5419" style="mask-type:luminance" maskUnits="userSpaceOnUse" x="162" y="134" width="150" height="67">
<path d="M311.136 134.721H162.098V200.159H311.136V134.721Z" fill="white"/>
</mask>
<g mask="url(#mask0_720_5419)">
<path d="M244.446 180.569C244.446 180.569 243.927 182.295 243.754 182.908C243.587 183.522 243.108 184.695 242.854 184.621C242.601 184.555 243.108 182.262 242.974 182.122C242.841 181.988 241.749 183.155 241.649 183.462C241.549 183.768 241.889 186.075 241.649 186.095C241.409 186.115 240.816 184.921 240.663 183.595C240.51 182.268 242.422 179.589 242.422 179.589L244.446 180.569Z" fill="#CEC7DD"/>
<path d="M256.003 180.729C255.896 175.129 251.84 174.636 251.84 174.636C251.84 174.636 247.783 174.143 247.61 179.709C247.477 183.981 248.669 195.627 249.235 200.819C249.395 202.286 250.434 203.486 251.66 203.632C252.892 203.779 253.938 202.832 254.118 201.413C254.75 196.367 256.089 185.028 256.003 180.729Z" fill="#CEC7DD"/>
<path d="M265.569 180.729C265.463 175.129 261.406 174.636 261.406 174.636C261.406 174.636 257.35 174.143 257.176 179.709C257.043 183.981 258.235 195.627 258.802 200.819C258.961 202.286 259.994 203.486 261.226 203.632C262.458 203.779 263.511 202.832 263.684 201.413C264.317 196.367 265.649 185.028 265.569 180.729Z" fill="#CEC7DD"/>
<path d="M254.191 200.979C254.077 198.646 251.806 198.646 251.806 198.646C251.806 198.646 249.535 198.646 249.421 200.979C249.308 203.312 250.56 221.137 250.56 221.137H253.504C253.504 221.137 254.297 203.312 254.191 200.979Z" fill="#CEC7DD"/>
<path d="M263.37 199.393C262.617 197.18 260.432 197.806 260.432 197.806C260.432 197.806 258.247 198.433 258.787 200.706C259.326 202.979 265.448 219.763 265.448 219.763L268.272 218.95C268.279 218.95 264.122 201.606 263.37 199.393Z" fill="#CEC7DD"/>
<path d="M262.366 153.226C262.366 153.226 265.423 152.739 265.596 156.892C265.749 160.525 266.109 165.884 266.202 168.09C266.236 168.83 265.543 169.49 264.624 169.623C263.704 169.75 262.859 169.297 262.692 168.577C262.186 166.424 261.027 161.184 260.247 157.632C259.362 153.579 262.366 153.226 262.366 153.226Z" fill="#CEC7DD"/>
<path d="M261.638 152.799C261.525 152.766 261.419 152.732 261.305 152.699C258.075 151.732 254.731 151.732 251.501 152.699C251.387 152.732 251.274 152.766 251.161 152.806C250.775 152.926 250.475 153.346 250.395 153.872C249.862 157.518 250.362 169.417 250.548 173.35C250.581 174.07 251.021 174.623 251.561 174.623H256.396H256.403H261.239C261.772 174.623 262.218 174.063 262.251 173.35C262.438 169.417 262.937 157.518 262.405 153.872C262.325 153.339 262.025 152.919 261.638 152.799Z" fill="#CEC7DD"/>
<path d="M265.055 177.669C264.089 172.476 262.257 170.663 262.257 170.663H250.434C250.434 170.663 248.689 173.163 247.723 178.362C247.583 179.115 247.916 179.875 248.576 180.302C249.868 181.128 252.379 182.308 256.262 182.308C260.139 182.308 262.657 181.135 263.949 180.302C264.595 179.875 265.195 178.422 265.055 177.669Z" fill="#CEC7DD"/>
<path d="M258.729 147.346H254.053V153.026H258.729V147.346Z" fill="#CEC7DD"/>
<path d="M258.595 149.299C258.595 149.299 257.243 151.019 254.053 151.019C254.053 148.9 254.053 148.58 254.053 148.58L258.595 149.299Z" fill="#CEC7DD"/>
<path d="M250.92 153.226C250.92 153.226 247.863 152.739 247.689 156.892C247.536 160.525 247.176 165.884 247.083 168.09C247.05 168.83 247.743 169.49 248.662 169.623C249.581 169.75 250.427 169.297 250.593 168.577C251.1 166.424 252.259 161.184 253.038 157.632C253.931 153.579 250.92 153.226 250.92 153.226Z" fill="#CEC7DD"/>
<path d="M249.236 166.264C249.236 166.264 247.298 165.384 245.953 169.317C244.774 172.756 242.935 177.816 242.216 179.909C241.976 180.609 242.249 181.335 242.835 181.582C243.421 181.828 244.134 181.509 244.46 180.849C245.446 178.869 247.791 174.03 249.376 170.75C251.181 167.01 249.236 166.264 249.236 166.264Z" fill="#CEC7DD"/>
<path d="M265.074 199.799C265.074 198.466 269.93 176.596 262.39 170.01H250.4C250.4 170.01 247.076 174.523 247.076 185.041C247.076 195.56 247.682 220.33 247.682 220.33H254.936L256.708 182.295C256.708 182.295 257.341 195.68 257.907 200.433C258.48 205.185 263.136 219.763 263.136 219.763L269.557 218.044C269.563 218.044 265.074 201.126 265.074 199.799Z" fill="#CEC7DD"/>
<path d="M254.051 151.566C254.051 151.566 249.255 151.972 247.69 154.245C246.438 156.072 246.571 165.524 246.138 166.977C245.705 168.437 240.363 178.462 242.221 179.902C244.073 181.342 245.079 181.842 245.578 181.342C246.078 180.842 247.35 177.622 247.35 177.622C247.35 177.622 256.089 178.762 261.498 178.762C266.913 178.762 267.799 175.916 267.353 173.916C266.907 171.916 266.813 162.924 266.207 158.358C265.601 153.799 265.674 153.246 258.727 151.559C256.016 152.472 254.051 151.566 254.051 151.566Z" fill="#CEC7DD"/>
<path d="M266.2 168.67C266.2 168.67 265.588 170.703 261.744 169.137C258.374 167.764 253.365 165.824 251.313 164.984C250.627 164.704 250.261 164.024 250.461 163.418C250.66 162.811 251.366 162.491 252.079 162.678C254.217 163.238 259.4 164.657 262.91 165.617C266.913 166.717 266.2 168.67 266.2 168.67Z" fill="#CEC7DD"/>
<path d="M252.145 166.584C251.413 166.171 251.033 165.317 251.239 164.497C251.466 163.584 251.832 162.471 252.332 161.971C253.258 161.045 261.491 164.191 261.491 164.191C261.491 164.191 261.151 156.112 263.143 153.026C266.08 153.866 266.147 155.259 266.906 162.231C267.665 169.197 266.28 171.23 263.143 171.23C260.711 171.223 254.71 168.024 252.145 166.584Z" fill="#CEC7DD"/>
<path d="M247.443 164.337C247.463 164.104 249.235 164.137 249.235 164.137C249.235 164.137 246.831 163.571 246.857 163.324C246.891 163.078 249.309 163.511 249.309 163.511C249.309 163.511 246.777 162.564 246.857 162.324C246.937 162.084 249.382 162.851 249.382 162.851C249.382 162.851 247.057 161.751 247.224 161.531C247.39 161.311 250.488 162.478 250.488 162.478C250.488 162.478 248.949 161.398 248.982 161.164C249.002 161.004 249.415 161.218 250.088 161.504C251.32 162.038 252.239 162.844 252.239 162.844L251.826 164.837C251.833 164.837 247.43 164.571 247.443 164.337Z" fill="#CEC7DD"/>
<path d="M254.31 150.446H255.516C258.453 150.446 260.858 148.04 260.858 145.1V142.667C260.858 140.827 259.353 139.321 257.508 139.321H256.082C254.244 139.321 252.738 140.827 252.738 142.667V148.873C252.738 149.739 253.444 150.446 254.31 150.446Z" fill="#CEC7DD"/>
<path d="M252.738 144.88C252.738 144.88 250.633 147.553 252.738 147.553V144.88Z" fill="#CEC7DD"/>
<path d="M257.421 145.487C257.421 145.487 256.029 143.947 256.355 140.841C253.657 140.841 252.938 141.534 252.938 141.534C252.938 141.534 251.286 140.101 253.411 138.341C255.536 136.581 260.938 137.028 261.717 140.554C262.496 144.073 262.05 147.7 258.653 149.426C258.933 146.813 257.421 145.487 257.421 145.487Z" fill="#CEC7DD"/>
<path d="M256.197 145.68H252.234C252.234 145.68 251.654 146.36 251.654 147.286C251.654 148.213 252.853 150.166 254.066 150.526C255.278 150.879 256.99 150.239 256.99 150.239L256.197 145.68Z" fill="#CEC7DD"/>
<path d="M256.856 145.44C256.543 146.267 256.809 147.133 257.449 147.38C258.088 147.626 258.861 147.153 259.181 146.327C259.5 145.5 259.227 144.633 258.588 144.387C257.948 144.14 257.169 144.613 256.856 145.44Z" fill="#CEC7DD"/>
<path d="M314.113 173.043H160.672V229.716H314.113V173.043Z" fill="#F2F0F7"/>
<path d="M195.749 178.556C195.749 178.556 196.282 180.082 196.249 180.689C196.215 181.295 196.009 182.495 195.749 182.488C195.483 182.475 195.483 180.222 195.316 180.122C195.156 180.022 194.35 181.349 194.317 181.655C194.284 181.962 195.123 184.055 194.89 184.121C194.663 184.188 193.824 183.195 193.384 181.988C192.945 180.782 193.977 178.935 193.977 178.935L195.749 178.556Z" fill="#CEC7DD"/>
<path d="M223.898 173.743C223.898 173.743 225.477 174.263 226.117 174.243C226.749 174.216 228.002 174.029 227.988 173.776C227.982 173.523 225.63 173.496 225.53 173.343C225.43 173.183 226.816 172.423 227.136 172.396C227.455 172.37 229.627 173.19 229.7 172.97C229.773 172.75 228.748 171.936 227.495 171.503C226.243 171.07 224.311 172.043 224.311 172.043L223.898 173.743Z" fill="#CEC7DD"/>
<path d="M193.092 164.017C193.092 164.017 190.974 164.197 191.726 168.124C192.386 171.563 193.265 176.656 193.665 178.749C193.798 179.449 194.391 179.929 195.023 179.855C195.656 179.782 196.116 179.182 196.082 178.476C195.969 176.356 195.636 171.197 195.41 167.71C195.15 163.731 193.092 164.017 193.092 164.017Z" fill="#CEC7DD"/>
<path d="M208.904 152.086C208.791 152.052 208.684 152.019 208.571 151.986C205.341 151.059 201.997 151.059 198.766 151.986C198.653 152.019 198.54 152.052 198.427 152.086C198.04 152.206 197.74 152.606 197.66 153.112C197.128 156.619 197.627 168.044 197.814 171.817C197.847 172.51 198.287 173.043 198.826 173.043H203.662H203.669H208.504C209.037 173.043 209.484 172.51 209.517 171.817C209.703 168.037 210.203 156.612 209.67 153.112C209.59 152.606 209.297 152.199 208.904 152.086Z" fill="#CEC7DD"/>
<path d="M195.401 199.026C195.401 199 195.401 198.973 195.401 198.953C195.328 198.766 195.388 199.013 195.401 199.026Z" fill="#CEC7DD"/>
<path d="M212.347 178.236C212.334 176.982 212.214 175.736 211.988 174.509C211.988 174.496 211.981 174.489 211.981 174.483C211.015 169.497 209.516 169.237 209.516 169.237H197.52C197.52 169.237 196.341 169.837 195.382 174.823L195.255 175.743C195.042 177.309 194.922 178.889 194.896 180.469C194.809 185.721 194.856 194.84 195.395 199.02C195.462 202.886 196.694 217.697 196.694 217.697H201.643C201.643 217.697 202.542 200.586 202.416 198.34C202.416 198.326 202.416 198.32 202.409 198.313C202.742 196.033 203.215 192.66 203.622 189.281C204.034 192.66 204.507 196.033 204.834 198.313C204.834 198.326 204.834 198.333 204.827 198.34C204.701 200.579 205.6 217.697 205.6 217.697H210.549C210.549 217.697 211.781 202.886 211.848 199.02C212.427 194.747 212.401 183.808 212.347 178.236Z" fill="#CEC7DD"/>
<path d="M206.906 146.853H202.23V152.306H206.906V146.853Z" fill="#CEC7DD"/>
<path d="M199.48 144.813C199.48 145.52 199.947 146.1 200.52 146.1C201.092 146.1 201.559 145.527 201.559 144.813C201.559 144.107 201.092 143.527 200.52 143.527C199.947 143.527 199.48 144.107 199.48 144.813Z" fill="#CEC7DD"/>
<path d="M207.6 144.813C207.6 145.52 208.066 146.1 208.639 146.1C209.212 146.1 209.678 145.526 209.678 144.813C209.678 144.107 209.212 143.527 208.639 143.527C208.066 143.527 207.6 144.107 207.6 144.813Z" fill="#CEC7DD"/>
<path d="M204.496 149.579H204.656C206.847 149.579 208.633 147.786 208.633 145.6V142.18C208.633 140.374 207.154 138.901 205.355 138.901H203.797C201.992 138.901 200.52 140.381 200.52 142.18V145.6C200.513 147.786 202.305 149.579 204.496 149.579Z" fill="#CEC7DD"/>
<path d="M198.806 152.686C198.806 152.686 195.949 151.546 194.803 155.379C193.804 158.738 192.192 163.658 191.586 165.697C191.386 166.377 191.899 167.157 192.758 167.484C193.624 167.81 194.55 167.577 194.883 166.944C195.882 165.051 198.234 160.418 199.826 157.278C201.651 153.699 198.806 152.686 198.806 152.686Z" fill="#CEC7DD"/>
<path d="M209.751 151.679C209.751 151.679 206.747 152.392 208.192 156.125C209.458 159.398 211.196 164.278 211.969 166.264C212.229 166.931 213.121 167.264 214.014 167.031C214.913 166.797 215.512 166.084 215.393 165.384C215.026 163.291 214.067 158.218 213.408 154.785C212.662 150.873 209.751 151.679 209.751 151.679Z" fill="#CEC7DD"/>
<path d="M212.189 164.404C212.189 164.404 210.497 165.837 214.021 167.944C217.112 169.79 221.828 172.376 223.706 173.503C224.332 173.876 225.105 173.783 225.471 173.283C225.844 172.783 225.691 172.056 225.118 171.603C223.413 170.257 219.216 167.024 216.379 164.831C213.148 162.338 212.189 164.404 212.189 164.404Z" fill="#CEC7DD"/>
<path d="M202.231 151.053C202.231 151.053 197.182 152.092 195.27 152.952C193.358 153.812 191.566 162.998 191.566 162.998L196.083 164.931L194.224 177.069C193.998 178.549 195.063 179.929 196.602 180.135C199.826 180.569 205.454 181.015 211.283 180.035C212.688 179.802 213.667 178.549 213.574 177.182C212.841 166.277 211.336 157.132 211.336 157.132L211.902 164.884L216.278 163.278L214.467 152.879C214 151.886 213.041 151.193 211.922 151.046L206.96 150.373C206.953 150.379 204.855 152.159 202.231 151.053Z" fill="#CEC7DD"/>
<path d="M204.363 150.039C204.363 150.039 207.327 150.179 208.646 147.26C209.971 144.34 210.597 141.434 208.186 139.121C205.775 136.801 202.398 137.614 201.179 138.781C199.966 139.947 198.867 141.56 199.414 144.653C199.966 147.74 202.111 150.039 204.363 150.039Z" fill="#CEC7DD"/>
<path d="M183.212 149.073H147.123V214.737H183.212V149.073Z" fill="#CEC7DD"/>
<path d="M314.112 155.399H278.023V214.737H314.112V155.399Z" fill="#CEC7DD"/>
</g>
<path d="M334.175 228.056H58.4863V239.374H334.175V228.056Z" fill="#758EFF"/>
<path d="M142.846 228.056H80.0938V239.374H142.846V228.056Z" fill="#9C95B5"/>
<path d="M147.122 239.381H75.8105V250.446H147.122V239.381Z" fill="#8A83A5"/>
<path d="M41.8607 252.479H39.123V257.099H41.8607V252.479Z" fill="#4364FA"/>
<path d="M66.2337 252.479H63.4961V257.099H66.2337V252.479Z" fill="#4364FA"/>
<path d="M67.6121 210.338H37.7578V254.359H67.6121V210.338Z" fill="#4364FA"/>
<path d="M66.0274 211.925H39.3438V252.766H66.0274V211.925Z" fill="#F7F6FC"/>
<path d="M41.4688 228.162C41.4688 227.857 41.5234 227.571 41.6327 227.304C41.742 227.034 41.8922 226.803 42.0835 226.609C42.2747 226.416 42.505 226.264 42.7743 226.152C43.0455 226.041 43.3363 225.985 43.6466 225.985C44.1481 225.985 44.5774 226.122 44.9345 226.396C45.2936 226.669 45.5356 227.03 45.6604 227.479H44.9638C44.8721 227.204 44.7072 226.988 44.4691 226.832C44.231 226.676 43.9568 226.598 43.6466 226.598C43.3656 226.598 43.1099 226.666 42.8796 226.803C42.6494 226.937 42.4689 227.125 42.3381 227.365C42.2074 227.603 42.142 227.869 42.142 228.162C42.142 228.613 42.2854 228.987 42.5723 229.284C42.8592 229.581 43.2172 229.729 43.6466 229.729C43.9568 229.729 44.23 229.652 44.4662 229.498C44.7023 229.343 44.8682 229.129 44.9638 228.853H45.6722C45.5531 229.302 45.3111 229.663 44.9462 229.934C44.5833 230.206 44.15 230.341 43.6466 230.341C43.3363 230.341 43.0455 230.287 42.7743 230.177C42.503 230.066 42.2718 229.915 42.0805 229.723C41.8912 229.53 41.742 229.298 41.6327 229.029C41.5234 228.76 41.4688 228.47 41.4688 228.162Z" fill="#4364FA"/>
<path d="M46.2225 228.695C46.2225 228.385 46.2927 228.103 46.4332 227.851C46.5757 227.599 46.7737 227.402 47.0274 227.26C47.2811 227.117 47.566 227.046 47.8822 227.046C48.1983 227.046 48.4822 227.118 48.734 227.263C48.9877 227.407 49.1838 227.605 49.3223 227.857C49.4628 228.107 49.5331 228.387 49.5331 228.695C49.5331 229.004 49.4619 229.284 49.3194 229.536C49.1789 229.786 48.9818 229.983 48.7281 230.127C48.4744 230.27 48.1905 230.341 47.8763 230.341C47.3963 230.341 47.0001 230.186 46.6879 229.876C46.3776 229.563 46.2225 229.17 46.2225 228.695ZM46.8635 228.695C46.8635 229.008 46.9582 229.265 47.1474 229.468C47.3387 229.67 47.5816 229.77 47.8763 229.77C48.1729 229.77 48.4159 229.669 48.6052 229.465C48.7964 229.262 48.892 229.006 48.892 228.695C48.892 228.383 48.7964 228.126 48.6052 227.925C48.4159 227.724 48.1729 227.623 47.8763 227.623C47.5797 227.623 47.3367 227.724 47.1474 227.928C46.9582 228.129 46.8635 228.385 46.8635 228.695Z" fill="#4364FA"/>
<path d="M50.2912 230.262V227.125H50.903V227.538H50.944C51.0181 227.393 51.1303 227.275 51.2806 227.184C51.4309 227.092 51.6123 227.046 51.8251 227.046C52.0456 227.046 52.2378 227.093 52.4017 227.186C52.5656 227.28 52.6934 227.409 52.7852 227.573H52.8261C53.0252 227.222 53.3472 227.046 53.7921 227.046C54.1356 227.046 54.4117 227.154 54.6205 227.371C54.8313 227.586 54.9366 227.864 54.9366 228.206V230.262H54.3073V228.42C54.3073 228.168 54.2497 227.974 54.1346 227.84C54.0195 227.703 53.8575 227.635 53.6487 227.635C53.4438 227.635 53.273 227.707 53.1364 227.851C53.0018 227.994 52.9345 228.187 52.9345 228.431V230.262H52.3051V228.349C52.3051 228.133 52.2427 227.96 52.1178 227.831C51.9929 227.7 51.8299 227.635 51.6289 227.635C51.4279 227.635 51.2591 227.708 51.1225 227.854C50.9879 227.999 50.9206 228.185 50.9206 228.414V230.262H50.2912Z" fill="#4364FA"/>
<path d="M55.7445 226.232C55.7445 226.116 55.7836 226.022 55.8616 225.947C55.9397 225.873 56.0382 225.836 56.1573 225.836C56.2802 225.836 56.3807 225.873 56.4588 225.947C56.5388 226.022 56.5788 226.116 56.5788 226.232C56.5788 226.351 56.5388 226.447 56.4588 226.522C56.3807 226.596 56.2802 226.633 56.1573 226.633C56.0363 226.633 55.9367 226.596 55.8587 226.522C55.7826 226.447 55.7445 226.351 55.7445 226.232ZM55.8411 230.262V227.125H56.4705V230.262H55.8411Z" fill="#4364FA"/>
<path d="M57.375 230.262V227.125H57.9867V227.544H58.0277C58.096 227.403 58.2112 227.285 58.3731 227.189C58.5351 227.094 58.7263 227.046 58.9468 227.046C59.2962 227.046 59.5752 227.159 59.784 227.386C59.9928 227.612 60.0972 227.899 60.0972 228.247V230.262H59.4679V228.367C59.4679 228.15 59.4006 227.974 59.2659 227.84C59.1332 227.703 58.9664 227.635 58.7654 227.635C58.5468 227.635 58.3653 227.711 58.2209 227.863C58.0765 228.014 58.0043 228.203 58.0043 228.431V230.262H57.375Z" fill="#4364FA"/>
<path d="M61.2066 229.876C60.9237 229.571 60.7822 229.175 60.7822 228.689C60.7822 228.203 60.9217 227.807 61.2008 227.503C61.4818 227.198 61.8379 227.046 62.2692 227.046C62.4116 227.046 62.5443 227.065 62.6673 227.104C62.7922 227.144 62.8956 227.194 62.9776 227.257C63.0615 227.317 63.1288 227.375 63.1795 227.43C63.2303 227.482 63.2703 227.533 63.2995 227.582H63.3434V227.125H63.9728V230.251C63.9728 230.702 63.8352 231.059 63.5601 231.323C63.2849 231.588 62.9005 231.721 62.4068 231.721C62.0028 231.721 61.6779 231.622 61.432 231.425C61.1861 231.23 61.0437 230.982 61.0046 230.681H61.5871C61.6242 230.841 61.714 230.966 61.8564 231.056C62.0009 231.146 62.1843 231.191 62.4068 231.191C62.7229 231.191 62.96 231.109 63.1181 230.945C63.2761 230.783 63.3552 230.551 63.3552 230.251V229.799H63.3112C63.2878 229.835 63.2615 229.87 63.2322 229.905C63.2029 229.94 63.1571 229.985 63.0946 230.04C63.0322 230.094 62.9658 230.142 62.8956 230.183C62.8273 230.222 62.7395 230.256 62.6321 230.286C62.5268 230.315 62.4155 230.33 62.2985 230.33C61.8555 230.33 61.4915 230.178 61.2066 229.876ZM61.4232 228.689C61.4232 229.013 61.512 229.273 61.6896 229.468C61.8691 229.662 62.1043 229.758 62.395 229.758C62.6878 229.758 62.9219 229.657 63.0976 229.454C63.2732 229.251 63.361 228.996 63.361 228.689C63.361 228.359 63.2693 228.099 63.0859 227.91C62.9044 227.719 62.6722 227.623 62.3892 227.623C62.1043 227.623 61.8721 227.723 61.6925 227.922C61.513 228.119 61.4232 228.375 61.4232 228.689Z" fill="#4364FA"/>
<path d="M45.8566 235.333H46.4508C46.4918 235.659 46.7201 235.822 47.1357 235.822C47.3387 235.822 47.4958 235.781 47.607 235.699C47.7202 235.615 47.7768 235.503 47.7768 235.362C47.7768 235.259 47.7426 235.176 47.6743 235.113C47.608 235.049 47.5202 235.002 47.4109 234.973C47.3036 234.941 47.1845 234.915 47.0538 234.893C46.923 234.872 46.7923 234.844 46.6615 234.809C46.5327 234.773 46.4137 234.726 46.3044 234.668C46.1971 234.609 46.1093 234.521 46.041 234.404C45.9746 234.285 45.9415 234.139 45.9415 233.965C45.9415 233.697 46.0507 233.478 46.2693 233.306C46.4879 233.132 46.7747 233.045 47.1299 233.045C47.4519 233.045 47.7212 233.129 47.9378 233.297C48.1544 233.465 48.2744 233.695 48.2978 233.988H47.7212C47.7036 233.852 47.6421 233.744 47.5368 233.666C47.4314 233.588 47.287 233.549 47.1035 233.549C46.9299 233.549 46.7903 233.587 46.685 233.663C46.5815 233.737 46.5298 233.834 46.5298 233.953C46.5298 234.035 46.5562 234.104 46.6089 234.158C46.6635 234.213 46.7337 234.252 46.8196 234.275C46.9074 234.299 47.0069 234.322 47.1182 234.346C47.2294 234.367 47.3426 234.387 47.4577 234.404C47.5748 234.422 47.689 234.452 47.8002 234.495C47.9114 234.538 48.01 234.591 48.0958 234.653C48.1837 234.714 48.2539 234.803 48.3066 234.92C48.3612 235.037 48.3886 235.175 48.3886 235.333C48.3886 235.634 48.2734 235.877 48.0432 236.062C47.8148 236.248 47.5065 236.341 47.1182 236.341C46.7298 236.341 46.4274 236.251 46.2108 236.071C45.9961 235.889 45.878 235.643 45.8566 235.333Z" fill="#4364FA"/>
<path d="M48.9945 234.694C48.9945 234.384 49.0647 234.103 49.2052 233.851C49.3477 233.599 49.5458 233.401 49.7995 233.259C50.0531 233.116 50.3381 233.045 50.6542 233.045C50.9703 233.045 51.2543 233.117 51.506 233.262C51.7597 233.406 51.9558 233.605 52.0944 233.856C52.2349 234.106 52.3051 234.386 52.3051 234.694C52.3051 235.003 52.2339 235.283 52.0914 235.535C51.9509 235.785 51.7538 235.982 51.5001 236.127C51.2465 236.269 50.9625 236.341 50.6483 236.341C50.1683 236.341 49.7721 236.185 49.4599 235.875C49.1496 235.562 48.9945 235.169 48.9945 234.694ZM49.6355 234.694C49.6355 235.007 49.7302 235.265 49.9195 235.468C50.1107 235.669 50.3537 235.769 50.6483 235.769C50.945 235.769 51.1879 235.668 51.3772 235.465C51.5684 235.262 51.6641 235.005 51.6641 234.694C51.6641 234.382 51.5684 234.125 51.3772 233.924C51.1879 233.723 50.945 233.622 50.6483 233.622C50.3517 233.622 50.1088 233.724 49.9195 233.927C49.7302 234.128 49.6355 234.384 49.6355 234.694Z" fill="#4364FA"/>
<path d="M52.8408 234.694C52.8408 234.384 52.911 234.103 53.0515 233.851C53.194 233.599 53.3921 233.401 53.6458 233.259C53.8994 233.116 54.1844 233.045 54.5005 233.045C54.8166 233.045 55.1006 233.117 55.3523 233.262C55.606 233.406 55.8021 233.605 55.9406 233.856C56.0812 234.106 56.1514 234.386 56.1514 234.694C56.1514 235.003 56.0802 235.283 55.9377 235.535C55.7972 235.785 55.6001 235.982 55.3464 236.127C55.0927 236.269 54.8088 236.341 54.4946 236.341C54.0146 236.341 53.6184 236.185 53.3062 235.875C52.9959 235.562 52.8408 235.169 52.8408 234.694ZM53.4818 234.694C53.4818 235.007 53.5765 235.265 53.7658 235.468C53.957 235.669 54.2 235.769 54.4946 235.769C54.7912 235.769 55.0342 235.668 55.2235 235.465C55.4147 235.262 55.5104 235.005 55.5104 234.694C55.5104 234.382 55.4147 234.125 55.2235 233.924C55.0342 233.723 54.7912 233.622 54.4946 233.622C54.198 233.622 53.9551 233.724 53.7658 233.927C53.5765 234.128 53.4818 234.384 53.4818 234.694Z" fill="#4364FA"/>
<path d="M56.9095 236.261V233.124H57.5213V233.543H57.5623C57.6306 233.402 57.7457 233.284 57.9077 233.189C58.0697 233.093 58.2609 233.045 58.4814 233.045C58.8307 233.045 59.1098 233.158 59.3186 233.385C59.5274 233.611 59.6318 233.898 59.6318 234.246V236.261H59.0025V234.366C59.0025 234.149 58.9351 233.974 58.8005 233.839C58.6678 233.702 58.5009 233.634 58.2999 233.634C58.0814 233.634 57.8999 233.71 57.7555 233.862C57.6111 234.013 57.5389 234.202 57.5389 234.431V236.261H56.9095Z" fill="#4364FA"/>
<path d="M129.292 146.613H82.666V214.878H129.292V146.613Z" fill="#CEC7DD"/>
<path d="M89.8789 169.277L106.045 164.404V148.233L89.8789 153.106V169.277Z" fill="white"/>
<mask id="mask1_720_5419" style="mask-type:luminance" maskUnits="userSpaceOnUse" x="82" y="134" width="59" height="95">
<path d="M140.27 134.721H82.666V228.056L140.27 228.149V134.721Z" fill="white"/>
</mask>
<g mask="url(#mask1_720_5419)">
<path d="M109.515 131.195V216.497L86.402 223.556V138.254L111.121 131.195M113.259 126.603L82.6719 134.808V228.149L113.259 219.944V126.603Z" fill="#1C344D"/>
</g>
<mask id="mask2_720_5419" style="mask-type:luminance" maskUnits="userSpaceOnUse" x="82" y="134" width="59" height="95">
<path d="M140.27 134.721H82.666V228.056L140.27 228.149V134.721Z" fill="white"/>
</mask>
<g mask="url(#mask2_720_5419)">
<path d="M83.4258 181.742C83.4258 182.795 83.8787 183.515 84.4382 183.348L111.482 175.229C112.041 175.063 112.494 174.07 112.494 173.016C112.494 171.963 112.041 171.243 111.482 171.41L84.4382 179.529C83.8787 179.696 83.4258 180.682 83.4258 181.742Z" fill="#1C344D"/>
</g>
<path d="M35.8789 108.938V128.516C47.2757 133.348 60.138 133.348 71.5348 128.516V108.938H35.8789Z" fill="#3155F9"/>
<path d="M142.845 108.938V128.516L142.426 128.696C131.302 133.415 118.733 133.415 107.609 128.696L107.189 128.516V108.938" fill="#3155F9"/>
<path d="M214.158 108.938V128.516C202.761 133.348 189.899 133.348 178.502 128.516V108.938" fill="#3155F9"/>
<path d="M285.465 108.938V128.516C274.068 133.348 261.205 133.348 249.809 128.516V108.938" fill="#3155F9"/>
<path d="M356.775 108.938V128.516C345.378 133.348 332.516 133.348 321.119 128.516V108.938" fill="#3155F9"/>
<path d="M107.191 108.938V128.516C95.7942 133.348 82.932 133.348 71.5352 128.516V108.938" fill="#E9E4F2"/>
<path d="M178.504 108.938V128.516C167.746 133.348 155.483 133.595 144.54 129.196L142.848 128.516V108.938" fill="#E9E4F2"/>
<path d="M249.808 108.938V128.516C238.411 133.348 225.549 133.348 214.152 128.516V108.938" fill="#E9E4F2"/>
<path d="M321.119 108.938V128.516C309.722 133.348 296.86 133.348 285.463 128.516V108.938" fill="#E9E4F2"/>
<path d="M35.8789 108.938L61.5434 72.0564H91.4976L71.5348 108.938" fill="#4364FA"/>
<path d="M321.12 108.938L301.164 72.0564H331.112L356.776 108.938" fill="#4364FA"/>
<path d="M71.5352 108.938L91.4979 72.0564H121.445L107.191 108.938" fill="#F2F0F7"/>
<path d="M107.189 108.938L121.444 72.0564H151.398L142.845 108.938" fill="#4364FA"/>
<path d="M142.848 108.938L151.4 72.0564H181.354L178.504 108.938" fill="#F2F0F7"/>
<path d="M178.502 108.938L181.353 72.0564H211.307L214.158 108.938" fill="#4364FA"/>
<path d="M214.159 108.938L211.309 72.0564H241.256L249.809 108.938" fill="#F2F0F7"/>
<path d="M249.808 108.938L241.256 72.0564H271.21L285.464 108.938" fill="#4364FA"/>
<path d="M285.463 108.938L271.209 72.0564H301.163L321.119 108.938" fill="#F2F0F7"/>
<path opacity="0.9" d="M331.111 62.1311H61.543V72.0631H331.111V62.1311Z" fill="#4364FA"/>
<path d="M17.5418 70.3166H45.2446C49.3544 70.3166 52.6849 66.9838 52.6849 62.871V35.148C52.6849 31.0352 49.3544 27.7023 45.2446 27.7023H17.5418C13.432 27.7023 10.1016 31.0352 10.1016 35.148V62.871C10.0949 66.9771 13.4254 70.3166 17.5418 70.3166Z" fill="#1C344D"/>
<path d="M18.8072 67.3037H43.9722C47.1095 67.3037 49.6739 64.7373 49.6739 61.5978V36.4144C49.6739 33.2748 47.1095 30.7085 43.9722 30.7085H18.8072C15.6699 30.7085 13.1055 33.2748 13.1055 36.4144V61.5978C13.1055 64.7373 15.6699 67.3037 18.8072 67.3037Z" fill="white"/>
<g clip-path="url(#clip1_720_5419)">
<path d="M31.1244 36.5851H16.1406V47.7525L20.1745 58.8203L31.1244 64.4036L42.0744 58.8203L46.1083 47.7525V36.5851H31.1244Z" fill="#4364FA"/>
<path d="M41.575 36.5851L34.3729 44.4343L42.6814 44.3238L20.1758 58.821L30.2754 47.7506H21.9669L32.2102 36.5851H41.575Z" fill="white"/>
<path d="M41.575 36.5851L34.3729 44.4343L42.6814 44.3238L20.1758 58.821L30.2754 47.7506H21.9669L32.2102 36.5851H41.575Z" fill="white"/>
</g>
<path opacity="0.9" d="M331.111 26.4158H61.543V36.3478H331.111V26.4158Z" fill="#4364FA"/>
<path d="M124.483 218.317C124.483 218.317 125.056 220.037 125.023 220.723C124.99 221.41 124.763 222.763 124.477 222.75C124.19 222.737 124.184 220.197 124.011 220.084C123.837 219.97 122.965 221.47 122.931 221.817C122.898 222.163 123.804 224.523 123.558 224.596C123.311 224.67 122.399 223.556 121.926 222.19C121.453 220.823 122.565 218.744 122.565 218.744L124.483 218.317Z" fill="#F26B51"/>
<path d="M121.606 201.926C121.606 201.926 119.315 202.126 120.128 206.552C120.84 210.432 121.793 216.178 122.226 218.531C122.372 219.317 123.012 219.857 123.698 219.777C124.384 219.697 124.883 219.017 124.843 218.224C124.724 215.831 124.364 210.018 124.117 206.085C123.838 201.599 121.606 201.926 121.606 201.926Z" fill="#F26B51"/>
<path d="M138.732 188.468C138.612 188.428 138.492 188.394 138.372 188.354C134.875 187.308 131.252 187.308 127.755 188.354C127.635 188.388 127.508 188.428 127.388 188.468C126.969 188.601 126.642 189.054 126.563 189.628C125.99 193.58 126.529 206.465 126.729 210.725C126.762 211.505 127.242 212.105 127.821 212.105H133.057H133.07H138.306C138.885 212.105 139.365 211.505 139.398 210.725C139.598 206.465 140.138 193.58 139.565 189.628C139.478 189.048 139.158 188.594 138.732 188.468Z" fill="#F26B51"/>
<path d="M124.111 241.401C124.111 241.374 124.111 241.341 124.111 241.314C124.031 241.107 124.091 241.387 124.111 241.401Z" fill="#4EA2E5"/>
<path d="M142.462 217.957C142.449 216.544 142.322 215.144 142.076 213.751C142.076 213.738 142.069 213.731 142.069 213.724C141.03 208.098 139.398 207.805 139.398 207.805H126.409C126.409 207.805 125.137 208.478 124.091 214.104L123.958 215.144C123.732 216.911 123.598 218.69 123.572 220.477C123.478 226.403 123.532 236.688 124.111 241.394C124.185 245.753 125.517 262.465 125.517 262.465H130.879C130.879 262.465 131.851 243.167 131.718 240.634C131.718 240.621 131.718 240.614 131.711 240.601C132.071 238.028 132.584 234.228 133.03 230.416C133.477 234.228 133.989 238.028 134.349 240.601C134.349 240.614 134.342 240.621 134.342 240.634C134.209 243.161 135.182 262.465 135.182 262.465H140.544C140.544 262.465 141.876 245.76 141.949 241.394C142.549 236.575 142.522 224.236 142.462 217.957Z" fill="#1C344D"/>
<path d="M136.566 182.562H131.504V188.714H136.566V182.562Z" fill="#F26B51"/>
<path d="M128.52 180.269C128.52 181.069 129.019 181.715 129.645 181.715C130.265 181.715 130.771 181.069 130.771 180.269C130.771 179.469 130.271 178.822 129.645 178.822C129.026 178.816 128.52 179.462 128.52 180.269Z" fill="#F26B51"/>
<path d="M137.318 180.269C137.318 181.069 137.818 181.715 138.444 181.715C139.064 181.715 139.57 181.069 139.57 180.269C139.57 179.469 139.07 178.822 138.444 178.822C137.818 178.816 137.318 179.462 137.318 180.269Z" fill="#F26B51"/>
<path d="M134.041 185.635C136.459 185.635 138.437 183.655 138.437 181.235V177.209C138.437 175.216 136.805 173.583 134.813 173.583H133.268C131.276 173.583 129.645 175.216 129.645 177.209V181.235C129.645 183.655 131.623 185.635 134.041 185.635Z" fill="#F26B51"/>
<path d="M127.801 189.148C127.801 189.148 124.703 187.861 123.471 192.181C122.392 195.967 120.647 201.513 119.988 203.812C119.768 204.579 120.321 205.459 121.26 205.825C122.199 206.192 123.198 205.932 123.558 205.219C124.637 203.086 127.188 197.86 128.913 194.32C130.878 190.281 127.801 189.148 127.801 189.148Z" fill="#F26B51"/>
<path d="M134.648 191.267C134.648 191.267 135.926 194.367 139.856 192.187C143.3 190.274 148.449 187.588 150.541 186.421C151.24 186.035 151.466 185.022 151.06 184.102C150.66 183.182 149.761 182.655 149.002 182.902C146.73 183.648 141.235 185.535 137.512 186.821C133.269 188.281 134.648 191.267 134.648 191.267Z" fill="#F26B51"/>
<path d="M150.773 185.961C150.773 185.961 152.678 184.435 148.975 181.882C145.731 179.642 140.762 176.489 138.79 175.129C138.131 174.676 137.291 174.743 136.865 175.289C136.439 175.829 136.565 176.663 137.158 177.196C138.937 178.802 143.299 182.655 146.25 185.268C149.621 188.241 150.773 185.961 150.773 185.961Z" fill="#F26B51"/>
<path d="M131.505 187.301C131.505 187.301 126.037 188.474 123.965 189.441C121.893 190.407 119.955 200.773 119.955 200.773L124.844 202.953L122.833 216.637C122.586 218.31 123.752 219.864 125.424 220.097C128.921 220.584 135.002 221.083 141.303 219.984C142.822 219.717 143.881 218.324 143.788 216.784C142.995 204.479 141.363 194.154 141.363 194.154L146.472 191.581L144.294 184.488L136.621 186.535C136.614 186.541 134.349 188.548 131.505 187.301Z" fill="#4EA2E5"/>
<path d="M127.268 262.465C127.268 262.465 120.607 262.471 120.607 266.204C127.222 266.204 131.032 266.204 131.032 266.204L130.879 262.465" fill="#1C344D"/>
<path d="M138.804 262.465C138.804 262.465 145.465 262.471 145.465 266.204C138.851 266.204 135.041 266.204 135.041 266.204L135.194 262.465" fill="#1C344D"/>
<path d="M133.815 186.161C133.815 186.161 137.019 186.315 138.458 183.022C139.89 179.729 140.569 176.449 137.958 173.843C135.347 171.23 131.69 172.143 130.371 173.456C129.052 174.776 127.867 176.596 128.46 180.076C129.052 183.568 131.377 186.161 133.815 186.161Z" fill="#1C344D"/>
<path d="M212.408 223.17C213.32 217.524 209.337 216.297 209.337 216.297C209.337 216.297 205.261 213.924 204.075 219.484C203.169 223.75 202.35 236.801 201.97 242.114C201.864 243.614 202.69 245.007 203.895 245.38C205.107 245.754 206.333 244.994 206.766 243.594C208.311 238.641 211.708 227.503 212.408 223.17Z" fill="#F26B51"/>
<path d="M206.906 243.174C207.219 240.808 204.941 240.394 204.941 240.394C204.941 240.394 202.663 239.981 202.123 242.307C201.59 244.634 199.605 262.751 199.605 262.751L202.556 263.285C202.556 263.285 206.593 245.534 206.906 243.174Z" fill="#F26B51"/>
<path d="M199.772 262.685C199.772 262.685 194.55 265.018 193.93 265.318C193.311 265.618 193.051 266.211 194.65 266.211H201.317C202.063 266.211 202.67 265.711 202.67 265.098V262.685H199.772Z" fill="#F26B51"/>
<path d="M222.273 221.45C222.166 215.737 218.03 215.231 218.03 215.231C218.03 215.231 213.893 214.731 213.713 220.41C213.58 224.77 214.799 236.655 215.372 241.947C215.532 243.44 216.591 244.667 217.85 244.82C219.109 244.974 220.174 244.007 220.354 242.554C220.994 237.408 222.352 225.836 222.273 221.45Z" fill="#F26B51"/>
<path d="M220.42 242.114C220.307 239.734 217.989 239.734 217.989 239.734C217.989 239.734 215.671 239.734 215.558 242.114C215.445 244.494 216.724 262.685 216.724 262.685H219.728C219.721 262.685 220.534 244.5 220.42 242.114Z" fill="#F26B51"/>
<path d="M215.424 192.574C215.424 192.574 219.307 191.694 222.451 194.534C225.202 197.02 229.358 200.586 231.03 202.099C231.59 202.606 231.583 203.579 231.017 204.346C230.451 205.106 229.518 205.399 228.872 205.006C226.947 203.839 222.305 200.933 219.161 198.96C215.577 196.713 215.424 192.574 215.424 192.574Z" fill="#F26B51"/>
<path d="M218.301 192.954C218.188 192.921 218.075 192.881 217.962 192.847C214.671 191.861 211.247 191.861 207.957 192.847C207.844 192.881 207.724 192.914 207.61 192.954C207.211 193.081 206.911 193.507 206.831 194.047C206.292 197.773 206.798 209.912 206.991 213.924C207.024 214.658 207.477 215.224 208.023 215.224H212.959H212.966H217.902C218.448 215.224 218.901 214.658 218.934 213.924C219.121 209.912 219.633 197.773 219.094 194.047C219.001 193.507 218.694 193.081 218.301 192.954Z" fill="#F26B51"/>
<path d="M221.786 218.33C220.807 213.031 218.929 211.185 218.929 211.185H206.866C206.866 211.185 205.081 213.738 204.101 219.044C203.962 219.81 204.301 220.59 204.967 221.017C206.286 221.863 208.851 223.063 212.807 223.063C216.764 223.063 219.328 221.863 220.647 221.017C221.32 220.583 221.926 219.097 221.786 218.33Z" fill="#F26B51"/>
<path d="M216.256 187.395H211.486V193.187H216.256V187.395Z" fill="#F26B51"/>
<path d="M216.116 189.388C216.116 189.388 214.738 191.141 211.48 191.141C211.48 188.981 211.48 188.648 211.48 188.648L216.116 189.388Z" fill="#F26B51"/>
<path d="M208.684 185.228C208.684 185.981 209.157 186.595 209.743 186.595C210.329 186.595 210.802 185.981 210.802 185.228C210.802 184.475 210.329 183.862 209.743 183.862C209.157 183.862 208.684 184.475 208.684 185.228Z" fill="#F26B51"/>
<path d="M216.969 185.228C216.969 185.981 217.442 186.595 218.028 186.595C218.614 186.595 219.087 185.981 219.087 185.228C219.087 184.475 218.614 183.862 218.028 183.862C217.442 183.862 216.969 184.475 216.969 185.228Z" fill="#F26B51"/>
<path d="M213.878 190.287C216.156 190.287 218.021 188.421 218.021 186.141V182.349C218.021 180.469 216.483 178.929 214.604 178.929H213.146C211.267 178.929 209.729 180.469 209.729 182.349V186.141C209.735 188.421 211.6 190.287 213.878 190.287Z" fill="#F26B51"/>
<path d="M208.884 192.6C208.884 192.6 204.248 192.894 204.068 197.127C203.915 200.833 203.542 206.299 203.448 208.552C203.415 209.305 204.121 209.985 205.06 210.111C206 210.238 206.859 209.778 207.032 209.045C207.552 206.852 208.731 201.499 209.53 197.88C210.436 193.747 208.884 192.6 208.884 192.6Z" fill="#F26B51"/>
<path d="M205.646 206.692C205.646 206.692 203.674 205.799 202.296 209.805C201.09 213.318 199.378 219.21 198.645 221.35C198.399 222.063 198.512 222.07 199.112 222.323C199.711 222.577 200.437 222.25 200.77 221.577C201.776 219.557 204.167 214.618 205.786 211.271C207.631 207.452 205.646 206.692 205.646 206.692Z" fill="#F26B51"/>
<path d="M231.238 202.586C231.238 202.586 232.491 204.352 228.82 206.472C225.603 208.325 220.901 211.151 218.949 212.278C218.296 212.651 217.517 212.525 217.157 211.985C216.798 211.445 216.977 210.671 217.577 210.212C219.369 208.838 223.758 205.552 226.729 203.326C230.113 200.786 231.238 202.586 231.238 202.586Z" fill="#F26B51"/>
<path d="M219.527 199.186C219.527 199.186 212.966 197.4 206.592 198.96C204.567 200.393 206.299 205.179 206.299 205.179V211.178C206.299 211.178 203.314 217.404 201.589 233.762C199.857 250.12 198.965 261.578 198.965 261.578L204.573 262.678L212.82 223.05L215.124 262.291H220.679C220.679 262.291 221.386 243.847 222.285 235.248C223.184 226.649 224.376 217.044 219.547 210.505C219.001 205.705 219.527 199.186 219.527 199.186Z" fill="#1C344D"/>
<path d="M197.846 263.545C197.846 263.545 197.86 263.558 197.886 263.585C198.053 263.771 198.686 264.571 197.973 264.918C197.16 265.311 196.448 264.171 196.448 264.171C196.448 264.171 194.123 264.998 193.583 265.211C193.044 265.418 193.23 266.204 193.23 266.204H202.676C202.676 266.204 203.302 265.211 202.676 263.545C201.323 263.545 199.612 264.671 199.612 264.671L198.512 263.251" fill="#4EA2E5"/>
<path d="M216.803 262.685C216.803 262.685 211.581 265.018 210.962 265.318C210.342 265.618 210.082 266.211 211.681 266.211H218.349C219.095 266.211 219.701 265.711 219.701 265.098V262.685H216.803Z" fill="#F26B51"/>
<path d="M214.88 263.545C214.88 263.545 214.893 263.558 214.92 263.585C215.086 263.771 215.719 264.571 215.006 264.918C214.194 265.311 213.481 264.171 213.481 264.171C213.481 264.171 211.156 264.998 210.617 265.211C210.077 265.418 210.264 266.204 210.264 266.204H219.709C219.709 266.204 220.335 265.211 219.709 263.545C218.357 263.545 216.645 264.671 216.645 264.671L215.546 263.251" fill="#4EA2E5"/>
<path d="M209.735 185.062C209.735 185.062 208.416 183.008 209.462 180.602C210.514 178.196 208.849 177.296 211.667 175.043C214.484 172.79 221.998 177.323 218.021 185.062C217.708 182.295 214.997 184.448 213.305 180.502C210.747 180.495 209.269 182.802 209.735 185.062Z" fill="#1C344D"/>
<path d="M200.505 221.35C200.505 221.35 200.678 223.05 200.505 223.67C200.331 224.296 199.845 225.49 199.585 225.423C199.326 225.356 199.845 223.017 199.705 222.877C199.565 222.737 198.46 223.936 198.353 224.243C198.246 224.556 198.593 226.909 198.353 226.929C198.113 226.949 197.507 225.736 197.347 224.383C197.194 223.03 198.646 221.35 198.646 221.35H200.505Z" fill="#F26B51"/>
<path d="M218.781 213.658C218.588 213.511 219.6 212.011 219.6 212.011C219.6 212.011 217.782 213.764 217.588 213.598C217.395 213.431 219.107 211.598 219.107 211.598C219.107 211.598 216.896 213.244 216.736 213.045C216.576 212.845 218.581 211.171 218.581 211.171C218.581 211.171 216.35 212.558 216.256 212.291C216.163 212.025 218.874 210.018 218.874 210.018C218.874 210.018 217.096 210.738 216.916 210.585C216.789 210.478 217.202 210.238 217.815 209.825C218.328 209.485 218.854 209.225 219.274 209.045C219.787 208.825 220.379 208.945 220.779 209.332C221.272 209.818 221.325 210.592 220.912 211.145C220.106 212.205 218.907 213.751 218.781 213.658Z" fill="#F26B51"/>
<path d="M273.621 218.537C273.621 218.537 273.055 220.403 272.875 221.07C272.695 221.737 272.175 223.003 271.902 222.93C271.629 222.856 272.175 220.37 272.029 220.223C271.882 220.077 270.703 221.343 270.597 221.677C270.484 222.01 270.857 224.51 270.597 224.53C270.337 224.55 269.698 223.263 269.531 221.823C269.364 220.39 271.436 217.49 271.436 217.49L273.621 218.537Z" fill="#F26B51"/>
<path d="M286.137 218.71C286.024 212.644 281.634 212.111 281.634 212.111C281.634 212.111 277.245 211.578 277.058 217.604C276.912 222.23 278.211 234.842 278.817 240.461C278.99 242.047 280.109 243.347 281.448 243.507C282.78 243.667 283.919 242.64 284.112 241.101C284.778 235.641 286.224 223.363 286.137 218.71Z" fill="#F26B51"/>
<path d="M296.489 218.71C296.375 212.644 291.986 212.111 291.986 212.111C291.986 212.111 287.596 211.578 287.41 217.604C287.263 222.23 288.562 234.842 289.168 240.461C289.342 242.047 290.461 243.347 291.799 243.507C293.132 243.667 294.271 242.64 294.464 241.101C295.137 235.641 296.575 223.363 296.489 218.71Z" fill="#F26B51"/>
<path d="M284.165 240.641C284.045 238.114 281.587 238.115 281.587 238.115C281.587 238.115 279.129 238.114 279.009 240.641C278.89 243.167 280.248 262.471 280.248 262.471H283.432C283.432 262.465 284.292 243.167 284.165 240.641Z" fill="#F26B51"/>
<path d="M280.355 262.465C280.355 262.465 274.813 264.944 274.154 265.258C273.494 265.571 273.221 266.204 274.92 266.204H281.994C282.786 266.204 283.426 265.678 283.426 265.024V262.465H280.355Z" fill="#F26B51"/>
<path d="M294.116 238.921C293.304 236.521 290.939 237.201 290.939 237.201C290.939 237.201 288.574 237.881 289.154 240.348C289.733 242.814 296.368 260.985 296.368 260.985L299.432 260.105C299.425 260.105 294.929 241.314 294.116 238.921Z" fill="#F26B51"/>
<path d="M293.024 188.921C293.024 188.921 296.334 188.394 296.521 192.887C296.687 196.82 297.08 202.626 297.18 205.012C297.213 205.812 296.467 206.532 295.468 206.672C294.469 206.812 293.556 206.319 293.377 205.539C292.824 203.212 291.572 197.533 290.726 193.687C289.766 189.308 293.024 188.921 293.024 188.921Z" fill="#F26B51"/>
<path d="M292.238 188.468C292.118 188.428 291.998 188.394 291.878 188.354C288.381 187.308 284.758 187.308 281.261 188.354C281.141 188.388 281.014 188.428 280.894 188.468C280.475 188.601 280.148 189.054 280.068 189.628C279.496 193.58 280.035 206.465 280.235 210.725C280.268 211.505 280.748 212.105 281.327 212.105H286.563H286.576H291.812C292.391 212.105 292.871 211.505 292.904 210.725C293.104 206.465 293.643 193.58 293.071 189.628C292.977 189.048 292.658 188.594 292.238 188.468Z" fill="#F26B51"/>
<path d="M295.936 215.391C294.897 209.765 292.905 207.805 292.905 207.805H280.103C280.103 207.805 278.211 210.518 277.165 216.144C277.012 216.964 277.378 217.784 278.085 218.244C279.483 219.144 282.208 220.417 286.404 220.417C290.607 220.417 293.331 219.144 294.724 218.244C295.443 217.784 296.089 216.211 295.936 215.391Z" fill="#F26B51"/>
<path d="M289.08 182.562H284.018V188.714H289.08V182.562Z" fill="#F26B51"/>
<path d="M288.933 184.675C288.933 184.675 287.468 186.535 284.018 186.535C284.018 184.242 284.018 183.888 284.018 183.888L288.933 184.675Z" fill="#F26B51"/>
<path d="M280.628 188.921C280.628 188.921 277.318 188.394 277.131 192.887C276.965 196.82 276.572 202.626 276.472 205.012C276.438 205.812 277.184 206.532 278.184 206.672C279.183 206.812 280.095 206.319 280.275 205.539C280.828 203.212 282.08 197.533 282.926 193.687C283.885 189.308 280.628 188.921 280.628 188.921Z" fill="#F26B51"/>
<path d="M278.809 203.046C278.809 203.046 276.71 202.093 275.252 206.352C273.973 210.078 271.981 215.557 271.202 217.824C270.942 218.577 271.235 219.37 271.875 219.637C272.514 219.904 273.28 219.557 273.633 218.844C274.699 216.697 277.237 211.458 278.955 207.905C280.907 203.852 278.809 203.046 278.809 203.046Z" fill="#F26B51"/>
<path d="M295.954 239.361C295.954 237.921 301.216 214.231 293.05 207.099H280.068C280.068 207.099 276.471 211.985 276.471 223.376C276.471 234.768 277.13 261.591 277.13 261.591H284.983L286.902 220.404C286.902 220.404 287.588 234.902 288.201 240.048C288.82 245.194 293.862 260.985 293.862 260.985L300.816 259.125C300.823 259.118 295.954 240.801 295.954 239.361Z" fill="#4EA2E5"/>
<path d="M284.018 187.128C284.018 187.128 278.823 187.568 277.131 190.034C275.772 192.007 275.919 202.246 275.446 203.826C274.973 205.406 269.191 216.264 271.203 217.824C273.214 219.384 274.3 219.924 274.84 219.384C275.379 218.844 276.758 215.358 276.758 215.358C276.758 215.358 286.217 216.591 292.078 216.591C297.94 216.591 298.899 213.511 298.419 211.345C297.94 209.178 297.84 199.44 297.18 194.5C296.521 189.561 296.601 188.968 289.081 187.135C286.15 188.114 284.018 187.128 284.018 187.128Z" fill="#1C344D"/>
<path d="M297.174 205.652C297.174 205.652 296.507 207.859 292.344 206.159C288.694 204.672 283.266 202.566 281.047 201.666C280.308 201.366 279.908 200.626 280.122 199.966C280.341 199.313 281.101 198.96 281.88 199.16C284.198 199.766 289.813 201.306 293.61 202.346C297.953 203.539 297.174 205.652 297.174 205.652Z" fill="#F26B51"/>
<path d="M281.961 203.392C281.162 202.946 280.762 202.019 280.982 201.139C281.228 200.153 281.621 198.946 282.167 198.406C283.166 197.407 292.085 200.806 292.085 200.806C292.085 200.806 291.712 192.061 293.871 188.714C297.054 189.621 297.121 191.134 297.947 198.68C298.773 206.225 297.268 208.425 293.871 208.425C291.233 208.418 284.738 204.952 281.961 203.392Z" fill="#1C344D"/>
<path d="M280.222 262.171C280.222 262.171 275.885 263.504 274.173 264.071C272.462 264.631 273.294 266.211 273.294 266.211H283.432V262.471C283.432 262.465 281.993 263.184 280.222 262.171Z" fill="#1C344D"/>
<path d="M296.461 260.692C296.461 260.692 291.778 264.558 291.232 265.038C290.686 265.518 290.586 266.197 292.224 265.744L299.045 263.851C299.811 263.638 300.284 262.958 300.111 262.331L299.431 259.865L296.461 260.692Z" fill="#F26B51"/>
<path d="M296.255 260.438C296.255 260.438 292.432 262.885 290.933 263.878C289.434 264.878 290.653 266.171 290.653 266.171L300.418 263.465L299.419 259.865C299.425 259.872 298.233 260.945 296.255 260.438Z" fill="#1C344D"/>
<path d="M276.866 200.959C276.885 200.706 278.804 200.746 278.804 200.746C278.804 200.746 276.199 200.133 276.233 199.866C276.266 199.6 278.89 200.066 278.89 200.066C278.89 200.066 276.153 199.04 276.239 198.78C276.326 198.52 278.97 199.346 278.97 199.346C278.97 199.346 276.453 198.153 276.639 197.913C276.826 197.673 280.176 198.94 280.176 198.94C280.176 198.94 278.511 197.766 278.551 197.52C278.577 197.347 279.017 197.573 279.743 197.886C281.075 198.46 282.074 199.333 282.074 199.333L281.628 201.493C281.621 201.499 276.852 201.213 276.866 200.959Z" fill="#F26B51"/>
<path d="M284.299 185.915H285.604C288.788 185.915 291.386 183.308 291.386 180.129V177.496C291.386 175.503 289.754 173.87 287.763 173.87H286.217C284.226 173.87 282.594 175.503 282.594 177.496V184.215C282.6 185.148 283.366 185.915 284.299 185.915Z" fill="#F26B51"/>
<path d="M282.599 179.889C282.599 179.889 280.315 182.788 282.599 182.788V179.889Z" fill="#F26B51"/>
<path d="M287.67 180.542C287.67 180.542 286.165 178.876 286.518 175.509C283.593 175.509 282.814 176.263 282.814 176.263C282.814 176.263 281.022 174.71 283.327 172.803C285.632 170.897 291.48 171.383 292.319 175.196C293.158 179.009 292.679 182.935 288.995 184.802C289.308 181.982 287.67 180.542 287.67 180.542Z" fill="#1C344D"/>
<path d="M287.057 180.489C286.717 181.382 287.004 182.322 287.696 182.588C288.389 182.855 289.228 182.342 289.568 181.449C289.908 180.555 289.621 179.615 288.929 179.349C288.236 179.089 287.397 179.595 287.057 180.489Z" fill="#F26B51"/>
<path d="M91.1132 157.481L91.4449 157.443L92.2453 161.179L92.2649 161.177L92.2341 157.353L92.6147 157.31L93.446 161.043L93.4627 161.041L93.4025 157.22L93.7383 157.182L93.7677 162.04L93.3871 162.083L92.5506 158.354L92.5311 158.357L92.5531 162.178L92.1753 162.221L91.1132 157.481Z" fill="black" fill-opacity="0.4"/>
<path d="M94.4163 159.839C94.3739 159.466 94.369 159.132 94.4016 158.837C94.4339 158.54 94.4977 158.306 94.5928 158.137C94.6888 157.968 94.8077 157.876 94.9495 157.86C95.0634 157.847 95.1724 157.883 95.2766 157.968C95.3808 158.053 95.4727 158.176 95.5523 158.337C95.6329 158.497 95.7023 158.687 95.7603 158.906C95.8192 159.126 95.8633 159.364 95.8925 159.62L95.9229 159.888L94.7419 160.022C94.7833 160.336 94.8564 160.584 94.9612 160.767C95.0661 160.949 95.1866 161.033 95.3228 161.017C95.4179 161.007 95.497 160.946 95.56 160.834C95.6238 160.723 95.6608 160.579 95.6709 160.401L95.9633 160.368C95.9642 160.725 95.9131 161.019 95.8099 161.25C95.7074 161.479 95.5652 161.603 95.3833 161.624C95.1603 161.649 94.959 161.495 94.7792 161.161C94.5992 160.824 94.4782 160.383 94.4163 159.839ZM94.6843 159.466L95.5617 159.366C95.5189 159.073 95.4472 158.846 95.3468 158.686C95.2461 158.523 95.1365 158.449 95.018 158.462C94.9024 158.475 94.8127 158.576 94.749 158.764C94.6854 158.952 94.6638 159.186 94.6843 159.466Z" fill="black" fill-opacity="0.4"/>
<path d="M96.2081 160.198L95.7248 155.947L96.0257 155.913L96.504 160.12C96.5149 160.216 96.5331 160.289 96.5585 160.338C96.584 160.387 96.6153 160.409 96.6526 160.405L96.7156 160.398L96.7879 161.034L96.6648 161.048C96.5519 161.06 96.4553 160.992 96.3751 160.843C96.2957 160.694 96.2401 160.479 96.2081 160.198Z" fill="black" fill-opacity="0.4"/>
<path d="M96.9134 158.988C96.8735 158.638 96.87 158.316 96.9028 158.023C96.9354 157.728 97.0016 157.491 97.1013 157.312C97.2016 157.132 97.3265 157.033 97.4757 157.016C97.6558 156.995 97.8269 157.1 97.9891 157.33C98.1523 157.56 98.2738 157.876 98.3535 158.279L98.0443 158.314C97.9948 158.112 97.9252 157.952 97.8354 157.836C97.7464 157.717 97.6524 157.663 97.5535 157.675C97.4135 157.691 97.3134 157.819 97.253 158.061C97.1927 158.303 97.1825 158.601 97.2226 158.953C97.2629 159.308 97.3406 159.596 97.4556 159.818C97.5706 160.04 97.6981 160.143 97.838 160.127C97.9341 160.116 98.0128 160.044 98.0742 159.911C98.1355 159.777 98.1677 159.607 98.1708 159.401L98.4772 159.366C98.4905 159.774 98.4438 160.107 98.3371 160.365C98.2302 160.622 98.0867 160.76 97.9066 160.781C97.7928 160.793 97.6815 160.758 97.5726 160.673C97.4645 160.586 97.3673 160.462 97.2811 160.302C97.1946 160.141 97.1192 159.947 97.0548 159.721C96.9902 159.494 96.943 159.249 96.9134 158.988Z" fill="black" fill-opacity="0.4"/>
<path d="M98.4975 158.64C98.4572 158.285 98.4542 157.96 98.4887 157.664C98.524 157.369 98.5931 157.133 98.6959 156.956C98.7986 156.779 98.9255 156.683 99.0767 156.665C99.2278 156.648 99.3729 156.715 99.512 156.867C99.6521 157.018 99.7716 157.234 99.8705 157.514C99.9702 157.792 100.04 158.107 100.08 158.46C100.12 158.812 100.123 159.136 100.087 159.432C100.053 159.725 99.9839 159.961 99.8814 160.14C99.7787 160.317 99.6522 160.414 99.502 160.431C99.2725 160.457 99.063 160.301 98.8734 159.963C98.6845 159.623 98.5592 159.182 98.4975 158.64ZM98.804 158.605C98.8446 158.962 98.9233 159.251 99.0402 159.473C99.1577 159.692 99.2869 159.794 99.4278 159.778C99.5696 159.762 99.6725 159.633 99.7366 159.39C99.8017 159.148 99.814 158.849 99.7737 158.495C99.7331 158.138 99.654 157.849 99.5365 157.63C99.4199 157.411 99.2906 157.309 99.1488 157.325C99.0071 157.341 98.9041 157.47 98.84 157.713C98.7756 157.953 98.7636 158.25 98.804 158.605Z" fill="black" fill-opacity="0.4"/>
<path d="M100.394 159.849L99.9867 156.264L100.279 156.231L100.333 156.703L100.352 156.701C100.369 156.531 100.407 156.39 100.467 156.277C100.527 156.164 100.608 156.102 100.71 156.09C100.815 156.078 100.913 156.121 101.004 156.22C101.094 156.318 101.172 156.458 101.237 156.641L101.257 156.638C101.306 156.226 101.437 156.008 101.65 155.983C101.814 155.965 101.96 156.074 102.088 156.31C102.217 156.544 102.303 156.856 102.348 157.247L102.615 159.596L102.314 159.63L102.075 157.525C102.042 157.237 101.989 157.02 101.917 156.872C101.844 156.722 101.758 156.653 101.658 156.664C101.56 156.675 101.488 156.767 101.441 156.939C101.395 157.11 101.388 157.334 101.42 157.613L101.658 159.705L101.357 159.739L101.108 157.554C101.08 157.306 101.028 157.112 100.952 156.971C100.875 156.829 100.788 156.763 100.692 156.774C100.596 156.785 100.525 156.878 100.479 157.052C100.433 157.225 100.425 157.441 100.455 157.702L100.695 159.814L100.394 159.849Z" fill="black" fill-opacity="0.4"/>
<path d="M102.85 157.591C102.807 157.218 102.802 156.884 102.835 156.589C102.867 156.292 102.931 156.058 103.026 155.889C103.122 155.72 103.241 155.627 103.383 155.611C103.497 155.598 103.606 155.635 103.71 155.72C103.814 155.805 103.906 155.928 103.986 156.089C104.066 156.249 104.135 156.439 104.194 156.658C104.252 156.878 104.297 157.115 104.326 157.372L104.356 157.64L103.175 157.774C103.217 158.088 103.29 158.336 103.394 158.519C103.499 158.701 103.62 158.785 103.756 158.769C103.851 158.758 103.93 158.697 103.993 158.586C104.057 158.475 104.094 158.331 104.104 158.153L104.397 158.12C104.397 158.477 104.346 158.771 104.243 159.002C104.141 159.231 103.998 159.355 103.817 159.376C103.594 159.401 103.392 159.247 103.212 158.912C103.032 158.576 102.911 158.135 102.85 157.591ZM103.118 157.218L103.995 157.118C103.952 156.825 103.88 156.598 103.78 156.437C103.679 156.275 103.57 156.2 103.451 156.214C103.336 156.227 103.246 156.328 103.182 156.516C103.119 156.704 103.097 156.938 103.118 157.218Z" fill="black" fill-opacity="0.4"/>
<path d="M133.389 50.5074H135.215C135.233 51.7606 136.259 52.753 137.946 52.753C139.39 52.753 140.364 52.0916 140.364 50.9947C140.364 47.7048 133.771 50.1419 133.771 45.2325C133.771 43.3873 135.267 41.8379 137.842 41.8379C139.912 41.8379 141.982 42.9521 142.017 45.4937H140.121C140.121 44.2926 139.303 43.5264 137.825 43.5264C136.329 43.5264 135.633 44.3274 135.633 45.1977C135.633 48.1397 142.295 45.9289 142.295 50.8556C142.295 52.8924 140.677 54.4766 137.877 54.4766C135.267 54.4766 133.389 52.8576 133.389 50.5074Z" fill="#0B1319"/>
<path d="M145.375 51.3603V46.6427H143.74V45.1631H144.941C145.254 45.1631 145.48 44.9367 145.48 44.5711V42.5689H147.202V45.1455H149.846V46.6427H147.202V51.3081C147.202 52.1786 147.568 52.7008 148.524 52.7008H149.759V54.2501H148.246C146.454 54.2501 145.375 53.2579 145.375 51.3603Z" fill="#0B1319"/>
<path d="M158.56 48.871C158.438 47.339 157.325 46.4512 155.916 46.4512C154.524 46.4512 153.376 47.4434 153.236 48.871H158.56ZM151.375 49.7239C151.375 46.8343 153.323 44.9195 155.916 44.9195C158.751 44.9195 160.369 47.0082 160.369 49.6021V50.281H153.202C153.271 51.8652 154.332 52.9445 156.003 52.9445C157.151 52.9445 158.142 52.3874 158.508 51.4997H160.282C159.812 53.2578 158.194 54.4766 155.95 54.4766C153.219 54.4766 151.375 52.4572 151.375 49.7239Z" fill="#0B1319"/>
<path d="M162.18 51.9869V41.1938H164.006V51.8823C164.006 52.37 164.25 52.631 164.702 52.631H165.085V54.25H164.337C162.962 54.25 162.18 53.4145 162.18 51.9869Z" fill="#0B1319"/>
<path d="M167.154 51.9869V41.1938H168.981V51.8823C168.981 52.37 169.224 52.631 169.677 52.631H170.059V54.25H169.311C167.937 54.25 167.154 53.4145 167.154 51.9869Z" fill="#0B1319"/>
<path d="M178.932 49.7065C178.932 47.7393 177.714 46.5905 176.113 46.5905C174.461 46.5905 173.312 47.8787 173.312 49.7065C173.312 51.6042 174.461 52.8226 176.131 52.8226C177.87 52.8226 178.932 51.4298 178.932 49.7065ZM171.451 49.7239C171.451 46.9036 173.243 44.9193 175.783 44.9193C177.522 44.9193 178.462 45.9985 178.757 46.4684H178.879V45.1454H180.706V54.2501H178.914V52.962H178.81C178.566 53.31 177.679 54.4766 175.87 54.4766C173.26 54.4766 171.451 52.544 171.451 49.7239Z" fill="#0B1319"/>
<path d="M183.334 45.1455H185.091V46.7296H185.213C185.491 45.9986 186.361 45.1281 187.648 45.1281H188.448V46.9037H187.596C186.048 46.9037 185.161 48.0703 185.161 49.7587V54.2501H183.334V45.1455Z" fill="#0B1319"/>
<path d="M194.537 50.5074H196.364C196.381 51.7606 197.407 52.753 199.095 52.753C200.539 52.753 201.513 52.0916 201.513 50.9947C201.513 47.7048 194.92 50.1419 194.92 45.2325C194.92 43.3873 196.416 41.8379 198.99 41.8379C201.06 41.8379 203.131 42.9521 203.165 45.4937H201.269C201.269 44.2926 200.452 43.5264 198.973 43.5264C197.477 43.5264 196.781 44.3274 196.781 45.1977C196.781 48.1397 203.444 45.9289 203.444 50.8556C203.444 52.8924 201.826 54.4766 199.025 54.4766C196.416 54.4766 194.537 52.8576 194.537 50.5074Z" fill="#0B1319"/>
<path d="M212.176 48.871C212.055 47.339 210.941 46.4512 209.533 46.4512C208.141 46.4512 206.993 47.4434 206.853 48.871H212.176ZM204.992 49.7239C204.992 46.8343 206.941 44.9195 209.533 44.9195C212.368 44.9195 213.986 47.0082 213.986 49.6021V50.281H206.819C206.888 51.8652 207.949 52.9445 209.619 52.9445C210.768 52.9445 211.759 52.3874 212.124 51.4997H213.899C213.429 53.2578 211.811 54.4766 209.567 54.4766C206.836 54.4766 204.992 52.4572 204.992 49.7239Z" fill="#0B1319"/>
<path d="M215.551 49.7065C215.551 47.0082 217.499 44.9193 220.265 44.9193C222.422 44.9193 224.248 46.2422 224.666 48.3311H222.787C222.474 47.2867 221.483 46.5905 220.282 46.5905C218.56 46.5905 217.429 47.9483 217.429 49.7065C217.429 51.4996 218.612 52.8226 220.317 52.8226C221.483 52.8226 222.492 52.1264 222.805 51.0992H224.666C224.266 53.1881 222.422 54.4766 220.282 54.4766C217.464 54.4766 215.551 52.3874 215.551 49.7065Z" fill="#0B1319"/>
<path d="M226.754 50.9947V45.1455H228.58V50.6641C228.58 51.9521 229.468 52.7878 230.616 52.7878C231.886 52.7878 232.825 51.8131 232.825 50.49V45.1455H234.652V54.2502H232.877V53.0315H232.755C232.39 53.7802 231.451 54.4766 230.094 54.4766C228.024 54.4766 226.754 52.962 226.754 50.9947Z" fill="#0B1319"/>
<path d="M237.332 45.1455H239.089V46.7296H239.211C239.489 45.9986 240.359 45.1281 241.646 45.1281H242.446V46.9037H241.594C240.046 46.9037 239.159 48.0703 239.159 49.7587V54.2501H237.332V45.1455Z" fill="#0B1319"/>
<path d="M244.55 45.1455H246.376V54.2501H244.55V45.1455ZM244.271 42.5516C244.271 41.89 244.776 41.4026 245.472 41.4026C246.185 41.4026 246.69 41.89 246.69 42.5516C246.69 43.2481 246.185 43.7179 245.472 43.7179C244.776 43.7179 244.271 43.2481 244.271 42.5516Z" fill="#0B1319"/>
<path d="M249.891 51.3603V46.6427H248.256V45.1631H249.456C249.769 45.1631 249.996 44.9367 249.996 44.5711V42.5689H251.718V45.1455H254.362V46.6427H251.718V51.3081C251.718 52.1786 252.083 52.7008 253.04 52.7008H254.275V54.2501H252.761C250.97 54.2501 249.891 53.2579 249.891 51.3603Z" fill="#0B1319"/>
<path d="M256.57 56.6178H257.371C258.206 56.6178 258.693 56.2347 258.971 55.5037L259.301 54.6332L255.631 45.1455H257.614L260.136 52.1786H260.258L262.763 45.1455H264.764L260.589 56.0607C260.067 57.4532 259.232 58.2542 257.597 58.2542H256.57V56.6178Z" fill="#0B1319"/>
</g>
<defs>
<clipPath id="clip0_720_5419">
<rect width="431" height="279" fill="white"/>
</clipPath>
<clipPath id="clip1_720_5419">
<rect width="33.9707" height="31.9958" fill="white" transform="translate(14.1582 33.8615)"/>
</clipPath>
</defs>
</svg>
