<svg width="24" height="24" viewBox="0 0 24 24" fill="none" xmlns="http://www.w3.org/2000/svg">
<g clip-path="url(#clip0_527_2706)">
<path fill-rule="evenodd" clip-rule="evenodd" d="M1.4007 5.5986L3.59911 8.22509L5.43829 6.68569L3.23973 4.05896C3.01491 3.79037 2.77551 3.71582 2.54569 3.72902C2.29082 3.74366 1.99777 3.87259 1.7395 4.10384C1.48189 4.33449 1.30446 4.62681 1.2432 4.90055C1.18548 5.15847 1.22852 5.39285 1.4007 5.5986ZM6.20717 7.6043L4.36799 9.1437L11.233 17.3455L13.0722 15.8061L6.20717 7.6043ZM13.5743 16.948L12.2764 18.0344L14.0651 18.8366L13.5743 16.948ZM2.477 2.53307C3.08617 2.49808 3.69122 2.73202 4.15832 3.29007L14.4617 15.5999L15.8522 20.951L10.7873 18.6794L0.482081 6.36745C0.0392207 5.8383 -0.0535845 5.20997 0.0742008 4.63894C0.19845 4.08372 0.527844 3.58078 0.940428 3.21137C1.35235 2.84256 1.89287 2.56663 2.477 2.53307Z" fill="#4364FA"/>
<path fill-rule="evenodd" clip-rule="evenodd" d="M12.616 12.599H20.1447V11.401H11.5215L12.616 12.599ZM15.9898 19.8162H20.1447V18.6182H15.7222L15.9898 19.8162Z" fill="#4364FA"/>
<path fill-rule="evenodd" clip-rule="evenodd" d="M21.8359 22.5H7.91189C7.32035 22.5 6.84081 22.0523 6.84081 21.5V14.3958L5.76973 13.1562V21.5C5.76973 22.6046 6.72881 23.5 7.91189 23.5H21.8359C23.019 23.5 23.9781 22.6046 23.9781 21.5V6.25V5.8411L18.2281 0.692338L18.0133 0.5H7.91189C6.72881 0.5 5.76973 1.39543 5.76973 2.50001V4.8125L6.84081 6.06862V2.50001C6.84081 1.94772 7.32035 1.5 7.91189 1.5H17.1516V6.1182C17.1516 7.05066 17.4998 7.35465 18.0016 7.35465H22.907V21.5C22.907 22.0523 22.4274 22.5 21.8359 22.5ZM19.4529 6.2676H22.907C22.907 6.2676 20.0553 3.57367 18.2281 1.9375V5.75391C18.2281 6.23307 18.4945 6.2676 19.4529 6.2676Z" fill="#4364FA"/>
<path d="M15.1756 16.1927H20.1447V14.9948H14.3965L15.1756 16.1927Z" fill="#4364FA"/>
</g>
<defs>
<clipPath id="clip0_527_2706">
<rect width="23.9566" height="23" fill="white" transform="translate(0.0214844 0.5)"/>
</clipPath>
</defs>
</svg>
