<svg width="47" height="47" viewBox="0 0 47 47" fill="none" xmlns="http://www.w3.org/2000/svg">
<rect x="1" y="1" width="45" height="45" rx="8" fill="#F7F6FC"/>
<path d="M15.4643 1H9C4.58172 1 1 4.58172 1 9V15.4643" stroke="#0B1319" stroke-width="2"/>
<path d="M31.5357 46L38 46C42.4183 46 46 42.4183 46 38L46 31.5357" stroke="#0B1319" stroke-width="2"/>
<path d="M46 15.4643L46 9C46 4.58172 42.4183 1 38 1L31.5357 0.999999" stroke="#0B1319" stroke-width="2"/>
<path d="M1 31.5357L1 38C1 42.4183 4.58172 46 9 46L15.4643 46" stroke="#0B1319" stroke-width="2"/>
<path d="M23.4516 35.7619C25.8889 35.7619 27.9605 33.781 27.9605 31.181C27.9605 28.581 26.0107 26.6 23.4516 26.6C20.8924 26.6 18.9426 28.581 18.9426 31.181C18.9426 33.781 20.8924 35.7619 23.4516 35.7619Z" stroke="#4364FA" stroke-width="2" stroke-miterlimit="10"/>
<path d="M34.9067 25.3619C32.835 20.9047 28.4479 18.0571 23.4515 18.0571C18.4551 18.0571 14.1899 20.9047 11.9963 25.2381" stroke="#4364FA" stroke-width="2" stroke-miterlimit="10"/>
<path d="M40.0251 20.0381C36.3692 14.4667 30.1541 11 23.4516 11C16.7491 11 10.6559 14.4667 7 20.0381" stroke="#4364FA" stroke-width="2" stroke-miterlimit="10"/>
</svg>
