<svg width="799" height="583" viewBox="0 0 799 583" fill="none" xmlns="http://www.w3.org/2000/svg">
<g opacity="0.15" clip-path="url(#clip0_54_867)">
<g clip-path="url(#clip1_54_867)">
<g clip-path="url(#clip2_54_867)">
<path d="M-63 -15.8301H117.506C119.651 -15.8301 121.795 -15.0503 123.354 -13.296L193.14 56.4895C194.699 58.049 195.675 60.1932 195.675 62.3375V229.588C195.675 231.733 196.649 233.877 198.208 235.436L243.043 280.076C244.602 281.635 246.746 282.611 248.891 282.611H797.818" stroke="#4364FA" stroke-width="2.33918" stroke-miterlimit="8"/>
<path d="M-63 183.195H42.8478C44.992 183.195 47.1364 183.974 48.6958 185.729L193.14 330.173C194.699 331.733 196.844 332.708 198.988 332.708H797.233" stroke="#4364FA" stroke-width="2.33918" stroke-miterlimit="8"/>
<path d="M-62.8047 456.879H-6.66443C-4.52011 456.879 -2.3759 456.099 -0.816487 454.345L68.9687 384.559C70.5289 383 72.6728 382.026 74.8166 382.026H798.403" stroke="#4364FA" stroke-width="2.33918" stroke-miterlimit="8"/>
<path d="M-63 581.439H167.214C169.359 581.439 171.503 580.66 173.062 578.906L342.458 409.51C344.017 407.951 346.161 406.976 348.306 406.976H797.233" stroke="#4364FA" stroke-width="2.33918" stroke-miterlimit="8"/>
<path d="M-63 33.8775H42.8478C44.992 33.8775 47.1364 34.6573 48.6958 36.4116L143.432 131.149C144.992 132.708 145.967 134.852 145.967 136.997V229.588C145.967 231.733 146.746 233.877 148.5 235.436L218.286 305.222C219.845 306.781 221.99 307.757 224.134 307.757H798.402" stroke="#4364FA" stroke-width="2.33918" stroke-miterlimit="8"/>
<path d="M-63 233.097H17.8965C20.0408 233.097 22.185 233.877 23.7445 235.632L143.237 355.125C144.797 356.684 146.941 357.658 149.085 357.658H798.402" stroke="#4364FA" stroke-width="2.33918" stroke-miterlimit="8"/>
</g>
</g>
</g>
<defs>
<clipPath id="clip0_54_867">
<rect width="861.987" height="600" fill="white" transform="translate(-63 -17)"/>
</clipPath>
<clipPath id="clip1_54_867">
<rect width="861.987" height="600" fill="white" transform="translate(-63 -17)"/>
</clipPath>
<clipPath id="clip2_54_867">
<rect width="861.987" height="599.999" fill="white" transform="translate(-63 -16.9996)"/>
</clipPath>
</defs>
</svg>
