<svg width="159" height="138" viewBox="0 0 159 138" fill="none" xmlns="http://www.w3.org/2000/svg">
<path d="M154.385 134.281H4.61478C2.29478 134.281 0.384766 132.381 0.384766 130.051V129.081C0.384766 126.761 2.28478 124.851 4.61478 124.851H154.385C156.705 124.851 158.615 126.751 158.615 129.081V130.051C158.615 132.381 156.715 134.281 154.385 134.281Z" fill="#E5E7EB"/>
<path d="M13.9646 35.531H95.0646C97.6646 35.531 99.7646 37.631 99.7646 40.231V109.601H9.26465V40.231C9.26465 37.631 11.3646 35.531 13.9646 35.531Z" fill="#4364FA"/>
<path d="M104.464 44.011H131.334C135.244 44.011 138.654 46.661 139.614 50.451L146.884 78.961C147.064 79.651 147.144 80.361 147.144 81.071V112.311H99.7539V48.711C99.7639 46.121 101.864 44.011 104.464 44.011Z" fill="#60D38E"/>
<path d="M148.374 117.681H7.2944C5.3544 117.681 3.77441 116.111 3.77441 114.161V113.111C3.77441 111.171 5.3444 109.591 7.2944 109.591H148.374C150.314 109.591 151.894 111.161 151.894 113.111V114.161C151.884 116.111 150.314 117.681 148.374 117.681Z" fill="#0B1319"/>
<path d="M47.7085 125.693C54.3629 119.039 54.3629 108.25 47.7085 101.596C41.054 94.941 30.265 94.9411 23.6105 101.596C16.956 108.25 16.956 119.039 23.6105 125.693C30.265 132.348 41.054 132.348 47.7085 125.693Z" fill="#0B1319"/>
<path d="M42.3694 120.355C46.0755 116.649 46.0754 110.64 42.3694 106.934C38.6634 103.228 32.6547 103.228 28.9487 106.934C25.2426 110.64 25.2426 116.649 28.9487 120.355C32.6547 124.061 38.6634 124.061 42.3694 120.355Z" fill="#E5E7EB"/>
<path d="M42.1641 113.641C42.1641 117.231 39.2541 120.141 35.6641 120.141C32.0741 120.141 29.1641 117.231 29.1641 113.641C29.1641 110.051 32.0741 107.141 35.6641 107.141C39.2541 107.141 42.1641 110.051 42.1641 113.641Z" fill="white"/>
<path d="M142.643 117.548C144.79 108.385 139.102 99.2172 129.94 97.0706C120.777 94.9239 111.61 100.611 109.463 109.774C107.316 118.936 113.004 128.104 122.166 130.251C131.329 132.397 140.497 126.71 142.643 117.548Z" fill="#0B1319"/>
<path d="M135.297 115.791C136.496 110.689 133.332 105.581 128.23 104.382C123.127 103.182 118.019 106.346 116.82 111.449C115.621 116.551 118.785 121.659 123.887 122.859C128.989 124.058 134.098 120.894 135.297 115.791Z" fill="#E5E7EB"/>
<path d="M132.564 113.641C132.564 117.231 129.654 120.141 126.064 120.141C122.474 120.141 119.564 117.231 119.564 113.641C119.564 110.051 122.474 107.141 126.064 107.141C129.654 107.141 132.564 110.051 132.564 113.641Z" fill="white"/>
<path d="M110.945 76.191H128.025C130.675 76.191 132.825 74.041 132.825 71.391V54.311C132.825 51.661 130.675 49.511 128.025 49.511H110.945C108.295 49.511 106.145 51.661 106.145 54.311V71.391C106.155 74.041 108.295 76.191 110.945 76.191Z" fill="#E5E7EB"/>
<path d="M128.024 49.521H121.814C119.354 51.941 116.894 54.351 114.464 56.791C111.834 59.421 109.184 62.031 106.604 64.711L106.154 65.181V71.401C106.154 72.901 106.854 74.231 107.934 75.111C108.104 74.951 108.264 74.781 108.434 74.621C109.794 73.301 111.164 71.971 112.524 70.651C115.194 68.061 117.794 65.401 120.424 62.771C124.214 58.971 127.964 55.141 131.704 51.301C130.834 50.211 129.514 49.521 128.024 49.521Z" fill="white"/>
<path d="M113.004 49.521C110.744 51.891 108.454 54.241 106.154 56.571V60.991C110.074 57.131 114.004 53.271 118.024 49.521H113.004Z" fill="white"/>
<path d="M113.365 81.7709C111.975 81.7709 110.585 81.7609 109.195 81.7909C108.925 81.7809 108.655 81.8609 108.415 82.0009C108.275 82.0709 108.135 82.1609 108.025 82.2809C107.955 82.3509 107.885 82.4409 107.825 82.5309C107.635 82.8009 107.525 83.1209 107.535 83.4509C107.555 83.8509 107.695 84.2009 107.925 84.4809C108.225 84.8609 108.665 85.1209 109.195 85.1009C110.585 85.1309 111.975 85.1209 113.365 85.1209C114.245 85.1209 115.085 84.3509 115.045 83.4409C115.005 82.5409 114.305 81.7709 113.365 81.7709Z" fill="#4364FA"/>
<path d="M139.764 70.671C139.764 70.181 139.614 69.6809 139.354 69.2409C139.334 69.2009 139.314 69.161 139.294 69.121C139.244 69.041 139.184 68.9809 139.124 68.9109C139.004 68.6409 138.834 68.391 138.644 68.201C138.234 67.791 137.564 67.491 136.984 67.511C136.024 67.551 135.244 68.0909 134.874 68.8809C134.464 69.3909 134.194 69.991 134.204 70.671C134.204 71.611 134.154 72.581 134.214 73.531V74.9109C134.214 75.4009 134.364 75.901 134.624 76.331C134.644 76.371 134.664 76.421 134.694 76.461C134.794 76.611 134.904 76.7509 135.034 76.8809C135.514 77.3609 136.304 77.721 136.994 77.691C137.714 77.661 138.454 77.4209 138.954 76.8809C139.454 76.3409 139.764 75.671 139.764 74.921C139.764 74.461 139.764 74.001 139.764 73.541C139.814 72.581 139.774 71.611 139.764 70.671Z" fill="#4364FA"/>
<path d="M145.684 90.281C145.684 89.701 145.424 89.081 145.014 88.661C144.904 88.551 144.784 88.461 144.654 88.371C144.614 88.331 144.575 88.301 144.525 88.261C144.195 88.031 143.804 87.901 143.404 87.921C142.914 87.941 142.494 88.121 142.154 88.391C141.544 88.791 141.124 89.471 141.124 90.271C141.114 91.971 141.104 93.671 141.104 95.371C141.104 95.961 141.364 96.581 141.784 97.001C142.184 97.401 142.844 97.701 143.414 97.681C144.664 97.621 145.714 96.671 145.714 95.381C145.704 93.681 145.704 91.981 145.684 90.281Z" fill="white"/>
<path d="M58.4141 89.051L45.4041 82.661C44.9741 82.451 44.7041 82.011 44.7041 81.531V62.481C44.7041 61.551 45.6841 60.941 46.5141 61.351L59.5241 67.741C59.9541 67.951 60.2241 68.391 60.2241 68.871V87.921C60.2241 88.851 59.2441 89.461 58.4141 89.051Z" fill="white"/>
<path d="M65.684 89.051L78.694 82.661C79.124 82.451 79.394 82.011 79.394 81.531V62.481C79.394 61.551 78.414 60.941 77.584 61.351L64.574 67.741C64.144 67.951 63.874 68.391 63.874 68.871V87.921C63.874 88.851 64.844 89.461 65.684 89.051Z" fill="white"/>
<path d="M61.4944 51.2811L48.8144 57.5011C47.8744 57.9611 47.8744 59.3011 48.8144 59.7611L61.4944 65.9811C61.8444 66.1511 62.2544 66.1511 62.6044 65.9811L75.2844 59.7611C76.2244 59.3011 76.2244 57.9611 75.2844 57.5011L62.6044 51.2811C62.2544 51.1111 61.8444 51.1111 61.4944 51.2811Z" fill="white"/>
<path d="M51.6943 52.4311C45.5343 52.3611 39.3643 52.4011 33.2043 52.4111C32.8343 52.4111 32.6543 52.7011 32.6543 52.9811C32.6543 53.2711 32.8343 53.5511 33.2043 53.5511C39.3643 53.5611 45.5343 53.6011 51.6943 53.5311C52.0543 53.5311 52.2343 53.2511 52.2343 52.9711C52.2343 52.7111 52.0543 52.4311 51.6943 52.4311Z" fill="white"/>
<path d="M41.3646 57.771C37.8246 57.771 34.2846 57.771 30.7446 57.761C30.5946 57.761 30.4746 57.811 30.3746 57.881C30.2346 57.881 30.0946 57.881 29.9546 57.881C29.6046 57.881 29.4346 58.151 29.4346 58.421C29.4346 58.691 29.6046 58.961 29.9546 58.961C30.0946 58.961 30.2346 58.961 30.3746 58.961C30.4746 59.031 30.5846 59.081 30.7446 59.081L41.3646 59.071C42.2046 59.081 42.2146 57.771 41.3646 57.771Z" fill="white"/>
<path d="M53.8245 89.5911C50.6745 89.6011 47.5245 89.6011 44.3745 89.6111C44.0245 89.6111 43.8545 89.8811 43.8545 90.1511C43.8545 90.4211 44.0245 90.6911 44.3745 90.6911C47.5245 90.7011 50.6745 90.7011 53.8245 90.7111C54.5445 90.7111 54.5545 89.5911 53.8245 89.5911Z" fill="white"/>
<path d="M43.9247 84.3911C38.2647 84.3911 32.6047 84.3911 26.9447 84.4011C26.1747 84.4011 26.1747 85.6011 26.9447 85.6011C32.6047 85.6111 38.2647 85.6111 43.9247 85.6111C44.7047 85.6011 44.7047 84.3911 43.9247 84.3911Z" fill="white"/>
<path d="M39.9941 76.751H39.6041C37.1541 76.751 34.7041 76.741 32.2541 76.761C31.8841 76.761 31.7041 77.041 31.7041 77.331C31.7041 77.621 31.8841 77.901 32.2541 77.901C34.7041 77.921 37.1541 77.911 39.6041 77.911C39.7341 77.911 39.8641 77.911 39.9941 77.911C40.3641 77.911 40.5541 77.621 40.5541 77.331C40.5541 77.031 40.3641 76.751 39.9941 76.751Z" fill="white"/>
<path d="M40.3045 66.821C35.1345 66.821 29.9645 66.901 24.7945 66.901C24.1245 66.901 24.1245 67.9411 24.7945 67.9411C29.9645 67.9411 35.1345 68.021 40.3045 68.021C41.0845 68.031 41.0845 66.821 40.3045 66.821Z" fill="white"/>
<path d="M17.7943 11.2309C17.7943 15.8109 14.0843 28.4809 9.49432 28.4809C4.90432 28.4809 1.19434 15.8109 1.19434 11.2309C1.19434 6.65091 4.90432 2.93091 9.49432 2.93091C14.0843 2.93091 17.7943 6.65091 17.7943 11.2309Z" fill="#60D38E"/>
<path d="M9.49466 15.7008C12.0849 15.7008 14.1847 13.601 14.1847 11.0108C14.1847 8.42059 12.0849 6.3208 9.49466 6.3208C6.90444 6.3208 4.80469 8.42059 4.80469 11.0108C4.80469 13.601 6.90444 15.7008 9.49466 15.7008Z" fill="white"/>
<path d="M152.075 11.2309C152.075 15.8109 148.365 28.4809 143.775 28.4809C139.195 28.4809 135.475 15.8109 135.475 11.2309C135.475 6.65091 139.185 2.93091 143.775 2.93091C148.365 2.94091 152.075 6.65091 152.075 11.2309Z" fill="#60D38E"/>
<path d="M143.785 15.7009C146.375 15.7009 148.475 13.6011 148.475 11.0109C148.475 8.42071 146.375 6.32092 143.785 6.32092C141.195 6.32092 139.095 8.42071 139.095 11.0109C139.095 13.6011 141.195 15.7009 143.785 15.7009Z" fill="white"/>
<path d="M137.605 23.901C134.465 21.141 131.025 18.681 127.515 16.411C123.995 14.131 120.325 12.091 116.535 10.291C112.755 8.49098 108.855 6.93098 104.865 5.63098C100.595 4.24098 96.2151 3.08099 91.7551 2.53099C87.1351 1.96099 82.4451 2.11098 77.8151 2.43098C73.6051 2.72098 69.4151 3.24099 65.2551 3.97099C56.8951 5.44099 48.7251 7.79099 40.8451 10.951C33.0351 14.081 25.4351 17.961 18.5451 22.811C17.7351 23.381 16.9451 23.971 16.1551 24.571C16.0551 24.641 16.1851 24.801 16.2851 24.741C23.3251 20.251 30.5051 16.051 38.1951 12.751C45.8951 9.44099 53.9451 6.95099 62.1551 5.28099C66.2551 4.45099 70.4051 3.82099 74.5751 3.42099C78.9751 3.00099 83.4251 2.75099 87.8451 2.94099C92.5251 3.14099 97.0851 4.11098 101.575 5.41098C105.605 6.58098 109.555 8.01099 113.395 9.70099C120.945 13.021 128.195 17.291 134.605 22.491C135.415 23.141 136.215 23.811 137.015 24.471C137.425 24.811 138.005 24.251 137.605 23.901Z" fill="#E5E7EB"/>
<path d="M92.6247 1.87093C92.5047 1.44093 92.2847 1.07094 91.9747 0.750935C91.8047 0.620935 91.6347 0.490926 91.4647 0.350926C91.0647 0.120926 90.6447 0.000935059 90.1847 0.000935059C89.8347 -0.00906494 89.5047 0.0609363 89.2047 0.220936C88.8847 0.320936 88.6147 0.500935 88.3847 0.750935C88.1347 0.980935 87.9647 1.25093 87.8547 1.57093C87.6947 1.87093 87.6247 2.20092 87.6347 2.55092C87.6647 2.78092 87.6947 3.00093 87.7247 3.23093C87.8447 3.66093 88.0647 4.03093 88.3747 4.35093C88.5447 4.48093 88.7147 4.61094 88.8847 4.75094C89.2847 4.98094 89.7047 5.10093 90.1647 5.10093C90.5147 5.11093 90.8447 5.04092 91.1447 4.88092C91.4647 4.78092 91.7347 4.60093 91.9647 4.35093C92.2147 4.12093 92.3847 3.85093 92.4947 3.53093C92.6547 3.23093 92.7247 2.90092 92.7147 2.55092C92.6847 2.32092 92.6547 2.09093 92.6247 1.87093Z" fill="#60D38E"/>
</svg>
