<svg width="1168" height="394" viewBox="0 0 1168 394" fill="none" xmlns="http://www.w3.org/2000/svg">
<g opacity="0.15" clip-path="url(#clip0_351_4156)">
<path d="M52.4021 406.158H-0.868103C-3.32047 406.158 -5.77152 405.263 -7.55542 403.251L-87.1266 323.395C-88.9092 321.605 -91.3615 320.487 -93.8125 320.487H-199.685C-202.137 320.487 -204.588 319.593 -206.372 317.802L-373.225 180.908C-375.008 179.118 -377.46 178 -379.911 178H-828M-828 350.119H-408.384C-405.932 350.119 -403.478 350.999 -401.694 352.756L-263.553 459.34C-261.769 461.097 -259.316 462.197 -256.863 462.197H52.4021M-828 690.355H-379.843C-377.391 690.355 -374.939 689.244 -373.155 687.464L-263.33 608.075C-261.546 606.297 -259.092 605.185 -256.64 605.185H-150.728C-148.274 605.185 -145.822 604.072 -144.038 602.294L-64.2134 522.461C-62.4295 520.681 -59.9771 519.57 -57.5247 519.57H52.4021M-828 264.727H-380.066C-377.614 264.727 -375.161 265.61 -373.377 267.599L-178.154 431.305C-176.37 433.073 -173.917 434.178 -171.464 434.178H52.4021M-828 604.962H-436.878C-434.425 604.962 -431.971 604.066 -430.187 602.048L-378.883 550.503C-377.099 548.71 -374.645 547.589 -372.191 547.589H-179.134C-176.681 547.589 -174.227 546.693 -172.443 544.675L-121.138 493.13C-119.354 491.337 -116.9 490.216 -114.447 490.216H52.4021M-828 775.748H-408.211C-405.755 775.748 -403.3 774.855 -401.513 772.848L-234.671 636.132C-232.885 634.347 -230.43 633.233 -227.974 633.233H-121.939C-119.482 633.233 -117.027 632.34 -115.241 630.333L-35.324 550.489C-33.5374 548.705 -31.0824 547.589 -28.626 547.589H51.0679M-828 862.474H-408.327C-405.873 862.474 -403.42 861.352 -401.634 859.556L-234.9 721.96C-233.114 720.164 -230.661 719.042 -228.207 719.042H-150.805C-148.352 719.042 -145.898 718.144 -144.114 716.124L-7.37793 578.527C-5.59403 576.731 -3.14035 575.609 -0.686646 575.609H52.4021" stroke="#4364FA" stroke-width="2.66852" stroke-miterlimit="8"/>
<path d="M1224.07 53H678.152C675.697 53 673.255 53.8895 671.481 55.8909L591.865 135.502C590.091 137.281 588.97 139.727 588.97 142.173V332.971C588.97 335.418 587.863 337.864 586.088 339.643L534.933 390.567C533.158 392.346 530.716 393.459 528.261 393.459H305M1224.07 280.047H763.318C760.876 280.047 758.421 280.935 756.646 282.937L591.865 447.718C590.091 449.497 587.636 450.609 585.194 450.609H305M1223.84 592.263H819.797C817.355 592.263 814.913 591.373 813.125 589.372L733.524 509.76C731.736 507.982 729.294 506.87 726.852 506.87H305M1224.07 734.36H621.446C618.991 734.36 616.549 733.472 614.775 731.47L421.521 538.224C419.746 536.446 417.304 535.334 414.849 535.334H305M1224.07 109.706H763.318C760.876 109.706 758.421 110.596 756.646 112.597L648.571 220.672C646.797 222.451 645.676 224.896 645.676 227.344V332.971C645.676 335.418 644.795 337.864 642.794 339.643L563.179 419.254C561.404 421.032 558.949 422.145 556.508 422.145H305M1224.07 336.974H791.777C789.335 336.974 786.894 337.864 785.106 339.865L648.798 476.183C647.01 477.961 644.569 479.073 642.127 479.073H305" stroke="#4364FA" stroke-width="2.66852" stroke-miterlimit="8"/>
</g>
<defs>
<clipPath id="clip0_351_4156">
<rect width="1988" height="394" fill="white" transform="translate(-799)"/>
</clipPath>
</defs>
</svg>
