<svg width="1170" height="659" viewBox="0 0 1170 659" fill="none" xmlns="http://www.w3.org/2000/svg">
<mask id="mask0_408_1314" style="mask-type:alpha" maskUnits="userSpaceOnUse" x="1" y="1" width="1168" height="657">
<rect x="1" y="1" width="1168" height="657" rx="10" fill="#F7F6FC"/>
</mask>
<g mask="url(#mask0_408_1314)">
<rect x="1" y="1" width="1168" height="657" rx="10" fill="#F7F6FC"/>
<g filter="url(#filter0_d_408_1314)">
<mask id="mask1_408_1314" style="mask-type:alpha" maskUnits="userSpaceOnUse" x="601" y="133" width="467" height="413">
<rect x="596" y="330" width="404" height="255.2" rx="16" transform="rotate(-30 596 330)" fill="#4364FA"/>
</mask>
<g mask="url(#mask1_408_1314)">
<rect x="596" y="330" width="404" height="255.2" transform="rotate(-30 596 330)" fill="white"/>
<mask id="path-5-inside-1_408_1314" fill="white">
<path fill-rule="evenodd" clip-rule="evenodd" d="M790.593 246.62L825.004 80.8547L886.335 45.4453L976.209 201.111L1010.75 386.919L907.318 550.524L714.088 558.195L902.209 180.146L790.593 246.62ZM698.107 154.119L649.224 389.896L761.72 324.947L714.088 558.195L570.273 435.479L480.399 279.813L683.367 162.629L698.107 154.119Z"/>
</mask>
<path d="M825.004 80.8547L824.004 79.1226L823.228 79.5707L823.046 80.4482L825.004 80.8547ZM790.593 246.62L788.635 246.214L787.711 250.665L791.616 248.339L790.593 246.62ZM886.335 45.4453L888.067 44.4453L887.067 42.7132L885.335 43.7132L886.335 45.4453ZM976.209 201.111L978.175 200.746L978.113 200.408L977.941 200.111L976.209 201.111ZM1010.75 386.919L1012.44 387.988L1012.86 387.325L1012.71 386.553L1010.75 386.919ZM907.318 550.524L907.398 552.522L908.447 552.48L909.009 551.592L907.318 550.524ZM714.088 558.195L712.79 559.716L713.385 560.224L714.167 560.193L714.088 558.195ZM902.209 180.146L904 181.037L907.03 174.947L901.186 178.428L902.209 180.146ZM649.224 389.896L647.266 389.49L646.36 393.859L650.224 391.628L649.224 389.896ZM698.107 154.119L700.065 154.525L700.971 150.156L697.107 152.387L698.107 154.119ZM761.72 324.947L763.68 325.347L764.569 320.992L760.72 323.215L761.72 324.947ZM570.273 435.479L568.541 436.479L568.713 436.777L568.975 437L570.273 435.479ZM480.399 279.813L479.399 278.081L477.667 279.081L478.667 280.813L480.399 279.813ZM823.046 80.4482L788.635 246.214L792.551 247.027L826.963 81.2612L823.046 80.4482ZM885.335 43.7132L824.004 79.1226L826.004 82.5867L887.335 47.1773L885.335 43.7132ZM977.941 200.111L888.067 44.4453L884.603 46.4453L974.477 202.111L977.941 200.111ZM1012.71 386.553L978.175 200.746L974.243 201.477L1008.78 387.284L1012.71 386.553ZM909.009 551.592L1012.44 387.988L1009.06 385.85L905.628 549.455L909.009 551.592ZM714.167 560.193L907.398 552.522L907.239 548.525L714.009 556.197L714.167 560.193ZM900.419 179.255L712.297 557.304L715.878 559.086L904 181.037L900.419 179.255ZM791.616 248.339L903.232 181.864L901.186 178.428L789.569 244.902L791.616 248.339ZM651.182 390.302L700.065 154.525L696.149 153.713L647.266 389.49L651.182 390.302ZM760.72 323.215L648.224 388.164L650.224 391.628L762.72 326.679L760.72 323.215ZM716.047 558.595L763.68 325.347L759.761 324.546L712.128 557.795L716.047 558.595ZM568.975 437L712.79 559.716L715.386 556.674L571.571 433.957L568.975 437ZM478.667 280.813L568.541 436.479L572.005 434.479L482.131 278.813L478.667 280.813ZM682.367 160.897L479.399 278.081L481.399 281.545L684.367 164.361L682.367 160.897ZM697.107 152.387L682.367 160.897L684.367 164.361L699.107 155.851L697.107 152.387Z" fill="#F7F6FC" mask="url(#path-5-inside-1_408_1314)"/>
<path d="M798.633 482.6L795.273 476.78L797.152 475.695C798.257 475.057 799.284 475.318 799.773 476.166C800.105 476.74 800.08 477.33 799.758 477.849L799.787 477.898C800.255 477.806 801.043 477.905 801.518 478.728C802.123 479.775 801.659 480.853 800.678 481.419L798.633 482.6ZM797.392 478.915L798.581 478.229C799.238 477.85 799.453 477.204 799.112 476.614C798.781 476.041 798.121 475.934 797.497 476.294L796.283 476.995L797.392 478.915ZM798.957 481.626L800.221 480.896C800.911 480.498 801.243 479.863 800.811 479.114C800.369 478.349 799.581 478.405 798.907 478.794L797.719 479.481L798.957 481.626ZM805.532 478.761C804.21 479.524 802.808 479.036 802.06 477.739C801.263 476.359 801.689 474.927 802.869 474.245C804.183 473.487 805.521 474 806.241 475.247L806.409 475.538L802.884 477.574C803.417 478.419 804.305 478.671 805.194 478.157C805.768 477.826 806.158 477.235 806.065 476.613L806.747 476.219C806.971 477.165 806.546 478.175 805.532 478.761ZM802.565 476.982L805.375 475.36C804.817 474.529 803.946 474.422 803.215 474.844C802.492 475.262 802.17 476.145 802.565 476.982ZM810.64 475.812C809.335 476.565 807.849 476.104 807.11 474.824C806.37 473.543 806.739 472.011 808.011 471.277C808.95 470.735 810.15 470.796 810.939 471.626L810.257 472.02C809.756 471.555 808.996 471.506 808.373 471.866C807.45 472.399 807.249 473.49 807.791 474.43C808.353 475.403 809.413 475.722 810.319 475.199C810.943 474.839 811.289 474.151 811.128 473.49L811.802 473.101C812.134 474.195 811.579 475.269 810.64 475.812ZM815.672 472.906C814.4 473.641 812.976 473.21 812.213 471.888C811.445 470.558 811.779 469.101 813.001 468.396C813.908 467.873 814.726 468.176 814.988 468.324L815.038 468.295L814.635 467.597L815.292 467.217L817.788 471.541L817.156 471.905L816.762 471.224L816.713 471.252C816.696 471.473 816.611 472.364 815.672 472.906ZM815.373 472.292C816.312 471.75 816.436 470.658 815.913 469.752C815.298 468.688 814.278 468.457 813.422 468.951C812.532 469.465 812.32 470.518 812.887 471.499C813.472 472.514 814.467 472.815 815.373 472.292ZM820.796 469.948C819.79 470.529 818.747 470.122 818.195 469.166L816.625 466.448L817.282 466.068L818.837 468.762C819.236 469.452 820.002 469.608 820.609 469.258C821.291 468.864 821.52 468.033 821.107 467.318L819.61 464.724L820.267 464.345L822.763 468.668L822.106 469.048L821.741 468.416L821.691 468.445C821.734 468.941 821.47 469.559 820.796 469.948ZM825.665 467.137C824.643 467.727 823.739 467.506 823.199 466.743L823.839 466.373C824.211 466.845 824.736 466.909 825.368 466.544C826.016 466.169 826.191 465.647 825.937 465.206C825.236 463.993 823.183 466.408 822.194 464.696C821.772 463.964 822.155 463.111 823.061 462.588C823.859 462.127 824.793 462.208 825.311 462.951L824.679 463.316C824.386 462.942 823.92 462.846 823.346 463.177C822.806 463.489 822.61 463.957 822.826 464.331C823.46 465.428 825.526 463.016 826.558 464.803C827.028 465.618 826.671 466.556 825.665 467.137ZM830.465 464.366C829.143 465.129 827.742 464.641 826.993 463.344C826.196 461.964 826.622 460.532 827.803 459.85C829.116 459.092 830.455 459.605 831.175 460.852L831.343 461.143L827.817 463.178C828.35 464.024 829.238 464.276 830.128 463.762C830.701 463.431 831.092 462.84 830.998 462.217L831.68 461.824C831.905 462.769 831.479 463.78 830.465 464.366ZM827.498 462.587L830.308 460.964C829.751 460.133 828.88 460.026 828.148 460.449C827.425 460.866 827.104 461.75 827.498 462.587ZM836.983 463.008L836.637 462.409L836.962 462.222C837.386 461.977 837.521 461.655 837.446 461.199L837.344 460.561L832.959 457.017L833.691 456.595L837.141 459.48L837.191 459.451L836.426 455.016L837.166 454.589L838.171 461.091C838.287 461.811 838.139 462.341 837.432 462.749L836.983 463.008ZM842.483 457.427C841.186 458.176 839.678 457.772 838.92 456.458C838.166 455.153 838.582 453.627 839.871 452.883C841.176 452.129 842.685 452.555 843.434 453.852C844.183 455.148 843.78 456.678 842.483 457.427ZM842.138 456.828C843.069 456.291 843.318 455.205 842.761 454.24C842.209 453.284 841.139 452.948 840.208 453.486C839.277 454.024 839.046 455.121 839.593 456.069C840.155 457.042 841.215 457.361 842.138 456.828ZM847.435 454.568C846.429 455.149 845.385 454.743 844.833 453.787L843.264 451.068L843.92 450.689L845.476 453.382C845.874 454.072 846.64 454.229 847.247 453.878C847.929 453.485 848.159 452.654 847.746 451.939L846.248 449.345L846.905 448.966L849.401 453.289L848.744 453.668L848.379 453.036L848.33 453.065C848.372 453.561 848.108 454.179 847.435 454.568ZM850.811 452.474L848.315 448.151L848.964 447.777L849.43 448.583L849.479 448.554C849.393 448.117 849.563 447.431 850.194 447.066L850.56 446.855L850.939 447.512L850.582 447.718C849.792 448.174 849.707 449.044 850.182 449.867L851.468 452.095L850.811 452.474ZM857.375 451.235L853.736 444.933L855.009 444.198L855.292 444.689L855.358 444.65C855.368 444.379 855.503 443.769 856.235 443.346C857.432 442.655 858.773 443.078 859.57 444.458C860.367 445.838 860.108 447.251 858.927 447.933C858.212 448.346 857.619 448.201 857.338 448.041L857.272 448.08L858.664 450.491L857.375 451.235ZM857.931 446.956C858.53 446.611 858.668 445.91 858.279 445.236C857.881 444.546 857.214 444.333 856.616 444.678C856.001 445.033 855.888 445.741 856.267 446.398C856.671 447.096 857.341 447.297 857.931 446.956ZM861.702 446.186L859.168 441.797L860.382 441.096L860.766 441.761L860.832 441.723C860.795 441.312 860.97 440.712 861.56 440.371L861.984 440.127L862.685 441.341L862.178 441.633C861.546 441.998 861.402 442.691 861.839 443.447L862.991 445.442L861.702 446.186ZM863.211 438.809C862.77 439.063 862.301 438.979 862.051 438.547C861.802 438.115 861.964 437.666 862.405 437.412C862.845 437.157 863.315 437.241 863.564 437.673C863.814 438.106 863.652 438.554 863.211 438.809ZM865.389 444.058L862.854 439.669L864.143 438.925L866.677 443.314L865.389 444.058ZM868.76 442.112L864.671 438.62L866.01 437.847L868.575 440.179L868.642 440.14L867.905 436.752L869.26 435.97L870.248 441.252L868.76 442.112ZM874.091 439.178C872.885 439.874 871.544 439.452 870.747 438.071C869.95 436.691 870.218 435.273 871.398 434.592C872.088 434.193 872.703 434.337 872.987 434.483L873.054 434.445L872.766 433.946L874.054 433.202L876.589 437.592L875.309 438.331L875.021 437.832L874.954 437.871C874.945 438.142 874.814 438.761 874.091 439.178ZM873.71 437.846C874.325 437.491 874.432 436.775 874.058 436.127C873.655 435.428 872.976 435.232 872.386 435.573C871.787 435.919 871.649 436.62 872.038 437.293C872.431 437.975 873.103 438.197 873.71 437.846ZM879.675 435.954C878.262 436.77 876.762 436.284 876.018 434.995C875.269 433.698 875.595 432.169 877.008 431.353C878.23 430.647 879.53 430.883 880.274 431.884L878.969 432.637C878.636 432.33 878.145 432.248 877.688 432.512C877.056 432.877 876.958 433.61 877.323 434.241C877.693 434.882 878.388 435.145 879.012 434.785C879.444 434.536 879.641 434.089 879.547 433.678L880.861 432.919C881.32 434.04 880.881 435.258 879.675 435.954ZM883.65 436.065L882.992 434.926L883.499 434.633C883.848 434.431 883.938 434.125 883.886 433.767L883.841 433.516L879.521 430.046L880.868 429.269L883.44 431.497L883.507 431.458L882.813 428.145L884.177 427.358L885.213 433.455C885.38 434.434 885.154 435.196 884.232 435.729L883.65 436.065ZM889.734 430.003L887.238 425.679L887.895 425.3L888.255 425.924L888.305 425.895C888.282 425.376 888.506 424.803 889.146 424.434C889.794 424.059 890.451 424.102 890.965 424.436L891.024 424.403C890.993 423.678 891.332 423.171 891.939 422.821C892.904 422.264 893.921 422.586 894.468 423.534L896.086 426.335L895.429 426.715L893.936 424.129C893.466 423.314 892.818 423.134 892.178 423.503C891.571 423.854 891.289 424.593 891.754 425.4L893.242 427.977L892.586 428.356L891.021 425.646C890.622 424.956 889.917 424.809 889.31 425.159C888.703 425.51 888.466 426.289 888.888 427.021L890.391 429.623L889.734 430.003ZM899.379 424.578C898.107 425.313 896.683 424.882 895.92 423.56C895.152 422.23 895.486 420.773 896.708 420.068C897.614 419.544 898.433 419.848 898.695 419.996L898.745 419.967L898.342 419.268L898.999 418.889L901.495 423.212L900.863 423.577L900.469 422.896L900.419 422.924C900.402 423.145 900.318 424.036 899.379 424.578ZM899.08 423.964C900.019 423.421 900.143 422.33 899.62 421.424C899.005 420.36 897.985 420.129 897.129 420.623C896.239 421.137 896.027 422.19 896.593 423.171C897.179 424.185 898.173 424.487 899.08 423.964ZM904.599 421.42C903.801 421.881 903.061 421.732 902.557 420.859L901.136 418.398L900.321 418.869L899.999 418.311L900.648 417.937C900.764 417.87 900.812 417.742 900.731 417.601L900.131 416.562L900.746 416.206L901.471 417.462L902.801 416.694L903.123 417.251L901.793 418.019L903.209 420.472C903.477 420.937 903.81 421.111 904.309 420.823L904.908 420.477L905.239 421.051L904.599 421.42ZM908.147 419.372C907.349 419.833 906.608 419.684 906.104 418.811L904.684 416.35L903.869 416.82L903.547 416.263L904.196 415.889C904.312 415.821 904.36 415.694 904.279 415.552L903.679 414.513L904.294 414.158L905.019 415.413L906.349 414.645L906.671 415.202L905.34 415.97L906.756 418.423C907.025 418.889 907.358 419.062 907.857 418.774L908.456 418.429L908.787 419.002L908.147 419.372ZM911.898 417.35C910.577 418.113 909.175 417.625 908.426 416.328C907.63 414.948 908.056 413.516 909.236 412.835C910.55 412.076 911.888 412.589 912.608 413.836L912.776 414.127L909.251 416.163C909.783 417.008 910.672 417.26 911.561 416.747C912.135 416.415 912.525 415.824 912.432 415.202L913.114 414.808C913.338 415.754 912.913 416.764 911.898 417.35ZM908.932 415.571L911.742 413.949C911.184 413.118 910.313 413.011 909.582 413.433C908.858 413.851 908.537 414.735 908.932 415.571ZM915.057 415.382L912.561 411.059L913.21 410.685L913.675 411.491L913.725 411.462C913.639 411.024 913.808 410.339 914.44 409.974L914.806 409.763L915.185 410.42L914.827 410.626C914.038 411.082 913.952 411.952 914.427 412.775L915.714 415.003L915.057 415.382ZM919.878 412.743C918.856 413.333 917.952 413.112 917.412 412.349L918.052 411.979C918.424 412.452 918.948 412.515 919.58 412.15C920.229 411.776 920.404 411.253 920.149 410.813C919.449 409.599 917.396 412.014 916.407 410.302C915.985 409.57 916.368 408.717 917.274 408.194C918.072 407.733 919.006 407.815 919.524 408.558L918.892 408.923C918.599 408.549 918.133 408.452 917.559 408.783C917.018 409.095 916.823 409.563 917.039 409.937C917.672 411.034 919.738 408.622 920.77 410.41C921.241 411.224 920.884 412.162 919.878 412.743ZM926.804 408.6C926.006 409.061 925.266 408.912 924.762 408.039L923.341 405.578L922.526 406.048L922.205 405.491L922.853 405.117C922.97 405.05 923.018 404.922 922.936 404.781L922.336 403.741L922.952 403.386L923.676 404.642L925.007 403.874L925.328 404.431L923.998 405.199L925.414 407.651C925.683 408.117 926.016 408.29 926.515 408.002L927.113 407.657L927.444 408.23L926.804 408.6ZM928.664 407.526L925.064 401.291L925.721 400.911L927.19 403.455L927.24 403.427C927.197 402.93 927.478 402.303 928.151 401.914C929.157 401.333 930.218 401.73 930.77 402.686L932.339 405.404L931.682 405.784L930.137 403.106C929.738 402.416 928.955 402.27 928.349 402.62C927.683 403.004 927.401 403.821 927.804 404.52L929.321 407.147L928.664 407.526ZM935.647 403.639C934.325 404.402 932.923 403.914 932.175 402.617C931.378 401.237 931.804 399.805 932.984 399.124C934.298 398.365 935.636 398.878 936.356 400.125L936.524 400.416L932.999 402.452C933.531 403.297 934.42 403.549 935.309 403.036C935.883 402.704 936.273 402.113 936.18 401.491L936.862 401.097C937.086 402.043 936.661 403.053 935.647 403.639ZM932.68 401.86L935.49 400.238C934.932 399.407 934.061 399.3 933.33 399.722C932.606 400.14 932.285 401.024 932.68 401.86ZM941.135 400.326L938.639 396.003L939.296 395.624L939.656 396.247L939.706 396.218C939.683 395.699 939.907 395.127 940.547 394.757C941.196 394.383 941.852 394.425 942.367 394.76L942.425 394.726C942.394 394.001 942.734 393.495 943.341 393.144C944.305 392.587 945.322 392.909 945.869 393.857L947.487 396.659L946.83 397.038L945.337 394.452C944.867 393.638 944.22 393.457 943.579 393.827C942.973 394.177 942.69 394.917 943.156 395.723L944.644 398.3L943.987 398.68L942.422 395.969C942.024 395.279 941.318 395.132 940.711 395.483C940.104 395.833 939.867 396.613 940.29 397.345L941.792 399.947L941.135 400.326ZM950.88 394.844C949.583 395.593 948.075 395.189 947.316 393.875C946.563 392.57 946.979 391.044 948.267 390.3C949.573 389.546 951.082 389.972 951.831 391.269C952.58 392.566 952.177 394.095 950.88 394.844ZM950.534 394.245C951.465 393.708 951.714 392.622 951.157 391.657C950.605 390.701 949.536 390.366 948.605 390.903C947.674 391.441 947.443 392.539 947.99 393.486C948.551 394.459 949.611 394.778 950.534 394.245ZM955.732 392.043C954.709 392.633 953.805 392.412 953.265 391.649L953.905 391.279C954.278 391.752 954.802 391.815 955.434 391.45C956.082 391.076 956.257 390.553 956.003 390.113C955.302 388.899 953.249 391.314 952.26 389.602C951.838 388.87 952.221 388.017 953.127 387.494C953.926 387.033 954.86 387.115 955.377 387.858L954.745 388.223C954.452 387.849 953.986 387.752 953.412 388.083C952.872 388.395 952.676 388.863 952.892 389.237C953.526 390.334 955.592 387.922 956.624 389.71C957.094 390.524 956.738 391.462 955.732 392.043ZM960.327 389.245C959.529 389.706 958.789 389.557 958.285 388.684L956.864 386.223L956.05 386.694L955.728 386.136L956.377 385.762C956.493 385.695 956.541 385.567 956.46 385.426L955.86 384.387L956.475 384.031L957.2 385.287L958.53 384.519L958.851 385.076L957.521 385.844L958.937 388.296C959.206 388.762 959.539 388.936 960.038 388.648L960.636 388.302L960.968 388.876L960.327 389.245Z" fill="white"/>
<path fill-rule="evenodd" clip-rule="evenodd" d="M672.485 331.075L665.002 318.114L667.261 316.81L674.671 329.643C675.009 330.228 675.493 330.368 676.049 330.047L676.523 329.774L677.646 331.719L676.72 332.254C675.02 333.235 673.472 332.791 672.482 331.077L672.485 331.075ZM635.847 349.86L638.107 348.556C638.997 350.049 640.954 350.508 643.042 349.302C645.13 348.097 645.574 346.783 644.812 345.464C643.786 343.686 641.911 344.255 639.849 344.881C637.33 345.646 634.532 346.495 632.661 343.253C631.477 341.204 632.159 338.106 635.344 336.266C638.53 334.427 641.237 334.647 643.042 337.675L640.697 339.029C639.864 337.585 638.322 337.252 636.494 338.307C634.666 339.363 634.338 340.835 634.942 341.881C635.83 343.42 637.606 342.88 639.61 342.272C642.204 341.484 645.18 340.58 647.107 343.918C648.422 346.196 647.615 349.422 644.151 351.422C640.688 353.422 637.476 352.682 635.847 349.86ZM651.261 342.323L647.991 336.659L645.968 337.828L644.942 336.052L646.428 335.194C646.816 334.97 646.937 334.536 646.685 334.099L645.296 331.694L647.426 330.463L649.213 333.558L652.484 331.67L653.522 333.466L650.251 335.355L653.485 340.957C654.088 342.002 654.903 342.368 656.086 341.684L657.614 340.802L658.688 342.661L656.817 343.741C654.6 345.021 652.58 344.6 651.265 342.322L651.261 342.323ZM659.839 327.063C656.632 328.914 655.551 332.604 657.554 336.073L657.557 336.071C659.453 339.356 663.738 340.113 666.511 338.513C669.284 336.912 670.441 334.291 669.803 331.844L667.608 333.112C667.771 334.439 667.573 335.444 665.509 336.636C663.446 337.827 661.383 337.291 660.199 335.437L669.064 330.318L668.594 329.504C666.797 326.392 663.046 325.211 659.839 327.063ZM660.901 328.901C662.643 327.895 664.638 328.165 665.849 329.917L659.264 333.719C658.446 331.907 659.158 329.907 660.901 328.901ZM671.156 314.561L678.639 327.522C679.629 329.236 681.178 329.681 682.877 328.699L683.804 328.164L682.68 326.219L682.207 326.493C681.647 326.816 681.163 326.675 680.825 326.09L673.415 313.257L671.156 314.561ZM682.384 321.737C680.429 318.351 681.27 314.69 684.413 312.875C687.129 311.307 688.184 311.988 688.868 312.429L688.868 312.429L688.868 312.429L688.868 312.429C688.975 312.498 689.073 312.562 689.167 312.609L689.317 312.523L688.399 310.934L690.659 309.629L696.971 320.562L694.754 321.842L693.861 320.295L693.732 320.369C693.672 320.962 693.382 322.995 691.147 324.285C687.919 326.149 684.342 325.121 682.385 321.732L682.384 321.737ZM691.626 316.374C690.262 314.012 687.958 313.501 685.98 314.643C684.002 315.785 683.41 318.191 684.677 320.385C685.944 322.58 688.259 323.307 690.322 322.116C692.386 320.924 692.821 318.444 691.626 316.374ZM696.082 306.498L693.908 307.753L700.222 318.689L702.481 317.384L699.367 311.991C698.198 309.965 698.486 307.93 700.4 306.825L701.454 306.216L700.223 304.083L699.233 304.655C697.643 305.573 697.169 307.237 697.331 308.315L697.181 308.402L696.082 306.498ZM711.481 306.193L713.74 304.889C714.631 306.382 716.587 306.841 718.675 305.635C720.763 304.43 721.207 303.116 720.446 301.797C719.419 300.019 717.545 300.588 715.484 301.214C712.966 301.978 710.169 302.826 708.297 299.585C707.116 297.538 707.794 294.442 710.979 292.603C714.165 290.763 716.872 290.983 718.677 294.011L716.333 295.365C715.499 293.922 713.957 293.588 712.129 294.644C710.301 295.699 709.973 297.171 710.577 298.217C711.465 299.756 713.242 299.217 715.246 298.608C717.839 297.82 720.815 296.916 722.742 300.254C724.056 302.529 723.25 305.758 719.786 307.758C716.323 309.758 713.112 309.018 711.482 306.196L711.481 306.193ZM726.158 288.774C722.951 290.625 721.869 294.315 723.872 297.784C725.768 301.069 730.051 301.828 732.826 300.225C735.602 298.623 736.759 296.002 736.121 293.555L733.926 294.822C734.089 296.15 733.894 297.154 731.828 298.347C729.761 299.54 727.702 299.002 726.517 297.148L735.383 292.029L734.913 291.215C733.116 288.103 729.365 286.922 726.158 288.774ZM727.219 290.612C728.962 289.606 730.956 289.876 732.167 291.628L725.582 295.43C724.764 293.618 725.477 291.618 727.219 290.612ZM736.92 290.223C735.049 286.983 736.009 283.082 739.43 281.107C742.851 279.132 745.276 279.851 747.24 282.059L744.916 283.401C743.804 282.371 742.095 282.242 740.609 283.099C738.478 284.33 738.022 286.767 739.242 288.878C740.461 290.99 742.867 291.775 744.973 290.559C747.079 289.343 747.181 288.171 746.853 286.713L749.155 285.384C750.109 288.18 748.72 291.041 746.073 292.57C743.425 294.098 738.772 293.438 736.913 290.219L736.92 290.223ZM747.616 276.745L751.67 283.766C753.034 286.131 755.652 287.043 758.214 285.564C759.892 284.595 760.572 283.089 760.505 281.928L760.655 281.842L761.5 283.306L763.695 282.039L757.383 271.106L755.124 272.41L758.83 278.829C759.747 280.418 759.108 282.347 757.69 283.166C756.271 283.985 754.594 283.614 753.701 282.067L749.875 275.441L747.616 276.745ZM760.697 269.193L762.871 267.938L763.97 269.841L764.12 269.755C763.958 268.676 764.432 267.013 766.022 266.095L767.012 265.523L768.243 267.655L767.189 268.264C765.275 269.369 764.987 271.405 766.156 273.43L769.27 278.824L767.011 280.128L760.697 269.193ZM768.174 258.88C767.312 259.378 767.028 260.326 767.486 261.119C767.97 261.957 768.898 262.173 769.781 261.663C770.665 261.153 770.939 260.187 770.479 259.391C770.019 258.595 769.037 258.382 768.174 258.88ZM771.89 262.731L769.63 264.035L775.942 274.968L778.202 273.664L771.89 262.731ZM780.541 267.684L777.271 262.02L775.247 263.188L774.222 261.412L775.708 260.554C776.096 260.33 776.216 259.896 775.964 259.46L774.575 257.054L776.706 255.824L778.493 258.918L781.764 257.03L782.801 258.827L779.53 260.715L782.764 266.317C783.368 267.362 784.182 267.728 785.365 267.045L786.894 266.162L787.967 268.022L786.096 269.102C783.88 270.381 781.859 269.96 780.544 267.682L780.541 267.684ZM793.441 268.655L792.45 269.227L793.585 271.193L794.854 270.461C796.878 269.292 797.356 267.733 797.035 265.689L794.631 249.6L792.158 251.028L793.935 261.265L793.785 261.352L785.787 254.707L783.335 256.122L794.453 264.894L794.647 266.176C794.81 267.25 794.474 268.058 793.441 268.655Z" fill="#0B1319"/>
<path fill-rule="evenodd" clip-rule="evenodd" d="M925.415 165.788L922.579 179.472L929.107 175.703L926.344 189.24L917.998 182.117L912.781 173.082L924.559 166.282L925.415 165.788ZM930.782 171.157L932.778 161.537L936.337 159.482L941.554 168.517L943.559 179.301L937.558 188.795L926.344 189.24L937.259 167.3L930.782 171.157Z" fill="#4364FA"/>
<path d="M801.501 477.628L798.701 472.778L801.465 471.182L801.761 471.695L799.558 472.967L800.49 474.581L802.388 473.485L802.68 473.991L800.782 475.087L801.77 476.798L804.05 475.482L804.342 475.988L801.501 477.628ZM805.308 475.429L803.228 471.827L803.776 471.511L804.08 472.037L804.121 472.013C804.086 471.6 804.306 471.085 804.867 470.761C805.705 470.277 806.575 470.615 807.035 471.412L808.343 473.677L807.796 473.993L806.508 471.763C806.176 471.188 805.537 471.057 805.031 471.349C804.463 471.677 804.272 472.37 804.616 472.966L805.856 475.113L805.308 475.429ZM811.148 472.178C810.061 472.806 808.822 472.421 808.206 471.355C807.59 470.288 807.897 469.011 808.957 468.399C809.74 467.947 810.74 467.998 811.398 468.69L810.83 469.018C810.412 468.631 809.779 468.59 809.259 468.89C808.49 469.334 808.323 470.244 808.775 471.027C809.243 471.837 810.126 472.103 810.881 471.667C811.401 471.367 811.689 470.794 811.555 470.243L812.117 469.919C812.394 470.831 811.931 471.726 811.148 472.178ZM813.773 470.543L811.693 466.94L812.233 466.628L812.621 467.3L812.663 467.276C812.59 466.911 812.732 466.34 813.258 466.036L813.563 465.86L813.879 466.407L813.581 466.579C812.923 466.959 812.852 467.684 813.248 468.37L814.32 470.227L813.773 470.543ZM817.404 470.571L817.116 470.072L817.386 469.916C817.74 469.712 817.853 469.443 817.79 469.064L817.705 468.531L814.051 465.579L814.661 465.227L817.536 467.631L817.578 467.607L816.94 463.911L817.557 463.555L818.394 468.974C818.491 469.574 818.367 470.015 817.778 470.355L817.404 470.571ZM821.391 468.269L818.391 463.073L818.917 462.769L819.245 463.337L819.287 463.313C819.301 463.129 819.371 462.387 820.154 461.935C821.214 461.323 822.4 461.682 823.036 462.783C823.676 463.892 823.398 465.106 822.379 465.694C821.624 466.13 820.942 465.877 820.724 465.754L820.682 465.778L821.938 467.953L821.391 468.269ZM822.029 465.231C822.77 464.803 822.947 463.925 822.475 463.107C821.987 462.262 821.158 462.011 820.403 462.447C819.62 462.899 819.517 463.808 819.953 464.563C820.465 465.45 821.316 465.643 822.029 465.231ZM826.458 463.219C825.792 463.603 825.176 463.479 824.756 462.751L823.572 460.701L822.893 461.093L822.625 460.628L823.165 460.316C823.262 460.26 823.302 460.154 823.234 460.036L822.734 459.17L823.247 458.874L823.851 459.92L824.96 459.28L825.228 459.745L824.119 460.385L825.299 462.428C825.523 462.816 825.801 462.961 826.216 462.721L826.715 462.433L826.991 462.911L826.458 463.219ZM829.584 461.534C828.482 462.17 827.315 461.763 826.691 460.683C826.027 459.533 826.382 458.339 827.365 457.771C828.46 457.139 829.575 457.567 830.175 458.606L830.315 458.849L827.378 460.545C827.821 461.249 828.562 461.459 829.303 461.031C829.781 460.755 830.106 460.263 830.029 459.744L830.597 459.416C830.784 460.204 830.429 461.046 829.584 461.534ZM827.112 460.052L829.453 458.7C828.989 458.007 828.263 457.918 827.653 458.27C827.051 458.618 826.783 459.355 827.112 460.052ZM833.785 459.108C832.725 459.72 831.539 459.361 830.903 458.26C830.263 457.151 830.541 455.938 831.56 455.35C832.315 454.914 832.997 455.167 833.216 455.29L833.257 455.266L832.001 453.09L832.549 452.774L835.549 457.97L835.022 458.274L834.694 457.706L834.653 457.73C834.638 457.914 834.568 458.656 833.785 459.108ZM833.536 458.596C834.319 458.144 834.422 457.235 833.986 456.48C833.474 455.593 832.624 455.4 831.91 455.812C831.169 456.24 830.992 457.118 831.464 457.936C831.952 458.781 832.781 459.032 833.536 458.596ZM837.225 458.212L836.447 456.593L837.05 456.245L837.627 457.98L837.225 458.212ZM841.755 454.507C840.903 454.999 840.15 454.815 839.699 454.179L840.233 453.871C840.543 454.265 840.98 454.317 841.506 454.013C842.047 453.701 842.193 453.266 841.981 452.899C841.397 451.887 839.686 453.9 838.862 452.473C838.51 451.863 838.829 451.153 839.585 450.717C840.25 450.333 841.028 450.4 841.459 451.02L840.933 451.324C840.688 451.012 840.3 450.932 839.822 451.208C839.372 451.468 839.209 451.857 839.389 452.169C839.917 453.084 841.638 451.074 842.498 452.563C842.89 453.242 842.593 454.023 841.755 454.507ZM845.754 452.198C844.653 452.834 843.485 452.428 842.861 451.347C842.197 450.197 842.552 449.003 843.536 448.435C844.63 447.803 845.746 448.231 846.346 449.27L846.486 449.513L843.548 451.209C843.992 451.913 844.732 452.123 845.473 451.695C845.951 451.419 846.277 450.927 846.199 450.408L846.767 450.08C846.954 450.868 846.6 451.71 845.754 452.198ZM843.282 450.716L845.624 449.364C845.159 448.671 844.433 448.582 843.824 448.934C843.221 449.282 842.953 450.019 843.282 450.716ZM850.011 449.74C848.923 450.368 847.685 449.984 847.069 448.917C846.453 447.85 846.76 446.574 847.82 445.962C848.603 445.51 849.603 445.561 850.261 446.252L849.692 446.58C849.275 446.193 848.642 446.152 848.122 446.452C847.353 446.896 847.185 447.806 847.637 448.589C848.105 449.4 848.989 449.666 849.744 449.23C850.264 448.93 850.552 448.357 850.418 447.806L850.98 447.482C851.256 448.393 850.794 449.288 850.011 449.74ZM853.962 447.459C853.124 447.943 852.254 447.605 851.794 446.808L850.486 444.543L851.033 444.227L852.329 446.471C852.661 447.046 853.3 447.176 853.806 446.884C854.374 446.556 854.565 445.864 854.221 445.268L852.973 443.107L853.521 442.791L855.601 446.393L855.053 446.709L854.749 446.183L854.708 446.207C854.743 446.62 854.523 447.135 853.962 447.459ZM856.776 445.715L854.696 442.112L855.237 441.8L855.625 442.472L855.666 442.448C855.594 442.083 855.735 441.512 856.262 441.208L856.567 441.032L856.883 441.579L856.585 441.751C855.927 442.131 855.855 442.856 856.251 443.542L857.323 445.399L856.776 445.715ZM860.991 443.401C859.889 444.037 858.722 443.631 858.098 442.55C857.434 441.4 857.789 440.206 858.772 439.638C859.867 439.006 860.982 439.434 861.582 440.473L861.722 440.716L858.785 442.412C859.228 443.116 859.969 443.326 860.71 442.898C861.188 442.622 861.513 442.13 861.436 441.611L862.004 441.283C862.191 442.071 861.836 442.913 860.991 443.401ZM858.519 441.919L860.86 440.567C860.396 439.874 859.67 439.785 859.06 440.137C858.458 440.485 858.19 441.222 858.519 441.919ZM865.192 440.976C864.132 441.588 862.946 441.229 862.31 440.127C861.67 439.019 861.948 437.805 862.967 437.217C863.722 436.781 864.404 437.034 864.623 437.157L864.664 437.133L863.408 434.957L863.956 434.641L866.956 439.837L866.429 440.141L866.101 439.573L866.059 439.597C866.045 439.781 865.975 440.524 865.192 440.976ZM864.943 440.464C865.726 440.012 865.829 439.102 865.393 438.347C864.881 437.46 864.031 437.268 863.317 437.68C862.576 438.108 862.399 438.986 862.871 439.803C863.359 440.648 864.188 440.9 864.943 440.464ZM871.647 437.249C870.587 437.861 869.401 437.502 868.765 436.401C868.125 435.292 868.403 434.078 869.421 433.49C870.177 433.054 870.858 433.307 871.077 433.43L871.119 433.406L870.783 432.824L871.33 432.508L873.41 436.111L872.884 436.415L872.556 435.847L872.514 435.871C872.5 436.054 872.43 436.797 871.647 437.249ZM871.398 436.737C872.181 436.285 872.284 435.376 871.848 434.621C871.336 433.734 870.485 433.541 869.772 433.953C869.03 434.381 868.854 435.259 869.326 436.077C869.814 436.922 870.642 437.173 871.398 436.737ZM874.591 435.429L872.511 431.827L873.058 431.511L873.362 432.037L873.403 432.013C873.368 431.6 873.588 431.085 874.149 430.761C874.987 430.277 875.857 430.615 876.317 431.412L877.625 433.677L877.078 433.993L875.79 431.763C875.458 431.188 874.819 431.057 874.313 431.349C873.745 431.677 873.554 432.37 873.898 432.966L875.138 435.113L874.591 435.429ZM880.375 432.21C879.315 432.822 878.129 432.463 877.493 431.361C876.853 430.253 877.131 429.039 878.149 428.451C878.905 428.015 879.586 428.268 879.805 428.391L879.847 428.367L878.591 426.192L879.138 425.876L882.138 431.072L881.612 431.376L881.284 430.808L881.242 430.832C881.228 431.015 881.158 431.758 880.375 432.21ZM880.126 431.698C880.908 431.246 881.012 430.337 880.576 429.581C880.064 428.695 879.213 428.502 878.5 428.914C877.758 429.342 877.582 430.22 878.054 431.037C878.542 431.883 879.37 432.134 880.126 431.698ZM886.18 430.863L883.18 425.667L883.707 425.363L884.035 425.931L884.076 425.907C884.09 425.723 884.161 424.981 884.943 424.529C886.003 423.917 887.19 424.275 887.826 425.377C888.466 426.486 888.187 427.699 887.169 428.287C886.414 428.723 885.732 428.47 885.513 428.347L885.472 428.371L886.728 430.547L886.18 430.863ZM886.819 427.825C887.56 427.397 887.737 426.519 887.265 425.701C886.777 424.856 885.948 424.604 885.193 425.04C884.41 425.492 884.307 426.402 884.743 427.157C885.255 428.044 886.105 428.237 886.819 427.825ZM889.841 426.625L887.761 423.022L888.301 422.71L888.689 423.382L888.731 423.358C888.659 422.993 888.8 422.422 889.326 422.118L889.631 421.942L889.947 422.489L889.649 422.661C888.991 423.041 888.92 423.766 889.316 424.452L890.388 426.309L889.841 426.625ZM894.132 424.267C893.051 424.891 891.794 424.555 891.162 423.46C890.534 422.372 890.881 421.101 891.955 420.481C893.042 419.853 894.3 420.207 894.924 421.288C895.548 422.369 895.213 423.643 894.132 424.267ZM893.844 423.769C894.62 423.321 894.827 422.416 894.363 421.612C893.903 420.815 893.012 420.535 892.236 420.983C891.46 421.431 891.267 422.346 891.723 423.136C892.191 423.947 893.075 424.213 893.844 423.769ZM898.338 421.719C897.673 422.103 897.056 421.979 896.636 421.251L895.452 419.201L894.773 419.593L894.505 419.128L895.045 418.816C895.142 418.76 895.182 418.654 895.114 418.536L894.614 417.67L895.127 417.374L895.731 418.42L896.84 417.78L897.108 418.245L895.999 418.885L897.179 420.928C897.403 421.316 897.681 421.461 898.096 421.221L898.595 420.933L898.871 421.411L898.338 421.719ZM901.464 420.034C900.363 420.67 899.195 420.263 898.571 419.183C897.907 418.033 898.262 416.839 899.246 416.271C900.34 415.639 901.455 416.067 902.055 417.106L902.195 417.349L899.258 419.045C899.702 419.749 900.442 419.959 901.183 419.531C901.661 419.255 901.986 418.763 901.909 418.244L902.477 417.916C902.664 418.704 902.309 419.546 901.464 420.034ZM898.992 418.552L901.333 417.2C900.869 416.507 900.143 416.418 899.534 416.77C898.931 417.118 898.663 417.855 898.992 418.552ZM905.721 417.576C904.633 418.204 903.395 417.82 902.779 416.753C902.163 415.686 902.47 414.41 903.53 413.798C904.313 413.346 905.312 413.397 905.97 414.088L905.402 414.416C904.985 414.029 904.352 413.988 903.832 414.288C903.063 414.732 902.895 415.642 903.347 416.425C903.815 417.236 904.699 417.502 905.454 417.066C905.973 416.766 906.262 416.193 906.128 415.642L906.689 415.318C906.966 416.229 906.504 417.124 905.721 417.576ZM909.752 415.129C909.087 415.513 908.47 415.389 908.05 414.661L906.866 412.611L906.187 413.003L905.919 412.539L906.459 412.227C906.556 412.171 906.596 412.064 906.528 411.946L906.028 411.08L906.541 410.784L907.145 411.831L908.254 411.191L908.522 411.655L907.413 412.295L908.593 414.339C908.817 414.727 909.095 414.871 909.51 414.631L910.009 414.343L910.285 414.821L909.752 415.129ZM912.878 413.444C911.777 414.08 910.609 413.674 909.985 412.593C909.321 411.443 909.676 410.249 910.659 409.681C911.754 409.049 912.869 409.477 913.469 410.516L913.609 410.759L910.672 412.455C911.116 413.159 911.856 413.369 912.597 412.941C913.075 412.665 913.4 412.173 913.323 411.654L913.891 411.326C914.078 412.114 913.723 412.956 912.878 413.444ZM910.406 411.962L912.747 410.61C912.283 409.917 911.557 409.828 910.947 410.18C910.345 410.528 910.077 411.265 910.406 411.962ZM917.08 411.019C916.019 411.631 914.833 411.272 914.197 410.17C913.557 409.062 913.835 407.848 914.854 407.26C915.609 406.824 916.291 407.077 916.51 407.2L916.551 407.176L915.295 405L915.843 404.684L918.843 409.88L918.316 410.184L917.988 409.616L917.947 409.64C917.933 409.824 917.862 410.567 917.08 411.019ZM916.83 410.507C917.613 410.055 917.716 409.145 917.28 408.39C916.768 407.503 915.918 407.311 915.204 407.723C914.463 408.151 914.286 409.029 914.758 409.846C915.246 410.691 916.075 410.943 916.83 410.507ZM923.832 407.12C923.049 407.572 922.371 407.261 922.205 407.182L922.163 407.206L922.491 407.774L921.965 408.078L918.965 402.882L919.512 402.566L920.768 404.741L920.81 404.717C920.813 404.466 920.934 403.749 921.69 403.313C922.708 402.725 923.898 403.091 924.538 404.199C925.174 405.301 924.892 406.508 923.832 407.12ZM923.513 406.648C924.269 406.212 924.465 405.369 923.977 404.523C923.505 403.706 922.657 403.42 921.915 403.848C921.202 404.26 920.943 405.093 921.455 405.979C921.891 406.735 922.73 407.1 923.513 406.648ZM927.301 407.121L927.013 406.623L927.284 406.467C927.637 406.263 927.75 405.994 927.688 405.614L927.602 405.082L923.948 402.129L924.558 401.777L927.433 404.182L927.475 404.158L926.837 400.461L927.454 400.105L928.292 405.524C928.389 406.124 928.264 406.565 927.676 406.905L927.301 407.121ZM933.782 401.375C932.819 401.931 931.686 401.745 931.166 400.844L931.727 400.52C932.051 401.081 932.768 401.268 933.503 400.844C934.14 400.476 934.417 399.9 934.125 399.394C933.249 397.877 931.18 400.485 930.06 398.545C929.66 397.852 929.887 396.917 930.864 396.353C931.599 395.929 932.69 395.835 933.27 396.84L932.695 397.172C932.375 396.618 931.811 396.49 931.153 396.87C930.467 397.266 930.389 397.819 930.621 398.221C931.385 399.544 933.542 397.071 934.674 399.032C935.114 399.794 934.842 400.763 933.782 401.375ZM937.789 398.942C937.124 399.326 936.507 399.201 936.087 398.474L934.903 396.423L934.224 396.815L933.956 396.351L934.497 396.039C934.594 395.983 934.634 395.877 934.566 395.759L934.066 394.893L934.579 394.597L935.183 395.643L936.291 395.003L936.559 395.467L935.451 396.107L936.631 398.151C936.855 398.539 937.132 398.684 937.548 398.444L938.047 398.156L938.323 398.634L937.789 398.942ZM940.916 397.257C939.814 397.893 938.646 397.486 938.022 396.405C937.358 395.255 937.713 394.062 938.697 393.494C939.792 392.862 940.907 393.29 941.507 394.329L941.647 394.571L938.709 396.267C939.153 396.972 939.893 397.182 940.635 396.754C941.113 396.478 941.438 395.985 941.36 395.467L941.928 395.139C942.115 395.927 941.761 396.769 940.916 397.257ZM938.443 395.774L940.785 394.422C940.32 393.73 939.595 393.641 938.985 393.993C938.382 394.341 938.115 395.077 938.443 395.774ZM944.052 395.326C943.601 395.586 943.178 395.461 942.894 394.969L940.338 390.542L940.885 390.226L943.441 394.653C943.545 394.833 943.695 394.885 943.869 394.785L944.035 394.689L944.315 395.174L944.052 395.326ZM945.966 394.221C945.516 394.481 945.093 394.355 944.809 393.864L942.253 389.436L942.8 389.12L945.356 393.548C945.46 393.728 945.61 393.78 945.783 393.68L945.95 393.584L946.23 394.069L945.966 394.221ZM948.703 392.761C947.643 393.373 946.457 393.014 945.821 391.912C945.181 390.804 945.459 389.59 946.477 389.002C947.233 388.566 947.914 388.819 948.133 388.942L948.175 388.918L947.839 388.336L948.386 388.02L950.466 391.623L949.94 391.927L949.612 391.359L949.57 391.383C949.556 391.566 949.486 392.309 948.703 392.761ZM948.454 392.249C949.236 391.797 949.34 390.887 948.904 390.132C948.392 389.245 947.541 389.053 946.828 389.465C946.086 389.893 945.91 390.771 946.382 391.588C946.87 392.433 947.698 392.685 948.454 392.249ZM951.646 390.941L949.566 387.339L950.107 387.027L950.495 387.699L950.536 387.675C950.464 387.31 950.606 386.739 951.132 386.435L951.437 386.259L951.753 386.806L951.455 386.978C950.797 387.358 950.726 388.083 951.122 388.768L952.194 390.625L951.646 390.941ZM957.835 387.489C956.872 388.045 955.738 387.858 955.218 386.957L955.78 386.633C956.104 387.195 956.821 387.381 957.555 386.957C958.193 386.589 958.47 386.013 958.178 385.507C957.302 383.99 955.233 386.598 954.113 384.658C953.713 383.965 953.94 383.031 954.917 382.467C955.651 382.043 956.742 381.949 957.322 382.953L956.747 383.285C956.427 382.731 955.864 382.603 955.206 382.983C954.52 383.379 954.442 383.932 954.674 384.334C955.438 385.658 957.594 383.184 958.726 385.145C959.166 385.907 958.895 386.877 957.835 387.489ZM962.011 385.077C960.91 385.713 959.742 385.306 959.118 384.226C958.454 383.076 958.809 381.882 959.793 381.314C960.888 380.682 962.003 381.11 962.603 382.149L962.743 382.392L959.805 384.088C960.249 384.792 960.989 385.002 961.73 384.574C962.208 384.298 962.534 383.806 962.456 383.287L963.024 382.959C963.211 383.747 962.857 384.589 962.011 385.077ZM959.539 383.595L961.881 382.243C961.416 381.55 960.691 381.461 960.081 381.813C959.478 382.161 959.21 382.898 959.539 383.595ZM966.268 382.619C965.181 383.247 963.943 382.863 963.327 381.796C962.711 380.729 963.017 379.453 964.077 378.841C964.86 378.389 965.86 378.44 966.518 379.131L965.95 379.459C965.532 379.072 964.899 379.031 964.379 379.331C963.61 379.775 963.443 380.685 963.895 381.468C964.363 382.279 965.246 382.545 966.001 382.109C966.521 381.809 966.809 381.236 966.675 380.685L967.237 380.361C967.514 381.272 967.051 382.167 966.268 382.619ZM970.219 380.338C969.381 380.822 968.511 380.484 968.051 379.687L966.743 377.421L967.291 377.105L968.587 379.35C968.919 379.925 969.557 380.055 970.063 379.763C970.631 379.435 970.823 378.743 970.479 378.147L969.231 375.985L969.778 375.669L971.858 379.272L971.311 379.588L971.007 379.062L970.965 379.086C971.001 379.499 970.781 380.014 970.219 380.338ZM973.033 378.594L970.953 374.991L971.494 374.679L971.882 375.351L971.923 375.327C971.851 374.962 971.992 374.391 972.519 374.087L972.824 373.911L973.14 374.458L972.842 374.63C972.184 375.01 972.113 375.735 972.509 376.421L973.581 378.278L973.033 378.594ZM973.635 372.574C973.407 372.706 973.14 372.629 973.008 372.4C972.88 372.179 972.947 371.909 973.175 371.777C973.411 371.641 973.677 371.719 973.805 371.94C973.937 372.169 973.871 372.438 973.635 372.574ZM975.807 376.992L973.727 373.389L974.275 373.073L976.355 376.676L975.807 376.992ZM978.939 375.184C978.274 375.568 977.657 375.444 977.237 374.716L976.053 372.665L975.374 373.057L975.106 372.593L975.647 372.281C975.744 372.225 975.784 372.119 975.716 372.001L975.216 371.135L975.728 370.839L976.332 371.885L977.441 371.245L977.709 371.709L976.6 372.349L977.78 374.393C978.004 374.781 978.282 374.926 978.698 374.686L979.196 374.398L979.472 374.876L978.939 375.184ZM981.347 375.918L981.059 375.419L981.329 375.263C981.682 375.059 981.795 374.791 981.733 374.411L981.647 373.879L977.993 370.926L978.603 370.574L981.479 372.979L981.52 372.955L980.883 369.258L981.499 368.902L982.337 374.321C982.434 374.921 982.31 375.362 981.721 375.702L981.347 375.918Z" fill="#0B1319"/>
<path d="M790.699 477.629C790.125 477.96 789.929 478.694 790.26 479.268L790.46 479.615L792.538 478.415L792.338 478.068C792.007 477.494 791.273 477.298 790.699 477.629Z" fill="#60D38E"/>
<path fill-rule="evenodd" clip-rule="evenodd" d="M789.099 474.858C791.969 473.201 795.638 474.184 797.295 477.054C798.952 479.924 797.969 483.593 795.099 485.25C792.229 486.907 788.56 485.924 786.903 483.054C785.246 480.184 786.229 476.515 789.099 474.858ZM789.567 479.668L789.801 480.074C789.48 480.449 789.413 481.001 789.674 481.454L790.874 483.532C791.206 484.106 791.94 484.303 792.514 483.972L795.285 482.372C795.859 482.04 796.055 481.306 795.724 480.732L794.524 478.654C794.263 478.201 793.751 477.983 793.265 478.074L793.031 477.668C792.479 476.712 791.256 476.384 790.299 476.936C789.343 477.488 789.015 478.712 789.567 479.668Z" fill="#60D38E"/>
<path d="M980.725 244.364L975.225 234.838C973.016 231.012 968.123 229.701 964.297 231.91L911.123 262.61M899.692 269.21L884.202 278.153C882.364 279.214 881.023 280.961 880.474 283.011L875.235 302.564C874.686 304.613 874.973 306.797 876.034 308.634L900.077 350.278C902.286 354.104 907.179 355.415 911.006 353.206L938.892 337.106M950.323 330.506L1003.5 299.806C1007.32 297.597 1008.63 292.704 1006.43 288.878L1001.43 280.218" stroke="#85898C" stroke-width="4.8" stroke-linecap="round" stroke-linejoin="round"/>
<mask id="mask2_408_1314" style="mask-type:alpha" maskUnits="userSpaceOnUse" x="927" y="257" width="63" height="59">
<rect x="925.921" y="282.241" width="52" height="39.5417" rx="4" transform="rotate(-30 925.921 282.241)" fill="#D9D9D9"/>
</mask>
<g mask="url(#mask2_408_1314)">
<rect x="925.921" y="282.241" width="52" height="39.5417" transform="rotate(-30 925.921 282.241)" fill="#BDAC8E"/>
<path d="M932.468 294.097L949.579 284.218M940.579 273.48L951.291 276.35L954.27 281.51L949.579 284.218M957.21 263.877L954.34 274.589L957.319 279.749M977.949 267.839L960.603 277.854L967.103 289.112L984.449 279.097M938.968 305.356L956.079 295.477L949.579 284.218" stroke="black" stroke-width="0.8" stroke-linecap="square" stroke-linejoin="round"/>
<path d="M977.24 298.569L966.158 295.6L964.785 293.222C964.122 292.074 964.516 290.606 965.664 289.943L968.042 288.57" stroke="black" stroke-width="0.8" stroke-linecap="square" stroke-linejoin="round"/>
<path d="M959.67 308.713L962.639 297.631L961.267 295.253C960.604 294.105 959.136 293.712 957.988 294.375L955.61 295.747" stroke="black" stroke-width="0.8" stroke-linecap="square" stroke-linejoin="round"/>
</g>
</g>
</g>
<g filter="url(#filter1_d_408_1314)">
<rect x="96" y="193.718" width="305.287" height="626.5" rx="40.5562" transform="rotate(-30 96 193.718)" fill="black"/>
<g filter="url(#filter2_f_408_1314)">
<path d="M118.82 226.664C108.465 208.728 114.61 185.793 132.546 175.438L326.069 63.7077C344.483 53.0762 368.029 59.3854 378.661 77.7997L651.349 550.109C661.842 568.284 655.615 591.524 637.44 602.018L442.185 714.748C424.967 724.689 402.949 718.79 393.008 701.571L118.82 226.664Z" stroke="white" stroke-opacity="0.5" stroke-width="0.25"/>
</g>
<g filter="url(#filter3_f_408_1314)">
<path d="M120.893 225.756C111.159 208.896 116.936 187.338 133.796 177.604L327.319 65.873C344.418 56.0009 366.282 61.8594 376.154 78.9583L649.092 551.701C659.033 568.92 653.134 590.937 635.915 600.878L441.959 712.859C425.458 722.386 404.358 716.732 394.831 700.231L120.893 225.756Z" fill="black"/>
<path d="M120.893 225.756C111.159 208.896 116.936 187.338 133.796 177.604L327.319 65.873C344.418 56.0009 366.282 61.8594 376.154 78.9583L649.092 551.701C659.033 568.92 653.134 590.937 635.915 600.878L441.959 712.859C425.458 722.386 404.358 716.732 394.831 700.231L120.893 225.756Z" fill="url(#paint0_angular_408_1314)"/>
</g>
<g filter="url(#filter4_f_408_1314)">
<path d="M121.361 226.063C111.627 209.203 117.403 187.645 134.263 177.911L327.353 66.4303C344.452 56.5582 366.316 62.4167 376.188 79.5157L648.627 551.393C658.568 568.611 652.668 590.628 635.45 600.569L441.927 712.3C425.426 721.827 404.326 716.173 394.799 699.672L121.361 226.063Z" fill="url(#paint1_angular_408_1314)"/>
</g>
<path d="M125.131 223.596C116.571 208.769 121.651 189.81 136.478 181.25L330.219 69.3935C344.687 61.0402 363.188 65.9975 371.541 80.4658L645.23 554.509C653.859 569.456 648.738 588.568 633.792 597.197L437.02 710.804C424.345 718.121 408.138 713.779 400.82 701.104L125.131 223.596Z" fill="black"/>
<mask id="mask3_408_1314" style="mask-type:alpha" maskUnits="userSpaceOnUse" x="125" y="70" width="521" height="638">
<rect x="117.856" y="199.574" width="274" height="596" rx="22" transform="rotate(-30 117.856 199.574)" fill="#D9D9D9"/>
</mask>
<g mask="url(#mask3_408_1314)">
<rect x="117.856" y="199.574" width="274" height="596" rx="22" transform="rotate(-30 117.856 199.574)" fill="#F7F6FC"/>
<path d="M447.789 644.173L442.889 635.686L445.629 634.104C447.241 633.173 448.738 633.554 449.452 634.79C449.935 635.627 449.899 636.488 449.43 637.244L449.472 637.317C450.154 637.182 451.304 637.326 451.997 638.526C452.879 640.054 452.202 641.625 450.771 642.451L447.789 644.173ZM445.98 638.8L447.713 637.799C448.671 637.246 448.985 636.305 448.488 635.444C448.005 634.607 447.042 634.452 446.133 634.977L444.363 635.999L445.98 638.8ZM448.262 642.752L450.104 641.688C451.111 641.107 451.595 640.181 450.965 639.09C450.321 637.975 449.171 638.056 448.189 638.623L446.456 639.624L448.262 642.752ZM457.85 638.575C455.922 639.688 453.878 638.976 452.786 637.085C451.624 635.072 452.245 632.984 453.967 631.99C455.883 630.884 457.834 631.632 458.884 633.451L459.129 633.875L453.989 636.843C454.765 638.076 456.06 638.444 457.358 637.695C458.194 637.212 458.763 636.35 458.627 635.442L459.622 634.868C459.949 636.247 459.329 637.721 457.85 638.575ZM453.523 635.98L457.621 633.614C456.808 632.402 455.538 632.247 454.471 632.863C453.416 633.472 452.948 634.76 453.523 635.98ZM465.299 634.274C463.395 635.373 461.229 634.7 460.151 632.833C459.073 630.966 459.61 628.732 461.465 627.661C462.835 626.87 464.584 626.959 465.735 628.17L464.741 628.744C464.011 628.066 462.902 627.995 461.993 628.52C460.647 629.297 460.354 630.889 461.145 632.259C461.964 633.677 463.51 634.143 464.831 633.38C465.741 632.855 466.245 631.852 466.012 630.888L466.994 630.321C467.478 631.916 466.669 633.483 465.299 634.274ZM472.638 630.037C470.783 631.108 468.706 630.48 467.593 628.552C466.473 626.612 466.961 624.488 468.743 623.459C470.064 622.696 471.258 623.138 471.641 623.354L471.713 623.312L471.125 622.293L472.083 621.74L475.723 628.045L474.802 628.577L474.228 627.583L474.155 627.625C474.13 627.946 474.008 629.246 472.638 630.037ZM472.201 629.141C473.571 628.35 473.752 626.758 472.989 625.437C472.093 623.885 470.605 623.548 469.356 624.269C468.059 625.018 467.75 626.554 468.576 627.985C469.43 629.464 470.88 629.904 472.201 629.141ZM480.111 625.722C478.644 626.569 477.122 625.977 476.317 624.582L474.028 620.618L474.985 620.065L477.253 623.993C477.834 624.999 478.952 625.227 479.837 624.716C480.831 624.142 481.166 622.93 480.564 621.888L478.38 618.105L479.338 617.552L482.978 623.856L482.02 624.409L481.488 623.488L481.415 623.53C481.478 624.254 481.093 625.155 480.111 625.722ZM487.211 621.622C485.72 622.483 484.402 622.161 483.614 621.048L484.548 620.509C485.091 621.198 485.855 621.29 486.777 620.758C487.723 620.212 487.978 619.45 487.607 618.808C486.585 617.037 483.591 620.56 482.149 618.063C481.533 616.996 482.092 615.752 483.414 614.989C484.578 614.317 485.94 614.436 486.695 615.519L485.773 616.051C485.345 615.506 484.666 615.365 483.829 615.848C483.041 616.303 482.756 616.985 483.071 617.531C483.995 619.131 487.008 615.613 488.513 618.22C489.199 619.408 488.678 620.775 487.211 621.622ZM494.211 617.581C492.283 618.694 490.239 617.983 489.147 616.091C487.985 614.079 488.606 611.99 490.328 610.996C492.244 609.89 494.195 610.639 495.245 612.458L495.49 612.882L490.35 615.85C491.126 617.083 492.422 617.45 493.719 616.701C494.555 616.218 495.125 615.356 494.989 614.449L495.983 613.875C496.31 615.254 495.69 616.727 494.211 617.581ZM489.884 614.987L493.982 612.621C493.169 611.409 491.899 611.253 490.832 611.869C489.777 612.478 489.309 613.767 489.884 614.987ZM503.716 615.602L503.212 614.729L503.685 614.456C504.303 614.099 504.501 613.629 504.392 612.964L504.242 612.032L497.848 606.865L498.915 606.249L503.947 610.457L504.019 610.415L502.904 603.946L503.983 603.323L505.449 612.807C505.618 613.857 505.401 614.629 504.371 615.224L503.716 615.602ZM511.737 607.462C509.846 608.554 507.647 607.965 506.541 606.049C505.442 604.146 506.048 601.921 507.927 600.836C509.831 599.737 512.032 600.357 513.124 602.248C514.216 604.14 513.629 606.37 511.737 607.462ZM511.233 606.589C512.591 605.805 512.954 604.222 512.142 602.815C511.337 601.421 509.777 600.931 508.419 601.715C507.061 602.499 506.725 604.1 507.523 605.482C508.342 606.901 509.888 607.366 511.233 606.589ZM518.958 603.293C517.491 604.14 515.969 603.548 515.164 602.154L512.875 598.189L513.833 597.636L516.101 601.564C516.682 602.571 517.8 602.798 518.685 602.287C519.679 601.713 520.014 600.502 519.412 599.459L517.228 595.676L518.186 595.123L521.826 601.428L520.868 601.981L520.336 601.059L520.263 601.101C520.325 601.825 519.94 602.726 518.958 603.293ZM523.883 600.24L520.243 593.935L521.188 593.389L521.867 594.566L521.94 594.524C521.814 593.885 522.061 592.885 522.983 592.353L523.516 592.045L524.069 593.003L523.548 593.304C522.396 593.969 522.272 595.238 522.965 596.438L524.841 599.687L523.883 600.24ZM533.454 598.432L528.148 589.242L530.003 588.171L530.416 588.886L530.513 588.83C530.527 588.434 530.725 587.544 531.792 586.928C533.538 585.92 535.494 586.537 536.656 588.549C537.818 590.562 537.44 592.623 535.718 593.617C534.675 594.219 533.81 594.008 533.401 593.775L533.304 593.831L535.334 597.347L533.454 598.432ZM534.265 592.193C535.138 591.689 535.34 590.667 534.773 589.685C534.192 588.678 533.22 588.367 532.347 588.871C531.45 589.389 531.286 590.421 531.839 591.379C532.427 592.397 533.404 592.69 534.265 592.193ZM539.765 591.07L536.069 584.669L537.84 583.647L538.4 584.617L538.497 584.561C538.442 583.962 538.697 583.087 539.557 582.59L540.176 582.233L541.198 584.003L540.458 584.43C539.537 584.962 539.328 585.972 539.965 587.075L541.645 589.985L539.765 591.07ZM541.965 580.311C541.323 580.682 540.638 580.56 540.274 579.929C539.91 579.299 540.147 578.645 540.789 578.274C541.432 577.903 542.117 578.025 542.481 578.655C542.845 579.286 542.608 579.94 541.965 580.311ZM545.141 587.967L541.445 581.565L543.324 580.48L547.02 586.882L545.141 587.967ZM550.058 585.128L544.095 580.035L546.047 578.908L549.788 582.309L549.885 582.253L548.811 577.312L550.787 576.171L552.228 583.875L550.058 585.128ZM557.831 580.85C556.073 581.865 554.117 581.249 552.955 579.236C551.793 577.223 552.183 575.155 553.905 574.161C554.911 573.58 555.808 573.79 556.222 574.003L556.319 573.947L555.899 573.22L557.779 572.135L561.475 578.536L559.608 579.614L559.188 578.887L559.091 578.943C559.077 579.339 558.886 580.241 557.831 580.85ZM557.276 578.908C558.173 578.39 558.33 577.345 557.784 576.4C557.196 575.381 556.206 575.096 555.346 575.593C554.473 576.097 554.271 577.118 554.838 578.101C555.412 579.095 556.391 579.419 557.276 578.908ZM565.976 576.148C563.915 577.338 561.727 576.629 560.642 574.749C559.55 572.858 560.025 570.628 562.086 569.438C563.868 568.409 565.764 568.753 566.849 570.212L564.945 571.311C564.461 570.863 563.745 570.743 563.078 571.128C562.156 571.66 562.014 572.729 562.546 573.65C563.085 574.584 564.099 574.968 565.008 574.443C565.638 574.079 565.926 573.429 565.789 572.828L567.705 571.722C568.374 573.357 567.734 575.133 565.976 576.148ZM571.772 576.31L570.813 574.648L571.552 574.221C572.062 573.927 572.192 573.481 572.116 572.958L572.05 572.592L565.75 567.532L567.715 566.398L571.466 569.648L571.563 569.592L570.552 564.76L572.54 563.612L574.052 572.503C574.295 573.931 573.966 575.043 572.62 575.82L571.772 576.31ZM466.723 652.871L463.083 646.567L464.041 646.014L464.566 646.923L464.638 646.881C464.606 646.124 464.932 645.289 465.865 644.75C466.811 644.204 467.768 644.266 468.519 644.754L468.604 644.705C468.559 643.647 469.054 642.909 469.939 642.398C471.346 641.586 472.829 642.055 473.627 643.437L475.986 647.523L475.028 648.076L472.851 644.306C472.165 643.117 471.221 642.854 470.287 643.393C469.402 643.904 468.99 644.983 469.669 646.159L471.839 649.917L470.882 650.47L468.6 646.518C468.019 645.511 466.99 645.297 466.105 645.808C465.219 646.319 464.874 647.456 465.49 648.523L467.681 652.318L466.723 652.871ZM480.788 644.961C478.933 646.032 476.857 645.404 475.744 643.476C474.624 641.536 475.111 639.412 476.894 638.383C478.215 637.62 479.408 638.063 479.791 638.278L479.864 638.236L479.276 637.217L480.234 636.664L483.874 642.969L482.952 643.501L482.378 642.507L482.306 642.549C482.281 642.87 482.158 644.17 480.788 644.961ZM480.352 644.065C481.722 643.274 481.902 641.682 481.139 640.361C480.243 638.809 478.756 638.472 477.507 639.193C476.209 639.942 475.9 641.478 476.726 642.909C477.58 644.388 479.03 644.828 480.352 644.065ZM488.401 640.356C487.237 641.028 486.157 640.81 485.422 639.537L483.35 635.948L482.162 636.634L481.693 635.822L482.639 635.276C482.809 635.178 482.879 634.992 482.76 634.786L481.885 633.27L482.782 632.752L483.839 634.583L485.779 633.463L486.248 634.275L484.308 635.395L486.373 638.972C486.765 639.651 487.251 639.904 487.978 639.484L488.851 638.98L489.334 639.817L488.401 640.356ZM493.575 637.368C492.411 638.04 491.332 637.823 490.597 636.55L488.525 632.961L487.336 633.647L486.867 632.835L487.813 632.289C487.983 632.191 488.053 632.004 487.934 631.798L487.059 630.283L487.956 629.765L489.013 631.596L490.953 630.476L491.422 631.288L489.482 632.408L491.547 635.985C491.939 636.664 492.425 636.917 493.153 636.497L494.026 635.993L494.509 636.829L493.575 637.368ZM499.046 634.42C497.118 635.533 495.075 634.821 493.983 632.93C492.821 630.917 493.442 628.829 495.164 627.835C497.079 626.729 499.031 627.477 500.081 629.296L500.326 629.72L495.185 632.688C495.962 633.921 497.257 634.289 498.554 633.54C499.391 633.057 499.96 632.194 499.824 631.287L500.818 630.713C501.146 632.092 500.525 633.566 499.046 634.42ZM494.719 631.825L498.817 629.459C498.005 628.247 496.735 628.092 495.668 628.708C494.613 629.317 494.144 630.605 494.719 631.825ZM503.652 631.55L500.012 625.245L500.958 624.699L501.637 625.875L501.71 625.833C501.584 625.195 501.831 624.195 502.753 623.663L503.286 623.355L503.839 624.313L503.318 624.614C502.166 625.279 502.041 626.547 502.734 627.748L504.61 630.997L503.652 631.55ZM510.683 627.701C509.192 628.562 507.874 628.24 507.086 627.126L508.02 626.587C508.563 627.276 509.327 627.368 510.249 626.836C511.195 626.29 511.45 625.529 511.079 624.886C510.057 623.116 507.063 626.639 505.621 624.141C505.005 623.074 505.564 621.83 506.886 621.067C508.05 620.395 509.411 620.514 510.166 621.598L509.245 622.13C508.817 621.585 508.138 621.443 507.301 621.926C506.513 622.381 506.228 623.063 506.543 623.609C507.467 625.209 510.479 621.692 511.984 624.298C512.67 625.487 512.15 626.854 510.683 627.701ZM520.784 621.659C519.62 622.331 518.54 622.114 517.805 620.841L515.733 617.252L514.545 617.938L514.076 617.126L515.022 616.58C515.192 616.482 515.262 616.295 515.143 616.089L514.268 614.574L515.165 614.056L516.222 615.887L518.162 614.767L518.631 615.579L516.691 616.699L518.756 620.276C519.148 620.955 519.634 621.208 520.361 620.788L521.234 620.284L521.717 621.12L520.784 621.659ZM523.497 620.093L518.247 611L519.204 610.447L521.346 614.157L521.419 614.115C521.357 613.391 521.766 612.476 522.748 611.909C524.215 611.062 525.762 611.64 526.567 613.034L528.856 616.999L527.898 617.552L525.644 613.648C525.063 612.642 523.921 612.428 523.036 612.939C522.066 613.499 521.654 614.69 522.242 615.709L524.454 619.54L523.497 620.093ZM533.679 614.424C531.751 615.537 529.707 614.826 528.615 612.934C527.453 610.922 528.074 608.834 529.796 607.84C531.712 606.734 533.663 607.482 534.713 609.301L534.958 609.725L529.818 612.693C530.594 613.926 531.89 614.293 533.187 613.544C534.023 613.061 534.593 612.199 534.457 611.292L535.451 610.718C535.778 612.097 535.158 613.57 533.679 614.424ZM529.352 611.83L533.45 609.464C532.637 608.252 531.367 608.096 530.3 608.712C529.245 609.321 528.777 610.61 529.352 611.83ZM541.683 609.593L538.043 603.288L539.001 602.735L539.526 603.645L539.599 603.603C539.566 602.846 539.892 602.011 540.826 601.472C541.771 600.926 542.728 600.987 543.479 601.475L543.564 601.426C543.519 600.369 544.014 599.631 544.899 599.12C546.306 598.308 547.789 598.777 548.587 600.159L550.946 604.245L549.988 604.798L547.811 601.027C547.125 599.839 546.181 599.576 545.248 600.115C544.363 600.626 543.951 601.704 544.63 602.88L546.8 606.639L545.842 607.192L543.56 603.239C542.979 602.233 541.95 602.019 541.065 602.53C540.18 603.041 539.834 604.178 540.45 605.245L542.641 609.04L541.683 609.593ZM555.894 601.598C554.003 602.69 551.803 602.101 550.697 600.185C549.598 598.282 550.205 596.057 552.084 594.972C553.988 593.873 556.189 594.493 557.281 596.384C558.373 598.276 557.785 600.506 555.894 601.598ZM555.39 600.725C556.748 599.941 557.111 598.358 556.299 596.951C555.494 595.557 553.934 595.067 552.576 595.851C551.218 596.635 550.881 598.236 551.679 599.618C552.498 601.037 554.044 601.502 555.39 600.725ZM562.97 597.513C561.478 598.374 560.161 598.052 559.372 596.939L560.306 596.4C560.849 597.089 561.614 597.181 562.535 596.649C563.481 596.103 563.736 595.341 563.365 594.698C562.343 592.928 559.349 596.451 557.907 593.953C557.291 592.887 557.85 591.642 559.172 590.879C560.336 590.207 561.698 590.326 562.453 591.41L561.531 591.942C561.103 591.397 560.424 591.256 559.587 591.739C558.799 592.194 558.514 592.876 558.829 593.421C559.753 595.022 562.766 591.504 564.271 594.111C564.957 595.299 564.437 596.666 562.97 597.513ZM569.672 593.434C568.508 594.106 567.429 593.888 566.694 592.615L564.622 589.026L563.433 589.712L562.964 588.9L563.91 588.354C564.08 588.256 564.15 588.07 564.031 587.864L563.156 586.348L564.053 585.83L565.11 587.661L567.05 586.541L567.519 587.353L565.579 588.473L567.644 592.05C568.036 592.729 568.522 592.982 569.249 592.562L570.122 592.058L570.605 592.895L569.672 593.434ZM572.809 591.833C572.433 592.05 571.943 591.929 571.726 591.553C571.509 591.177 571.649 590.692 572.025 590.475C572.401 590.258 572.879 590.386 573.096 590.762C573.313 591.138 573.185 591.616 572.809 591.833Z" fill="#0B1319"/>
<path fill-rule="evenodd" clip-rule="evenodd" d="M371.934 477.9L363.958 464.085L366.366 462.695L374.264 476.374C374.624 476.997 375.14 477.147 375.733 476.804L376.238 476.513L377.435 478.586L376.448 479.156C374.636 480.202 372.986 479.728 371.931 477.902L371.934 477.9ZM332.883 497.922L335.291 496.532C336.241 498.124 338.326 498.612 340.551 497.327C342.777 496.042 343.25 494.642 342.439 493.237C341.345 491.341 339.346 491.948 337.149 492.615C334.464 493.43 331.481 494.335 329.486 490.88C328.225 488.695 328.952 485.393 332.347 483.433C335.742 481.473 338.627 481.706 340.552 484.934L338.053 486.377C337.164 484.839 335.521 484.483 333.572 485.608C331.624 486.733 331.274 488.303 331.918 489.417C332.865 491.058 334.758 490.483 336.894 489.834C339.659 488.994 342.831 488.031 344.884 491.588C346.286 494.016 345.426 497.455 341.734 499.587C338.042 501.718 334.619 500.929 332.883 497.922ZM349.313 489.889L345.827 483.852L343.67 485.097L342.577 483.204L344.161 482.29C344.574 482.051 344.703 481.588 344.434 481.123L342.954 478.559L345.225 477.247L347.129 480.546L350.616 478.533L351.722 480.448L348.235 482.461L351.682 488.432C352.326 489.546 353.193 489.936 354.454 489.208L356.084 488.267L357.228 490.249L355.234 491.4C352.871 492.764 350.718 492.315 349.316 489.887L349.313 489.889ZM358.455 473.623C355.037 475.596 353.884 479.529 356.019 483.227L356.022 483.225C358.044 486.726 362.611 487.533 365.567 485.827C368.522 484.121 369.755 481.328 369.075 478.719L366.735 480.07C366.909 481.485 366.698 482.557 364.499 483.827C362.299 485.096 360.101 484.525 358.838 482.549L368.288 477.093L367.787 476.225C365.872 472.908 361.874 471.649 358.455 473.623ZM359.587 475.582C361.444 474.51 363.57 474.798 364.861 476.665L357.842 480.718C356.97 478.786 357.729 476.655 359.587 475.582ZM370.518 460.298L378.494 474.113C379.548 475.94 381.199 476.413 383.011 475.367L383.998 474.797L382.801 472.724L382.296 473.015C381.7 473.359 381.183 473.21 380.823 472.587L372.926 458.908L370.518 460.298ZM382.485 467.947C380.401 464.338 381.298 460.435 384.647 458.501C387.543 456.829 388.667 457.555 389.396 458.025C389.51 458.099 389.615 458.167 389.715 458.218L389.874 458.125L388.897 456.432L391.305 455.041L398.032 466.694L395.67 468.058L394.718 466.409L394.581 466.488C394.516 467.121 394.207 469.287 391.825 470.662C388.384 472.649 384.571 471.554 382.486 467.942L382.485 467.947ZM392.335 462.23C390.882 459.713 388.426 459.169 386.318 460.386C384.209 461.603 383.578 464.167 384.929 466.506C386.279 468.845 388.747 469.62 390.946 468.35C393.146 467.08 393.609 464.436 392.335 462.23ZM397.085 451.704L394.768 453.042L401.498 464.698L403.906 463.307L400.587 457.558C399.34 455.399 399.648 453.23 401.687 452.052L402.812 451.403L401.499 449.13L400.444 449.74C398.749 450.718 398.244 452.491 398.416 453.641L398.257 453.733L397.085 451.704ZM413.498 451.379L415.906 449.989C416.856 451.58 418.941 452.069 421.166 450.784C423.392 449.499 423.865 448.099 423.054 446.694C421.96 444.798 419.962 445.405 417.765 446.071C415.081 446.886 412.1 447.79 410.105 444.335C408.845 442.154 409.569 438.853 412.964 436.893C416.359 434.933 419.244 435.166 421.169 438.394L418.67 439.837C417.781 438.299 416.138 437.943 414.189 439.068C412.241 440.193 411.891 441.763 412.535 442.877C413.482 444.518 415.375 443.943 417.511 443.294C420.276 442.454 423.447 441.491 425.501 445.048C426.901 447.473 426.043 450.915 422.351 453.047C418.659 455.178 415.236 454.389 413.5 451.382L413.498 451.379ZM429.142 432.812C425.724 434.785 424.571 438.718 426.706 442.416C428.727 445.917 433.291 446.726 436.25 445.018C439.209 443.31 440.442 440.517 439.761 437.908L437.422 439.259C437.596 440.674 437.388 441.744 435.185 443.016C432.982 444.287 430.788 443.714 429.525 441.738L438.974 436.282L438.474 435.415C436.558 432.097 432.56 430.838 429.142 432.812ZM430.273 434.771C432.131 433.699 434.256 433.987 435.547 435.855L428.529 439.907C427.657 437.975 428.416 435.844 430.273 434.771ZM440.613 434.357C438.619 430.903 439.642 426.745 443.289 424.64C446.935 422.535 449.519 423.301 451.612 425.655L449.136 427.085C447.951 425.988 446.129 425.85 444.545 426.764C442.274 428.075 441.788 430.673 443.088 432.924C444.387 435.174 446.951 436.011 449.197 434.715C451.442 433.419 451.55 432.17 451.201 430.616L453.654 429.199C454.671 432.179 453.19 435.229 450.369 436.858C447.547 438.487 442.587 437.784 440.606 434.352L440.613 434.357ZM452.013 419.991L456.334 427.475C457.789 429.995 460.579 430.967 463.31 429.391C465.099 428.358 465.823 426.753 465.752 425.516L465.911 425.423L466.812 426.984L469.152 425.633L462.424 413.98L460.016 415.371L463.966 422.212C464.944 423.905 464.263 425.962 462.751 426.835C461.239 427.707 459.451 427.313 458.499 425.664L454.421 418.601L452.013 419.991ZM465.957 411.941L468.273 410.603L469.445 412.633L469.605 412.54C469.432 411.391 469.937 409.617 471.632 408.639L472.687 408.03L474 410.303L472.875 410.952C470.836 412.129 470.529 414.299 471.775 416.458L475.094 422.207L472.686 423.597L465.957 411.941ZM473.926 400.949C473.007 401.48 472.704 402.49 473.192 403.336C473.708 404.228 474.697 404.459 475.639 403.916C476.58 403.372 476.872 402.342 476.382 401.494C475.893 400.646 474.845 400.419 473.926 400.949ZM477.886 405.054L475.478 406.444L482.206 418.097L484.614 416.707L477.886 405.054ZM487.107 410.333L483.622 404.296L481.465 405.541L480.372 403.648L481.955 402.734C482.369 402.495 482.498 402.032 482.229 401.567L480.749 399.003L483.02 397.692L484.924 400.99L488.411 398.977L489.517 400.893L486.03 402.905L489.477 408.876C490.12 409.99 490.988 410.38 492.249 409.652L493.879 408.711L495.023 410.693L493.029 411.844C490.666 413.208 488.513 412.759 487.111 410.331L487.107 410.333ZM500.857 411.368L499.801 411.978L501.011 414.073L502.363 413.293C504.52 412.047 505.029 410.386 504.688 408.206L502.126 391.059L499.49 392.581L501.384 403.492L501.224 403.584L492.699 396.501L490.086 398.01L501.936 407.36L502.142 408.726C502.317 409.871 501.958 410.732 500.857 411.368Z" fill="#0B1319"/>
<rect x="267.88" y="325.423" width="140" height="140" rx="16" transform="rotate(-30 267.88 325.423)" fill="#F7F6FC"/>
<path d="M306.851 302.923L281.737 317.423C274.084 321.841 271.462 331.627 275.88 339.279L290.38 364.394" stroke="#0B1319" stroke-width="2"/>
<path d="M420.153 399.166L445.267 384.667C452.92 380.248 455.542 370.463 451.124 362.81L436.624 337.695" stroke="#0B1319" stroke-width="2"/>
<path d="M411.624 294.394L397.124 269.279C392.705 261.627 382.92 259.005 375.267 263.423L350.153 277.923" stroke="#0B1319" stroke-width="2"/>
<path d="M315.38 407.695L329.88 432.81C334.298 440.463 344.084 443.085 351.737 438.667L376.851 424.167" stroke="#0B1319" stroke-width="2"/>
<path fill-rule="evenodd" clip-rule="evenodd" d="M343.239 307.967L332.455 360.008L357.282 345.674L346.774 397.157L315.031 370.067L295.193 335.706L339.986 309.845L343.239 307.967ZM346.774 397.157L388.285 313.715L363.653 328.386L371.244 291.798L384.779 283.983L404.618 318.344L412.244 359.358L389.42 395.467L346.774 397.157Z" fill="#4364FA"/>
</g>
<ellipse cx="142.51" cy="206.29" rx="9.45487" ry="9.45422" transform="rotate(-30 142.51 206.29)" fill="black"/>
<ellipse cx="142.399" cy="206.26" rx="7.12406" ry="7.12357" transform="rotate(-30 142.399 206.26)" fill="#0A0A0A"/>
<ellipse cx="142.399" cy="206.26" rx="7.12406" ry="7.12357" transform="rotate(-30 142.399 206.26)" fill="url(#paint2_radial_408_1314)"/>
<g filter="url(#filter5_i_408_1314)">
<ellipse cx="2.94578" cy="2.94594" rx="2.94578" ry="2.94594" transform="matrix(-0.753168 -0.657828 0.65786 -0.753141 142.929 210.428)" fill="black"/>
<ellipse cx="2.94578" cy="2.94594" rx="2.94578" ry="2.94594" transform="matrix(-0.753168 -0.657828 0.65786 -0.753141 142.929 210.428)" fill="url(#paint3_angular_408_1314)"/>
<ellipse cx="2.94578" cy="2.94594" rx="2.94578" ry="2.94594" transform="matrix(-0.753168 -0.657828 0.65786 -0.753141 142.929 210.428)" fill="url(#paint4_radial_408_1314)"/>
</g>
<g filter="url(#filter6_f_408_1314)">
<ellipse cx="143.186" cy="205.373" rx="0.75" ry="0.749851" transform="rotate(-30 143.186 205.373)" fill="#BA7FD6"/>
</g>
<path d="M637.501 551.829C653.748 579.969 631.367 590.573 628.982 592.441C627.959 595.918 665.48 575.793 637.501 551.829Z" fill="black"/>
<path d="M129.416 220.604C125.821 213.877 122.568 197.844 138.297 187.492C130.283 191.109 117.283 202.788 129.416 220.604Z" fill="black"/>
<path d="M330.308 76.6234C339.833 71.1241 357.048 65.9469 368.359 85.5369C364.171 74.5339 350.698 57.3472 330.308 76.6234Z" fill="#020203"/>
<path d="M435.312 170.921L435.745 170.671C436.343 170.326 437.107 170.531 437.452 171.128L458.323 207.277C458.668 207.875 458.463 208.64 457.865 208.985L457.432 209.235L435.312 170.921Z" fill="black"/>
<path d="M435.312 170.921L435.745 170.671C436.343 170.326 437.107 170.531 437.452 171.128L458.323 207.277C458.668 207.875 458.463 208.64 457.865 208.985L457.432 209.235L435.312 170.921Z" fill="url(#paint5_linear_408_1314)"/>
<path d="M478.803 246.25L479.236 246C479.834 245.655 480.598 245.86 480.943 246.458L522.435 318.323C522.78 318.921 522.575 319.685 521.977 320.03L521.544 320.28L478.803 246.25Z" fill="black"/>
</g>
</g>
<path d="M22.8571 1H11C5.47715 1 1 5.47716 1 11V22.8571" stroke="#0B1319" stroke-width="2"/>
<path d="M1147 657.857L1158.86 657.857C1164.38 657.857 1168.86 653.38 1168.86 647.857L1168.86 636" stroke="#0B1319" stroke-width="2"/>
<path d="M1168.86 22.8571L1168.86 11C1168.86 5.47715 1164.38 1 1158.86 1L1147 0.999999" stroke="#0B1319" stroke-width="2"/>
<path d="M1 636L1 647.857C1 653.38 5.47716 657.857 11 657.857L22.8571 657.857" stroke="#0B1319" stroke-width="2"/>
<defs>
<filter id="filter0_d_408_1314" x="551.854" y="103.854" width="565.767" height="511.302" filterUnits="userSpaceOnUse" color-interpolation-filters="sRGB">
<feFlood flood-opacity="0" result="BackgroundImageFix"/>
<feColorMatrix in="SourceAlpha" type="matrix" values="0 0 0 0 0 0 0 0 0 0 0 0 0 0 0 0 0 0 127 0" result="hardAlpha"/>
<feOffset dy="20"/>
<feGaussianBlur stdDeviation="25"/>
<feComposite in2="hardAlpha" operator="out"/>
<feColorMatrix type="matrix" values="0 0 0 0 0.0431373 0 0 0 0 0.0745098 0 0 0 0 0.0980392 0 0 0 0.1 0"/>
<feBlend mode="normal" in2="BackgroundImageFix" result="effect1_dropShadow_408_1314"/>
<feBlend mode="normal" in="SourceGraphic" in2="effect1_dropShadow_408_1314" result="shape"/>
</filter>
<filter id="filter1_d_408_1314" x="60.8378" y="25.9119" width="647.961" height="765.533" filterUnits="userSpaceOnUse" color-interpolation-filters="sRGB">
<feFlood flood-opacity="0" result="BackgroundImageFix"/>
<feColorMatrix in="SourceAlpha" type="matrix" values="0 0 0 0 0 0 0 0 0 0 0 0 0 0 0 0 0 0 127 0" result="hardAlpha"/>
<feOffset dy="20"/>
<feGaussianBlur stdDeviation="25"/>
<feComposite in2="hardAlpha" operator="out"/>
<feColorMatrix type="matrix" values="0 0 0 0 0.0431373 0 0 0 0 0.0745098 0 0 0 0 0.0980392 0 0 0 0.1 0"/>
<feBlend mode="normal" in2="BackgroundImageFix" result="effect1_dropShadow_408_1314"/>
<feBlend mode="normal" in="SourceGraphic" in2="effect1_dropShadow_408_1314" result="shape"/>
</filter>
<filter id="filter2_f_408_1314" x="112.665" y="57.4182" width="544.906" height="663.284" filterUnits="userSpaceOnUse" color-interpolation-filters="sRGB">
<feFlood flood-opacity="0" result="BackgroundImageFix"/>
<feBlend mode="normal" in="SourceGraphic" in2="BackgroundImageFix" result="shape"/>
<feGaussianBlur stdDeviation="0.5" result="effect1_foregroundBlur_408_1314"/>
</filter>
<filter id="filter3_f_408_1314" x="115.665" y="60.5774" width="538.757" height="657.409" filterUnits="userSpaceOnUse" color-interpolation-filters="sRGB">
<feFlood flood-opacity="0" result="BackgroundImageFix"/>
<feBlend mode="normal" in="SourceGraphic" in2="BackgroundImageFix" result="shape"/>
<feGaussianBlur stdDeviation="0.25" result="effect1_foregroundBlur_408_1314"/>
</filter>
<filter id="filter4_f_408_1314" x="116.132" y="61.1348" width="537.824" height="656.293" filterUnits="userSpaceOnUse" color-interpolation-filters="sRGB">
<feFlood flood-opacity="0" result="BackgroundImageFix"/>
<feBlend mode="normal" in="SourceGraphic" in2="BackgroundImageFix" result="shape"/>
<feGaussianBlur stdDeviation="0.25" result="effect1_foregroundBlur_408_1314"/>
</filter>
<filter id="filter5_i_408_1314" x="139.703" y="203.325" width="5.89194" height="5.8916" filterUnits="userSpaceOnUse" color-interpolation-filters="sRGB">
<feFlood flood-opacity="0" result="BackgroundImageFix"/>
<feBlend mode="normal" in="SourceGraphic" in2="BackgroundImageFix" result="shape"/>
<feColorMatrix in="SourceAlpha" type="matrix" values="0 0 0 0 0 0 0 0 0 0 0 0 0 0 0 0 0 0 127 0" result="hardAlpha"/>
<feMorphology radius="0.25" operator="erode" in="SourceAlpha" result="effect1_innerShadow_408_1314"/>
<feOffset/>
<feGaussianBlur stdDeviation="0.375"/>
<feComposite in2="hardAlpha" operator="arithmetic" k2="-1" k3="1"/>
<feColorMatrix type="matrix" values="0 0 0 0 0 0 0 0 0 0 0 0 0 0 0 0 0 0 1 0"/>
<feBlend mode="normal" in2="shape" result="effect1_innerShadow_408_1314"/>
</filter>
<filter id="filter6_f_408_1314" x="141.436" y="203.623" width="3.50018" height="3.5" filterUnits="userSpaceOnUse" color-interpolation-filters="sRGB">
<feFlood flood-opacity="0" result="BackgroundImageFix"/>
<feBlend mode="normal" in="SourceGraphic" in2="BackgroundImageFix" result="shape"/>
<feGaussianBlur stdDeviation="0.5" result="effect1_foregroundBlur_408_1314"/>
</filter>
<radialGradient id="paint0_angular_408_1314" cx="0" cy="0" r="1" gradientUnits="userSpaceOnUse" gradientTransform="translate(385.18 389.053) rotate(60) scale(308.813 147.231)">
<stop offset="0.00370279"/>
<stop offset="0.0860873"/>
<stop offset="0.142579"/>
<stop offset="0.551797" stop-color="#898686"/>
<stop offset="0.597149"/>
<stop offset="0.62222"/>
<stop offset="0.635363"/>
<stop offset="0.644459" stop-color="#898686"/>
<stop offset="0.86974" stop-color="#1C1C1C"/>
<stop offset="0.875025"/>
</radialGradient>
<radialGradient id="paint1_angular_408_1314" cx="0" cy="0" r="1" gradientUnits="userSpaceOnUse" gradientTransform="translate(385.181 389.053) rotate(60) scale(308.313 165.875)">
<stop offset="0.000303672" stop-color="#4A4A4A"/>
<stop offset="0.0904875" stop-color="#404040"/>
<stop offset="0.111563"/>
<stop offset="0.136566" stop-color="#404040"/>
<stop offset="0.404505" stop-color="#848484"/>
<stop offset="0.596482" stop-color="#5E5E5E"/>
<stop offset="0.607769"/>
<stop offset="0.614698"/>
<stop offset="0.626401" stop-color="#535353"/>
<stop offset="0.872212" stop-color="#585858"/>
<stop offset="0.886458"/>
<stop offset="0.902914" stop-color="#575757"/>
</radialGradient>
<radialGradient id="paint2_radial_408_1314" cx="0" cy="0" r="1" gradientUnits="userSpaceOnUse" gradientTransform="translate(142.399 206.26) rotate(90) scale(7.12357 7.12406)">
<stop offset="0.552083" stop-opacity="0"/>
<stop offset="0.666667" stop-color="#5B5B5B" stop-opacity="0.21"/>
<stop offset="0.708333" stop-opacity="0"/>
</radialGradient>
<radialGradient id="paint3_angular_408_1314" cx="0" cy="0" r="1" gradientUnits="userSpaceOnUse" gradientTransform="translate(2.94578 2.94596) rotate(89.9999) scale(2.94593 2.78517)">
<stop offset="0.109898" stop-opacity="0.718268"/>
<stop offset="0.266542" stop-color="#6777CA"/>
<stop offset="0.473888" stop-color="#6C86CA"/>
<stop offset="0.665391" stop-color="#5583C7"/>
<stop offset="0.865938" stop-opacity="0.718268"/>
<stop offset="1" stop-color="#5351BA" stop-opacity="0"/>
</radialGradient>
<radialGradient id="paint4_radial_408_1314" cx="0" cy="0" r="1" gradientUnits="userSpaceOnUse" gradientTransform="translate(2.94578 2.94594) rotate(90) scale(2.94594 2.94578)">
<stop offset="0.0520833"/>
<stop offset="0.671875" stop-color="#767676" stop-opacity="0"/>
</radialGradient>
<linearGradient id="paint5_linear_408_1314" x1="436.069" y1="170.483" x2="458.19" y2="208.797" gradientUnits="userSpaceOnUse">
<stop stop-color="#353535"/>
<stop offset="0.0416667" stop-color="#AEAEAE"/>
<stop offset="0.104167" stop-color="#49494A"/>
<stop offset="0.677083" stop-color="#49494A"/>
<stop offset="0.901042" stop-color="#787879" stop-opacity="0.435484"/>
<stop offset="1" stop-opacity="0"/>
</linearGradient>
</defs>
</svg>
