<svg width="17" height="20" viewBox="0 0 17 20" fill="none" xmlns="http://www.w3.org/2000/svg">
<path d="M8.21875 18.7366C5.90398 16.9569 4.1754 15.5806 2.97109 13.9711C1.71094 12.287 1 10.3025 1 7.2155V3.74642L8.22222 1.06662L15.4444 3.74642V7.2155C15.4444 10.3018 14.7339 12.2738 13.4743 13.9517C12.268 15.5586 10.5382 16.9343 8.21875 18.7366Z" stroke="#4364FA" stroke-width="2"/>
<path d="M8.27868 13.4188C9.0523 13.4188 9.67943 12.7885 9.67943 12.0109C9.67943 11.2333 9.0523 10.603 8.27868 10.603C7.50507 10.603 6.87793 11.2333 6.87793 12.0109C6.87793 12.7885 7.50507 13.4188 8.27868 13.4188Z" stroke="#4364FA" stroke-width="2" stroke-miterlimit="10"/>
<path d="M11.869 9.22027C11.2027 7.85334 9.8291 6.97852 8.27875 6.97852C6.72841 6.97852 5.36845 7.85334 4.68848 9.19293" stroke="#4364FA" stroke-width="2" stroke-miterlimit="10"/>
</svg>
