<svg width="579" height="424" viewBox="0 0 579 424" fill="none" xmlns="http://www.w3.org/2000/svg">
<rect x="210" y="99" width="153.738" height="153.738" rx="16" fill="#F7F6FC"/>
<path d="M259.416 99H226C217.163 99 210 106.163 210 115V148.416" stroke="#0B1319" stroke-width="2"/>
<path d="M314.322 252.738L347.738 252.738C356.575 252.738 363.738 245.575 363.738 236.738L363.738 203.322" stroke="#0B1319" stroke-width="2"/>
<path d="M363.738 148.416L363.738 115C363.738 106.163 356.575 99 347.738 99L314.322 99" stroke="#0B1319" stroke-width="2"/>
<path d="M210 203.322L210 236.738C210 245.575 217.163 252.738 226 252.738L259.416 252.738" stroke="#0B1319" stroke-width="2"/>
<path d="M287.4 230C259.454 208.557 243 196.266 243 160.964V138.475L287.4 122L331.8 138.475V160.964C331.8 196.266 315.346 208.295 287.4 230Z" fill="#4364FA"/>
<path d="M287.706 194.462C291.883 194.462 295.27 191.058 295.27 186.859C295.27 182.66 291.883 179.256 287.706 179.256C283.528 179.256 280.142 182.66 280.142 186.859C280.142 191.058 283.528 194.462 287.706 194.462Z" stroke="white" stroke-width="2" stroke-miterlimit="10"/>
<path d="M307.093 177.19C303.495 169.808 296.078 165.084 287.706 165.084C279.334 165.084 271.99 169.808 268.318 177.042" stroke="white" stroke-width="2" stroke-miterlimit="10"/>
<path d="M315.612 168.258C309.444 158.884 298.942 153.2 287.706 153.2C276.47 153.2 265.969 158.884 259.8 168.184" stroke="white" stroke-width="2" stroke-miterlimit="10"/>
<path opacity="0.2" fill-rule="evenodd" clip-rule="evenodd" d="M287.4 230C287.975 229.554 288.545 229.112 289.11 228.673C316.016 207.791 331.8 195.54 331.8 160.964V138.475L287.4 122L287.4 122L287.4 230Z" fill="white"/>
<g filter="url(#filter0_d_8_114)">
<circle cx="161" cy="70" r="30" fill="#4364FA"/>
</g>
<path d="M155 63V69M152 66H158M164 66H166M168 68H170M155 60H153C149.686 60 147 62.6863 147 66V75.6754C147 76.9593 148.041 78 149.325 78C150.325 78 151.213 77.3597 151.53 76.4105L153 72H155.19C156.218 72 157.078 72.7786 157.18 73.801L157.701 79.0149C157.871 80.7095 159.297 82 161 82C162.703 82 164.129 80.7095 164.299 79.0149L164.82 73.801C164.922 72.7786 165.782 72 166.81 72H169L170.47 76.4105C170.787 77.3597 171.675 78 172.675 78C173.959 78 175 76.9593 175 75.6754V66C175 62.6863 172.314 60 169 60H167L165 58H157L155 60Z" stroke="white" stroke-width="2"/>
<g filter="url(#filter1_d_8_114)">
<circle cx="489" cy="66" r="30" fill="#4364FA"/>
</g>
<path d="M475 73.7278V58.2722C475 56.9468 475.926 55.8016 477.222 55.5239C484.986 53.8602 493.014 53.8602 500.778 55.5239C502.074 55.8016 503 56.9468 503 58.2722V73.7278C503 75.0532 502.074 76.1984 500.778 76.4761C493.014 78.1398 484.986 78.1398 477.222 76.4761C475.926 76.1984 475 75.0532 475 73.7278Z" stroke="white" stroke-width="2" stroke-linejoin="round"/>
<path d="M487 70V62L493 66L487 70Z" stroke="white" stroke-width="2" stroke-linejoin="round"/>
<g filter="url(#filter2_d_8_114)">
<circle cx="431" cy="191" r="30" fill="#4364FA"/>
</g>
<path d="M426 187H428M434 195H436M436 186L426 196M429.603 177.579L427.345 179.837C426.974 180.207 426.472 180.415 425.948 180.415H422.391C421.3 180.415 420.415 181.3 420.415 182.391V185.948C420.415 186.472 420.207 186.974 419.837 187.345L417.579 189.603C416.807 190.374 416.807 191.625 417.579 192.397L419.837 194.655C420.207 195.026 420.415 195.528 420.415 196.052V199.609C420.415 200.7 421.3 201.585 422.391 201.585H425.948C426.472 201.585 426.974 201.793 427.345 202.163L429.603 204.421C430.374 205.193 431.625 205.193 432.397 204.421L434.655 202.163C435.026 201.793 435.528 201.585 436.052 201.585H439.609C440.7 201.585 441.585 200.7 441.585 199.609V196.052C441.585 195.528 441.793 195.026 442.163 194.655L444.421 192.397C445.193 191.626 445.193 190.375 444.421 189.603L442.163 187.345C441.793 186.974 441.585 186.472 441.585 185.948V182.391C441.585 181.3 440.7 180.415 439.609 180.415H436.052C435.528 180.415 435.026 180.207 434.655 179.837L432.397 177.579C431.626 176.807 430.375 176.807 429.603 177.579Z" stroke="white" stroke-width="2"/>
<g filter="url(#filter3_d_8_114)">
<circle cx="473" cy="310" r="30" fill="#4364FA"/>
</g>
<path d="M470.333 291.333L473 292.667V295.333L470.333 296.667L474.333 299.333H475.666V296.667H479.666V299.333L481 300.667V303.333L479.666 304.667H477L471.666 302L469 303.333H465L463.666 308.667L467.666 312.667L470.333 314V318L471.666 319.333V322L473 324.667H475.666L478.333 320.667L479.666 318V315.333L483.666 310L482.333 307.333H486.333V304.667H491.666M473 328.667C462.69 328.667 454.333 320.309 454.333 310C454.333 299.691 462.69 291.333 473 291.333C483.309 291.333 491.666 299.691 491.666 310C491.666 320.309 483.309 328.667 473 328.667Z" stroke="white" stroke-width="2" stroke-linejoin="round"/>
<g filter="url(#filter4_d_8_114)">
<circle cx="90" cy="238" r="30" fill="#4364FA"/>
</g>
<path d="M76 238L75.0715 237.629C74.9762 237.867 74.9762 238.133 75.0715 238.371L76 238ZM104 238L104.928 238.371C105.024 238.133 105.024 237.867 104.928 237.629L104 238ZM90 247C85.3719 247 82.1222 244.697 79.9933 242.331C78.9281 241.148 78.1562 239.961 77.6513 239.069C77.3994 238.625 77.2154 238.257 77.0959 238.003C77.0362 237.877 76.9927 237.779 76.9649 237.715C76.951 237.683 76.9411 237.659 76.935 237.644C76.932 237.637 76.9299 237.632 76.9289 237.63C76.9283 237.628 76.928 237.627 76.9279 237.627C76.9279 237.627 76.9279 237.627 76.928 237.628C76.9281 237.628 76.9282 237.628 76.9282 237.628C76.9283 237.628 76.9285 237.629 76 238C75.0715 238.371 75.0717 238.372 75.0719 238.372C75.072 238.372 75.0722 238.373 75.0723 238.373C75.0727 238.374 75.0731 238.375 75.0735 238.376C75.0744 238.379 75.0756 238.381 75.077 238.385C75.0798 238.392 75.0837 238.401 75.0885 238.413C75.0982 238.436 75.112 238.469 75.1298 238.51C75.1655 238.592 75.2177 238.709 75.2869 238.856C75.4252 239.149 75.6319 239.563 75.9112 240.056C76.4688 241.039 77.3219 242.352 78.5067 243.669C80.8777 246.303 84.628 249 90 249V247ZM76 238C76.9285 238.371 76.9283 238.372 76.9282 238.372C76.9282 238.372 76.9281 238.372 76.928 238.372C76.9279 238.373 76.9279 238.373 76.9279 238.373C76.928 238.373 76.9283 238.372 76.9289 238.37C76.9299 238.368 76.932 238.363 76.935 238.356C76.9411 238.341 76.951 238.317 76.9649 238.285C76.9927 238.221 77.0362 238.123 77.0959 237.997C77.2154 237.743 77.3994 237.375 77.6513 236.931C78.1562 236.039 78.9281 234.852 79.9933 233.669C82.1222 231.303 85.3719 229 90 229V227C84.628 227 80.8777 229.697 78.5067 232.331C77.3219 233.648 76.4688 234.961 75.9112 235.944C75.6319 236.437 75.4252 236.851 75.2869 237.144C75.2177 237.291 75.1655 237.408 75.1298 237.49C75.112 237.531 75.0982 237.564 75.0885 237.587C75.0837 237.599 75.0798 237.608 75.077 237.615C75.0756 237.619 75.0744 237.621 75.0735 237.624C75.0731 237.625 75.0727 237.626 75.0723 237.627C75.0722 237.627 75.072 237.628 75.0719 237.628C75.0717 237.628 75.0715 237.629 76 238ZM90 229C94.628 229 97.8777 231.303 100.007 233.669C101.072 234.852 101.844 236.039 102.349 236.931C102.601 237.375 102.785 237.743 102.904 237.997C102.964 238.123 103.007 238.221 103.035 238.285C103.049 238.317 103.059 238.341 103.065 238.356C103.068 238.363 103.07 238.368 103.071 238.37C103.072 238.372 103.072 238.373 103.072 238.373C103.072 238.373 103.072 238.373 103.072 238.373C103.072 238.372 103.072 238.372 103.072 238.372C103.072 238.372 103.072 238.371 104 238C104.928 237.629 104.928 237.628 104.928 237.628C104.928 237.628 104.928 237.627 104.928 237.627C104.927 237.626 104.927 237.625 104.926 237.624C104.926 237.621 104.924 237.619 104.923 237.615C104.92 237.608 104.916 237.599 104.911 237.587C104.902 237.564 104.888 237.531 104.87 237.49C104.834 237.408 104.782 237.291 104.713 237.144C104.575 236.851 104.368 236.437 104.089 235.944C103.531 234.961 102.678 233.648 101.493 232.331C99.1222 229.697 95.3719 227 90 227V229ZM104 238C103.072 237.629 103.072 237.628 103.072 237.628C103.072 237.628 103.072 237.628 103.072 237.627C103.072 237.627 103.072 237.627 103.072 237.627C103.072 237.627 103.072 237.628 103.071 237.63C103.07 237.632 103.068 237.637 103.065 237.644C103.059 237.659 103.049 237.683 103.035 237.715C103.007 237.779 102.964 237.877 102.904 238.003C102.785 238.257 102.601 238.625 102.349 239.069C101.844 239.961 101.072 241.148 100.007 242.331C97.8777 244.697 94.628 247 90 247V249C95.3719 249 99.1222 246.303 101.493 243.669C102.678 242.352 103.531 241.039 104.089 240.056C104.368 239.563 104.575 239.149 104.713 238.856C104.782 238.709 104.834 238.592 104.87 238.51C104.888 238.469 104.902 238.436 104.911 238.413C104.916 238.401 104.92 238.392 104.923 238.385C104.924 238.381 104.926 238.379 104.926 238.376C104.927 238.375 104.927 238.374 104.928 238.373C104.928 238.373 104.928 238.372 104.928 238.372C104.928 238.372 104.928 238.371 104 238ZM90 241C88.3431 241 87 239.657 87 238H85C85 240.761 87.2386 243 90 243V241ZM93 238C93 239.657 91.6569 241 90 241V243C92.7614 243 95 240.761 95 238H93ZM90 235C91.6569 235 93 236.343 93 238H95C95 235.239 92.7614 233 90 233V235ZM90 233C87.2386 233 85 235.239 85 238H87C87 236.343 88.3431 235 90 235V233Z" fill="white"/>
<defs>
<filter id="filter0_d_8_114" x="71" y="4" width="180" height="180" filterUnits="userSpaceOnUse" color-interpolation-filters="sRGB">
<feFlood flood-opacity="0" result="BackgroundImageFix"/>
<feColorMatrix in="SourceAlpha" type="matrix" values="0 0 0 0 0 0 0 0 0 0 0 0 0 0 0 0 0 0 127 0" result="hardAlpha"/>
<feOffset dy="24"/>
<feGaussianBlur stdDeviation="30"/>
<feComposite in2="hardAlpha" operator="out"/>
<feColorMatrix type="matrix" values="0 0 0 0 0.0431373 0 0 0 0 0.0745098 0 0 0 0 0.0980392 0 0 0 0.1 0"/>
<feBlend mode="normal" in2="BackgroundImageFix" result="effect1_dropShadow_8_114"/>
<feBlend mode="normal" in="SourceGraphic" in2="effect1_dropShadow_8_114" result="shape"/>
</filter>
<filter id="filter1_d_8_114" x="399" y="0" width="180" height="180" filterUnits="userSpaceOnUse" color-interpolation-filters="sRGB">
<feFlood flood-opacity="0" result="BackgroundImageFix"/>
<feColorMatrix in="SourceAlpha" type="matrix" values="0 0 0 0 0 0 0 0 0 0 0 0 0 0 0 0 0 0 127 0" result="hardAlpha"/>
<feOffset dy="24"/>
<feGaussianBlur stdDeviation="30"/>
<feComposite in2="hardAlpha" operator="out"/>
<feColorMatrix type="matrix" values="0 0 0 0 0.0431373 0 0 0 0 0.0745098 0 0 0 0 0.0980392 0 0 0 0.1 0"/>
<feBlend mode="normal" in2="BackgroundImageFix" result="effect1_dropShadow_8_114"/>
<feBlend mode="normal" in="SourceGraphic" in2="effect1_dropShadow_8_114" result="shape"/>
</filter>
<filter id="filter2_d_8_114" x="341" y="125" width="180" height="180" filterUnits="userSpaceOnUse" color-interpolation-filters="sRGB">
<feFlood flood-opacity="0" result="BackgroundImageFix"/>
<feColorMatrix in="SourceAlpha" type="matrix" values="0 0 0 0 0 0 0 0 0 0 0 0 0 0 0 0 0 0 127 0" result="hardAlpha"/>
<feOffset dy="24"/>
<feGaussianBlur stdDeviation="30"/>
<feComposite in2="hardAlpha" operator="out"/>
<feColorMatrix type="matrix" values="0 0 0 0 0.0431373 0 0 0 0 0.0745098 0 0 0 0 0.0980392 0 0 0 0.1 0"/>
<feBlend mode="normal" in2="BackgroundImageFix" result="effect1_dropShadow_8_114"/>
<feBlend mode="normal" in="SourceGraphic" in2="effect1_dropShadow_8_114" result="shape"/>
</filter>
<filter id="filter3_d_8_114" x="383" y="244" width="180" height="180" filterUnits="userSpaceOnUse" color-interpolation-filters="sRGB">
<feFlood flood-opacity="0" result="BackgroundImageFix"/>
<feColorMatrix in="SourceAlpha" type="matrix" values="0 0 0 0 0 0 0 0 0 0 0 0 0 0 0 0 0 0 127 0" result="hardAlpha"/>
<feOffset dy="24"/>
<feGaussianBlur stdDeviation="30"/>
<feComposite in2="hardAlpha" operator="out"/>
<feColorMatrix type="matrix" values="0 0 0 0 0.0431373 0 0 0 0 0.0745098 0 0 0 0 0.0980392 0 0 0 0.1 0"/>
<feBlend mode="normal" in2="BackgroundImageFix" result="effect1_dropShadow_8_114"/>
<feBlend mode="normal" in="SourceGraphic" in2="effect1_dropShadow_8_114" result="shape"/>
</filter>
<filter id="filter4_d_8_114" x="0" y="172" width="180" height="180" filterUnits="userSpaceOnUse" color-interpolation-filters="sRGB">
<feFlood flood-opacity="0" result="BackgroundImageFix"/>
<feColorMatrix in="SourceAlpha" type="matrix" values="0 0 0 0 0 0 0 0 0 0 0 0 0 0 0 0 0 0 127 0" result="hardAlpha"/>
<feOffset dy="24"/>
<feGaussianBlur stdDeviation="30"/>
<feComposite in2="hardAlpha" operator="out"/>
<feColorMatrix type="matrix" values="0 0 0 0 0.0431373 0 0 0 0 0.0745098 0 0 0 0 0.0980392 0 0 0 0.1 0"/>
<feBlend mode="normal" in2="BackgroundImageFix" result="effect1_dropShadow_8_114"/>
<feBlend mode="normal" in="SourceGraphic" in2="effect1_dropShadow_8_114" result="shape"/>
</filter>
</defs>
</svg>
