<svg width="92" height="92" viewBox="0 0 92 92" fill="none" xmlns="http://www.w3.org/2000/svg">
<rect x="1" y="1" width="90" height="90" rx="16" fill="#F7F6FC"/>
<path d="M29.9286 1L17 1C8.16345 1 1 8.16344 1 17L1 29.9286" stroke="#0B1319" stroke-width="2"/>
<path d="M62.0714 91L75 91C83.8366 91 91 83.8366 91 75L91 62.0714" stroke="#0B1319" stroke-width="2"/>
<path d="M91 29.9286L91 17C91 8.16345 83.8366 1 75 0.999999L62.0714 0.999999" stroke="#0B1319" stroke-width="2"/>
<path d="M1 62.0714L1 75C1 83.8366 8.16344 91 17 91L29.9286 91" stroke="#0B1319" stroke-width="2"/>
<path d="M46 78.2432C29.6353 65.6865 20 58.4893 20 37.8166V24.6473L46 15L72 24.6473V37.8166C72 58.4893 62.3647 65.5333 46 78.2432Z" fill="#4364FA"/>
<path d="M46.1794 57.4325C48.6257 57.4325 50.6088 55.4392 50.6088 52.9804C50.6088 50.5216 48.6257 48.5283 46.1794 48.5283C43.7331 48.5283 41.75 50.5216 41.75 52.9804C41.75 55.4392 43.7331 57.4325 46.1794 57.4325Z" stroke="white" stroke-width="2" stroke-miterlimit="10"/>
<path d="M57.5323 47.3181C55.4251 42.9957 51.0817 40.2294 46.1792 40.2294C41.2768 40.2294 36.9764 42.9957 34.8262 47.2317" stroke="white" stroke-width="2" stroke-miterlimit="10"/>
<path d="M62.5209 42.088C58.9086 36.5985 52.759 33.2703 46.1794 33.2703C39.5998 33.2703 33.4502 36.5985 29.8379 42.0448" stroke="white" stroke-width="2" stroke-miterlimit="10"/>
<path opacity="0.2" fill-rule="evenodd" clip-rule="evenodd" d="M46 78.2431C46.3364 77.9818 46.6701 77.7229 47.0008 77.4662C62.7568 65.2379 71.9999 58.0642 71.9999 37.8165V24.6472L46 15V78.2431Z" fill="white"/>
</svg>
