<?xml version="1.0" encoding="UTF-8" standalone="no"?>
<!-- Created with Inkscape (http://www.inkscape.org/) -->

<svg
   version="1.1"
   id="svg2"
   width="1440"
   height="1440"
   viewBox="0 0 1440 1440"
   sodipodi:docname="Logomark_Steller_Protect_RGB.ai"
   xmlns:inkscape="http://www.inkscape.org/namespaces/inkscape"
   xmlns:sodipodi="http://sodipodi.sourceforge.net/DTD/sodipodi-0.dtd"
   xmlns="http://www.w3.org/2000/svg"
   xmlns:svg="http://www.w3.org/2000/svg">
  <defs
     id="defs6">
    <clipPath
       clipPathUnits="userSpaceOnUse"
       id="clipPath18">
      <path
         d="M 0,1080 H 1080 V 0 H 0 Z"
         id="path16" />
    </clipPath>
  </defs>
  <sodipodi:namedview
     id="namedview4"
     pagecolor="#ffffff"
     bordercolor="#000000"
     borderopacity="0.25"
     inkscape:showpageshadow="2"
     inkscape:pageopacity="0.0"
     inkscape:pagecheckerboard="0"
     inkscape:deskcolor="#d1d1d1" />
  <g
     id="g8"
     inkscape:groupmode="layer"
     inkscape:label="Logomark_Steller_Protect_RGB"
     transform="matrix(1.3333333,0,0,-1.3333333,0,1440)">
    <path
       d="M 746.765,183.826 H 349.614 v 429.532 h 397.151 z"
       style="fill:#ffffff;fill-opacity:1;fill-rule:nonzero;stroke:none"
       id="path10" />
    <g
       id="g12">
      <g
         id="g14"
         clip-path="url(#clipPath18)">
        <g
           id="g20"
           transform="translate(540,1018.8797)">
          <path
             d="m 0,0 c -156.198,0 -282.807,-126.622 -282.807,-282.807 v -94.27 h 157.115 v 94.27 c 0,69.419 56.285,125.692 125.692,125.692 69.407,0 125.692,-56.273 125.692,-125.692 v -94.27 h 157.115 v 94.27 C 282.807,-126.622 156.198,0 0,0"
             style="fill:#4364fa;fill-opacity:1;fill-rule:nonzero;stroke:none"
             id="path22" />
        </g>
        <g
           id="g24"
           transform="translate(377.8145,218.2357)">
          <path
             d="M 0,0 145.554,164.26 H 25.813 l 147.624,165.669 h 134.967 l -103.798,-116.463 119.741,1.64 z M -76.712,471.346 -209.173,338.888 V -24.657 L -76.712,-157.115 H 401.083 L 533.544,-24.657 V 338.888 L 401.083,471.346 Z"
             style="fill:#4364fa;fill-opacity:1;fill-rule:nonzero;stroke:none"
             id="path26" />
        </g>
      </g>
    </g>
  </g>
</svg>
