<svg width="71" height="70" viewBox="0 0 71 70" fill="none" xmlns="http://www.w3.org/2000/svg">
<g clip-path="url(#clip0_351_4027)">
<g clip-path="url(#clip1_351_4027)">
<g clip-path="url(#clip2_351_4027)">
<path d="M59.5 1H11.5C5.97715 1 1.5 5.47715 1.5 11V59C1.5 64.5228 5.97715 69 11.5 69H59.5C65.0228 69 69.5 64.5228 69.5 59V11C69.5 5.47715 65.0228 1 59.5 1Z" fill="#F7F6FC"/>
<path d="M23.3571 1H11.5C5.97715 1 1.5 5.47716 1.5 11V22.8571" stroke="#0B1319" stroke-width="2"/>
<path d="M47.6426 69H59.4997C65.0225 69 69.4997 64.5228 69.4997 59V47.1429" stroke="#0B1319" stroke-width="2"/>
<g clip-path="url(#clip3_351_4027)">
<path d="M73.1328 27.9477L41.8712 -3.3139C38.2743 -6.91083 32.4425 -6.91083 28.8456 -3.3139L-2.41599 27.9477C-6.01293 31.5446 -6.01293 37.3764 -2.41599 40.9733L28.8456 72.2349C32.4425 75.8318 38.2743 75.8318 41.8712 72.2349L73.1328 40.9733C76.7297 37.3764 76.7297 31.5446 73.1328 27.9477Z" fill="#F7F6FC"/>
<path opacity="0.7" d="M68.0157 23.4498L46.6818 2.11593C45.4278 0.861867 42.9027 1.35364 41.042 3.21435L3.90353 40.3528C2.04283 42.2135 1.55105 44.7386 2.80512 45.9926L24.139 67.3265C25.3931 68.5806 27.9181 68.0888 29.7788 66.2281L66.9173 29.0896C68.778 27.2289 69.2698 24.7039 68.0157 23.4498Z" stroke="#4364FA" stroke-width="2"/>
<path opacity="0.4" d="M77.2264 21.7029L48.4286 -7.0949C47.1941 -8.32937 44.3578 -7.49454 42.0935 -5.23026L-3.10023 39.9635C-5.36451 42.2278 -6.19934 45.0641 -4.96487 46.2985L23.8329 75.0963C25.0674 76.3308 27.9037 75.496 30.168 73.2317L75.3617 28.038C77.626 25.7737 78.4608 22.9374 77.2264 21.7029Z" stroke="#4364FA" stroke-width="2"/>
<path opacity="0.1" d="M81.3116 25.7873L44.3448 -11.1795C43.0978 -12.4265 40.1456 -11.4961 37.7508 -9.1013L-10.0473 38.6968C-12.442 41.0915 -13.3725 44.0438 -12.1255 45.2908L24.8413 82.2576C26.0883 83.5046 29.0405 82.5741 31.4353 80.1794L79.2334 32.3813C81.6282 29.9865 82.5586 27.0343 81.3116 25.7873Z" stroke="#4364FA" stroke-width="2"/>
<path d="M58.8558 24.6891L45.4429 11.2762C44.043 9.87629 41.8693 9.78033 40.5878 11.0618L10.7282 40.9214C9.4467 42.203 9.54266 44.3767 10.9425 45.7766L24.3554 59.1895C25.7553 60.5893 27.929 60.6853 29.2106 59.4038L59.0702 29.5442C60.3517 28.2627 60.2557 26.089 58.8558 24.6891Z" fill="#0B1319"/>
<path fill-rule="evenodd" clip-rule="evenodd" d="M41.8117 28.4832L37.4654 28.7301L39.1273 30.3919L34.8312 30.6487L42.3146 32.1698L40.6303 30.5305L43.6862 30.3577L44.5922 31.2637L42.2957 33.5603L39.2132 35.031L35.8712 33.9881L34.8308 30.6487L34.8312 30.6487L36.2991 27.5638L38.5957 25.2672L41.594 28.2655L41.8117 28.4832Z" fill="white"/>
<path opacity="0.2" d="M42.2087 13.004C42.554 13.3493 43.1134 13.3498 43.4582 13.005C43.803 12.6602 43.8026 12.1008 43.4573 11.7554C43.112 11.4101 42.5525 11.4097 42.2077 11.7545C41.863 12.0993 41.8634 12.6587 42.2087 13.004Z" fill="white"/>
</g>
<path d="M1.5 47.1429V59C1.5 64.5228 5.97716 69 11.5 69H23.3571" stroke="#0B1319" stroke-width="2"/>
<path d="M69.4997 22.8571V11C69.4997 5.47715 65.0225 1 59.4997 1L47.6426 1" stroke="#0B1319" stroke-width="2"/>
</g>
</g>
</g>
<defs>
<clipPath id="clip0_351_4027">
<rect width="70" height="70" fill="white" transform="translate(0.5)"/>
</clipPath>
<clipPath id="clip1_351_4027">
<rect width="70" height="70" fill="white" transform="translate(0.5)"/>
</clipPath>
<clipPath id="clip2_351_4027">
<rect width="70" height="70" fill="white" transform="translate(0.5)"/>
</clipPath>
<clipPath id="clip3_351_4027">
<rect width="70" height="70" fill="white" transform="translate(0.740234)"/>
</clipPath>
</defs>
</svg>
