<svg width="71" height="70" viewBox="0 0 71 70" fill="none" xmlns="http://www.w3.org/2000/svg">
<g clip-path="url(#clip0_351_4087)">
<g clip-path="url(#clip1_351_4087)">
<g clip-path="url(#clip2_351_4087)">
<path d="M59.5 1H11.5C5.97715 1 1.5 5.47715 1.5 11V59C1.5 64.5228 5.97715 69 11.5 69H59.5C65.0228 69 69.5 64.5228 69.5 59V11C69.5 5.47715 65.0228 1 59.5 1Z" fill="#F7F6FC"/>
<path d="M42.2267 7H21.6321C19.4827 7 17.7402 8.59512 17.7402 10.5628V56.4102C17.7402 58.3778 19.4827 59.973 21.6321 59.973H42.2267C44.3762 59.973 46.1186 58.3778 46.1186 56.4102V10.5628C46.1186 8.59512 44.3762 7 42.2267 7Z" fill="#0B1319"/>
<path fill-rule="evenodd" clip-rule="evenodd" d="M32.0542 14L28.907 17.5262H31.4586L28.3576 21.0215L35.2705 16.4442L32.7189 16.4787L34.9324 14H36.3235V17.5262L35.0861 21.0218L31.7198 22.7868L28.3573 21.0218L28.3576 21.0215L27.1162 17.5262V14H31.7199H32.0542Z" fill="white"/>
<circle cx="24.2402" cy="29.5" r="2.25" stroke="white" stroke-width="0.5"/>
<circle cx="32.2402" cy="29.5" r="2.25" stroke="white" stroke-width="0.5"/>
<circle cx="40.2402" cy="29.5" r="2.25" stroke="white" stroke-width="0.5"/>
<circle cx="24.2402" cy="37.5" r="2.25" stroke="white" stroke-width="0.5"/>
<circle cx="32.2402" cy="37.5" r="2.25" stroke="white" stroke-width="0.5"/>
<circle cx="40.2402" cy="37.5" r="2.5" fill="white"/>
<circle cx="24.2402" cy="45.5" r="2.5" fill="white"/>
<circle cx="32.2402" cy="45.5" r="2.25" stroke="white" stroke-width="0.5"/>
<circle cx="40.2402" cy="45.5" r="2.25" stroke="white" stroke-width="0.5"/>
<circle cx="32.2402" cy="53.5" r="2.25" stroke="white" stroke-width="0.5"/>
<path d="M52.4062 54.0833V44.875C52.4062 44.444 52.5775 44.0307 52.8822 43.726C53.1869 43.4212 53.6003 43.25 54.0313 43.25C54.4622 43.25 54.8756 43.4212 55.1803 43.726C55.485 44.0307 55.6563 44.444 55.6563 44.875V53M55.6563 52.4583V50.2917C55.6563 50.0783 55.6983 49.867 55.7799 49.6698C55.8616 49.4727 55.9813 49.2935 56.1322 49.1426C56.2831 48.9917 56.4622 48.872 56.6594 48.7904C56.8565 48.7087 57.0679 48.6667 57.2813 48.6667C57.4946 48.6667 57.706 48.7087 57.9031 48.7904C58.1003 48.872 58.2794 48.9917 58.4303 49.1426C58.5812 49.2935 58.7009 49.4727 58.7826 49.6698C58.8642 49.867 58.9063 50.0783 58.9063 50.2917V53M58.9063 51.375C58.9063 50.944 59.0775 50.5307 59.3822 50.226C59.6869 49.9212 60.1003 49.75 60.5313 49.75C60.9622 49.75 61.3756 49.9212 61.6803 50.226C61.985 50.5307 62.1563 50.944 62.1563 51.375V53" stroke="#0B1319" stroke-width="1.5" stroke-linecap="round" stroke-linejoin="round"/>
<path d="M62.1566 52.4583C62.1566 52.0273 62.3278 51.614 62.6326 51.3093C62.9373 51.0045 63.3506 50.8333 63.7816 50.8333C64.2126 50.8333 64.6259 51.0045 64.9307 51.3093C65.2354 51.614 65.4066 52.0273 65.4066 52.4583V57.3333C65.4066 59.0572 64.7218 60.7105 63.5028 61.9295C62.2838 63.1485 60.6305 63.8333 58.9066 63.8333H56.7399H56.9653C55.8888 63.8335 54.8291 63.5663 53.8814 63.0558C52.9337 62.5453 52.1277 61.8073 51.5356 60.9083C51.4646 60.8002 51.3938 60.6918 51.3233 60.5833C50.9853 60.0644 49.799 57.9963 47.7634 54.378C47.5559 54.0091 47.5005 53.5739 47.6089 53.1648C47.7174 52.7557 47.9811 52.4051 48.3441 52.1875C48.7307 51.9555 49.1838 51.8594 49.6313 51.9143C50.0788 51.9693 50.4951 52.1722 50.8141 52.4908L52.4066 54.0833" stroke="#0B1319" stroke-width="1.5" stroke-linecap="round" stroke-linejoin="round"/>
<path d="M23.3572 1H11.5C5.97715 1 1.5 5.47716 1.5 11V22.8571" stroke="#0B1319" stroke-width="2"/>
<path d="M47.6426 69H59.4997C65.0226 69 69.4997 64.5228 69.4997 59V47.1429" stroke="#0B1319" stroke-width="2"/>
<path d="M69.4997 22.8571V11C69.4997 5.47715 65.0226 1 59.4997 1L47.6426 1" stroke="#0B1319" stroke-width="2"/>
<path d="M1.50001 47.1429L1.5 59C1.5 64.5228 5.97716 69 11.5 69H23.3572" stroke="#0B1319" stroke-width="2"/>
</g>
</g>
</g>
<defs>
<clipPath id="clip0_351_4087">
<rect width="70" height="70" fill="white" transform="translate(0.5)"/>
</clipPath>
<clipPath id="clip1_351_4087">
<rect width="70" height="70" fill="white" transform="translate(0.5)"/>
</clipPath>
<clipPath id="clip2_351_4087">
<rect width="70" height="70" fill="white" transform="translate(0.5)"/>
</clipPath>
</defs>
</svg>
