<svg width="70" height="70" viewBox="0 0 70 70" fill="none" xmlns="http://www.w3.org/2000/svg">
<rect x="1.00012" y="1" width="68" height="68" rx="10" fill="#F7F6FC"/>
<path d="M22.8573 1H11.0001C5.47727 1 1.00012 5.47716 1.00012 11V22.8571" stroke="#0B1319" stroke-width="2"/>
<path d="M47.143 69L59.0001 69C64.523 69 69.0001 64.5228 69.0001 59L69.0001 47.1429" stroke="#0B1319" stroke-width="2"/>
<path d="M69.0001 22.8571L69.0001 11C69.0001 5.47715 64.523 1 59.0001 1L47.143 0.999999" stroke="#0B1319" stroke-width="2"/>
<path d="M1.00013 47.1429L1.00012 59C1.00012 64.5228 5.47728 69 11.0001 69L22.8573 69" stroke="#0B1319" stroke-width="2"/>
<path d="M56.9462 25.5214C59.4871 25.5214 61.5468 27.5811 61.5468 30.122L61.5468 38.9462C61.5468 41.4871 59.4871 43.5468 56.9462 43.5468L13.0793 43.5468C10.5385 43.5468 8.47869 41.487 8.47869 38.9462L8.47869 30.122C8.47869 27.5811 10.5385 25.5213 13.0793 25.5213L56.9462 25.5214Z" fill="#0B1319"/>
<rect x="34.8284" y="39" width="5.77817" height="5.77817" transform="rotate(45 34.8284 39)" fill="#0B1319"/>
</svg>
