<svg width="70" height="70" viewBox="0 0 70 70" fill="none" xmlns="http://www.w3.org/2000/svg">
<rect x="1" y="1" width="68" height="68" rx="10" fill="#F7F6FC"/>
<path d="M22.8571 1H11C5.47715 1 1 5.47716 1 11V22.8571" stroke="#0B1319" stroke-width="2"/>
<path d="M47.1429 69L59 69C64.5228 69 69 64.5228 69 59L69 47.1429" stroke="#0B1319" stroke-width="2"/>
<path d="M69 22.8571L69 11C69 5.47715 64.5228 1 59 1L47.1429 0.999999" stroke="#0B1319" stroke-width="2"/>
<path d="M1 47.1429L1 59C1 64.5228 5.47716 69 11 69L22.8571 69" stroke="#0B1319" stroke-width="2"/>
<path d="M24.0598 24.298L31.6545 19.8661C31.5149 19.4372 31.4153 18.9879 31.4153 18.4977C31.4153 16.6188 32.7508 15.0666 34.505 14.7398V8H35.7807V14.7398C37.5349 15.0666 38.8704 16.6188 38.8704 18.4977C38.8704 20.3767 38.7708 19.4372 38.6113 19.8661L46.2259 24.298C46.505 23.9713 46.8439 23.6853 47.2226 23.4402C48.8173 22.5008 50.8106 22.9092 51.9468 24.298L57.6478 20.9281L58.2857 22.0719L52.5847 25.4418C53.2027 27.1573 52.5449 29.118 50.9502 30.0575C50.5914 30.2617 50.2326 30.4047 49.8538 30.4864V39.5136C50.2326 39.5953 50.5914 39.7383 50.9502 39.9425C52.5449 40.882 53.2027 42.8427 52.5847 44.5582L58.2857 47.9281L57.6478 49.0719L51.9468 45.702C50.8106 47.0908 48.8173 47.4992 47.2226 46.5598C46.8439 46.3147 46.505 46.0287 46.2259 45.702C43.6944 47.1725 41.1628 48.6634 38.6113 50.1339C38.7708 50.5628 38.8704 51.0121 38.8704 51.5023C38.8704 53.3812 37.5349 54.9334 35.7807 55.2602V62H34.505V55.2602C32.7508 54.9334 31.4153 53.3812 31.4153 51.5023C31.4153 49.6233 31.5149 50.5628 31.6545 50.1339L24.0598 45.702C23.7807 46.0287 23.4419 46.3147 23.0631 46.5598C21.4684 47.4992 19.4751 47.0908 18.3389 45.702L12.6379 49.0719L12 47.9281L17.701 44.5582C17.0831 42.8427 17.7409 40.882 19.3355 39.9425C19.6944 39.7383 20.0532 39.5953 20.4319 39.5136V30.4864C20.0532 30.4047 19.6944 30.2617 19.3355 30.0575C17.7409 29.118 17.0831 27.1573 17.701 25.4418L12 22.0719L12.6379 20.9281L18.3389 24.298C19.4751 22.9092 21.4684 22.5008 23.0631 23.4402C23.4419 23.6853 23.7807 23.9713 24.0598 24.298ZM45.588 44.5582C45.2292 43.5371 45.289 42.3525 45.8671 41.3517C46.4651 40.2897 47.4817 39.6362 48.5781 39.4728V30.5272C47.4817 30.3638 46.4651 29.7103 45.8671 28.6483C45.289 27.6475 45.2292 26.4629 45.588 25.4418L37.9734 20.9894C37.2757 21.8064 36.2791 22.3169 35.1429 22.3169C34.0066 22.3169 33.01 21.8064 32.3123 20.9894L24.6977 25.4418C25.0565 26.4629 24.9967 27.6475 24.4186 28.6483C23.8206 29.7103 22.804 30.3638 21.7076 30.5272V39.4728C22.804 39.6362 23.8206 40.2897 24.4186 41.3517C24.9967 42.3525 25.0565 43.5371 24.6977 44.5582L32.3123 49.0106C33.01 48.1936 34.0066 47.6831 35.1429 47.6831C36.2791 47.6831 37.2757 48.1936 37.9734 49.0106L45.588 44.5582Z" fill="#0B1319" stroke="#0B1319" stroke-width="0.6"/>
</svg>
