<svg width="70" height="70" viewBox="0 0 70 70" fill="none" xmlns="http://www.w3.org/2000/svg">
<rect x="1" y="1" width="68" height="68" rx="10" fill="#F7F6FC"/>
<path d="M22.8571 1H11C5.47715 1 1 5.47716 1 11V22.8571" stroke="#0B1319" stroke-width="2"/>
<path d="M47.1429 69L59 69C64.5228 69 69 64.5228 69 59L69 47.1429" stroke="#0B1319" stroke-width="2"/>
<path d="M69 22.8571L69 11C69 5.47715 64.5228 1 59 1L47.1429 0.999999" stroke="#0B1319" stroke-width="2"/>
<path d="M1 47.1429L1 59C1 64.5228 5.47716 69 11 69L22.8571 69" stroke="#0B1319" stroke-width="2"/>
<path d="M35.2 62C21.2271 51.2785 13 45.1332 13 27.4818V16.2373L35.2 8L57.4 16.2373V27.4818C57.4 45.1332 49.1729 51.1477 35.2 62Z" fill="#0B1319"/>
<path d="M37.242 26.6422V25.2683C37.242 24.3361 37.9884 23.6001 38.9339 23.6001H39.6804" stroke="white" stroke-width="2" stroke-miterlimit="10"/>
<path d="M32.8132 26.6422V25.2683C32.8132 24.3361 32.0668 23.6001 31.1213 23.6001H30.3748" stroke="white" stroke-width="2" stroke-miterlimit="10"/>
<path d="M29.4291 31.7939C29.4291 28.7519 31.9172 26.2986 35.0025 26.2986C38.0878 26.2986 40.576 28.7519 40.576 31.7939" stroke="white" stroke-width="2" stroke-miterlimit="10"/>
<path d="M45.0545 28.8008C45.0545 31.8428 42.5664 34.2961 39.481 34.2961H30.5735C27.5379 34.2961 25 31.8428 25 28.8008" stroke="white" stroke-width="1.9" stroke-miterlimit="10"/>
<path d="M25 44.1095C25 41.0674 27.4882 38.6141 30.5735 38.6141H39.481C42.5664 38.6141 45.0545 41.0674 45.0545 44.1095" stroke="white" stroke-width="1.9" stroke-miterlimit="10"/>
<path d="M40.6258 33.8545V37.9269C40.6258 40.969 38.0879 43.4223 35.0523 43.4223C31.967 43.4223 29.4789 40.9199 29.4789 37.9269V33.8545" stroke="white" stroke-width="2" stroke-miterlimit="10"/>
</svg>
