<svg width="70" height="70" viewBox="0 0 70 70" fill="none" xmlns="http://www.w3.org/2000/svg">
<rect x="1.00012" y="1" width="68" height="68" rx="10" fill="#F7F6FC"/>
<path d="M22.8573 1H11.0001C5.47727 1 1.00012 5.47716 1.00012 11V22.8571" stroke="#0B1319" stroke-width="2"/>
<path d="M47.143 69L59.0001 69C64.523 69 69.0001 64.5228 69.0001 59L69.0001 47.1429" stroke="#0B1319" stroke-width="2"/>
<path d="M69.0001 22.8571L69.0001 11C69.0001 5.47715 64.523 1 59.0001 1L47.143 0.999999" stroke="#0B1319" stroke-width="2"/>
<path d="M1.00013 47.1429L1.00012 59C1.00012 64.5228 5.47728 69 11.0001 69L22.8573 69" stroke="#0B1319" stroke-width="2"/>
<rect x="22" y="8" width="26.0255" height="53.0681" rx="4.60062" fill="#0B1319"/>
<path fill-rule="evenodd" clip-rule="evenodd" d="M35.4327 30.7737L32.5073 34.0562L34.879 34.0562L31.9969 37.3097L38.422 33.0489L36.0503 33.0811L38.1077 30.7737L39.4007 30.7737L39.4007 34.0562L38.2506 37.3101L35.1216 38.9531L31.9963 37.3101L31.9965 37.3099L30.8429 34.0562L30.8429 30.7737L35.1219 30.7737L35.4327 30.7737L35.4327 30.7737Z" fill="white"/>
<ellipse opacity="0.2" cx="24.3795" cy="11.123" rx="0.892303" ry="0.892301" fill="white"/>
<path fill-rule="evenodd" clip-rule="evenodd" d="M30.2756 52.0235H30.6535V48.5412C30.6535 47.1765 31.8346 46 33.252 46H36.748C38.1654 46 39.3465 47.1765 39.3465 48.5412V52.0235H39.7244C40.4331 52.0235 41 52.5882 41 53.2941V60.7294C41 61.4353 40.4331 62 39.7244 62H30.2756C29.5669 62 29 61.4353 29 60.7294V53.2941C29 52.5882 29.5669 52.0235 30.2756 52.0235ZM35 55.1765C35.6614 55.1765 36.1811 55.6941 36.1811 56.3529C36.1811 57.0118 35.8976 57.2471 35.4724 57.4353V58.3765C35.4724 58.6118 35.2835 58.8471 35 58.8471C34.7165 58.8471 34.5276 58.6118 34.5276 58.3765V57.4353C34.1024 57.2471 33.8189 56.8235 33.8189 56.3529C33.8189 55.8824 34.3386 55.1765 35 55.1765ZM31.8819 52.0235H38.1181V48.5412C38.1181 47.7882 37.5039 47.1765 36.748 47.1765H33.252C32.4961 47.1765 31.8819 47.7882 31.8819 48.5412V52.0235Z" fill="#F7F6FC"/>
</svg>
