<svg width="70" height="70" viewBox="0 0 70 70" fill="none" xmlns="http://www.w3.org/2000/svg">
<rect x="1.00012" y="1" width="68" height="68" rx="10" fill="#F7F6FC"/>
<path d="M22.8573 1H11.0001C5.47727 1 1.00012 5.47716 1.00012 11V22.8571" stroke="#0B1319" stroke-width="2"/>
<path d="M47.143 69L59.0001 69C64.523 69 69.0001 64.5228 69.0001 59L69.0001 47.1429" stroke="#0B1319" stroke-width="2"/>
<path d="M69.0001 22.8571L69.0001 11C69.0001 5.47715 64.523 1 59.0001 1L47.143 0.999999" stroke="#0B1319" stroke-width="2"/>
<path d="M1.00013 47.1429L1.00012 59C1.00012 64.5228 5.47728 69 11.0001 69L22.8573 69" stroke="#0B1319" stroke-width="2"/>
<path d="M35.2 62C21.2271 51.2785 13 45.1332 13 27.4818V16.2373L35.2 8L57.4 16.2373V27.4818C57.4 45.1332 49.1729 51.1477 35.2 62Z" fill="#0B1319"/>
<path d="M35.3527 44.2309C37.4415 44.2309 39.1348 42.5289 39.1348 40.4295C39.1348 38.33 37.4415 36.6281 35.3527 36.6281C33.264 36.6281 31.5707 38.33 31.5707 40.4295C31.5707 42.5289 33.264 44.2309 35.3527 44.2309Z" stroke="white" stroke-width="2" stroke-miterlimit="10"/>
<path d="M45.0467 35.5947C43.2475 31.904 39.5389 29.542 35.3529 29.542C31.167 29.542 27.4951 31.904 25.6592 35.5209" stroke="white" stroke-width="2" stroke-miterlimit="10"/>
<path d="M49.3063 31.129C46.2219 26.4418 40.9711 23.6 35.3531 23.6C29.7352 23.6 24.4844 26.4418 21.4 31.0921" stroke="white" stroke-width="2" stroke-miterlimit="10"/>
</svg>
