<svg width="70" height="70" viewBox="0 0 70 70" fill="none" xmlns="http://www.w3.org/2000/svg">
<rect x="1" y="1" width="68" height="68" rx="10" fill="#F7F6FC"/>
<mask id="mask0_367_3270" style="mask-type:alpha" maskUnits="userSpaceOnUse" x="1" y="1" width="68" height="68">
<rect x="1" y="1" width="68" height="68" rx="10" fill="#F7F6FC"/>
</mask>
<g mask="url(#mask0_367_3270)">
<rect x="26.5248" y="25.3105" width="26.0255" height="53.0681" rx="4.60062" transform="rotate(45 26.5248 25.3105)" fill="#0B1319"/>
<path fill-rule="evenodd" clip-rule="evenodd" d="M19.9197 50.9122L15.5301 51.1648L17.2072 52.8418L12.8687 53.1044L20.4247 54.6349L18.7249 52.9805L21.8113 52.8038L22.7256 53.7181L20.4045 56.0391L17.2904 57.5267L13.9161 56.476L12.8679 53.1043L12.8682 53.1043L14.3532 49.9878L16.6743 47.6667L19.7 50.6925L19.9197 50.9122L19.9197 50.9122Z" fill="white"/>
<ellipse opacity="0.2" cx="25.9991" cy="29.2014" rx="0.892303" ry="0.892301" transform="rotate(45 25.9991 29.2014)" fill="white"/>
<path d="M44.4497 55.5864V55.5864C51.2511 48.7851 51.2511 37.758 44.4497 30.9566L39.0756 25.5825C32.2743 18.7811 21.2471 18.7811 14.4458 25.5825V25.5825" stroke="#0B1319"/>
<path opacity="0.6" d="M49.2736 60.41V60.41C59.2423 50.4413 59.2423 34.2788 49.2736 24.31L45.7218 20.7582C35.7531 10.7895 19.5906 10.7895 9.62181 20.7582V20.7582" stroke="#0B1319"/>
<path opacity="0.2" d="M54.0589 65.1954V65.1954C67.2988 51.9555 67.2988 30.4895 54.0589 17.2496L52.7823 15.9729C39.5424 2.73304 18.0763 2.73303 4.83641 15.9729V15.9729" stroke="#0B1319"/>
</g>
<path d="M22.8571 1H11C5.47715 1 1 5.47716 1 11V22.8571" stroke="#0B1319" stroke-width="2"/>
<path d="M47.1429 69L59 69C64.5228 69 69 64.5228 69 59L69 47.1429" stroke="#0B1319" stroke-width="2"/>
<path d="M69 22.8571L69 11C69 5.47715 64.5228 1 59 1L47.1429 0.999999" stroke="#0B1319" stroke-width="2"/>
<path d="M1 47.1429L1 59C1 64.5228 5.47716 69 11 69L22.8571 69" stroke="#0B1319" stroke-width="2"/>
</svg>
