<svg width="71" height="70" viewBox="0 0 71 70" fill="none" xmlns="http://www.w3.org/2000/svg">
<g clip-path="url(#clip0_351_4065)">
<g clip-path="url(#clip1_351_4065)">
<g clip-path="url(#clip2_351_4065)">
<path d="M59.5 1H11.5C5.97715 1 1.5 5.47715 1.5 11V59C1.5 64.5228 5.97715 69 11.5 69H59.5C65.0228 69 69.5 64.5228 69.5 59V11C69.5 5.47715 65.0228 1 59.5 1Z" fill="#F7F6FC"/>
<mask id="mask0_351_4065" style="mask-type:alpha" maskUnits="userSpaceOnUse" x="1" y="1" width="69" height="68">
<path d="M59.5 1H11.5C5.97715 1 1.5 5.47715 1.5 11V59C1.5 64.5228 5.97715 69 11.5 69H59.5C65.0228 69 69.5 64.5228 69.5 59V11C69.5 5.47715 65.0228 1 59.5 1Z" fill="#F7F6FC"/>
</mask>
<g mask="url(#mask0_351_4065)">
<path d="M42.1741 40.4602L30.2775 28.5637C28.4809 26.767 25.5679 26.767 23.7713 28.5637L-7.24727 59.5822C-9.04392 61.3789 -9.04392 64.2918 -7.24727 66.0885L4.64928 77.985C6.44593 79.7817 9.35889 79.7817 11.1555 77.985L42.1741 46.9665C43.9707 45.1698 43.9707 42.2569 42.1741 40.4602Z" fill="#0B1319"/>
<path fill-rule="evenodd" clip-rule="evenodd" d="M20.42 50.9123L16.0304 51.1648L17.7075 52.8419L13.369 53.1045L20.925 54.6349L19.2252 52.9805L22.3116 52.8038L23.2259 53.7182L20.9048 56.0392L17.7907 57.5267L14.4164 56.4761L13.369 53.1045L14.8535 49.9879L17.1746 47.6667L20.2003 50.6926L20.42 50.9123Z" fill="white"/>
<path opacity="0.2" d="M25.8681 29.8324C26.2165 30.1808 26.7815 30.1808 27.13 29.8324C27.4784 29.4839 27.4784 28.9189 27.13 28.5705C26.7815 28.222 26.2165 28.222 25.8681 28.5705C25.5196 28.9189 25.5196 29.4839 25.8681 29.8324Z" fill="white"/>
<path d="M44.9502 55.5865C51.7516 48.7852 51.7516 37.7581 44.9502 30.9567L39.5761 25.5826C32.7748 18.7812 21.7476 18.7812 14.9463 25.5826" stroke="#4364FA"/>
<path opacity="0.6" d="M49.7739 60.41C59.7426 50.4413 59.7426 34.2788 49.7739 24.31L46.2221 20.7582C36.2534 10.7895 20.0909 10.7895 10.1221 20.7582" stroke="#4364FA"/>
<path opacity="0.2" d="M54.5584 65.1954C67.7983 51.9555 67.7983 30.4895 54.5584 17.2496L53.2818 15.9729C40.0419 2.73307 18.5758 2.73306 5.33594 15.9729" stroke="#4364FA"/>
</g>
<path d="M23.3571 1H11.5C5.97715 1 1.5 5.47716 1.5 11V22.8571" stroke="#0B1319" stroke-width="2"/>
<path d="M47.6426 69H59.4997C65.0225 69 69.4997 64.5228 69.4997 59V47.1429" stroke="#0B1319" stroke-width="2"/>
<path d="M69.4997 22.8571V11C69.4997 5.47715 65.0225 1 59.4997 1L47.6426 1" stroke="#0B1319" stroke-width="2"/>
<path d="M1.5 47.1429V59C1.5 64.5228 5.97716 69 11.5 69H23.3571" stroke="#0B1319" stroke-width="2"/>
</g>
</g>
</g>
<defs>
<clipPath id="clip0_351_4065">
<rect width="70" height="70" fill="white" transform="translate(0.5)"/>
</clipPath>
<clipPath id="clip1_351_4065">
<rect width="70" height="70" fill="white" transform="translate(0.5)"/>
</clipPath>
<clipPath id="clip2_351_4065">
<rect width="70" height="70" fill="white" transform="translate(0.5)"/>
</clipPath>
</defs>
</svg>
