<svg width="71" height="70" viewBox="0 0 71 70" fill="none" xmlns="http://www.w3.org/2000/svg">
<g clip-path="url(#clip0_351_4048)">
<path d="M59.5 1H11.5C5.97715 1 1.5 5.47715 1.5 11V59C1.5 64.5228 5.97715 69 11.5 69H59.5C65.0228 69 69.5 64.5228 69.5 59V11C69.5 5.47715 65.0228 1 59.5 1Z" fill="#F7F6FC"/>
<path opacity="0.7" d="M52.1182 -6.93695H19.3615C17.436 -6.93695 15.875 -4.05352 15.875 -0.496635V70.4966C15.875 74.0535 17.436 76.9369 19.3615 76.9369H52.1182C54.0438 76.9369 55.6047 74.0535 55.6047 70.4966V-0.496635C55.6047 -4.05352 54.0438 -6.93695 52.1182 -6.93695Z" stroke="#4364FA" stroke-width="2"/>
<path opacity="0.4" d="M57.8483 -6.93695H13.6312C11.7358 -6.93695 10.1992 -4.11856 10.1992 -0.641906V68.75C10.1992 72.2266 11.7358 75.045 13.6312 75.045H57.8483C59.7437 75.045 61.2803 72.2266 61.2803 68.75V-0.641906C61.2803 -4.11856 59.7437 -6.93695 57.8483 -6.93695Z" stroke="#4364FA" stroke-width="2"/>
<path opacity="0.1" d="M64.1204 -6.93695H7.36043C5.44573 -6.93695 3.89355 -4.05352 3.89355 -0.496635V70.4966C3.89355 74.0535 5.44573 76.9369 7.36043 76.9369H64.1204C66.0351 76.9369 67.5872 74.0535 67.5872 70.4966V-0.496635C67.5872 -4.05352 66.0351 -6.93695 64.1204 -6.93695Z" stroke="#4364FA" stroke-width="2"/>
<path d="M46.0373 9.45947H25.4427C23.2932 9.45947 21.5508 11.0546 21.5508 13.0223V58.8696C21.5508 60.8373 23.2932 62.4324 25.4427 62.4324H46.0373C48.1867 62.4324 49.9292 60.8373 49.9292 58.8696V13.0223C49.9292 11.0546 48.1867 9.45947 46.0373 9.45947Z" fill="#0B1319"/>
<path fill-rule="evenodd" clip-rule="evenodd" d="M35.8648 25.4575L32.7175 28.9837H35.2692L32.1682 32.479L39.0811 27.9016L36.5294 27.9362L38.7429 25.4575H40.134V28.9837L38.8966 32.4792L35.5303 34.2442L32.1678 32.4792L32.1682 32.479L30.9268 28.9837V25.4575H35.5304H35.8648Z" fill="white"/>
<path opacity="0.2" d="M24.2871 13.2685C24.8173 13.2685 25.2471 12.8393 25.2471 12.3099C25.2471 11.7805 24.8173 11.3513 24.2871 11.3513C23.757 11.3513 23.3271 11.7805 23.3271 12.3099C23.3271 12.8393 23.757 13.2685 24.2871 13.2685Z" fill="white"/>
<path d="M23.3571 1H11.5C5.97715 1 1.5 5.47716 1.5 11V22.8571" stroke="#0B1319" stroke-width="2"/>
<path d="M47.6426 69H59.4997C65.0225 69 69.4997 64.5228 69.4997 59V47.1429" stroke="#0B1319" stroke-width="2"/>
<path d="M1.5 47.1429V59C1.5 64.5228 5.97716 69 11.5 69H23.3571" stroke="#0B1319" stroke-width="2"/>
<path d="M69.4997 22.8571V11C69.4997 5.47715 65.0225 1 59.4997 1L47.6426 1" stroke="#0B1319" stroke-width="2"/>
</g>
<defs>
<clipPath id="clip0_351_4048">
<rect x="0.5" width="70" height="70" rx="10" fill="white"/>
</clipPath>
</defs>
</svg>
