<svg width="71" height="70" viewBox="0 0 71 70" fill="none" xmlns="http://www.w3.org/2000/svg">
<g clip-path="url(#clip0_351_4118)">
<g clip-path="url(#clip1_351_4118)">
<g clip-path="url(#clip2_351_4118)">
<path d="M59.5 1H11.5C5.97715 1 1.5 5.47715 1.5 11V59C1.5 64.5228 5.97715 69 11.5 69H59.5C65.0228 69 69.5 64.5228 69.5 59V11C69.5 5.47715 65.0228 1 59.5 1Z" fill="#F7F6FC"/>
<path d="M23.3572 1H11.5C5.97715 1 1.5 5.47716 1.5 11V22.8571" stroke="#0B1319" stroke-width="2"/>
<path d="M47.6426 69H59.4997C65.0226 69 69.4997 64.5228 69.4997 59V47.1429" stroke="#0B1319" stroke-width="2"/>
<path d="M69.4997 22.8571V11C69.4997 5.47715 65.0226 1 59.4997 1L47.6426 1" stroke="#0B1319" stroke-width="2"/>
<path d="M1.50001 47.1429L1.5 59C1.5 64.5228 5.97716 69 11.5 69H23.3572" stroke="#0B1319" stroke-width="2"/>
<path d="M55.2267 9H34.6321C32.4827 9 30.7402 10.5951 30.7402 12.5628V58.4102C30.7402 60.3778 32.4827 61.973 34.6321 61.973H55.2267C57.3762 61.973 59.1186 60.3778 59.1186 58.4102V12.5628C59.1186 10.5951 57.3762 9 55.2267 9Z" fill="#0B1319"/>
<path fill-rule="evenodd" clip-rule="evenodd" d="M45.0542 24.998L41.907 28.5242H44.4586L41.3576 32.0195L48.2705 27.4421L45.7189 27.4767L47.9324 24.998H49.3235V28.5242L48.0861 32.0197L44.7198 33.7848L41.3573 32.0197L41.3576 32.0195L40.1162 28.5242V24.998H44.7199H45.0542Z" fill="white"/>
<path d="M11.5527 25.4375H22.9277V30.6875L20.4287 32.1872C19.8568 32.5306 19.3836 33.0162 19.055 33.5967C18.7264 34.1772 18.5538 34.8329 18.5538 35.5C18.5538 36.1671 18.7264 36.8228 19.055 37.4033C19.3836 37.9838 19.8568 38.4694 20.4287 38.8127L22.9277 40.3125V45.5625H11.5527V40.3125L14.0517 38.8127C14.6238 38.4695 15.0973 37.984 15.426 37.4035C15.7548 36.8229 15.9275 36.1672 15.9275 35.5C15.9275 34.8328 15.7548 34.1771 15.426 33.5965C15.0973 33.016 14.6238 32.5305 14.0517 32.1872L11.5527 30.6875V25.4375Z" fill="#0B1319"/>
<path fill-rule="evenodd" clip-rule="evenodd" d="M11.1152 25.875H9.36523V25H25.1152V25.875H23.3652V30.9352L20.6539 32.5623C20.6539 32.5623 20.654 32.5623 20.6539 32.5623C20.1468 32.8668 19.7271 33.2975 19.4358 33.8122C19.1444 34.327 18.9913 34.9085 18.9913 35.5C18.9913 36.0915 19.1444 36.673 19.4358 37.1878C19.7271 37.7025 20.1468 38.1331 20.6539 38.4376C20.6538 38.4376 20.6539 38.4376 20.6539 38.4376L23.3652 40.0648V45.125H25.1152V46H9.36523V45.125H11.1152V40.0648L13.8266 38.4376C14.3339 38.1333 14.7538 37.7027 15.0453 37.1879C15.3368 36.6731 15.49 36.0916 15.49 35.5C15.49 34.9084 15.3368 34.3269 15.0453 33.8121C14.7538 33.2973 14.334 32.8668 13.8267 32.5624L11.1152 30.9352V25.875ZM11.9902 25.875V30.4398L14.2768 31.8121C14.9137 32.1942 15.4408 32.7347 15.8067 33.3809C16.1727 34.0272 16.365 34.7573 16.365 35.5C16.365 36.2427 16.1727 36.9728 15.8067 37.6191C15.4408 38.2653 14.9137 38.8058 14.2768 39.1879L11.9902 40.5602V45.125H22.4902V40.5602L20.2036 39.1879C19.567 38.8056 19.04 38.265 18.6743 37.6188C18.3085 36.9725 18.1163 36.2426 18.1163 35.5C18.1163 34.7574 18.3085 34.0275 18.6743 33.3812C19.04 32.735 19.5669 32.1944 20.2035 31.8122L22.4902 30.4398V25.875H11.9902Z" fill="#0B1319"/>
<path opacity="0.2" d="M24.8796 12.0153C25.3724 12.0153 25.7719 11.6158 25.7719 11.123C25.7719 10.6302 25.3724 10.2307 24.8796 10.2307C24.3868 10.2307 23.9873 10.6302 23.9873 11.123C23.9873 11.6158 24.3868 12.0153 24.8796 12.0153Z" fill="white"/>
</g>
</g>
</g>
<defs>
<clipPath id="clip0_351_4118">
<rect width="70" height="70" fill="white" transform="translate(0.5)"/>
</clipPath>
<clipPath id="clip1_351_4118">
<rect width="70" height="70" fill="white" transform="translate(0.5)"/>
</clipPath>
<clipPath id="clip2_351_4118">
<rect width="70" height="70" fill="white" transform="translate(0.5)"/>
</clipPath>
</defs>
</svg>
