<svg width="71" height="70" viewBox="0 0 71 70" fill="none" xmlns="http://www.w3.org/2000/svg">
<g clip-path="url(#clip0_351_4138)">
<g clip-path="url(#clip1_351_4138)">
<g clip-path="url(#clip2_351_4138)">
<path d="M59.5 1H11.5C5.97715 1 1.5 5.47715 1.5 11V59C1.5 64.5228 5.97715 69 11.5 69H59.5C65.0228 69 69.5 64.5228 69.5 59V11C69.5 5.47715 65.0228 1 59.5 1Z" fill="#F7F6FC"/>
<path d="M23.3572 1H11.5C5.97715 1 1.5 5.47716 1.5 11V22.8571" stroke="#0B1319" stroke-width="2"/>
<path d="M47.6426 69H59.4997C65.0226 69 69.4997 64.5228 69.4997 59V47.1429" stroke="#0B1319" stroke-width="2"/>
<path d="M69.4997 22.8571V11C69.4997 5.47715 65.0226 1 59.4997 1L47.6426 1" stroke="#0B1319" stroke-width="2"/>
<path d="M1.50001 47.1429L1.5 59C1.5 64.5228 5.97716 69 11.5 69H23.3572" stroke="#0B1319" stroke-width="2"/>
<path d="M35.6157 67.28C35.6156 67.3987 35.5705 67.5131 35.4894 67.5999C35.4084 67.6866 35.2974 67.7394 35.1789 67.7475C35.0604 67.7556 34.9432 67.7184 34.8511 67.6435C34.759 67.5685 34.6987 67.4614 34.6825 67.3437L34.6782 67.28V64.625H34.2119C33.8557 64.625 33.5127 64.4899 33.2523 64.2469C32.9918 64.0038 32.8333 63.671 32.8088 63.3156L32.8057 63.2194V59.7819C32.8055 59.4895 32.8965 59.2043 33.066 58.966C33.2355 58.7278 33.475 58.5483 33.7513 58.4525V55.7169C33.7513 55.6036 33.7923 55.4941 33.8668 55.4088C33.9412 55.3234 34.0441 55.2679 34.1563 55.2525L34.2194 55.2481H38.2825C38.3958 55.2481 38.5053 55.2891 38.5906 55.3636C38.676 55.438 38.7315 55.5409 38.7469 55.6531L38.7513 55.7169V58.4581C39.0062 58.5502 39.2291 58.714 39.3932 58.9298C39.5573 59.1455 39.6556 59.4041 39.6763 59.6744L39.6807 59.7806V63.2181C39.6809 63.5745 39.5457 63.9178 39.3025 64.1784C39.0593 64.4389 38.7263 64.5975 38.3707 64.6219L38.2744 64.625H37.8032L37.8038 67.2781C37.8038 67.3969 37.7586 67.5112 37.6776 67.598C37.5965 67.6848 37.4855 67.7375 37.367 67.7456C37.2485 67.7537 37.1314 67.7165 37.0392 67.6416C36.9471 67.5666 36.8869 67.4595 36.8707 67.3419L36.8657 67.2781V64.625H35.6157V67.2812V67.28ZM37.8138 56.1856H34.6882V58.3744H37.8138V56.1856Z" fill="black"/>
<path d="M45.0007 5H26.2783C24.3243 5 22.7402 6.45011 22.7402 8.23891V49.9183C22.7402 51.7071 24.3243 53.1572 26.2783 53.1572H45.0007C46.9547 53.1572 48.5388 51.7071 48.5388 49.9183V8.23891C48.5388 6.45011 46.9547 5 45.0007 5Z" fill="#0B1319"/>
<path fill-rule="evenodd" clip-rule="evenodd" d="M35.7528 19.5436L32.8916 22.7493H35.2113L32.3922 25.9268L38.6767 21.7656L36.357 21.797L38.3693 19.5436H39.6339V22.7493L38.509 25.9271L35.4487 27.5316L32.3919 25.9271L32.3922 25.9268L31.2637 22.7493V19.5436H35.4488H35.7528Z" fill="white"/>
</g>
</g>
</g>
<defs>
<clipPath id="clip0_351_4138">
<rect width="70" height="70" fill="white" transform="translate(0.5)"/>
</clipPath>
<clipPath id="clip1_351_4138">
<rect width="70" height="70" fill="white" transform="translate(0.5)"/>
</clipPath>
<clipPath id="clip2_351_4138">
<rect width="70" height="70" fill="white" transform="translate(0.5)"/>
</clipPath>
</defs>
</svg>
