<svg width="74" height="90" viewBox="0 0 74 90" fill="none" xmlns="http://www.w3.org/2000/svg">
<path d="M37 90C13.7118 72.1308 0 61.8886 0 32.4697V13.7288L37 0L74 13.7288V32.4697C74 61.8886 60.2882 71.9128 37 90Z" fill="#5845CD"/>
<path d="M40.4033 31.0701V28.7804C40.4033 27.2266 41.6474 26 43.2232 26H44.4673" stroke="white" stroke-width="2" stroke-miterlimit="10"/>
<path d="M33.022 31.0701V28.7804C33.022 27.2266 31.7779 26 30.2021 26H28.958" stroke="white" stroke-width="2" stroke-miterlimit="10"/>
<path d="M27.3818 39.6564C27.3818 34.5863 31.5288 30.4976 36.6709 30.4976C41.8131 30.4976 45.96 34.5863 45.96 39.6564" stroke="white" stroke-width="2" stroke-miterlimit="10"/>
<path d="M53.4242 34.668C53.4242 39.7381 49.2773 43.8268 44.1351 43.8268H29.2891C24.2299 43.8268 20 39.7381 20 34.668" stroke="white" stroke-width="1.9" stroke-miterlimit="10"/>
<path d="M20 60.1823C20 55.1122 24.1469 51.0234 29.2891 51.0234H44.1351C49.2773 51.0234 53.4242 55.1122 53.4242 60.1823" stroke="white" stroke-width="1.9" stroke-miterlimit="10"/>
<path d="M46.043 43.0908V49.8782C46.043 54.9483 41.8132 59.0371 36.7539 59.0371C31.6118 59.0371 27.4648 54.8665 27.4648 49.8782V43.0908" stroke="white" stroke-width="2" stroke-miterlimit="10"/>
<path opacity="0.2" fill-rule="evenodd" clip-rule="evenodd" d="M37 90C37.4788 89.6281 37.9536 89.2596 38.4244 88.8943C60.8463 71.4924 74 61.2837 74 32.4697V13.7288L37 0V90Z" fill="white"/>
</svg>
